<?xml version="1.0" encoding="UTF-8" standalone="no"?>
<svg xmlns:rdf="http://www.w3.org/1999/02/22-rdf-syntax-ns#" xmlns="http://www.w3.org/2000/svg" height="100" width="100" version="1.1" xmlns:cc="http://creativecommons.org/ns#" xmlns:dc="http://purl.org/dc/elements/1.1/">
 <metadata>
  <rdf:RDF>
   <cc:Work rdf:about="">
    <dc:format>image/svg+xml</dc:format>
    <dc:type rdf:resource="http://purl.org/dc/dcmitype/StillImage"/>
    <dc:title/>
   </cc:Work>
  </rdf:RDF>
 </metadata>
 <path fill="#000" d="m52,0.0625,0,42.5l21.25-36.843c-6.386-3.3586-13.608-5.354-21.25-5.6563z"/>
 <path fill="#000" d="M23.312,7.7188c-6.291,3.9772-11.616,9.3022-15.593,15.593l36.844,21.25z"/>
 <path fill="#000" d="M94.281,26.75,57.438,48h42.5c-0.303-7.642-2.298-14.864-5.657-21.25z"/>
 <path fill="#000" d="m0.0625,52c0.30234,7.6422,2.2977,14.864,5.6562,21.25l36.843-21.25z"/>
 <path fill="#000" d="m55.438,55.438,21.25,36.844c6.291-3.978,11.616-9.303,15.593-15.594z"/>
 <path fill="#000" d="M48,57.438,26.75,94.281c6.386,3.3585,13.608,5.3539,21.25,5.6562z"/>
 <path d="M-68.644,13.798a28.814,23.517,0,0,1,-10.547,-8.6073l24.953-11.758z" transform="matrix(1.7352942,0,0,2.1261262,144.11765,63.963964)" fill="#00F"/>
 <path d="m-83.051-6.5678a28.814,23.517,0,0,1,3.8603,-11.758l24.953,11.758z" transform="matrix(1.7352942,0,0,2.1261262,144.11765,63.963964)" fill="#F60"/>
 <path d="m-39.831,13.798a28.814,23.517,0,0,1,-14.407,3.1507v-23.517z" transform="matrix(1.7352942,0,0,2.1261262,144.11765,63.963964)" fill="#FF0"/>
 <path d="m-39.831,13.798a28.814,23.517,0,0,1,-14.407,3.1507v-23.517z" transform="matrix(0,1.7352942,2.1261262,0,63.963961,144.11765)" fill="#800000"/>
 <path d="M-68.644,13.798a28.814,23.517,0,0,1,-10.547,-8.6073l24.953-11.758z" transform="matrix(-1.7352942,0,0,-2.1261262,-44.117657,36.036032)" fill="#803300"/>
 <path d="m-39.831,13.798a28.814,23.517,0,0,1,-14.407,3.1507v-23.517z" transform="matrix(-1.7352942,0,0,-2.1261262,-44.117658,36.036035)" fill="#008000"/>
</svg>
