<?xml version="1.0" encoding="UTF-8" standalone="no"?>
<svg xmlns:rdf="http://www.w3.org/1999/02/22-rdf-syntax-ns#" xmlns="http://www.w3.org/2000/svg" height="223" width="100" version="1.1" xmlns:cc="http://creativecommons.org/ns#" xmlns:dc="http://purl.org/dc/elements/1.1/">
 <path d="m32.314,222.03c-0.82081-0.8207-0.31901-2.0765,2.1516-5.3839,2.7525-3.6847,4.567-8.2758,4.567-11.554,0-1.1318-1.3713-7.4985-3.0473-14.148-3.3539-13.307-3.7941-18.172-2.1132-23.354,0.52876-1.6302,1.0101-4.8316,1.0697-7.1139,0.0891-3.4123-0.17386-4.747-1.4799-7.5128-3.1326-6.6332-4.4514-13.713-4.8749-26.168-0.30356-8.9281-0.18491-12.711,0.55188-17.598,0.51622-3.4234,1.1157-7.6917,1.3322-9.485s0.7642-4.1601,1.2171-5.2595c1.3627-3.3082,1.1019-14.859-0.45402-20.108-0.70468-2.3775-1.487-4.1115-1.7386-3.8533-0.25153,0.2582-0.88924,2.737-1.4171,5.5084-2.5072,13.163-2.3072,12.531-8.8173,27.862-1.5356,3.6165-2.0462,5.5531-1.8086,6.8601,0.35067,1.9293-0.5572,9.6466-1.5829,13.456-0.3365,1.2497-1.0647,2.4408-1.6182,2.6471-0.5535,0.20586-1.3321,0.82696-1.7303,1.3792-1.2432,1.7241-3.5377,1.7524-5.3542,0.0664-1.5752-1.4625-1.6259-1.7017-1.5487-7.3138,0.079596-5.7885,0.076824-5.8-1.1693-4.9272-1.1789,0.82516-3.9494,1.2269-3.9494,0.57193,0-0.72447,7.2683-9.1835,7.8979-9.1917,2.3284-0.031,2.9891-2.7899,3.9283-16.409,0.46867-6.7961,0.8695-9.1019,2.0837-11.987,0.82686-1.9645,1.5075-4.5803,1.5126-5.8128,0.005-1.2325,0.39573-3.8415,0.8681-5.7978s0.87252-5.9578,0.88922-8.8922c0.03485-6.1145,1.1509-11.599,2.8196-13.857,1.7775-2.4045,5.6822-4.2629,10.393-4.9462,4.5062-0.65371,6.6435-1.4836,9.6907-3.7628,1.4905-1.1148,1.9225-1.9561,2.2423-4.3676,0.28442-2.1441,0.15631-3.3655-0.4541-4.3291-0.46768-0.73833-1.0449-2.2723-1.2827-3.4088-0.23782-1.1365-0.81258-2.3444-1.2772-2.6841-0.46466-0.3398-1.1113-1.8036-1.4369-3.253-0.46961-2.0901-0.42044-2.7612,0.23772-3.244,0.49856-0.36573,0.95479-2.1703,1.1428-4.5202,0.41977-5.2454,1.385-7.0512,4.3173-8.0773,3.2841-1.1492,8.3406-1.2188,11.798-0.16246,3.5526,1.0854,4.6794,3.1779,4.7079,8.7426,0.01436,2.8239,0.22237,3.7051,0.87415,3.7051,1.3149,0,0.55509,5.0796-1.0088,6.7443-0.68985,0.73432-1.2559,1.8515-1.2579,2.4826-0.002,0.63107-0.40216,1.9115-0.88923,2.8454-1.3104,2.5126-1.1583,7.2179,0.27982,8.656,2.0736,2.0736,6.8115,4.0636,11.085,4.6558,9.8088,1.3593,12.301,5.0393,13.253,19.571,0.58848,8.9805,1.9626,17.761,3.1401,20.064,1.2204,2.3876,1.5002,4.1654,2.176,13.825,0.88343,12.629,0.95033,12.894,3.5867,14.239,1.226,0.62553,2.7729,2.0172,3.4375,3.0925,0.66461,1.0753,1.8919,2.5973,2.7274,3.3822,0.83547,0.7849,1.519,1.7807,1.519,2.2128,0,1.0499-2.0886,0.9985-3.7529-0.0908l-1.3399-0.87808,0.24759,5.6605c0.24178,5.5284,0.20922,5.7006-1.3935,7.3736-1.1685,1.2196-1.9149,1.5725-2.5919,1.2256-0.52299-0.26805-1.2663-0.37364-1.6518-0.23485-0.38548,0.13945-0.99509-0.29749-1.3547-0.9695-0.35959-0.6718-1.016-1.2216-1.4587-1.2216-0.44272,0-0.96492-0.41681-1.1605-0.92635-1.1373-2.9639-2.1426-9.2683-2.1426-13.437,0-4.5414-0.17947-5.2086-3.2786-12.188-4.3033-9.692-5.2715-12.701-6.7407-20.948-1.3678-7.6782-2.1275-10.234-2.6208-8.818-1.5498,4.4487-2.1651,7.8108-2.5057,13.691-0.34746,5.9998-0.24655,7.3188,0.79365,10.374,2.2113,6.4956,3.2729,18.112,2.9474,32.252-0.32093,13.941-1.0569,18.066-4.6286,25.943-2.0326,4.4828-2.3162,9.0972-0.81459,13.257,0.51505,1.4266,1.0692,4.5948,1.2315,7.0401,0.26005,3.9194-0.05355,5.8511-2.646,16.302-1.6176,6.521-3.1189,12.864-3.3364,14.097-0.5637,3.1938,1.6342,9.3924,4.8495,13.677,1.4315,1.9078,2.4596,3.842,2.2845,4.2981-0.47198,1.2298-13.542,1.194-14.567-0.04-0.5658-0.6817-0.56816-2.6968-0.01109-9.3368,0.63044-7.5126,0.57511-9.9046-0.49074-21.213-1.2279-13.027-1.1861-14.468,0.64354-22.231,0.87364-3.7062,0.54422-12.512-0.70967-18.97-0.31653-1.6302-0.76459-8.6328-0.99569-15.561l-0.4202-12.597h-3.2432l-0.34766,9.3367c-0.32738,8.7924-0.65012,12.728-2.2238,27.121-0.58819,5.3794-0.52172,6.5672,0.71843,12.836l1.3666,6.9083-1.2753,14.433c-0.70143,7.9383-1.1711,15.1-1.0437,15.915,1.2954,8.2894,1.5502,11.831,0.93396,12.982-0.61647,1.152-1.1667,1.2452-7.364,1.2452-3.6837,0-6.8756-0.1771-7.0929-0.3954z" stroke="#000" stroke-dasharray="none" stroke-miterlimit="4" stroke-width="1" fill="none"/>
 <path fill="#000" d="M87.625,85.656c-3.942,0.529-8.396,0.962-13.156,1.313,1.026,3.831,2.415,7.296,5.156,13.471,1.642,3.69,2.464,5.61,2.875,7.28,1.999-1.17,4.327-1.84,6.812-1.84,0.191,0,0.374,0.02,0.563,0.03-0.846-1.44-1.074-4.39-1.656-12.722-0.235-3.352-0.399-5.723-0.594-7.532zm-74.844,0.094c-0.163,1.414-0.32,3.095-0.469,5.25-0.597,8.666-1.101,12.91-1.968,14.88,0.115-0.01,0.227,0,0.344,0,2.605,0,5.032,0.75,7.093,2.03,0.3-1.06,0.753-2.35,1.469-4.03,3.921-9.239,5.421-12.695,6.531-16.849-4.695-0.343-9.09-0.762-13-1.281zm34.813,56.94c-0.155,1.87-0.325,3.93-0.563,6.34,0.247-2.43,0.438-4.46,0.594-6.34h-0.031zm5.094,0c0.159,2.7,0.345,4.81,0.5,6.09-0.145-1.33-0.317-3.52-0.469-6.09h-0.031zm1.031,9.62c0.105,0.72,0.197,1.45,0.281,2.19-0.084-0.74-0.176-1.47-0.281-2.19zm-7.657,5.78c-0.111,1.03-0.196,1.88-0.25,2.66,0.062-0.8,0.136-1.61,0.25-2.66zm-11.218,3.97c-0.176,2.01-0.554,4.26-0.969,5.53-1.681,5.19-1.229,10.04,2.125,23.35,1.646,6.53,2.984,12.77,3.031,14.06,0.846-0.16,1.702-0.25,2.594-0.25,1.498,0,2.936,0.25,4.281,0.69,0.145-2.93,0.494-7.78,0.969-13.16l1.281-14.44-1.375-6.9c-0.866-4.38-1.134-6.29-1.031-8.88h-10.906zm19.656,0c0.031,2.75-0.139,5.19-0.5,6.72-1.83,7.76-1.853,9.19-0.625,22.22,0.68,7.21,0.94,10.8,0.875,14.41,1.301-0.41,2.684-0.66,4.125-0.66,0.981,0,1.92,0.12,2.844,0.31-0.019-0.52,0.019-1.01,0.093-1.44,0.218-1.23,1.695-7.57,3.313-14.09,2.592-10.45,2.916-12.39,2.656-16.31-0.162-2.45-0.703-5.61-1.219-7.03-0.481-1.34-0.759-2.72-0.874-4.13h-10.688z"/>
</svg>
