<svg width="28" height="28" viewBox="0 0 28 28" fill="none" xmlns="http://www.w3.org/2000/svg">
<path d="M4.80859 27H13.2891V17.7578H10.2422V14.7109H13.2891V10.9023C13.2891 8.80226 14.9976 7.09375 17.0977 7.09375H20.9062V10.1406H17.8594C17.0193 10.1406 16.3359 10.824 16.3359 11.6641V14.7109H20.7688L20.261 17.7578H16.3359V27H23.1914C25.2915 27 27 25.2915 27 23.1914V4.80859C27 2.70851 25.2915 1 23.1914 1H4.80859C2.70851 1 1 2.70851 1 4.80859V23.1914C1 25.2915 2.70851 27 4.80859 27ZM2.52344 4.80859C2.52344 3.54858 3.54858 2.52344 4.80859 2.52344H23.1914C24.4514 2.52344 25.4766 3.54858 25.4766 4.80859V23.1914C25.4766 24.4514 24.4514 25.4766 23.1914 25.4766H17.8594V19.2812H21.5515L22.5672 13.1875H17.8594V11.6641H22.4297V5.57031H17.0977C14.1575 5.57031 11.7656 7.96219 11.7656 10.9023V13.1875H8.71875V19.2812H11.7656V25.4766H4.80859C3.54858 25.4766 2.52344 24.4514 2.52344 23.1914V4.80859Z" fill="black" stroke="white" stroke-width="0.8"/>
</svg>
