<svg width="474" height="60" viewBox="0 0 474 60" fill="none" xmlns="http://www.w3.org/2000/svg">
<path d="M3.87856 7.75907C6.02062 7.75907 7.75711 6.02258 7.75711 3.88051C7.75711 1.73844 6.02062 0.00195312 3.87856 0.00195312C1.73649 0.00195312 0 1.73844 0 3.88051C0 6.02258 1.73649 7.75907 3.87856 7.75907Z" fill="#F6E3E4"/>
<path d="M317.002 7.76102C319.144 7.76102 320.88 6.02453 320.88 3.88246C320.88 1.74039 319.144 0.00390625 317.002 0.00390625C314.86 0.00390625 313.123 1.74039 313.123 3.88246C313.123 6.02453 314.86 7.76102 317.002 7.76102Z" fill="#F6E3E4"/>
<path d="M160.44 7.76102C162.582 7.76102 164.319 6.02453 164.319 3.88246C164.319 1.74039 162.582 0.00390625 160.44 0.00390625C158.298 0.00390625 156.562 1.74039 156.562 3.88246C156.562 6.02453 158.298 7.76102 160.44 7.76102Z" fill="#F6E3E4"/>
<path d="M473.564 7.76102C475.706 7.76102 477.443 6.02453 477.443 3.88246C477.443 1.74039 475.706 0.00390625 473.564 0.00390625C471.422 0.00390625 469.686 1.74039 469.686 3.88246C469.686 6.02453 471.422 7.76102 473.564 7.76102Z" fill="#F6E3E4"/>
<path d="M121.303 7.91336C123.445 7.91336 125.182 6.17687 125.182 4.03481C125.182 1.89274 123.445 0.15625 121.303 0.15625C119.161 0.15625 117.425 1.89274 117.425 4.03481C117.425 6.17687 119.161 7.91336 121.303 7.91336Z" fill="#F6E3E4"/>
<path d="M434.427 7.91336C436.569 7.91336 438.306 6.17687 438.306 4.03481C438.306 1.89274 436.569 0.15625 434.427 0.15625C432.285 0.15625 430.549 1.89274 430.549 4.03481C430.549 6.17687 432.285 7.91336 434.427 7.91336Z" fill="#F6E3E4"/>
<path d="M277.866 7.91336C280.008 7.91336 281.744 6.17687 281.744 4.03481C281.744 1.89274 280.008 0.15625 277.866 0.15625C275.724 0.15625 273.987 1.89274 273.987 4.03481C273.987 6.17687 275.724 7.91336 277.866 7.91336Z" fill="#F6E3E4"/>
<path d="M82.1549 7.76102C84.297 7.76102 86.0335 6.02453 86.0335 3.88246C86.0335 1.74039 84.297 0.00390625 82.1549 0.00390625C80.0129 0.00390625 78.2764 1.74039 78.2764 3.88246C78.2764 6.02453 80.0129 7.76102 82.1549 7.76102Z" fill="#F6E3E4"/>
<path d="M395.278 7.76102C397.421 7.76102 399.157 6.02453 399.157 3.88246C399.157 1.74039 397.421 0.00390625 395.278 0.00390625C393.136 0.00390625 391.4 1.74039 391.4 3.88246C391.4 6.02453 393.136 7.76102 395.278 7.76102Z" fill="#F6E3E4"/>
<path d="M238.717 7.76102C240.859 7.76102 242.596 6.02453 242.596 3.88246C242.596 1.74039 240.859 0.00390625 238.717 0.00390625C236.575 0.00390625 234.839 1.74039 234.839 3.88246C234.839 6.02453 236.575 7.76102 238.717 7.76102Z" fill="#F6E3E4"/>
<path d="M43.0192 7.90946C45.1612 7.90946 46.8977 6.17297 46.8977 4.0309C46.8977 1.88883 45.1612 0.152344 43.0192 0.152344C40.8771 0.152344 39.1406 1.88883 39.1406 4.0309C39.1406 6.17297 40.8771 7.90946 43.0192 7.90946Z" fill="#F6E3E4"/>
<path d="M356.142 7.90946C358.284 7.90946 360.021 6.17297 360.021 4.0309C360.021 1.88883 358.284 0.152344 356.142 0.152344C354 0.152344 352.264 1.88883 352.264 4.0309C352.264 6.17297 354 7.90946 356.142 7.90946Z" fill="#F6E3E4"/>
<path d="M199.581 7.90946C201.723 7.90946 203.459 6.17297 203.459 4.0309C203.459 1.88883 201.723 0.152344 199.581 0.152344C197.439 0.152344 195.702 1.88883 195.702 4.0309C195.702 6.17297 197.439 7.90946 199.581 7.90946Z" fill="#F6E3E4"/>
<path d="M160.436 7.75711C162.578 7.75711 164.315 6.02062 164.315 3.87856C164.315 1.73649 162.578 0 160.436 0C158.294 0 156.558 1.73649 156.558 3.87856C156.558 6.02062 158.294 7.75711 160.436 7.75711Z" fill="#F6E3E4"/>
<path d="M473.56 7.75711C475.702 7.75711 477.438 6.02062 477.438 3.87856C477.438 1.73649 475.702 0 473.56 0C471.418 0 469.681 1.73649 469.681 3.87856C469.681 6.02062 471.418 7.75711 473.56 7.75711Z" fill="#F6E3E4"/>
<path d="M316.998 7.75711C319.14 7.75711 320.876 6.02062 320.876 3.87856C320.876 1.73649 319.14 0 316.998 0C314.856 0 313.119 1.73649 313.119 3.87856C313.119 6.02062 314.856 7.75711 316.998 7.75711Z" fill="#F6E3E4"/>
<path d="M3.87856 48.2947C6.02063 48.2947 7.75712 46.5582 7.75712 44.4162C7.75712 42.2741 6.02063 40.5376 3.87856 40.5376C1.73649 40.5376 0 42.2741 0 44.4162C0 46.5582 1.73649 48.2947 3.87856 48.2947Z" fill="#F6E3E4"/>
<path d="M317.002 48.2947C319.144 48.2947 320.88 46.5582 320.88 44.4162C320.88 42.2741 319.144 40.5376 317.002 40.5376C314.86 40.5376 313.123 42.2741 313.123 44.4162C313.123 46.5582 314.86 48.2947 317.002 48.2947Z" fill="#F6E3E4"/>
<path d="M160.44 48.2947C162.582 48.2947 164.319 46.5582 164.319 44.4162C164.319 42.2741 162.582 40.5376 160.44 40.5376C158.298 40.5376 156.562 42.2741 156.562 44.4162C156.562 46.5582 158.298 48.2947 160.44 48.2947Z" fill="#F6E3E4"/>
<path d="M473.564 48.2947C475.706 48.2947 477.443 46.5582 477.443 44.4162C477.443 42.2741 475.706 40.5376 473.564 40.5376C471.422 40.5376 469.686 42.2741 469.686 44.4162C469.686 46.5582 471.422 48.2947 473.564 48.2947Z" fill="#F6E3E4"/>
<path d="M121.303 48.4475C123.445 48.4475 125.182 46.7111 125.182 44.569C125.182 42.4269 123.445 40.6904 121.303 40.6904C119.161 40.6904 117.425 42.4269 117.425 44.569C117.425 46.7111 119.161 48.4475 121.303 48.4475Z" fill="#F6E3E4"/>
<path d="M434.427 48.4475C436.569 48.4475 438.306 46.7111 438.306 44.569C438.306 42.4269 436.569 40.6904 434.427 40.6904C432.285 40.6904 430.549 42.4269 430.549 44.569C430.549 46.7111 432.285 48.4475 434.427 48.4475Z" fill="#F6E3E4"/>
<path d="M277.866 48.4475C280.008 48.4475 281.744 46.7111 281.744 44.569C281.744 42.4269 280.008 40.6904 277.866 40.6904C275.724 40.6904 273.987 42.4269 273.987 44.569C273.987 46.7111 275.724 48.4475 277.866 48.4475Z" fill="#F6E3E4"/>
<path d="M43.0192 48.4436C45.1612 48.4436 46.8977 46.7071 46.8977 44.5651C46.8977 42.423 45.1612 40.6865 43.0192 40.6865C40.8771 40.6865 39.1406 42.423 39.1406 44.5651C39.1406 46.7071 40.8771 48.4436 43.0192 48.4436Z" fill="#F6E3E4"/>
<path d="M356.142 48.4436C358.284 48.4436 360.021 46.7071 360.021 44.5651C360.021 42.423 358.284 40.6865 356.142 40.6865C354 40.6865 352.264 42.423 352.264 44.5651C352.264 46.7071 354 48.4436 356.142 48.4436Z" fill="#F6E3E4"/>
<path d="M199.581 48.4436C201.723 48.4436 203.459 46.7071 203.459 44.5651C203.459 42.423 201.723 40.6865 199.581 40.6865C197.439 40.6865 195.702 42.423 195.702 44.5651C195.702 46.7071 197.439 48.4436 199.581 48.4436Z" fill="#F6E3E4"/>
<path d="M160.436 48.2908C162.578 48.2908 164.315 46.5543 164.315 44.4122C164.315 42.2702 162.578 40.5337 160.436 40.5337C158.294 40.5337 156.558 42.2702 156.558 44.4122C156.558 46.5543 158.294 48.2908 160.436 48.2908Z" fill="#F6E3E4"/>
<path d="M473.56 48.2908C475.702 48.2908 477.438 46.5543 477.438 44.4122C477.438 42.2702 475.702 40.5337 473.56 40.5337C471.418 40.5337 469.681 42.2702 469.681 44.4122C469.681 46.5543 471.418 48.2908 473.56 48.2908Z" fill="#F6E3E4"/>
<path d="M316.998 48.2908C319.14 48.2908 320.876 46.5543 320.876 44.4122C320.876 42.2702 319.14 40.5337 316.998 40.5337C314.856 40.5337 313.119 42.2702 313.119 44.4122C313.119 46.5543 314.856 48.2908 316.998 48.2908Z" fill="#F6E3E4"/>
<path d="M82.1549 48.4392C84.297 48.4392 86.0335 46.7028 86.0335 44.5607C86.0335 42.4186 84.297 40.6821 82.1549 40.6821C80.0129 40.6821 78.2764 42.4186 78.2764 44.5607C78.2764 46.7028 80.0129 48.4392 82.1549 48.4392Z" fill="#F6E3E4"/>
<path d="M395.278 48.4392C397.421 48.4392 399.157 46.7028 399.157 44.5607C399.157 42.4186 397.421 40.6821 395.278 40.6821C393.136 40.6821 391.4 42.4186 391.4 44.5607C391.4 46.7028 393.136 48.4392 395.278 48.4392Z" fill="#F6E3E4"/>
<path d="M238.717 48.4392C240.859 48.4392 242.596 46.7028 242.596 44.5607C242.596 42.4186 240.859 40.6821 238.717 40.6821C236.575 40.6821 234.839 42.4186 234.839 44.5607C234.839 46.7028 236.575 48.4392 238.717 48.4392Z" fill="#F6E3E4"/>
</svg>
