<svg viewBox="0 0 15 14" fill="none" xmlns="http://www.w3.org/2000/svg">
<path d="M0.677033 6.51233C0.50741 6.68196 0.26509 6.65772 0.0954669 6.4881C-0.0499247 6.31848 -0.0256928 6.05193 0.143931 5.90653L6.73502 0.0908698C6.90464 -0.0302899 7.12273 -0.0302899 7.29235 0.0908698L13.8834 5.90653C14.0531 6.05193 14.0531 6.31848 13.9077 6.4881C13.7623 6.65772 13.4957 6.68196 13.3261 6.51233L12.9626 6.19732L10.9514 13.7092C10.9029 13.8788 10.7333 14 10.5394 14H8.64934C8.40702 14 8.2374 13.8304 8.2374 13.6123V8.59628C8.2374 8.47512 8.21316 8.35396 8.1647 8.28126H8.18893C7.51044 8.2328 6.51693 8.2328 5.8142 8.28126H5.83844H5.86267C5.8142 8.35396 5.78997 8.47512 5.78997 8.59628V13.6123C5.78997 13.8304 5.59612 14 5.37803 14H3.46371C3.26985 14 3.10023 13.8788 3.07599 13.685L1.06474 6.19732L0.677033 6.51233ZM9.06128 8.59628V13.2003H10.2244L12.2841 5.59152L7.00157 0.963219L1.74324 5.59152L3.77872 13.2003H4.96609V8.59628C4.96609 8.32973 5.03878 8.06318 5.15994 7.86932C5.30533 7.60277 5.54765 7.45738 5.83844 7.45738H8.18893C8.47972 7.45738 8.6978 7.60277 8.86743 7.86932C8.98859 8.06318 9.06128 8.32973 9.06128 8.59628ZM5.8142 8.28126C5.8142 8.28126 5.8142 8.28126 5.83844 8.28126H5.8142Z" fill="black"/>
</svg>
