<svg width="27" height="28" viewBox="0 0 27 28" fill="none" xmlns="http://www.w3.org/2000/svg">
<path d="M4.3418 27H22.7246C24.8247 27 26.5332 25.2915 26.5332 23.1914V4.80859C26.5332 2.70851 24.8247 1 22.7246 1H4.3418C2.24171 1 0.533203 2.70851 0.533203 4.80859V23.1914C0.533203 25.2915 2.24171 27 4.3418 27ZM2.05664 4.80859C2.05664 3.54858 3.08179 2.52344 4.3418 2.52344H22.7246C23.9846 2.52344 25.0098 3.54858 25.0098 4.80859V23.1914C25.0098 24.4514 23.9846 25.4766 22.7246 25.4766H4.3418C3.08179 25.4766 2.05664 24.4514 2.05664 23.1914V4.80859Z" fill="black" stroke="white" stroke-width="0.8"/>
<path d="M13.5332 20.8555C17.3132 20.8555 20.3887 17.78 20.3887 14C20.3887 10.22 17.3132 7.14453 13.5332 7.14453C9.75317 7.14453 6.67773 10.22 6.67773 14C6.67773 17.78 9.75317 20.8555 13.5332 20.8555ZM13.5332 8.66797C16.4734 8.66797 18.8652 11.0598 18.8652 14C18.8652 16.9402 16.4734 19.332 13.5332 19.332C10.593 19.332 8.20117 16.9402 8.20117 14C8.20117 11.0598 10.593 8.66797 13.5332 8.66797Z" fill="black" stroke="white" stroke-width="0.8"/>
<path d="M21.1504 8.66797C22.4104 8.66797 23.4355 7.64282 23.4355 6.38281C23.4355 5.1228 22.4104 4.09766 21.1504 4.09766C19.8904 4.09766 18.8652 5.1228 18.8652 6.38281C18.8652 7.64282 19.8904 8.66797 21.1504 8.66797ZM21.1504 5.62109C21.5703 5.62109 21.9121 5.96288 21.9121 6.38281C21.9121 6.80275 21.5703 7.14453 21.1504 7.14453C20.7305 7.14453 20.3887 6.80275 20.3887 6.38281C20.3887 5.96288 20.7305 5.62109 21.1504 5.62109Z" fill="black" stroke="white" stroke-width="0.8"/>
</svg>
