<svg width="634" height="321" viewBox="0 0 634 321" fill="none" xmlns="http://www.w3.org/2000/svg">
<path d="M3.87856 7.75931C6.02062 7.75931 7.75711 6.02282 7.75711 3.88075C7.75711 1.73869 6.02062 0.00219727 3.87856 0.00219727C1.73649 0.00219727 0 1.73869 0 3.88075C0 6.02282 1.73649 7.75931 3.87856 7.75931Z" fill="#E3E3E3"/>
<path d="M317.002 7.76078C319.144 7.76078 320.881 6.02429 320.881 3.88222C320.881 1.74015 319.144 0.00366211 317.002 0.00366211C314.86 0.00366211 313.124 1.74015 313.124 3.88222C313.124 6.02429 314.86 7.76078 317.002 7.76078Z" fill="#E3E3E3"/>
<path d="M160.44 7.76078C162.582 7.76078 164.319 6.02429 164.319 3.88222C164.319 1.74015 162.582 0.00366211 160.44 0.00366211C158.298 0.00366211 156.562 1.74015 156.562 3.88222C156.562 6.02429 158.298 7.76078 160.44 7.76078Z" fill="#E3E3E3"/>
<path d="M473.564 7.76078C475.706 7.76078 477.443 6.02429 477.443 3.88222C477.443 1.74015 475.706 0.00366211 473.564 0.00366211C471.422 0.00366211 469.686 1.74015 469.686 3.88222C469.686 6.02429 471.422 7.76078 473.564 7.76078Z" fill="#E3E3E3"/>
<path d="M121.304 7.91336C123.446 7.91336 125.182 6.17687 125.182 4.03481C125.182 1.89274 123.446 0.15625 121.304 0.15625C119.162 0.15625 117.425 1.89274 117.425 4.03481C117.425 6.17687 119.162 7.91336 121.304 7.91336Z" fill="#E3E3E3"/>
<path d="M434.427 7.91336C436.569 7.91336 438.306 6.17687 438.306 4.03481C438.306 1.89274 436.569 0.15625 434.427 0.15625C432.285 0.15625 430.549 1.89274 430.549 4.03481C430.549 6.17687 432.285 7.91336 434.427 7.91336Z" fill="#E3E3E3"/>
<path d="M277.865 7.91336C280.007 7.91336 281.744 6.17687 281.744 4.03481C281.744 1.89274 280.007 0.15625 277.865 0.15625C275.723 0.15625 273.987 1.89274 273.987 4.03481C273.987 6.17687 275.723 7.91336 277.865 7.91336Z" fill="#E3E3E3"/>
<path d="M590.989 7.91336C593.131 7.91336 594.867 6.17687 594.867 4.03481C594.867 1.89274 593.131 0.15625 590.989 0.15625C588.847 0.15625 587.11 1.89274 587.11 4.03481C587.11 6.17687 588.847 7.91336 590.989 7.91336Z" fill="#E3E3E3"/>
<path d="M82.1549 7.76078C84.297 7.76078 86.0335 6.02429 86.0335 3.88222C86.0335 1.74015 84.297 0.00366211 82.1549 0.00366211C80.0129 0.00366211 78.2764 1.74015 78.2764 3.88222C78.2764 6.02429 80.0129 7.76078 82.1549 7.76078Z" fill="#E3E3E3"/>
<path d="M395.278 7.76078C397.421 7.76078 399.157 6.02429 399.157 3.88222C399.157 1.74015 397.421 0.00366211 395.278 0.00366211C393.136 0.00366211 391.4 1.74015 391.4 3.88222C391.4 6.02429 393.136 7.76078 395.278 7.76078Z" fill="#E3E3E3"/>
<path d="M238.717 7.76078C240.859 7.76078 242.595 6.02429 242.595 3.88222C242.595 1.74015 240.859 0.00366211 238.717 0.00366211C236.575 0.00366211 234.838 1.74015 234.838 3.88222C234.838 6.02429 236.575 7.76078 238.717 7.76078Z" fill="#E3E3E3"/>
<path d="M551.84 7.76078C553.983 7.76078 555.719 6.02429 555.719 3.88222C555.719 1.74015 553.983 0.00366211 551.84 0.00366211C549.698 0.00366211 547.962 1.74015 547.962 3.88222C547.962 6.02429 549.698 7.76078 551.84 7.76078Z" fill="#E3E3E3"/>
<path d="M43.0192 7.90946C45.1612 7.90946 46.8977 6.17297 46.8977 4.0309C46.8977 1.88883 45.1612 0.152344 43.0192 0.152344C40.8771 0.152344 39.1406 1.88883 39.1406 4.0309C39.1406 6.17297 40.8771 7.90946 43.0192 7.90946Z" fill="#E3E3E3"/>
<path d="M356.143 7.90946C358.285 7.90946 360.021 6.17297 360.021 4.0309C360.021 1.88883 358.285 0.152344 356.143 0.152344C354.001 0.152344 352.264 1.88883 352.264 4.0309C352.264 6.17297 354.001 7.90946 356.143 7.90946Z" fill="#E3E3E3"/>
<path d="M199.581 7.90946C201.723 7.90946 203.459 6.17297 203.459 4.0309C203.459 1.88883 201.723 0.152344 199.581 0.152344C197.439 0.152344 195.702 1.88883 195.702 4.0309C195.702 6.17297 197.439 7.90946 199.581 7.90946Z" fill="#E3E3E3"/>
<path d="M512.704 7.90946C514.846 7.90946 516.583 6.17297 516.583 4.0309C516.583 1.88883 514.846 0.152344 512.704 0.152344C510.562 0.152344 508.826 1.88883 508.826 4.0309C508.826 6.17297 510.562 7.90946 512.704 7.90946Z" fill="#E3E3E3"/>
<path d="M160.436 7.75711C162.578 7.75711 164.315 6.02062 164.315 3.87856C164.315 1.73649 162.578 0 160.436 0C158.294 0 156.558 1.73649 156.558 3.87856C156.558 6.02062 158.294 7.75711 160.436 7.75711Z" fill="#E3E3E3"/>
<path d="M473.56 7.75711C475.702 7.75711 477.438 6.02062 477.438 3.87856C477.438 1.73649 475.702 0 473.56 0C471.418 0 469.681 1.73649 469.681 3.87856C469.681 6.02062 471.418 7.75711 473.56 7.75711Z" fill="#E3E3E3"/>
<path d="M316.998 7.75711C319.14 7.75711 320.876 6.02062 320.876 3.87856C320.876 1.73649 319.14 0 316.998 0C314.856 0 313.119 1.73649 313.119 3.87856C313.119 6.02062 314.856 7.75711 316.998 7.75711Z" fill="#E3E3E3"/>
<path d="M630.121 7.75711C632.263 7.75711 634 6.02062 634 3.87856C634 1.73649 632.263 0 630.121 0C627.979 0 626.243 1.73649 626.243 3.87856C626.243 6.02062 627.979 7.75711 630.121 7.75711Z" fill="#E3E3E3"/>
<path d="M3.87856 85.8933C6.02062 85.8933 7.75711 84.1569 7.75711 82.0148C7.75711 79.8727 6.02062 78.1362 3.87856 78.1362C1.73649 78.1362 0 79.8727 0 82.0148C0 84.1569 1.73649 85.8933 3.87856 85.8933Z" fill="#E3E3E3"/>
<path d="M317.002 85.8933C319.144 85.8933 320.881 84.1569 320.881 82.0148C320.881 79.8727 319.144 78.1362 317.002 78.1362C314.86 78.1362 313.124 79.8727 313.124 82.0148C313.124 84.1569 314.86 85.8933 317.002 85.8933Z" fill="#E3E3E3"/>
<path d="M160.44 85.8933C162.582 85.8933 164.319 84.1569 164.319 82.0148C164.319 79.8727 162.582 78.1362 160.44 78.1362C158.298 78.1362 156.562 79.8727 156.562 82.0148C156.562 84.1569 158.298 85.8933 160.44 85.8933Z" fill="#E3E3E3"/>
<path d="M473.564 85.8933C475.706 85.8933 477.443 84.1569 477.443 82.0148C477.443 79.8727 475.706 78.1362 473.564 78.1362C471.422 78.1362 469.686 79.8727 469.686 82.0148C469.686 84.1569 471.422 85.8933 473.564 85.8933Z" fill="#E3E3E3"/>
<path d="M121.304 86.0457C123.446 86.0457 125.182 84.3092 125.182 82.1671C125.182 80.0251 123.446 78.2886 121.304 78.2886C119.162 78.2886 117.425 80.0251 117.425 82.1671C117.425 84.3092 119.162 86.0457 121.304 86.0457Z" fill="#E3E3E3"/>
<path d="M434.427 86.0457C436.569 86.0457 438.306 84.3092 438.306 82.1671C438.306 80.0251 436.569 78.2886 434.427 78.2886C432.285 78.2886 430.549 80.0251 430.549 82.1671C430.549 84.3092 432.285 86.0457 434.427 86.0457Z" fill="#E3E3E3"/>
<path d="M277.865 86.0457C280.007 86.0457 281.744 84.3092 281.744 82.1671C281.744 80.0251 280.007 78.2886 277.865 78.2886C275.723 78.2886 273.987 80.0251 273.987 82.1671C273.987 84.3092 275.723 86.0457 277.865 86.0457Z" fill="#E3E3E3"/>
<path d="M590.989 86.0457C593.131 86.0457 594.867 84.3092 594.867 82.1671C594.867 80.0251 593.131 78.2886 590.989 78.2886C588.847 78.2886 587.11 80.0251 587.11 82.1671C587.11 84.3092 588.847 86.0457 590.989 86.0457Z" fill="#E3E3E3"/>
<path d="M43.0192 86.042C45.1612 86.042 46.8977 84.3055 46.8977 82.1635C46.8977 80.0214 45.1612 78.2849 43.0192 78.2849C40.8771 78.2849 39.1406 80.0214 39.1406 82.1635C39.1406 84.3055 40.8771 86.042 43.0192 86.042Z" fill="#E3E3E3"/>
<path d="M356.143 86.042C358.285 86.042 360.021 84.3055 360.021 82.1635C360.021 80.0214 358.285 78.2849 356.143 78.2849C354.001 78.2849 352.264 80.0214 352.264 82.1635C352.264 84.3055 354.001 86.042 356.143 86.042Z" fill="#E3E3E3"/>
<path d="M199.581 86.042C201.723 86.042 203.459 84.3055 203.459 82.1635C203.459 80.0214 201.723 78.2849 199.581 78.2849C197.439 78.2849 195.702 80.0214 195.702 82.1635C195.702 84.3055 197.439 86.042 199.581 86.042Z" fill="#E3E3E3"/>
<path d="M512.704 86.042C514.846 86.042 516.583 84.3055 516.583 82.1635C516.583 80.0214 514.846 78.2849 512.704 78.2849C510.562 78.2849 508.826 80.0214 508.826 82.1635C508.826 84.3055 510.562 86.042 512.704 86.042Z" fill="#E3E3E3"/>
<path d="M160.436 85.8889C162.578 85.8889 164.315 84.1525 164.315 82.0104C164.315 79.8683 162.578 78.1318 160.436 78.1318C158.294 78.1318 156.558 79.8683 156.558 82.0104C156.558 84.1525 158.294 85.8889 160.436 85.8889Z" fill="#E3E3E3"/>
<path d="M473.56 85.8889C475.702 85.8889 477.438 84.1525 477.438 82.0104C477.438 79.8683 475.702 78.1318 473.56 78.1318C471.418 78.1318 469.681 79.8683 469.681 82.0104C469.681 84.1525 471.418 85.8889 473.56 85.8889Z" fill="#E3E3E3"/>
<path d="M316.998 85.8889C319.14 85.8889 320.876 84.1525 320.876 82.0104C320.876 79.8683 319.14 78.1318 316.998 78.1318C314.856 78.1318 313.119 79.8683 313.119 82.0104C313.119 84.1525 314.856 85.8889 316.998 85.8889Z" fill="#E3E3E3"/>
<path d="M630.121 85.8889C632.263 85.8889 634 84.1525 634 82.0104C634 79.8683 632.263 78.1318 630.121 78.1318C627.979 78.1318 626.243 79.8683 626.243 82.0104C626.243 84.1525 627.979 85.8889 630.121 85.8889Z" fill="#E3E3E3"/>
<path d="M82.1593 86.042C84.3014 86.042 86.0379 84.3055 86.0379 82.1635C86.0379 80.0214 84.3014 78.2849 82.1593 78.2849C80.0172 78.2849 78.2808 80.0214 78.2808 82.1635C78.2808 84.3055 80.0172 86.042 82.1593 86.042Z" fill="#E3E3E3"/>
<path d="M395.283 86.042C397.425 86.042 399.161 84.3055 399.161 82.1635C399.161 80.0214 397.425 78.2849 395.283 78.2849C393.141 78.2849 391.404 80.0214 391.404 82.1635C391.404 84.3055 393.141 86.042 395.283 86.042Z" fill="#E3E3E3"/>
<path d="M238.721 86.042C240.863 86.042 242.6 84.3055 242.6 82.1635C242.6 80.0214 240.863 78.2849 238.721 78.2849C236.579 78.2849 234.843 80.0214 234.843 82.1635C234.843 84.3055 236.579 86.042 238.721 86.042Z" fill="#E3E3E3"/>
<path d="M551.845 86.042C553.987 86.042 555.723 84.3055 555.723 82.1635C555.723 80.0214 553.987 78.2849 551.845 78.2849C549.703 78.2849 547.966 80.0214 547.966 82.1635C547.966 84.3055 549.703 86.042 551.845 86.042Z" fill="#E3E3E3"/>
<path d="M3.87855 164.178C6.02062 164.178 7.75711 162.442 7.75711 160.299C7.75711 158.157 6.02062 156.421 3.87855 156.421C1.73649 156.421 0 158.157 0 160.299C0 162.442 1.73649 164.178 3.87855 164.178Z" fill="#E3E3E3"/>
<path d="M317.002 164.178C319.144 164.178 320.881 162.442 320.881 160.299C320.881 158.157 319.144 156.421 317.002 156.421C314.86 156.421 313.124 158.157 313.124 160.299C313.124 162.442 314.86 164.178 317.002 164.178Z" fill="#E3E3E3"/>
<path d="M160.44 164.178C162.582 164.178 164.319 162.442 164.319 160.299C164.319 158.157 162.582 156.421 160.44 156.421C158.298 156.421 156.562 158.157 156.562 160.299C156.562 162.442 158.298 164.178 160.44 164.178Z" fill="#E3E3E3"/>
<path d="M473.564 164.178C475.706 164.178 477.443 162.442 477.443 160.299C477.443 158.157 475.706 156.421 473.564 156.421C471.422 156.421 469.686 158.157 469.686 160.299C469.686 162.442 471.422 164.178 473.564 164.178Z" fill="#E3E3E3"/>
<path d="M121.304 164.327C123.446 164.327 125.182 162.59 125.182 160.448C125.182 158.306 123.446 156.57 121.304 156.57C119.162 156.57 117.425 158.306 117.425 160.448C117.425 162.59 119.162 164.327 121.304 164.327Z" fill="#E3E3E3"/>
<path d="M434.427 164.327C436.569 164.327 438.306 162.59 438.306 160.448C438.306 158.306 436.569 156.57 434.427 156.57C432.285 156.57 430.549 158.306 430.549 160.448C430.549 162.59 432.285 164.327 434.427 164.327Z" fill="#E3E3E3"/>
<path d="M277.865 164.327C280.007 164.327 281.744 162.59 281.744 160.448C281.744 158.306 280.007 156.57 277.865 156.57C275.723 156.57 273.987 158.306 273.987 160.448C273.987 162.59 275.723 164.327 277.865 164.327Z" fill="#E3E3E3"/>
<path d="M590.989 164.327C593.131 164.327 594.867 162.59 594.867 160.448C594.867 158.306 593.131 156.57 590.989 156.57C588.847 156.57 587.11 158.306 587.11 160.448C587.11 162.59 588.847 164.327 590.989 164.327Z" fill="#E3E3E3"/>
<path d="M82.1549 164.178C84.297 164.178 86.0335 162.442 86.0335 160.299C86.0335 158.157 84.297 156.421 82.1549 156.421C80.0129 156.421 78.2764 158.157 78.2764 160.299C78.2764 162.442 80.0129 164.178 82.1549 164.178Z" fill="#E3E3E3"/>
<path d="M395.278 164.178C397.421 164.178 399.157 162.442 399.157 160.299C399.157 158.157 397.421 156.421 395.278 156.421C393.136 156.421 391.4 158.157 391.4 160.299C391.4 162.442 393.136 164.178 395.278 164.178Z" fill="#E3E3E3"/>
<path d="M238.717 164.178C240.859 164.178 242.595 162.442 242.595 160.299C242.595 158.157 240.859 156.421 238.717 156.421C236.575 156.421 234.838 158.157 234.838 160.299C234.838 162.442 236.575 164.178 238.717 164.178Z" fill="#E3E3E3"/>
<path d="M551.84 164.178C553.983 164.178 555.719 162.442 555.719 160.299C555.719 158.157 553.983 156.421 551.84 156.421C549.698 156.421 547.962 158.157 547.962 160.299C547.962 162.442 549.698 164.178 551.84 164.178Z" fill="#E3E3E3"/>
<path d="M43.0192 164.323C45.1612 164.323 46.8977 162.586 46.8977 160.444C46.8977 158.302 45.1612 156.565 43.0192 156.565C40.8771 156.565 39.1406 158.302 39.1406 160.444C39.1406 162.586 40.8771 164.323 43.0192 164.323Z" fill="#E3E3E3"/>
<path d="M356.143 164.323C358.285 164.323 360.021 162.586 360.021 160.444C360.021 158.302 358.285 156.565 356.143 156.565C354.001 156.565 352.264 158.302 352.264 160.444C352.264 162.586 354.001 164.323 356.143 164.323Z" fill="#E3E3E3"/>
<path d="M199.581 164.323C201.723 164.323 203.459 162.586 203.459 160.444C203.459 158.302 201.723 156.565 199.581 156.565C197.439 156.565 195.702 158.302 195.702 160.444C195.702 162.586 197.439 164.323 199.581 164.323Z" fill="#E3E3E3"/>
<path d="M512.704 164.323C514.846 164.323 516.583 162.586 516.583 160.444C516.583 158.302 514.846 156.565 512.704 156.565C510.562 156.565 508.826 158.302 508.826 160.444C508.826 162.586 510.562 164.323 512.704 164.323Z" fill="#E3E3E3"/>
<path d="M160.436 164.174C162.578 164.174 164.315 162.438 164.315 160.296C164.315 158.154 162.578 156.417 160.436 156.417C158.294 156.417 156.558 158.154 156.558 160.296C156.558 162.438 158.294 164.174 160.436 164.174Z" fill="#E3E3E3"/>
<path d="M473.56 164.174C475.702 164.174 477.438 162.438 477.438 160.296C477.438 158.154 475.702 156.417 473.56 156.417C471.418 156.417 469.681 158.154 469.681 160.296C469.681 162.438 471.418 164.174 473.56 164.174Z" fill="#E3E3E3"/>
<path d="M316.998 164.174C319.14 164.174 320.876 162.438 320.876 160.296C320.876 158.154 319.14 156.417 316.998 156.417C314.856 156.417 313.119 158.154 313.119 160.296C313.119 162.438 314.856 164.174 316.998 164.174Z" fill="#E3E3E3"/>
<path d="M630.121 164.174C632.263 164.174 634 162.438 634 160.296C634 158.154 632.263 156.417 630.121 156.417C627.979 156.417 626.243 158.154 626.243 160.296C626.243 162.438 627.979 164.174 630.121 164.174Z" fill="#E3E3E3"/>
<path d="M3.87856 126.971C6.02063 126.971 7.75712 125.234 7.75712 123.092C7.75712 120.95 6.02063 119.214 3.87856 119.214C1.73649 119.214 0 120.95 0 123.092C0 125.234 1.73649 126.971 3.87856 126.971Z" fill="#E3E3E3"/>
<path d="M317.002 126.971C319.144 126.971 320.881 125.234 320.881 123.092C320.881 120.95 319.144 119.214 317.002 119.214C314.86 119.214 313.124 120.95 313.124 123.092C313.124 125.234 314.86 126.971 317.002 126.971Z" fill="#E3E3E3"/>
<path d="M160.44 126.971C162.582 126.971 164.319 125.234 164.319 123.092C164.319 120.95 162.582 119.214 160.44 119.214C158.298 119.214 156.562 120.95 156.562 123.092C156.562 125.234 158.298 126.971 160.44 126.971Z" fill="#E3E3E3"/>
<path d="M473.564 126.971C475.706 126.971 477.443 125.234 477.443 123.092C477.443 120.95 475.706 119.214 473.564 119.214C471.422 119.214 469.686 120.95 469.686 123.092C469.686 125.234 471.422 126.971 473.564 126.971Z" fill="#E3E3E3"/>
<path d="M121.304 127.12C123.446 127.12 125.182 125.383 125.182 123.241C125.182 121.099 123.446 119.363 121.304 119.363C119.162 119.363 117.425 121.099 117.425 123.241C117.425 125.383 119.162 127.12 121.304 127.12Z" fill="#E3E3E3"/>
<path d="M434.427 127.12C436.569 127.12 438.306 125.383 438.306 123.241C438.306 121.099 436.569 119.363 434.427 119.363C432.285 119.363 430.549 121.099 430.549 123.241C430.549 125.383 432.285 127.12 434.427 127.12Z" fill="#E3E3E3"/>
<path d="M277.865 127.12C280.007 127.12 281.744 125.383 281.744 123.241C281.744 121.099 280.007 119.363 277.865 119.363C275.723 119.363 273.987 121.099 273.987 123.241C273.987 125.383 275.723 127.12 277.865 127.12Z" fill="#E3E3E3"/>
<path d="M590.989 127.12C593.131 127.12 594.867 125.383 594.867 123.241C594.867 121.099 593.131 119.363 590.989 119.363C588.847 119.363 587.11 121.099 587.11 123.241C587.11 125.383 588.847 127.12 590.989 127.12Z" fill="#E3E3E3"/>
<path d="M43.0192 127.116C45.1612 127.116 46.8977 125.379 46.8977 123.237C46.8977 121.095 45.1612 119.359 43.0192 119.359C40.8771 119.359 39.1406 121.095 39.1406 123.237C39.1406 125.379 40.8771 127.116 43.0192 127.116Z" fill="#E3E3E3"/>
<path d="M356.143 127.116C358.285 127.116 360.021 125.379 360.021 123.237C360.021 121.095 358.285 119.359 356.143 119.359C354.001 119.359 352.264 121.095 352.264 123.237C352.264 125.379 354.001 127.116 356.143 127.116Z" fill="#E3E3E3"/>
<path d="M199.581 127.116C201.723 127.116 203.459 125.379 203.459 123.237C203.459 121.095 201.723 119.359 199.581 119.359C197.439 119.359 195.702 121.095 195.702 123.237C195.702 125.379 197.439 127.116 199.581 127.116Z" fill="#E3E3E3"/>
<path d="M512.704 127.116C514.846 127.116 516.583 125.379 516.583 123.237C516.583 121.095 514.846 119.359 512.704 119.359C510.562 119.359 508.826 121.095 508.826 123.237C508.826 125.379 510.562 127.116 512.704 127.116Z" fill="#E3E3E3"/>
<path d="M160.436 126.967C162.578 126.967 164.315 125.23 164.315 123.088C164.315 120.946 162.578 119.21 160.436 119.21C158.294 119.21 156.558 120.946 156.558 123.088C156.558 125.23 158.294 126.967 160.436 126.967Z" fill="#E3E3E3"/>
<path d="M473.56 126.967C475.702 126.967 477.438 125.23 477.438 123.088C477.438 120.946 475.702 119.21 473.56 119.21C471.418 119.21 469.681 120.946 469.681 123.088C469.681 125.23 471.418 126.967 473.56 126.967Z" fill="#E3E3E3"/>
<path d="M316.998 126.967C319.14 126.967 320.876 125.23 320.876 123.088C320.876 120.946 319.14 119.21 316.998 119.21C314.856 119.21 313.119 120.946 313.119 123.088C313.119 125.23 314.856 126.967 316.998 126.967Z" fill="#E3E3E3"/>
<path d="M630.121 126.967C632.263 126.967 634 125.23 634 123.088C634 120.946 632.263 119.21 630.121 119.21C627.979 119.21 626.243 120.946 626.243 123.088C626.243 125.23 627.979 126.967 630.121 126.967Z" fill="#E3E3E3"/>
<path d="M82.1593 127.116C84.3014 127.116 86.0379 125.379 86.0379 123.237C86.0379 121.095 84.3014 119.359 82.1593 119.359C80.0173 119.359 78.2808 121.095 78.2808 123.237C78.2808 125.379 80.0173 127.116 82.1593 127.116Z" fill="#E3E3E3"/>
<path d="M395.283 127.116C397.425 127.116 399.161 125.379 399.161 123.237C399.161 121.095 397.425 119.359 395.283 119.359C393.141 119.359 391.404 121.095 391.404 123.237C391.404 125.379 393.141 127.116 395.283 127.116Z" fill="#E3E3E3"/>
<path d="M238.721 127.116C240.863 127.116 242.6 125.379 242.6 123.237C242.6 121.095 240.863 119.359 238.721 119.359C236.579 119.359 234.843 121.095 234.843 123.237C234.843 125.379 236.579 127.116 238.721 127.116Z" fill="#E3E3E3"/>
<path d="M551.845 127.116C553.987 127.116 555.723 125.379 555.723 123.237C555.723 121.095 553.987 119.359 551.845 119.359C549.703 119.359 547.966 121.095 547.966 123.237C547.966 125.379 549.703 127.116 551.845 127.116Z" fill="#E3E3E3"/>
<path d="M3.87856 48.2945C6.02063 48.2945 7.75712 46.558 7.75712 44.4159C7.75712 42.2738 6.02063 40.5374 3.87856 40.5374C1.73649 40.5374 0 42.2738 0 44.4159C0 46.558 1.73649 48.2945 3.87856 48.2945Z" fill="#E3E3E3"/>
<path d="M317.002 48.2945C319.144 48.2945 320.881 46.558 320.881 44.4159C320.881 42.2738 319.144 40.5374 317.002 40.5374C314.86 40.5374 313.124 42.2738 313.124 44.4159C313.124 46.558 314.86 48.2945 317.002 48.2945Z" fill="#E3E3E3"/>
<path d="M160.44 48.2945C162.582 48.2945 164.319 46.558 164.319 44.4159C164.319 42.2738 162.582 40.5374 160.44 40.5374C158.298 40.5374 156.562 42.2738 156.562 44.4159C156.562 46.558 158.298 48.2945 160.44 48.2945Z" fill="#E3E3E3"/>
<path d="M473.564 48.2945C475.706 48.2945 477.443 46.558 477.443 44.4159C477.443 42.2738 475.706 40.5374 473.564 40.5374C471.422 40.5374 469.686 42.2738 469.686 44.4159C469.686 46.558 471.422 48.2945 473.564 48.2945Z" fill="#E3E3E3"/>
<path d="M121.304 48.4475C123.446 48.4475 125.182 46.7111 125.182 44.569C125.182 42.4269 123.446 40.6904 121.304 40.6904C119.162 40.6904 117.425 42.4269 117.425 44.569C117.425 46.7111 119.162 48.4475 121.304 48.4475Z" fill="#E3E3E3"/>
<path d="M434.427 48.4475C436.569 48.4475 438.306 46.7111 438.306 44.569C438.306 42.4269 436.569 40.6904 434.427 40.6904C432.285 40.6904 430.549 42.4269 430.549 44.569C430.549 46.7111 432.285 48.4475 434.427 48.4475Z" fill="#E3E3E3"/>
<path d="M277.865 48.4475C280.007 48.4475 281.744 46.7111 281.744 44.569C281.744 42.4269 280.007 40.6904 277.865 40.6904C275.723 40.6904 273.987 42.4269 273.987 44.569C273.987 46.7111 275.723 48.4475 277.865 48.4475Z" fill="#E3E3E3"/>
<path d="M590.989 48.4475C593.131 48.4475 594.867 46.7111 594.867 44.569C594.867 42.4269 593.131 40.6904 590.989 40.6904C588.847 40.6904 587.11 42.4269 587.11 44.569C587.11 46.7111 588.847 48.4475 590.989 48.4475Z" fill="#E3E3E3"/>
<path d="M43.0192 48.4439C45.1612 48.4439 46.8977 46.7074 46.8977 44.5653C46.8977 42.4233 45.1612 40.6868 43.0192 40.6868C40.8771 40.6868 39.1406 42.4233 39.1406 44.5653C39.1406 46.7074 40.8771 48.4439 43.0192 48.4439Z" fill="#E3E3E3"/>
<path d="M356.143 48.4439C358.285 48.4439 360.021 46.7074 360.021 44.5653C360.021 42.4233 358.285 40.6868 356.143 40.6868C354.001 40.6868 352.264 42.4233 352.264 44.5653C352.264 46.7074 354.001 48.4439 356.143 48.4439Z" fill="#E3E3E3"/>
<path d="M199.581 48.4439C201.723 48.4439 203.459 46.7074 203.459 44.5653C203.459 42.4233 201.723 40.6868 199.581 40.6868C197.439 40.6868 195.702 42.4233 195.702 44.5653C195.702 46.7074 197.439 48.4439 199.581 48.4439Z" fill="#E3E3E3"/>
<path d="M512.704 48.4439C514.846 48.4439 516.583 46.7074 516.583 44.5653C516.583 42.4233 514.846 40.6868 512.704 40.6868C510.562 40.6868 508.826 42.4233 508.826 44.5653C508.826 46.7074 510.562 48.4439 512.704 48.4439Z" fill="#E3E3E3"/>
<path d="M160.436 48.2908C162.578 48.2908 164.315 46.5543 164.315 44.4122C164.315 42.2702 162.578 40.5337 160.436 40.5337C158.294 40.5337 156.558 42.2702 156.558 44.4122C156.558 46.5543 158.294 48.2908 160.436 48.2908Z" fill="#E3E3E3"/>
<path d="M473.56 48.2908C475.702 48.2908 477.438 46.5543 477.438 44.4122C477.438 42.2702 475.702 40.5337 473.56 40.5337C471.418 40.5337 469.681 42.2702 469.681 44.4122C469.681 46.5543 471.418 48.2908 473.56 48.2908Z" fill="#E3E3E3"/>
<path d="M316.998 48.2908C319.14 48.2908 320.876 46.5543 320.876 44.4122C320.876 42.2702 319.14 40.5337 316.998 40.5337C314.856 40.5337 313.119 42.2702 313.119 44.4122C313.119 46.5543 314.856 48.2908 316.998 48.2908Z" fill="#E3E3E3"/>
<path d="M630.121 48.2908C632.263 48.2908 634 46.5543 634 44.4122C634 42.2702 632.263 40.5337 630.121 40.5337C627.979 40.5337 626.243 42.2702 626.243 44.4122C626.243 46.5543 627.979 48.2908 630.121 48.2908Z" fill="#E3E3E3"/>
<path d="M82.1549 48.4395C84.297 48.4395 86.0335 46.703 86.0335 44.5609C86.0335 42.4189 84.297 40.6824 82.1549 40.6824C80.0129 40.6824 78.2764 42.4189 78.2764 44.5609C78.2764 46.703 80.0129 48.4395 82.1549 48.4395Z" fill="#E3E3E3"/>
<path d="M395.278 48.4395C397.421 48.4395 399.157 46.703 399.157 44.5609C399.157 42.4189 397.421 40.6824 395.278 40.6824C393.136 40.6824 391.4 42.4189 391.4 44.5609C391.4 46.703 393.136 48.4395 395.278 48.4395Z" fill="#E3E3E3"/>
<path d="M238.717 48.4395C240.859 48.4395 242.595 46.703 242.595 44.5609C242.595 42.4189 240.859 40.6824 238.717 40.6824C236.575 40.6824 234.838 42.4189 234.838 44.5609C234.838 46.703 236.575 48.4395 238.717 48.4395Z" fill="#E3E3E3"/>
<path d="M551.84 48.4395C553.983 48.4395 555.719 46.703 555.719 44.5609C555.719 42.4189 553.983 40.6824 551.84 40.6824C549.698 40.6824 547.962 42.4189 547.962 44.5609C547.962 46.703 549.698 48.4395 551.84 48.4395Z" fill="#E3E3E3"/>
<path d="M3.87856 163.786C6.02062 163.786 7.75711 162.05 7.75711 159.908C7.75711 157.766 6.02062 156.029 3.87856 156.029C1.73649 156.029 0 157.766 0 159.908C0 162.05 1.73649 163.786 3.87856 163.786Z" fill="#E3E3E3"/>
<path d="M317.002 163.788C319.144 163.788 320.881 162.052 320.881 159.91C320.881 157.767 319.144 156.031 317.002 156.031C314.86 156.031 313.124 157.767 313.124 159.91C313.124 162.052 314.86 163.788 317.002 163.788Z" fill="#E3E3E3"/>
<path d="M160.44 163.788C162.582 163.788 164.319 162.052 164.319 159.91C164.319 157.767 162.582 156.031 160.44 156.031C158.298 156.031 156.562 157.767 156.562 159.91C156.562 162.052 158.298 163.788 160.44 163.788Z" fill="#E3E3E3"/>
<path d="M473.564 163.788C475.706 163.788 477.443 162.052 477.443 159.91C477.443 157.767 475.706 156.031 473.564 156.031C471.422 156.031 469.686 157.767 469.686 159.91C469.686 162.052 471.422 163.788 473.564 163.788Z" fill="#E3E3E3"/>
<path d="M121.304 163.941C123.446 163.941 125.182 162.204 125.182 160.062C125.182 157.92 123.446 156.184 121.304 156.184C119.162 156.184 117.425 157.92 117.425 160.062C117.425 162.204 119.162 163.941 121.304 163.941Z" fill="#E3E3E3"/>
<path d="M434.427 163.941C436.569 163.941 438.306 162.204 438.306 160.062C438.306 157.92 436.569 156.184 434.427 156.184C432.285 156.184 430.549 157.92 430.549 160.062C430.549 162.204 432.285 163.941 434.427 163.941Z" fill="#E3E3E3"/>
<path d="M277.865 163.941C280.007 163.941 281.744 162.204 281.744 160.062C281.744 157.92 280.007 156.184 277.865 156.184C275.723 156.184 273.987 157.92 273.987 160.062C273.987 162.204 275.723 163.941 277.865 163.941Z" fill="#E3E3E3"/>
<path d="M590.989 163.941C593.131 163.941 594.867 162.204 594.867 160.062C594.867 157.92 593.131 156.184 590.989 156.184C588.847 156.184 587.11 157.92 587.11 160.062C587.11 162.204 588.847 163.941 590.989 163.941Z" fill="#E3E3E3"/>
<path d="M82.1549 163.788C84.297 163.788 86.0335 162.052 86.0335 159.91C86.0335 157.767 84.297 156.031 82.1549 156.031C80.0129 156.031 78.2764 157.767 78.2764 159.91C78.2764 162.052 80.0129 163.788 82.1549 163.788Z" fill="#E3E3E3"/>
<path d="M395.278 163.788C397.421 163.788 399.157 162.052 399.157 159.91C399.157 157.767 397.421 156.031 395.278 156.031C393.136 156.031 391.4 157.767 391.4 159.91C391.4 162.052 393.136 163.788 395.278 163.788Z" fill="#E3E3E3"/>
<path d="M238.717 163.788C240.859 163.788 242.595 162.052 242.595 159.91C242.595 157.767 240.859 156.031 238.717 156.031C236.575 156.031 234.838 157.767 234.838 159.91C234.838 162.052 236.575 163.788 238.717 163.788Z" fill="#E3E3E3"/>
<path d="M551.84 163.788C553.983 163.788 555.719 162.052 555.719 159.91C555.719 157.767 553.983 156.031 551.84 156.031C549.698 156.031 547.962 157.767 547.962 159.91C547.962 162.052 549.698 163.788 551.84 163.788Z" fill="#E3E3E3"/>
<path d="M43.0192 163.937C45.1612 163.937 46.8977 162.2 46.8977 160.058C46.8977 157.916 45.1612 156.18 43.0192 156.18C40.8771 156.18 39.1406 157.916 39.1406 160.058C39.1406 162.2 40.8771 163.937 43.0192 163.937Z" fill="#E3E3E3"/>
<path d="M356.143 163.937C358.285 163.937 360.021 162.2 360.021 160.058C360.021 157.916 358.285 156.18 356.143 156.18C354.001 156.18 352.264 157.916 352.264 160.058C352.264 162.2 354.001 163.937 356.143 163.937Z" fill="#E3E3E3"/>
<path d="M199.581 163.937C201.723 163.937 203.459 162.2 203.459 160.058C203.459 157.916 201.723 156.18 199.581 156.18C197.439 156.18 195.702 157.916 195.702 160.058C195.702 162.2 197.439 163.937 199.581 163.937Z" fill="#E3E3E3"/>
<path d="M512.704 163.937C514.846 163.937 516.583 162.2 516.583 160.058C516.583 157.916 514.846 156.18 512.704 156.18C510.562 156.18 508.826 157.916 508.826 160.058C508.826 162.2 510.562 163.937 512.704 163.937Z" fill="#E3E3E3"/>
<path d="M160.436 163.784C162.578 163.784 164.315 162.048 164.315 159.906C164.315 157.764 162.578 156.027 160.436 156.027C158.294 156.027 156.558 157.764 156.558 159.906C156.558 162.048 158.294 163.784 160.436 163.784Z" fill="#E3E3E3"/>
<path d="M473.56 163.784C475.702 163.784 477.438 162.048 477.438 159.906C477.438 157.764 475.702 156.027 473.56 156.027C471.418 156.027 469.681 157.764 469.681 159.906C469.681 162.048 471.418 163.784 473.56 163.784Z" fill="#E3E3E3"/>
<path d="M316.998 163.784C319.14 163.784 320.876 162.048 320.876 159.906C320.876 157.764 319.14 156.027 316.998 156.027C314.856 156.027 313.119 157.764 313.119 159.906C313.119 162.048 314.856 163.784 316.998 163.784Z" fill="#E3E3E3"/>
<path d="M630.121 163.784C632.263 163.784 634 162.048 634 159.906C634 157.764 632.263 156.027 630.121 156.027C627.979 156.027 626.243 157.764 626.243 159.906C626.243 162.048 627.979 163.784 630.121 163.784Z" fill="#E3E3E3"/>
<path d="M3.87856 241.921C6.02062 241.921 7.75711 240.184 7.75711 238.042C7.75711 235.9 6.02062 234.164 3.87856 234.164C1.73649 234.164 0 235.9 0 238.042C0 240.184 1.73649 241.921 3.87856 241.921Z" fill="#E3E3E3"/>
<path d="M317.002 241.921C319.144 241.921 320.881 240.184 320.881 238.042C320.881 235.9 319.144 234.164 317.002 234.164C314.86 234.164 313.124 235.9 313.124 238.042C313.124 240.184 314.86 241.921 317.002 241.921Z" fill="#E3E3E3"/>
<path d="M160.44 241.921C162.582 241.921 164.319 240.184 164.319 238.042C164.319 235.9 162.582 234.164 160.44 234.164C158.298 234.164 156.562 235.9 156.562 238.042C156.562 240.184 158.298 241.921 160.44 241.921Z" fill="#E3E3E3"/>
<path d="M473.564 241.921C475.706 241.921 477.443 240.184 477.443 238.042C477.443 235.9 475.706 234.164 473.564 234.164C471.422 234.164 469.686 235.9 469.686 238.042C469.686 240.184 471.422 241.921 473.564 241.921Z" fill="#E3E3E3"/>
<path d="M121.304 242.073C123.446 242.073 125.182 240.337 125.182 238.194C125.182 236.052 123.446 234.316 121.304 234.316C119.162 234.316 117.425 236.052 117.425 238.194C117.425 240.337 119.162 242.073 121.304 242.073Z" fill="#E3E3E3"/>
<path d="M434.427 242.073C436.569 242.073 438.306 240.337 438.306 238.194C438.306 236.052 436.569 234.316 434.427 234.316C432.285 234.316 430.549 236.052 430.549 238.194C430.549 240.337 432.285 242.073 434.427 242.073Z" fill="#E3E3E3"/>
<path d="M277.865 242.073C280.007 242.073 281.744 240.337 281.744 238.194C281.744 236.052 280.007 234.316 277.865 234.316C275.723 234.316 273.987 236.052 273.987 238.194C273.987 240.337 275.723 242.073 277.865 242.073Z" fill="#E3E3E3"/>
<path d="M590.989 242.073C593.131 242.073 594.867 240.337 594.867 238.194C594.867 236.052 593.131 234.316 590.989 234.316C588.847 234.316 587.11 236.052 587.11 238.194C587.11 240.337 588.847 242.073 590.989 242.073Z" fill="#E3E3E3"/>
<path d="M43.0192 242.069C45.1612 242.069 46.8977 240.333 46.8977 238.191C46.8977 236.049 45.1612 234.312 43.0192 234.312C40.8771 234.312 39.1406 236.049 39.1406 238.191C39.1406 240.333 40.8771 242.069 43.0192 242.069Z" fill="#E3E3E3"/>
<path d="M356.143 242.069C358.285 242.069 360.021 240.333 360.021 238.191C360.021 236.049 358.285 234.312 356.143 234.312C354.001 234.312 352.264 236.049 352.264 238.191C352.264 240.333 354.001 242.069 356.143 242.069Z" fill="#E3E3E3"/>
<path d="M199.581 242.069C201.723 242.069 203.459 240.333 203.459 238.191C203.459 236.049 201.723 234.312 199.581 234.312C197.439 234.312 195.702 236.049 195.702 238.191C195.702 240.333 197.439 242.069 199.581 242.069Z" fill="#E3E3E3"/>
<path d="M512.704 242.069C514.846 242.069 516.583 240.333 516.583 238.191C516.583 236.049 514.846 234.312 512.704 234.312C510.562 234.312 508.826 236.049 508.826 238.191C508.826 240.333 510.562 242.069 512.704 242.069Z" fill="#E3E3E3"/>
<path d="M160.436 241.916C162.578 241.916 164.315 240.18 164.315 238.038C164.315 235.896 162.578 234.159 160.436 234.159C158.294 234.159 156.558 235.896 156.558 238.038C156.558 240.18 158.294 241.916 160.436 241.916Z" fill="#E3E3E3"/>
<path d="M473.56 241.916C475.702 241.916 477.438 240.18 477.438 238.038C477.438 235.896 475.702 234.159 473.56 234.159C471.418 234.159 469.681 235.896 469.681 238.038C469.681 240.18 471.418 241.916 473.56 241.916Z" fill="#E3E3E3"/>
<path d="M316.998 241.916C319.14 241.916 320.876 240.18 320.876 238.038C320.876 235.896 319.14 234.159 316.998 234.159C314.856 234.159 313.119 235.896 313.119 238.038C313.119 240.18 314.856 241.916 316.998 241.916Z" fill="#E3E3E3"/>
<path d="M630.121 241.916C632.263 241.916 634 240.18 634 238.038C634 235.896 632.263 234.159 630.121 234.159C627.979 234.159 626.243 235.896 626.243 238.038C626.243 240.18 627.979 241.916 630.121 241.916Z" fill="#E3E3E3"/>
<path d="M82.1593 242.069C84.3014 242.069 86.0379 240.333 86.0379 238.191C86.0379 236.049 84.3014 234.312 82.1593 234.312C80.0172 234.312 78.2808 236.049 78.2808 238.191C78.2808 240.333 80.0172 242.069 82.1593 242.069Z" fill="#E3E3E3"/>
<path d="M395.283 242.069C397.425 242.069 399.161 240.333 399.161 238.191C399.161 236.049 397.425 234.312 395.283 234.312C393.141 234.312 391.404 236.049 391.404 238.191C391.404 240.333 393.141 242.069 395.283 242.069Z" fill="#E3E3E3"/>
<path d="M238.721 242.069C240.863 242.069 242.6 240.333 242.6 238.191C242.6 236.049 240.863 234.312 238.721 234.312C236.579 234.312 234.843 236.049 234.843 238.191C234.843 240.333 236.579 242.069 238.721 242.069Z" fill="#E3E3E3"/>
<path d="M551.845 242.069C553.987 242.069 555.723 240.333 555.723 238.191C555.723 236.049 553.987 234.312 551.845 234.312C549.703 234.312 547.966 236.049 547.966 238.191C547.966 240.333 549.703 242.069 551.845 242.069Z" fill="#E3E3E3"/>
<path d="M3.87855 320.205C6.02062 320.205 7.75711 318.469 7.75711 316.327C7.75711 314.185 6.02062 312.448 3.87855 312.448C1.73649 312.448 0 314.185 0 316.327C0 318.469 1.73649 320.205 3.87855 320.205Z" fill="#E3E3E3"/>
<path d="M317.002 320.205C319.144 320.205 320.881 318.469 320.881 316.327C320.881 314.185 319.144 312.448 317.002 312.448C314.86 312.448 313.124 314.185 313.124 316.327C313.124 318.469 314.86 320.205 317.002 320.205Z" fill="#E3E3E3"/>
<path d="M160.44 320.205C162.582 320.205 164.319 318.469 164.319 316.327C164.319 314.185 162.582 312.448 160.44 312.448C158.298 312.448 156.562 314.185 156.562 316.327C156.562 318.469 158.298 320.205 160.44 320.205Z" fill="#E3E3E3"/>
<path d="M473.564 320.205C475.706 320.205 477.443 318.469 477.443 316.327C477.443 314.185 475.706 312.448 473.564 312.448C471.422 312.448 469.686 314.185 469.686 316.327C469.686 318.469 471.422 320.205 473.564 320.205Z" fill="#E3E3E3"/>
<path d="M121.304 320.354C123.446 320.354 125.182 318.618 125.182 316.475C125.182 314.333 123.446 312.597 121.304 312.597C119.162 312.597 117.425 314.333 117.425 316.475C117.425 318.618 119.162 320.354 121.304 320.354Z" fill="#E3E3E3"/>
<path d="M434.427 320.354C436.569 320.354 438.306 318.618 438.306 316.475C438.306 314.333 436.569 312.597 434.427 312.597C432.285 312.597 430.549 314.333 430.549 316.475C430.549 318.618 432.285 320.354 434.427 320.354Z" fill="#E3E3E3"/>
<path d="M277.865 320.354C280.007 320.354 281.744 318.618 281.744 316.475C281.744 314.333 280.007 312.597 277.865 312.597C275.723 312.597 273.987 314.333 273.987 316.475C273.987 318.618 275.723 320.354 277.865 320.354Z" fill="#E3E3E3"/>
<path d="M590.989 320.354C593.131 320.354 594.867 318.618 594.867 316.475C594.867 314.333 593.131 312.597 590.989 312.597C588.847 312.597 587.11 314.333 587.11 316.475C587.11 318.618 588.847 320.354 590.989 320.354Z" fill="#E3E3E3"/>
<path d="M82.1549 320.205C84.297 320.205 86.0335 318.469 86.0335 316.327C86.0335 314.185 84.297 312.448 82.1549 312.448C80.0129 312.448 78.2764 314.185 78.2764 316.327C78.2764 318.469 80.0129 320.205 82.1549 320.205Z" fill="#E3E3E3"/>
<path d="M395.278 320.205C397.421 320.205 399.157 318.469 399.157 316.327C399.157 314.185 397.421 312.448 395.278 312.448C393.136 312.448 391.4 314.185 391.4 316.327C391.4 318.469 393.136 320.205 395.278 320.205Z" fill="#E3E3E3"/>
<path d="M238.717 320.205C240.859 320.205 242.595 318.469 242.595 316.327C242.595 314.185 240.859 312.448 238.717 312.448C236.575 312.448 234.838 314.185 234.838 316.327C234.838 318.469 236.575 320.205 238.717 320.205Z" fill="#E3E3E3"/>
<path d="M551.84 320.205C553.983 320.205 555.719 318.469 555.719 316.327C555.719 314.185 553.983 312.448 551.84 312.448C549.698 312.448 547.962 314.185 547.962 316.327C547.962 318.469 549.698 320.205 551.84 320.205Z" fill="#E3E3E3"/>
<path d="M43.0192 320.35C45.1612 320.35 46.8977 318.613 46.8977 316.471C46.8977 314.329 45.1612 312.593 43.0192 312.593C40.8771 312.593 39.1406 314.329 39.1406 316.471C39.1406 318.613 40.8771 320.35 43.0192 320.35Z" fill="#E3E3E3"/>
<path d="M356.143 320.35C358.285 320.35 360.021 318.613 360.021 316.471C360.021 314.329 358.285 312.593 356.143 312.593C354.001 312.593 352.264 314.329 352.264 316.471C352.264 318.613 354.001 320.35 356.143 320.35Z" fill="#E3E3E3"/>
<path d="M199.581 320.35C201.723 320.35 203.459 318.613 203.459 316.471C203.459 314.329 201.723 312.593 199.581 312.593C197.439 312.593 195.702 314.329 195.702 316.471C195.702 318.613 197.439 320.35 199.581 320.35Z" fill="#E3E3E3"/>
<path d="M512.704 320.35C514.846 320.35 516.583 318.613 516.583 316.471C516.583 314.329 514.846 312.593 512.704 312.593C510.562 312.593 508.826 314.329 508.826 316.471C508.826 318.613 510.562 320.35 512.704 320.35Z" fill="#E3E3E3"/>
<path d="M160.436 320.202C162.578 320.202 164.315 318.465 164.315 316.323C164.315 314.181 162.578 312.445 160.436 312.445C158.294 312.445 156.558 314.181 156.558 316.323C156.558 318.465 158.294 320.202 160.436 320.202Z" fill="#E3E3E3"/>
<path d="M473.56 320.202C475.702 320.202 477.438 318.465 477.438 316.323C477.438 314.181 475.702 312.445 473.56 312.445C471.418 312.445 469.681 314.181 469.681 316.323C469.681 318.465 471.418 320.202 473.56 320.202Z" fill="#E3E3E3"/>
<path d="M316.998 320.202C319.14 320.202 320.876 318.465 320.876 316.323C320.876 314.181 319.14 312.445 316.998 312.445C314.856 312.445 313.119 314.181 313.119 316.323C313.119 318.465 314.856 320.202 316.998 320.202Z" fill="#E3E3E3"/>
<path d="M630.121 320.202C632.263 320.202 634 318.465 634 316.323C634 314.181 632.263 312.445 630.121 312.445C627.979 312.445 626.243 314.181 626.243 316.323C626.243 318.465 627.979 320.202 630.121 320.202Z" fill="#E3E3E3"/>
<path d="M3.87856 282.998C6.02063 282.998 7.75712 281.262 7.75712 279.12C7.75712 276.978 6.02063 275.241 3.87856 275.241C1.73649 275.241 0 276.978 0 279.12C0 281.262 1.73649 282.998 3.87856 282.998Z" fill="#E3E3E3"/>
<path d="M317.002 282.998C319.144 282.998 320.881 281.262 320.881 279.12C320.881 276.978 319.144 275.241 317.002 275.241C314.86 275.241 313.124 276.978 313.124 279.12C313.124 281.262 314.86 282.998 317.002 282.998Z" fill="#E3E3E3"/>
<path d="M160.44 282.998C162.582 282.998 164.319 281.262 164.319 279.12C164.319 276.978 162.582 275.241 160.44 275.241C158.298 275.241 156.562 276.978 156.562 279.12C156.562 281.262 158.298 282.998 160.44 282.998Z" fill="#E3E3E3"/>
<path d="M473.564 282.998C475.706 282.998 477.443 281.262 477.443 279.12C477.443 276.978 475.706 275.241 473.564 275.241C471.422 275.241 469.686 276.978 469.686 279.12C469.686 281.262 471.422 282.998 473.564 282.998Z" fill="#E3E3E3"/>
<path d="M121.304 283.147C123.446 283.147 125.182 281.411 125.182 279.268C125.182 277.126 123.446 275.39 121.304 275.39C119.162 275.39 117.425 277.126 117.425 279.268C117.425 281.411 119.162 283.147 121.304 283.147Z" fill="#E3E3E3"/>
<path d="M434.427 283.147C436.569 283.147 438.306 281.411 438.306 279.268C438.306 277.126 436.569 275.39 434.427 275.39C432.285 275.39 430.549 277.126 430.549 279.268C430.549 281.411 432.285 283.147 434.427 283.147Z" fill="#E3E3E3"/>
<path d="M277.865 283.147C280.007 283.147 281.744 281.411 281.744 279.268C281.744 277.126 280.007 275.39 277.865 275.39C275.723 275.39 273.987 277.126 273.987 279.268C273.987 281.411 275.723 283.147 277.865 283.147Z" fill="#E3E3E3"/>
<path d="M590.989 283.147C593.131 283.147 594.867 281.411 594.867 279.268C594.867 277.126 593.131 275.39 590.989 275.39C588.847 275.39 587.11 277.126 587.11 279.268C587.11 281.411 588.847 283.147 590.989 283.147Z" fill="#E3E3E3"/>
<path d="M43.0192 283.143C45.1612 283.143 46.8977 281.407 46.8977 279.265C46.8977 277.122 45.1612 275.386 43.0192 275.386C40.8771 275.386 39.1406 277.122 39.1406 279.265C39.1406 281.407 40.8771 283.143 43.0192 283.143Z" fill="#E3E3E3"/>
<path d="M356.143 283.143C358.285 283.143 360.021 281.407 360.021 279.265C360.021 277.122 358.285 275.386 356.143 275.386C354.001 275.386 352.264 277.122 352.264 279.265C352.264 281.407 354.001 283.143 356.143 283.143Z" fill="#E3E3E3"/>
<path d="M199.581 283.143C201.723 283.143 203.459 281.407 203.459 279.265C203.459 277.122 201.723 275.386 199.581 275.386C197.439 275.386 195.702 277.122 195.702 279.265C195.702 281.407 197.439 283.143 199.581 283.143Z" fill="#E3E3E3"/>
<path d="M512.704 283.143C514.846 283.143 516.583 281.407 516.583 279.265C516.583 277.122 514.846 275.386 512.704 275.386C510.562 275.386 508.826 277.122 508.826 279.265C508.826 281.407 510.562 283.143 512.704 283.143Z" fill="#E3E3E3"/>
<path d="M160.436 282.994C162.578 282.994 164.315 281.258 164.315 279.116C164.315 276.974 162.578 275.237 160.436 275.237C158.294 275.237 156.558 276.974 156.558 279.116C156.558 281.258 158.294 282.994 160.436 282.994Z" fill="#E3E3E3"/>
<path d="M473.56 282.994C475.702 282.994 477.438 281.258 477.438 279.116C477.438 276.974 475.702 275.237 473.56 275.237C471.418 275.237 469.681 276.974 469.681 279.116C469.681 281.258 471.418 282.994 473.56 282.994Z" fill="#E3E3E3"/>
<path d="M316.998 282.994C319.14 282.994 320.876 281.258 320.876 279.116C320.876 276.974 319.14 275.237 316.998 275.237C314.856 275.237 313.119 276.974 313.119 279.116C313.119 281.258 314.856 282.994 316.998 282.994Z" fill="#E3E3E3"/>
<path d="M630.121 282.994C632.263 282.994 634 281.258 634 279.116C634 276.974 632.263 275.237 630.121 275.237C627.979 275.237 626.243 276.974 626.243 279.116C626.243 281.258 627.979 282.994 630.121 282.994Z" fill="#E3E3E3"/>
<path d="M82.1593 283.143C84.3014 283.143 86.0379 281.407 86.0379 279.265C86.0379 277.122 84.3014 275.386 82.1593 275.386C80.0173 275.386 78.2808 277.122 78.2808 279.265C78.2808 281.407 80.0173 283.143 82.1593 283.143Z" fill="#E3E3E3"/>
<path d="M395.283 283.143C397.425 283.143 399.161 281.407 399.161 279.265C399.161 277.122 397.425 275.386 395.283 275.386C393.141 275.386 391.404 277.122 391.404 279.265C391.404 281.407 393.141 283.143 395.283 283.143Z" fill="#E3E3E3"/>
<path d="M238.721 283.143C240.863 283.143 242.6 281.407 242.6 279.265C242.6 277.122 240.863 275.386 238.721 275.386C236.579 275.386 234.843 277.122 234.843 279.265C234.843 281.407 236.579 283.143 238.721 283.143Z" fill="#E3E3E3"/>
<path d="M551.845 283.143C553.987 283.143 555.723 281.407 555.723 279.265C555.723 277.122 553.987 275.386 551.845 275.386C549.703 275.386 547.966 277.122 547.966 279.265C547.966 281.407 549.703 283.143 551.845 283.143Z" fill="#E3E3E3"/>
<path d="M3.87856 204.322C6.02063 204.322 7.75712 202.585 7.75712 200.443C7.75712 198.301 6.02063 196.565 3.87856 196.565C1.73649 196.565 0 198.301 0 200.443C0 202.585 1.73649 204.322 3.87856 204.322Z" fill="#E3E3E3"/>
<path d="M317.002 204.322C319.144 204.322 320.881 202.585 320.881 200.443C320.881 198.301 319.144 196.565 317.002 196.565C314.86 196.565 313.124 198.301 313.124 200.443C313.124 202.585 314.86 204.322 317.002 204.322Z" fill="#E3E3E3"/>
<path d="M160.44 204.322C162.582 204.322 164.319 202.585 164.319 200.443C164.319 198.301 162.582 196.565 160.44 196.565C158.298 196.565 156.562 198.301 156.562 200.443C156.562 202.585 158.298 204.322 160.44 204.322Z" fill="#E3E3E3"/>
<path d="M473.564 204.322C475.706 204.322 477.443 202.585 477.443 200.443C477.443 198.301 475.706 196.565 473.564 196.565C471.422 196.565 469.686 198.301 469.686 200.443C469.686 202.585 471.422 204.322 473.564 204.322Z" fill="#E3E3E3"/>
<path d="M121.304 204.475C123.446 204.475 125.182 202.738 125.182 200.596C125.182 198.454 123.446 196.718 121.304 196.718C119.162 196.718 117.425 198.454 117.425 200.596C117.425 202.738 119.162 204.475 121.304 204.475Z" fill="#E3E3E3"/>
<path d="M434.427 204.475C436.569 204.475 438.306 202.738 438.306 200.596C438.306 198.454 436.569 196.718 434.427 196.718C432.285 196.718 430.549 198.454 430.549 200.596C430.549 202.738 432.285 204.475 434.427 204.475Z" fill="#E3E3E3"/>
<path d="M277.865 204.475C280.007 204.475 281.744 202.738 281.744 200.596C281.744 198.454 280.007 196.718 277.865 196.718C275.723 196.718 273.987 198.454 273.987 200.596C273.987 202.738 275.723 204.475 277.865 204.475Z" fill="#E3E3E3"/>
<path d="M590.989 204.475C593.131 204.475 594.867 202.738 594.867 200.596C594.867 198.454 593.131 196.718 590.989 196.718C588.847 196.718 587.11 198.454 587.11 200.596C587.11 202.738 588.847 204.475 590.989 204.475Z" fill="#E3E3E3"/>
<path d="M43.0192 204.471C45.1612 204.471 46.8977 202.735 46.8977 200.593C46.8977 198.451 45.1612 196.714 43.0192 196.714C40.8771 196.714 39.1406 198.451 39.1406 200.593C39.1406 202.735 40.8771 204.471 43.0192 204.471Z" fill="#E3E3E3"/>
<path d="M356.143 204.471C358.285 204.471 360.021 202.735 360.021 200.593C360.021 198.451 358.285 196.714 356.143 196.714C354.001 196.714 352.264 198.451 352.264 200.593C352.264 202.735 354.001 204.471 356.143 204.471Z" fill="#E3E3E3"/>
<path d="M199.581 204.471C201.723 204.471 203.459 202.735 203.459 200.593C203.459 198.451 201.723 196.714 199.581 196.714C197.439 196.714 195.702 198.451 195.702 200.593C195.702 202.735 197.439 204.471 199.581 204.471Z" fill="#E3E3E3"/>
<path d="M512.704 204.471C514.846 204.471 516.583 202.735 516.583 200.593C516.583 198.451 514.846 196.714 512.704 196.714C510.562 196.714 508.826 198.451 508.826 200.593C508.826 202.735 510.562 204.471 512.704 204.471Z" fill="#E3E3E3"/>
<path d="M160.436 204.318C162.578 204.318 164.315 202.582 164.315 200.44C164.315 198.298 162.578 196.561 160.436 196.561C158.294 196.561 156.558 198.298 156.558 200.44C156.558 202.582 158.294 204.318 160.436 204.318Z" fill="#E3E3E3"/>
<path d="M473.56 204.318C475.702 204.318 477.438 202.582 477.438 200.44C477.438 198.298 475.702 196.561 473.56 196.561C471.418 196.561 469.681 198.298 469.681 200.44C469.681 202.582 471.418 204.318 473.56 204.318Z" fill="#E3E3E3"/>
<path d="M316.998 204.318C319.14 204.318 320.876 202.582 320.876 200.44C320.876 198.298 319.14 196.561 316.998 196.561C314.856 196.561 313.119 198.298 313.119 200.44C313.119 202.582 314.856 204.318 316.998 204.318Z" fill="#E3E3E3"/>
<path d="M630.121 204.318C632.263 204.318 634 202.582 634 200.44C634 198.298 632.263 196.561 630.121 196.561C627.979 196.561 626.243 198.298 626.243 200.44C626.243 202.582 627.979 204.318 630.121 204.318Z" fill="#E3E3E3"/>
<path d="M82.1549 204.467C84.297 204.467 86.0335 202.73 86.0335 200.588C86.0335 198.446 84.297 196.71 82.1549 196.71C80.0129 196.71 78.2764 198.446 78.2764 200.588C78.2764 202.73 80.0129 204.467 82.1549 204.467Z" fill="#E3E3E3"/>
<path d="M395.278 204.467C397.421 204.467 399.157 202.73 399.157 200.588C399.157 198.446 397.421 196.71 395.278 196.71C393.136 196.71 391.4 198.446 391.4 200.588C391.4 202.73 393.136 204.467 395.278 204.467Z" fill="#E3E3E3"/>
<path d="M238.717 204.467C240.859 204.467 242.595 202.73 242.595 200.588C242.595 198.446 240.859 196.71 238.717 196.71C236.575 196.71 234.838 198.446 234.838 200.588C234.838 202.73 236.575 204.467 238.717 204.467Z" fill="#E3E3E3"/>
<path d="M551.84 204.467C553.983 204.467 555.719 202.73 555.719 200.588C555.719 198.446 553.983 196.71 551.84 196.71C549.698 196.71 547.962 198.446 547.962 200.588C547.962 202.73 549.698 204.467 551.84 204.467Z" fill="#E3E3E3"/>
</svg>
