<svg xmlns="http://www.w3.org/2000/svg" viewBox="0 0 317.02 146.78"><defs><style>.cls-1{fill:#be1e2d;}.cls-2{fill:#fff;}</style></defs><g id="Layer_2" data-name="Layer 2"><g id="Layer_1-2" data-name="Layer 1"><path class="cls-1" d="M136.45,49.06a67.22,67.22,0,0,0-7.74-17.88,63.75,63.75,0,0,0-12.22-14.5A55.81,55.81,0,0,0,100.6,7,49.63,49.63,0,0,0,81.83,3.38,48.24,48.24,0,0,0,57.4,9.53a56.46,56.46,0,0,0-18,16.29A77.74,77.74,0,0,0,28.3,48.76a90.55,90.55,0,0,0-3.87,26.32,86.26,86.26,0,0,0,4.07,26.81,66.48,66.48,0,0,0,11.62,21.75,55.1,55.1,0,0,0,18.27,14.6,52.5,52.5,0,0,0,23.84,5.36,49.64,49.64,0,0,0,19.36-3.77,58.46,58.46,0,0,0,16.09-9.93,60,60,0,0,0,11.92-14.2,52.93,52.93,0,0,0,6.65-16.59h2.39l-.6,43.7h-2.38a60.38,60.38,0,0,0-5-6.16q-2.58-2.78-3.57-2.78a17.77,17.77,0,0,0-3.58,2.09,57.57,57.57,0,0,1-9.13,4.56,86,86,0,0,1-14.5,4.37,91.68,91.68,0,0,1-19.67,1.89,99.73,99.73,0,0,1-33.37-5.26,72.13,72.13,0,0,1-25.32-14.9,64.73,64.73,0,0,1-16-23A76.2,76.2,0,0,1,0,74.09a74.11,74.11,0,0,1,.5-8.15,72.56,72.56,0,0,1,1.78-9.73A81.91,81.91,0,0,1,5.86,45.38,74.55,74.55,0,0,1,11.72,34,71.27,71.27,0,0,1,22.05,21.05a65.51,65.51,0,0,1,14.5-10.82A81,81,0,0,1,55.42,2.78,92.7,92.7,0,0,1,79.05,0,88.85,88.85,0,0,1,99.91,2.18,94.78,94.78,0,0,1,114.8,7a55.42,55.42,0,0,1,9.14,4.77,17.42,17.42,0,0,0,3.57,2.18A3.33,3.33,0,0,0,129,13c.73-.6,1.52-1.32,2.39-2.18s1.75-1.86,2.68-3,1.79-2.29,2.58-3.48h2.19V48.86Z"/><path class="cls-1" d="M292.86,8.74A17.55,17.55,0,0,0,286,17.28q-1.39,3-1.79,11t-.79,17.18q-.4,8.55-.7,20.16t-.29,24.93v12.71q0,7,.1,14.2t.09,14.4V144.8a1.74,1.74,0,0,1-.49,1.29,2,2,0,0,1-1.49.49c-1.06,0-2.25-.66-3.58-2q-16.87-19.47-30.78-35.76T219.77,77.76Q207.16,63,195,48.86t-25.62-29.2v83.82q0,10.13.5,18.28t2.48,12.11a14.33,14.33,0,0,0,6.85,6.85q4.67,2.29,12.81,3.28v2H143.2v-2a39.06,39.06,0,0,0,9.54-2.48,15.45,15.45,0,0,0,7.54-6.26q2.79-4.17,3.58-12.31t1.19-19.47q.4-8.53.6-20.16t.2-24.93V34.16c0-2.64-.07-5.89-.2-9.73A23.13,23.13,0,0,0,162.87,15a18.29,18.29,0,0,0-5.17-5.76,19.62,19.62,0,0,0-6.45-3A51.88,51.88,0,0,0,144.59,5V3h40.32l94.15,110V45.48q0-7.93-.2-15.19a35.73,35.73,0,0,0-1.79-11.42,18.13,18.13,0,0,0-7.05-9Q265,6.36,255.42,5V3h49.26V5A30,30,0,0,0,292.86,8.74Z"/><path class="cls-2" d="M107.41,50.82c0,.4,0,.77,0,1.11a7.58,7.58,0,0,1-.13,1.11v-.18a14.24,14.24,0,0,1-1.52,4.2,31,31,0,0,1-2.45,3.76.49.49,0,0,0,.13-.18.91.91,0,0,1,.13-.19,36.59,36.59,0,0,1-4.76,5.36,50.75,50.75,0,0,1-5.57,4.5,1,1,0,0,1-.22.15l-.15.11c-.5.35-1,.67-1.52,1l-1.56.91-.26.11a.12.12,0,0,0,.11,0l.15-.07.19-.11.26-.15-.19.09-.22.13-.08.08-.88.44a.21.21,0,0,1-.15.07l-.11.08c-.42.2-.84.38-1.25.55s-.82.35-1.24.52h0l-.34.11-.33.12a.11.11,0,0,1-.07,0,2.22,2.22,0,0,1-.37.11H85a7,7,0,0,0-.82.23l-1,.26-.43.11a2.38,2.38,0,0,0-.42.11h0a.27.27,0,0,0,.13,0h.07l-.15,0-.74.15-.24,0a.84.84,0,0,0-.24.06l-.72.15-.76.14a2.12,2.12,0,0,0-.41.08.79.79,0,0,0-.26,0,3.4,3.4,0,0,1-.46.06,3.55,3.55,0,0,0-.47.06l-.26,0-.44,0-.3,0a.27.27,0,0,0-.13,0H76.8l-.4,0-.45,0c-.12,0-.18,0-.18,0a1.3,1.3,0,0,0-.37,0H74.25l-.67,0-.07,0-.08,0-.52,0a.21.21,0,0,1-.14,0L72.28,76l.56.07-.31,0-.28,0a.22.22,0,0,1-.1,0s0,0-.09,0a.43.43,0,0,0-.22,0s-.06,0-.19-.07a.31.31,0,0,1-.22-.08l-.15,0-.07,0-.07,0-.12,0a.11.11,0,0,1-.07,0l.19.07c.51.15,1,.26,1.29.33l.13,0s0,0,0,0H72.4l-.13,0a.38.38,0,0,1-.13,0h-.08a5.09,5.09,0,0,1-.79-.21,7.29,7.29,0,0,1-.8-.31l0,0s0,0,.06,0l-.15-.07-.07,0-.24-.11A.39.39,0,0,1,70,75.2a2.24,2.24,0,0,1-.56-.37,2.71,2.71,0,0,1-.29-.26l-.22-.18a.79.79,0,0,1-.12-.15l-.07-.15a1.41,1.41,0,0,1-.3-.5,3.09,3.09,0,0,1-.14-.54v-.18a2.16,2.16,0,0,1,.07.26l0,.14a4.09,4.09,0,0,0,.85,1.19l.22.19.07,0a.21.21,0,0,1,.08.06h0l0,0s0,0,.08,0a.35.35,0,0,0,.09.07.36.36,0,0,1,.09.08l.22.11.34.13.33.13.41.15.44.15h.12l.18,0,.15,0-.15,0a4.34,4.34,0,0,0,.59.11l.6.08a.18.18,0,0,1,.11,0h.37l.22,0a.82.82,0,0,0,.22,0h.87a2.89,2.89,0,0,0,.5,0h.11l-.22,0-.18,0h.29a2.31,2.31,0,0,1,.45,0,1,1,0,0,0,.26,0h.24l.28,0h.26l.33,0c1-.12,2-.28,3-.48s2-.43,3-.7a3.53,3.53,0,0,0,.56-.15l.27-.06a1.21,1.21,0,0,0,.32-.09,1.14,1.14,0,0,1,.3-.07.73.73,0,0,1,.26-.09,1.18,1.18,0,0,0,.25-.1l.1,0,.09,0,.15,0a24.61,24.61,0,0,0,4.11-1.83,43.12,43.12,0,0,0,4.43-2.84,49.57,49.57,0,0,0,4.35-3.57,41.38,41.38,0,0,0,3.84-4,30.82,30.82,0,0,0,2.94-4.24,15,15,0,0,0,1.67-4.19s0-.09,0-.11a.31.31,0,0,0,0-.11l0-.23a2,2,0,0,0,.08-.48l0-.44A5.81,5.81,0,0,0,107,50a5.37,5.37,0,0,0-1.06-2.43,7,7,0,0,0-1.9-1.7,11.09,11.09,0,0,0-2.49-1.12,19.15,19.15,0,0,0-2.77-.64,27.1,27.1,0,0,0-2.78-.3c-.92,0-1.76-.08-2.52-.08a62.7,62.7,0,0,0-8.6.6,54.55,54.55,0,0,0-8.5,1.85,50.51,50.51,0,0,0-8.06,3.21A39.56,39.56,0,0,0,61.09,54a.75.75,0,0,0-.14.12l0,0a.72.72,0,0,1,.15-.11s.08-.07.11-.07,0,0,0,0l-.28.2a3,3,0,0,0-.28.25c-.17.12-.33.24-.48.37l-.45.37a.63.63,0,0,1-.18.14l-.15.15s0,0,0,0a42.44,42.44,0,0,0-5.24,5.46,38.64,38.64,0,0,0-4.21,6.45,36,36,0,0,0-2.79,7.13,30.33,30.33,0,0,0-1.1,7.48,30.78,30.78,0,0,0,.17,3.21,16.44,16.44,0,0,0,.65,3.13.6.6,0,0,0,.07.26.63.63,0,0,0,.08.26l0,.15a13.39,13.39,0,0,0,3.12,5.15l.22.22.18.18.22.19a2.18,2.18,0,0,0,.49.37s.08.07.11.07.12.11.15.11,0,0,0,0l-.28-.22a2.08,2.08,0,0,0-.31-.22,2,2,0,0,1,.33.24,3.33,3.33,0,0,0,.34.24l.09.05s0,0,.09.06l.19.11-.19-.09,0,0,.28.16a3.65,3.65,0,0,0,.44.26l.45.24a.79.79,0,0,0,.24.12l.13,0,.13.06.11.07a19.88,19.88,0,0,0,3.5.95,25.8,25.8,0,0,0,3.61.35h.11c1.24,0,2.45-.06,3.63-.17a19.26,19.26,0,0,0,3.56-.68H68c.47-.1.93-.22,1.39-.34s.92-.26,1.38-.41l.08,0,.37-.11.11,0a1.6,1.6,0,0,1,.39-.11,3,3,0,0,0,.54-.19l-.43.15-.43.15c-.07,0,0,0,.26-.08l1.25-.44L74.14,95a.87.87,0,0,1,.26-.08l.76-.29a4.79,4.79,0,0,0,.72-.34c.15,0,.21-.07.18-.07l.08,0s0,0-.08,0l-.29.11a.31.31,0,0,1-.19.09.72.72,0,0,0-.22.1l-.3.13a1,1,0,0,0-.22.09l-.15.07c.5-.2,1-.4,1.47-.63l1.46-.66.55-.26-.11.07.45-.22L79,92.8a9,9,0,0,0,.89-.43l.85-.46-.15.07-.22.12a1.42,1.42,0,0,1-.3.14l-.25.11a.09.09,0,0,1,.07,0s.06,0,.11-.08c1.46-.74,2.87-1.51,4.22-2.33l.36-.2.14-.1.08,0a.32.32,0,0,1,.13-.09,1.27,1.27,0,0,1,.22-.13l.22-.13L85.7,89l.14-.07a1.09,1.09,0,0,1,.17-.13l.2-.13a.91.91,0,0,1,.19-.13l.22-.13.08-.07a.09.09,0,0,0,0,.07l-.37.22-.33.23h0a1.81,1.81,0,0,0,.29-.19,2.49,2.49,0,0,1,.3-.19.86.86,0,0,0,.19-.11l0,0,.15-.11.3-.19a1.29,1.29,0,0,0,.33-.22,4.39,4.39,0,0,1,.41-.28l.3-.2.33-.19a.81.81,0,0,1,.26-.18l.11-.12.19-.11,0,0,.09-.08L89,86.8l-.11,0-.11.12-.19.11a.76.76,0,0,1,.13-.1.31.31,0,0,0,.13-.09l.08,0,.29-.22.3-.22.18-.11a1.07,1.07,0,0,0,.26-.17,2.44,2.44,0,0,1,.3-.24l.33-.22.3-.22.07,0,0,0a1,1,0,0,1,.21-.15l.2-.14a.83.83,0,0,0,.22-.15l0,0a2.52,2.52,0,0,0,.45-.33l.56-.41.42-.35,0,.06,0,0,.48-.36q2.4-1.84,4.71-3.81l-.3.26a1,1,0,0,0,.18-.15l.23-.19.14-.13a.87.87,0,0,0,.15-.13l.08-.07a.2.2,0,0,0,.11-.07l0,0,0,0-.11.08-.18.18-.12.09s0,0-.07.06l-.13.13-.13.13-.07,0a.36.36,0,0,1,.09-.08.58.58,0,0,0,.13-.11l0,0,.11-.11.13-.11.13-.11a5.51,5.51,0,0,0,.44-.37l-.07.07a4.17,4.17,0,0,1,.33-.29l.13-.11.2-.19a2,2,0,0,0,.26-.2l.23-.21.26-.26,0,0,.09-.08a.56.56,0,0,0,.15-.11,1.46,1.46,0,0,1-.26.3.24.24,0,0,1-.09.11.88.88,0,0,0-.17.15.33.33,0,0,1-.11.13.87.87,0,0,0-.15.13l-.18.18,0,0h0l-.18.18-.22.23-.89.77.07,0c-.29.25-.59.49-.87.74s-.57.49-.87.74l-.07,0,.22-.19c-.17.17-.32.3-.43.39l-.35.28-.26.22-2.15,1.69-2.15,1.64-.07.08-.13.07-.13.11c-1.14.82-2.29,1.61-3.45,2.38s-2.33,1.5-3.52,2.22l.15-.07.08,0s0,0-.11.07c-.28.17-.55.34-.84.5l-.83.47-.22.14-.26.15-.26.15a1.72,1.72,0,0,0-.41.26.5.5,0,0,1-.2.09.35.35,0,0,0-.17.09l-.32.15-.27.15a1.28,1.28,0,0,1-.34.19,1.13,1.13,0,0,0-.33.18l-.07,0c-.77.39-1.54.77-2.32,1.13s-1.56.71-2.35,1.05l0,0a.28.28,0,0,1-.14.09.47.47,0,0,0-.15.06l-.11,0a2.57,2.57,0,0,1-.41.17,1.42,1.42,0,0,0-.3.13.1.1,0,0,1,.08,0h0a5,5,0,0,0,.7-.29,1.33,1.33,0,0,1-.24.11.86.86,0,0,0-.24.11l-.07,0h0l.22-.07a1.05,1.05,0,0,1,.3-.15,2.81,2.81,0,0,0,.37-.15l-.52.23a2.93,2.93,0,0,0-.37.14l.08,0a.62.62,0,0,1,.22-.1.31.31,0,0,0,.18-.09s.08,0,.1,0h0l-.07,0a.26.26,0,0,0-.19.08h0a1.81,1.81,0,0,0-.33.14.48.48,0,0,1-.18.06.47.47,0,0,0-.19.06l-.07,0h0l-.11,0c-.59.25-1.19.47-1.8.67L70,96.69a.67.67,0,0,1-.24.06s0,0-.06,0h0a.09.09,0,0,1-.07,0c-.08,0-.12,0-.15,0h0a.1.1,0,0,0,.08,0,.1.1,0,0,1-.08,0,.24.24,0,0,0-.11,0l-.55.11.48-.11A.49.49,0,0,0,69,97a.56.56,0,0,0-.26.07l-1,.23-.48.11-.56.11-.28,0-.31.06-.32,0-.28.06a2.9,2.9,0,0,0-.55.07l-.22,0a.9.9,0,0,1-.23,0,1.45,1.45,0,0,1-.4,0,1,1,0,0,1-.21,0h-.7c-.19,0-.37,0-.54.06l-.33,0h-.15a2.54,2.54,0,0,1-.41,0h-.44a23.54,23.54,0,0,1-6.6-.92,1.46,1.46,0,0,0-.29-.08,1,1,0,0,0-.23-.09l-.14-.05-.15,0a9.88,9.88,0,0,1-3.8-2.39A13.31,13.31,0,0,1,47.5,90.8l0,.07v0c-.34-.79-.64-1.59-.9-2.39a15.69,15.69,0,0,1-.58-2.5c0,.17.05.33.08.48a3.26,3.26,0,0,0,.11.48.5.5,0,0,0,0,.19,17.59,17.59,0,0,1-.44-2.86l.07.75V85a.53.53,0,0,0,0-.13.27.27,0,0,1,0-.13,20.87,20.87,0,0,1-.11-2.24c0-.75,0-1.49.07-2.2v.2a1.39,1.39,0,0,1,0,.32v.33a.28.28,0,0,1,0,.15c.05-.79.12-1.58.22-2.37s.22-1.58.37-2.38a.38.38,0,0,0,0-.13.39.39,0,0,1,0-.13,2.06,2.06,0,0,1-.07.38,2.27,2.27,0,0,0-.08.37c-.07.39-.14.79-.2,1.18S46,79,45.9,79.39v.29a.79.79,0,0,0,0,.26c.07-.79.17-1.55.29-2.29s.28-1.49.45-2.23a1.24,1.24,0,0,0,.07-.26.21.21,0,0,0,0-.11l0,0a.4.4,0,0,1,0,.15c.17-.64.35-1.28.53-1.91s.4-1.27.65-1.91v0A4.08,4.08,0,0,0,48,70.9l.22-.55.15-.3.07-.22.11-.22-.18.48c.15-.37.3-.74.46-1.1l.5-1.09q-.18.45-.39.87l-.39.87a35.48,35.48,0,0,1,2.63-5l0,0c.2-.32.39-.63.59-.93s.4-.6.59-.93l.12-.11a2.53,2.53,0,0,1,.26-.4A1.86,1.86,0,0,1,53,62l.11-.14a3.33,3.33,0,0,1,.24-.34,2,2,0,0,0,.24-.33.58.58,0,0,0,.11-.13.36.36,0,0,1,.08-.09s0,0,0-.08a1,1,0,0,0-.15.19,1,1,0,0,0-.13.16.76.76,0,0,1-.13.17.62.62,0,0,1-.13.2s0,0,0,0a36.44,36.44,0,0,1,3.59-4.11c.22-.23.32-.34.3-.34-.18.18-.34.34-.48.5s-.31.33-.49.5l-.29.3c0,.07-.13.16-.22.26,1-1.11,2.11-2.16,3.22-3.15a42.59,42.59,0,0,1,3.52-2.82.31.31,0,0,1,.13-.09.31.31,0,0,0,.13-.09,1.39,1.39,0,0,1-.3.2.83.83,0,0,0-.18.13l-.11.11s0,0,0,0a.08.08,0,0,1,.07,0,.08.08,0,0,0-.07,0L62,53l-.13.11c-.22.15-.44.3-.65.46l-.61.5.28-.24.28-.2c.2-.15.33-.26.41-.33l.76-.5a8.67,8.67,0,0,0,.72-.58q.18-.11.18-.09a1,1,0,0,0,.26-.17l.37-.26L65,51c.37-.23.75-.46,1.14-.68-.22.12-.44.25-.66.4s-.45.29-.67.41l1.11-.65c.37-.21.66-.37.85-.5l-.18.11q1.11-.63,2.28-1.2c.77-.38,1.56-.75,2.35-1.09l.22-.08.19-.07c.15-.08.22-.11.22-.09s0,0,.15-.06l.29-.15.23-.07.22-.08-.26.08-.07,0h0l.06,0s0,0,.05,0l1.62-.57c.53-.19,1.06-.37,1.61-.54L76,46l.2-.08-1.13.37L74,46.67l-.44.19-.28.09-.32.13-.5.18-.35.15h0l0,0q-.48.18-.93.39c-.3.14-.6.26-.93.39l-.12.05a.38.38,0,0,0-.13.1l-.23.07a1.3,1.3,0,0,1-.26.11c.45-.2.9-.39,1.36-.57l1.35-.58.07,0-.26.11-.13,0-.13.06-.26.11,0,0a.14.14,0,0,1-.09,0l-.5.22-.36.15c1.29-.57,2.58-1.08,3.88-1.54s2.61-.86,3.94-1.2l-2,.57a20.08,20.08,0,0,0-1.94.65,1.45,1.45,0,0,1,.4-.17l.71-.24,1-.3,1-.29.48-.15a1.77,1.77,0,0,1,.39-.09,2.84,2.84,0,0,0,.31-.06.56.56,0,0,1,.24-.07,1,1,0,0,0,.21,0l.53-.13.54-.13.65-.15.65-.15.37-.05a1.8,1.8,0,0,0,.41-.09,3.54,3.54,0,0,1-.6.11l-.22,0-.29.06c1.16-.25,2.31-.45,3.46-.59s2.31-.28,3.5-.38a1,1,0,0,1,.26,0h-.07l.4,0h0c.47-.05.93-.08,1.37-.09s.9,0,1.37-.09h.74c-.81,0-1.61,0-2.41.11h-.29l-.33,0h-.26l-.08,0-.07,0,.15,0-.26,0,.14,0,.26,0h0l.22,0c.64-.05,1.27-.09,1.89-.11s1.23,0,1.85,0h.19c1,0,2,0,3,.07a24.08,24.08,0,0,1,3,.34l-.31,0-.32-.06a.22.22,0,0,0-.15,0h0l.37.08.13,0,.13,0H99a0,0,0,0,0,0,0l-.11,0a.93.93,0,0,1-.22,0,.87.87,0,0,1-.3,0c.6.1,1.19.21,1.78.34a14.2,14.2,0,0,1,1.78.48l.15.07a13.36,13.36,0,0,1,2.48,1.24,6.3,6.3,0,0,1,1.93,2l.07.09s0,0,.11.17l0,.07c.05.08.07.11.06.11s0,0,0,.11l.07.08-.09-.17s0,0-.06-.09,0,0,.08.15a3.33,3.33,0,0,1,.29.7,6.7,6.7,0,0,1,.19.74s0-.07,0-.07,0,0,0,0l0,.11c0,.12,0,.24,0,.35a2.33,2.33,0,0,0,.06.35ZM66.13,97.54s-.06,0,0,0a.82.82,0,0,1,.26-.06l.37,0,.11,0h0l-.11,0A3,3,0,0,1,66.13,97.54Zm.82-.15a.1.1,0,0,0-.07,0l-.12,0a.47.47,0,0,1,.23,0l.18,0,.5-.13a3.09,3.09,0,0,0,.46-.13l-.4.12H67.6a.2.2,0,0,1-.1,0,.23.23,0,0,1-.14,0l-.3.07Zm3.74-21.82a.24.24,0,0,0,.11,0,.1.1,0,0,1,.08,0,.24.24,0,0,0-.13-.08.13.13,0,0,1-.1,0,.62.62,0,0,0-.18-.07l-.15-.07ZM71,96.06l-.16.07A.62.62,0,0,1,71,96.06Zm5.76-1.93-1,.45-1,.44.07,0h0c.32-.15.64-.3,1-.43Zm-1.7.74a7.07,7.07,0,0,1,.69-.27,6,6,0,0,0,.68-.32l-1.22.56-.33.11ZM85.84,74.24h0a.13.13,0,0,1-.08,0,.13.13,0,0,1,.08,0s0,0,0,0h0l.11,0h0Zm5.34,11v0a.09.09,0,0,0,.07,0,.09.09,0,0,1-.07,0,.09.09,0,0,0,.07,0ZM99,79.05a1.29,1.29,0,0,0-.17.15c.05-.07.09-.11.11-.11l.11-.11.08,0Zm8-30.15a.09.09,0,0,1,0,.07.13.13,0,0,0,0,.07,4.14,4.14,0,0,0-.22-.48A1.61,1.61,0,0,1,107,48.9Z"/><path class="cls-2" d="M110.85,75.91,111,76V76l-.06.06v.06a.88.88,0,0,1-.21.24.88.88,0,0,0-.21.24q-.06.18-.18.18-.48.36-.57.45l-.15.15a3.92,3.92,0,0,1-.42.24l-.06.06a1.67,1.67,0,0,1-.6.36.92.92,0,0,1-.36.15,1.07,1.07,0,0,0-.3.09s0,.06-.12.06l.12-.06-.12.06a1.69,1.69,0,0,0-.33,0,.89.89,0,0,1-.27,0,.17.17,0,0,1-.12-.06h-.12a.12.12,0,0,0-.09,0s0,0-.09,0a1.07,1.07,0,0,0-.48-.12l-.06.12s-.06.07-.06.09,0,0-.06.09a2,2,0,0,1-.12.21,2,2,0,0,0-.12.21q.12-.18,0-.06c-.08.09-.08.06,0-.06l-.15.24-.09.18h-.06q-.18.24-.24.24l-.51.45a.25.25,0,0,1-.15.09l-.24.12a.53.53,0,0,1-.24.06h-.39a.69.69,0,0,1-.39-.12,1.16,1.16,0,0,1-.66-1s-.06-.14-.06-.3v-.36q.06-.3.12-.3.06-.48.12-.48v-.06a.19.19,0,0,1,.06-.12v-.18a.58.58,0,0,0,.12-.3.94.94,0,0,0,.18-.24l.06-.12q.12-.18,0-.09t0-.09a.17.17,0,0,0,.06-.12q.18-.3.42-.66a.67.67,0,0,1-.06-.3v-.18q.06-.48.06-.6a.57.57,0,0,1,.06-.24l.18-.36a1.29,1.29,0,0,1,.24-.3l-.12.12-.06.12q.18-.18.18-.24l.3-.21.18-.09q.12,0,.12-.06a.47.47,0,0,0,.3-.06h.3a.53.53,0,0,1,.24.06.42.42,0,0,1,.18,0,.27.27,0,0,0,.12,0,.23.23,0,0,0-.12-.06.12.12,0,0,1,.09,0,.12.12,0,0,0,.09,0,2.29,2.29,0,0,1,.54.48,2.94,2.94,0,0,1,.18.3q-.06-.3-.18-.36a.59.59,0,0,1,.15.24.53.53,0,0,0,.15.24v.06a.9.9,0,0,1,.06.36.24.24,0,0,0-.06-.18.47.47,0,0,1,.06.3v-.06a2.23,2.23,0,0,1,.06.54.93.93,0,0,1-.06.3h.06A.52.52,0,0,0,107,76c0,.15,0,.23,0,.27A1,1,0,0,1,107,76v-.24a1.8,1.8,0,0,0,.06-.3.7.7,0,0,0-.06.3v0a3.45,3.45,0,0,0-.06.66.24.24,0,0,0-.06.18.6.6,0,0,0,.06-.27A.6.6,0,0,1,107,76a.17.17,0,0,1-.06.12v.24q-.06.18-.18.66v-.12a2.37,2.37,0,0,1-.3.84l-.06.06a1,1,0,0,0,.3.06l.36.06h.18q.24,0,.24-.06h.18a.17.17,0,0,0,.12-.06h.06l-.06.06a1.07,1.07,0,0,1,.3-.09.92.92,0,0,0,.36-.15,2.55,2.55,0,0,1,.36-.24.73.73,0,0,1,.36-.18h-.06a.05.05,0,0,0-.06.06v-.06a1.21,1.21,0,0,0,.36-.18l.06-.06v-.06l.24-.12a.17.17,0,0,0,.12-.06l.06-.06.06-.06a2.8,2.8,0,0,0,.33-.24l.27-.24-.06.06.27-.21Zm-5.76,3.18.36-.48a6.32,6.32,0,0,0,.36-.54,3.55,3.55,0,0,1-.54-.3l-.12-.06-.12-.12-.18-.12a.94.94,0,0,0-.24-.18,5.22,5.22,0,0,0-.36-.42l-.12-.24-.06-.18-.12.24a3,3,0,0,0-.18.48,1.16,1.16,0,0,1-.18.3.52.52,0,0,0-.06.21.48.48,0,0,1-.06.21,1.29,1.29,0,0,1-.09.3,1.29,1.29,0,0,0-.09.3,2.85,2.85,0,0,0-.06.66,1,1,0,0,0,.12.42.17.17,0,0,0,.12.06.35.35,0,0,0,.24.12.17.17,0,0,1,.12.06,1.08,1.08,0,0,0,.48-.09,2.24,2.24,0,0,0,.36-.21Zm-.18-5.1a1.86,1.86,0,0,0-.54.66,1.61,1.61,0,0,0-.12.6l.12-.12s.06,0,.06,0,0,0,.06,0l.06.06v.18a3.18,3.18,0,0,1-.15.36l-.09.18a.19.19,0,0,1,.06.12,3.42,3.42,0,0,0,.78,1.14L105,77q-.3-.3-.3-.42a.69.69,0,0,0,.09.15.69.69,0,0,1,.09.15l.12.06.06.06,0,0,0,0a1.07,1.07,0,0,0,.3.3l.66.42a9.61,9.61,0,0,0,.54-1.62,2.77,2.77,0,0,1,0-.39,3.19,3.19,0,0,0,0-.45,2,2,0,0,1-.06-.48,1.29,1.29,0,0,0-.24-.42.94.94,0,0,0-.6-.36l-.24-.06a.84.84,0,0,0-.3.06H105s-.06,0-.06,0S105,74,104.91,74Zm1.74,4.38q-.12-.06-.09,0a.12.12,0,0,0,.09,0h0Zm.06.06s.07,0,.09,0a.12.12,0,0,1,.09,0h-.24A.06.06,0,0,1,106.71,78.43Zm1.08-.12a.31.31,0,0,0,.18,0,.27.27,0,0,1,.12,0,.24.24,0,0,0-.15,0S107.87,78.31,107.79,78.31Zm.06,0a.24.24,0,0,0,.18-.06.35.35,0,0,1-.24.06Z"/><path class="cls-2" d="M119.91,76a.27.27,0,0,1-.15.15,4.73,4.73,0,0,0-.51.27l-.06.06a.22.22,0,0,0-.18.06,4.24,4.24,0,0,1-.54.3h-.06l-.06.06a.16.16,0,0,0-.12.06h-.06l-.3.12v.06l-.24.12-.06-.06v.06a.56.56,0,0,0-.36.3.23.23,0,0,0,.06.18.27.27,0,0,0,0,.12.42.42,0,0,1,0,.18.31.31,0,0,0,0,.15.27.27,0,0,1,0,.21.65.65,0,0,1-.06.24.39.39,0,0,1-.18.18,2.88,2.88,0,0,1-.24.18l-.06.06a3.57,3.57,0,0,1-.78.06h-.36a.52.52,0,0,0-.18-.06l-.18-.06-.24-.24v-.18a.12.12,0,0,1,0-.09,1.53,1.53,0,0,0,.15-.33c.19-.2.39-.39.57-.57a1.28,1.28,0,0,0,.27-.93.47.47,0,0,1-.09-.12,3.7,3.7,0,0,0-.27-.36l-.24-.24-.06-.06-.12-.24-.12-.18v-.06q0-.12-.06-.12a.19.19,0,0,1,.06.12.53.53,0,0,1-.06-.24v-.06a.55.55,0,0,1,.3-.3h.3a.17.17,0,0,0,.12.06h.06c0,.09.07.12.09.12s0,0,.09.12a.93.93,0,0,1,.18.66v-.06q0,.12,0,.12s0,0,0,.06a.12.12,0,0,0,0,.09.14.14,0,0,1,0,.09l.12.12.36.54a.25.25,0,0,1,.06.15.33.33,0,0,0,.12.21l.54-.24a.17.17,0,0,1,.12-.06l.12-.12a.93.93,0,0,1,.42-.12h.06a.17.17,0,0,1,.12-.06l.12-.12a.79.79,0,0,1,.39-.18,1.51,1.51,0,0,0,.39-.12l.06-.06h.06a.89.89,0,0,1,.24-.06h.18l-.06-.06.06.06Q119.91,76,119.91,76Zm-3.06,2.22a1.64,1.64,0,0,0-.06-.36V78q-.06-.18-.12-.18s0,0-.06,0h-.06c-.09.08-.14.12-.18.12l-.12.06-.06.06a.52.52,0,0,1-.3.18l.12-.06H116a.27.27,0,0,0-.15.18,1.17,1.17,0,0,1-.09.24,1.45,1.45,0,0,0,.54.06h.06a.42.42,0,0,0,.18,0,.27.27,0,0,1,.12,0h.06s.06,0,.06,0A1.46,1.46,0,0,1,116.85,78.25Zm1-1.14-.06.12.06-.06Zm.48-.24-.06.06A.05.05,0,0,0,118.35,76.87Zm-.06.12.06-.06A.05.05,0,0,0,118.29,77Z"/><path class="cls-2" d="M137.18,76h.12l-.05.06v.12h-.07a1.18,1.18,0,0,0-.14.24,1.72,1.72,0,0,1-.16.18s0,.06,0,.06v.06c-.09,0-.12.07-.12.09a.17.17,0,0,1-.07.09l-.51.45-.15.15a1.78,1.78,0,0,0-.35.24l-.13.12-.54.42a6.32,6.32,0,0,1-.54.36.17.17,0,0,1-.12.06.17.17,0,0,0,.12-.06l-.12.06.06-.06-.06.06h-.05l-.12.09a.6.6,0,0,0-.13.09l-.29.12h0s-.05.06-.13.06l-.06.12a2.34,2.34,0,0,0-.48.18l-.12-.06v.06a2,2,0,0,1-.9.24,1.86,1.86,0,0,1-.77-.12,1.08,1.08,0,0,1-.54-.54l-.07-.12v-.06a1,1,0,0,1-.18-.48v.12a.67.67,0,0,0-.06-.3v.06a4.4,4.4,0,0,0-.11-.6s0,.07,0,.09a.12.12,0,0,1,0,.09.49.49,0,0,0,0-.15.68.68,0,0,1,0-.21v0c0-.27,0-.42-.12-.42v-.12l-.19.36a.45.45,0,0,0-.18.15,2.25,2.25,0,0,1-.17.21c-.09.09-.08.07,0,0s.07,0-.09.15a.45.45,0,0,0-.18.15,2.25,2.25,0,0,1-.17.21c.07-.08.12-.14.12-.18a2.82,2.82,0,0,1-.25.3,3.9,3.9,0,0,1-.36.33,2.25,2.25,0,0,0-.24.21l.24-.24a1.71,1.71,0,0,1-.36.3l-.06.06s-.07.06-.09.06-.05,0-.08.06L128,79h0l.06-.06s.07,0,.07,0,0,0,.05,0-.07.06-.09.06S128,79,128,79a3.62,3.62,0,0,1-.5-.09.46.46,0,0,1-.21-.15,1.18,1.18,0,0,1-.07-.36s0,0,0-.12v-.18a1.31,1.31,0,0,0,0,.48.59.59,0,0,0,0-.3s0,0,0,.12v-.12a1.42,1.42,0,0,1,0-.3v-.48c-.17,0-.25,0-.25.12l-.06.06.18-.18q-.12.06-.12.12s0,.1-.12.18l0,.06a.13.13,0,0,1,0,.09.12.12,0,0,0,0,.09.54.54,0,0,0-.14.18l-.16.18,0-.06c-.07.08-.06.08,0,0a1.71,1.71,0,0,0-.3.36.88.88,0,0,0-.18.3,7.29,7.29,0,0,0-.54.57,2,2,0,0,0-.12.21,1.24,1.24,0,0,1-.84.54h-.12l-.12-.06c-.07-.08-.12-.14-.12-.18l-.06-.06a.16.16,0,0,1-.06-.12v-1a.66.66,0,0,1,0-.18.18.18,0,0,0,0-.12,1.64,1.64,0,0,0,.06-.36,1.36,1.36,0,0,0,.07-.42v-.06a.23.23,0,0,0,0-.18v-.12c0-.2.09-.3.12-.3a.57.57,0,0,1,.06-.24l.06-.12q.06-.18,0-.09t0-.09a.11.11,0,0,1,0-.09.2.2,0,0,0,0-.09,1.07,1.07,0,0,0,.09-.3.92.92,0,0,1,.15-.36l.12-.3,0,.06.11-.12q.12-.42.36-.48v.3a3.13,3.13,0,0,0,0,.48V76c0,.09-.06.09,0,0s0-.06,0,0v.24a1.12,1.12,0,0,0-.05.36l-.09.36a.3.3,0,0,0,0,.18l-.08.24a.21.21,0,0,0,0,.12.62.62,0,0,1,0,.21.68.68,0,0,0,0,.21.43.43,0,0,0-.07.21.63.63,0,0,1-.05.21,1,1,0,0,1-.07.3.27.27,0,0,0,0,.21.13.13,0,0,1,0,.15,3.2,3.2,0,0,0-.06.72,2.49,2.49,0,0,0,.48-.36l.3-.3a1.5,1.5,0,0,0,.21-.24,1.25,1.25,0,0,0,.16-.24,1,1,0,0,0,.17-.24.94.94,0,0,1,.18-.24.47.47,0,0,0,.09-.12.35.35,0,0,1,.1-.12l.23-.36a2.07,2.07,0,0,0,.42-.6,1.13,1.13,0,0,1,.31-.24.56.56,0,0,1,.54.24v.06a2.31,2.31,0,0,1-.07.66v.72l.12.24h.12l.06-.06.33-.24a2.1,2.1,0,0,0,.27-.24,2.31,2.31,0,0,0,.39-.36q.15-.18.33-.36a4.24,4.24,0,0,1,.42-.48l.07-.06a.5.5,0,0,1,.11-.18.56.56,0,0,0,.12-.18,1.79,1.79,0,0,0,.24-.18.51.51,0,0,1,.49.24v.12h0v.72c0,.28.09.57.16.87a1.35,1.35,0,0,0,.38.75l.18.18s0-.09-.15-.15a.25.25,0,0,1-.15-.21.47.47,0,0,1,.09.12.34.34,0,0,0,.09.12.24.24,0,0,0,.18.06h-.06a.43.43,0,0,0,.31.12,2.11,2.11,0,0,0,.77-.12l.61-.24c.23-.08.31-.12.23-.12l.36-.18a.35.35,0,0,0,.24-.12q.12-.12.09-.06s0,0,.09,0l.07-.06s0-.06.05-.06l-.05.06.23-.12.06-.06.25-.12.05-.06a.39.39,0,0,1,.12-.15.62.62,0,0,0,.18-.15l.28-.15.08-.09-.06.06a.94.94,0,0,1,.24-.18l.07-.06.05-.06v-.06l.24-.12a.22.22,0,0,1,.13-.06l.05-.06q.12-.12,0-.06c-.06,0-.05,0,0-.06s.21-.12.17-.12a2.91,2.91,0,0,1,.42-.36l0,.06A1.1,1.1,0,0,1,137.18,76ZM125,75.25l-.06.06A.05.05,0,0,0,125,75.25Zm5.46,3.06-.06-.06A.05.05,0,0,0,130.46,78.31Zm3,.84-.08.09s0,0,.08,0Zm.12-.06s0,.06-.12.06v.06h.06Zm.78-.42.24-.12s-.07.06-.09.06,0,0-.09.06Zm0,0,.24-.12a.17.17,0,0,1-.12.06A.23.23,0,0,0,134.36,78.67Z"/><path class="cls-2" d="M148.52,76.09c-.12.16-.24.3-.35.42h-.07a1.74,1.74,0,0,1-.47.42V77s-.11,0-.19.12l-.36.3a.17.17,0,0,1-.12.06l-.72.6.06-.06-.06.06c-.11,0-.18.08-.18.12l-.24.12-.12.12-.06.06q-.12.12-.18.12a.23.23,0,0,0-.12.06h-.12v.06h.06q-.12.12-.18.12a.17.17,0,0,0-.12.06,2,2,0,0,0-.3.18l-.51.3-.39.24h-.06l-.05.06a1,1,0,0,1-.37.12c.08,0,.12,0,.12,0s0,0,.06,0a1.05,1.05,0,0,1-.3.12,1.38,1.38,0,0,1-.36.18q.12,0,.12-.06l-.24.12h-.06l-.06.06s.06-.06.18-.06h-.18a.24.24,0,0,1-.18.06l-.06.06a.12.12,0,0,0-.09,0,.24.24,0,0,1-.15,0,.24.24,0,0,1-.18.06h-.06a.84.84,0,0,1-.36-.06.37.37,0,0,0,.24.06h-.18a.05.05,0,0,0-.06-.06,1.6,1.6,0,0,1-.42-.3q0-.12-.06-.12a1.16,1.16,0,0,0-.12-.36c0-.08,0-.06,0,.06l0-.12a.68.68,0,0,0,0-.21.46.46,0,0,1,0-.21v.18c0-.32.08-.54.09-.66a1.16,1.16,0,0,0,0-.3.53.53,0,0,0-.06.24.66.66,0,0,1,0-.18.31.31,0,0,0,0-.18,1,1,0,0,0,.06-.3V78c0-.2.09-.36.12-.51a3.83,3.83,0,0,1,.18-.45.3.3,0,0,1,0-.12.17.17,0,0,0,0-.12.41.41,0,0,1-.06.24v.06s-.06,0-.06.12l-.06.12.06-.12-.06.06v.12l.06-.12v-.06l.18-.48s0-.06,0-.06,0,0,0-.06l-.18.36.06-.12c0-.08,0-.12.06-.12a.24.24,0,0,1,0-.09s0,0,0-.09.08-.13.09-.15a.32.32,0,0,0,.09-.15.21.21,0,0,0-.05.12s0-.1.11-.18a1.79,1.79,0,0,1,.3-.42l.06-.06a.35.35,0,0,1,.12-.24l-.05.12-.07.06-.06.06s.06-.07.06-.09,0,0,.07-.09l.17-.18.06-.06a1.37,1.37,0,0,1,.24-.21.85.85,0,0,0,.18-.15l-.06.06s.07-.06.09-.06.05,0,.09-.06a.33.33,0,0,1,.21-.12.2.2,0,0,0,.15-.06h.87a.29.29,0,0,1,.21.06h-.06a.32.32,0,0,1,.24.36v.24a2,2,0,0,1-.36.72.28.28,0,0,1-.12.15s-.06.05-.06.09l-.12.12a.94.94,0,0,1-.18.24l-.24.24-.18.24h-.06v.06a.14.14,0,0,0-.11.06s.05,0,.05,0,0,0,.06,0a.14.14,0,0,0-.11.06v.06a2.32,2.32,0,0,1-.31.18l-.12.06-.06.06-.06.06s0,0-.06.06a2.67,2.67,0,0,1-.84.48l.06-.06c-.2.12-.3.21-.32.27a1.09,1.09,0,0,0,0,.39v.24a1.28,1.28,0,0,0,.12.66,7,7,0,0,0,1.47-.33A10.35,10.35,0,0,0,144,79a.4.4,0,0,0-.24.09.36.36,0,0,1-.18.09.35.35,0,0,1,.24-.12l.12-.12q.12-.06,0,.06t0,0l.18-.12s0,0,0,0a.29.29,0,0,1,.15-.06l.3-.18a1.8,1.8,0,0,0,.3-.18,2,2,0,0,0,.31-.18l.11-.12.12-.06.06-.06s.07-.06.09-.06.07,0,.15-.12.18,0,.18-.12.12,0,.12,0,0,0,.13-.09l-.07.06.07-.06a.17.17,0,0,1,.11-.06l.06-.06a1.37,1.37,0,0,1,.24-.21l.13-.09a.17.17,0,0,1,.11-.06.68.68,0,0,0,.24-.24v.06l.09-.09.15-.15h.06a.94.94,0,0,1,.24-.18h.07c.07-.08.08-.1,0-.06s-.05,0,0-.06l.36-.18.13-.12v.06a.45.45,0,0,1,.35-.12Zm-7,1.68c.09,0,.12-.08.12-.12a.17.17,0,0,0,.12-.06l.24-.24a2.17,2.17,0,0,0,.78-.66l.12-.09a.47.47,0,0,0,.12-.09l.12-.12a.85.85,0,0,0,.15-.18.11.11,0,0,1,.09-.06,1.1,1.1,0,0,0,.33-.39q.15-.27.27-.45a.19.19,0,0,0-.12-.18h-.12a1,1,0,0,0-.42.12,2.78,2.78,0,0,0-.44.33,5.56,5.56,0,0,0-.46.39,2.69,2.69,0,0,0-.42.66.53.53,0,0,0-.15.24,1.17,1.17,0,0,1-.09.24,2.33,2.33,0,0,0-.12.3C141.65,77.53,141.6,77.65,141.56,77.77Zm4.14.66-.06.06Zm.54-.42a.51.51,0,0,0,.18-.12C146.34,78,146.28,78,146.24,78Zm.06,0s.06,0,.06,0,0,0,.06,0A.23.23,0,0,0,146.3,78Z"/><path class="cls-2" d="M170.54,69a.56.56,0,0,1,.3.36l-.06-.06s0,0-.06,0h-.06a1,1,0,0,0-.27-.06,1,1,0,0,1-.27-.06h-.06s0-.06-.12-.06h-.06l-.63-.15L169,69a3.28,3.28,0,0,0-.72-.12.86.86,0,0,1-.33,0,.12.12,0,0,0-.09,0h-.78s0-.06.12-.06h-.36a.42.42,0,0,1-.18,0,.42.42,0,0,0-.18,0h-.24a1,1,0,0,1-.42-.06h-.54a1.56,1.56,0,0,1-.48-.06h-1.2s0,0,0,0l-.15,0H161.9q.12,0,.12-.06a.24.24,0,0,0,.18.06s0-.06-.12-.06h-.54q-.06.18-.18.18a3.51,3.51,0,0,1-.42.48q-.3.3-.6.63l-.6.63-.18.18a6,6,0,0,1-.54.6,2.38,2.38,0,0,0-.36.3l-.3.3-.06.06a2.91,2.91,0,0,0-.36.42l-.12.06-.12.12-.06.06.06-.06s-.06.07-.06.09,0,.07-.12.15l-.06.06A2.91,2.91,0,0,0,157,73l-.3.21a.94.94,0,0,0-.12.09l-.18.18-.12.12h0l-.18.18a.1.1,0,0,0-.09.06.32.32,0,0,1-.15.12,6.69,6.69,0,0,1-1,.84l-.48.42.12-.06-.3.18h-.06v.06h0l-.12.06-.24.24a.35.35,0,0,0-.24.12,3.2,3.2,0,0,0-.06.72,5.44,5.44,0,0,0,.3,1.74v.06a1.18,1.18,0,0,1,.12.3,1,1,0,0,1,.18.3.62.62,0,0,0,.18.15l.12.09q.12.06.06.06a.17.17,0,0,1-.12-.06l-.12-.12a1,1,0,0,0,.54.3h.12a1.76,1.76,0,0,1,.42-.06.12.12,0,0,0,.09,0,.12.12,0,0,1,.09,0h-.24A7.1,7.1,0,0,0,156,79a5.08,5.08,0,0,0,.66-.33h.06s.06-.08.18-.12v-.06l-.06.12h-.12l.24-.12.06-.06a1.79,1.79,0,0,0,.24-.18h.06l.12-.12h.06l.06-.06.06-.06.3-.18.24-.24.12-.06.12-.09.12-.09.12-.12.18-.18a2.87,2.87,0,0,0,.48-.36,1.29,1.29,0,0,0,.3-.24l-.06.06.18-.18a1.25,1.25,0,0,1,.6-.36l-.06.06s0,.1-.12.18v.06l-.3.3a1.45,1.45,0,0,0-.18.21,1.45,1.45,0,0,1-.18.21s0,0,0,0,0,0,0,0,0,0-.18.12l-.06.06a5.85,5.85,0,0,1-.6.54,7.31,7.31,0,0,0-.6.54l-.48.3c-.12.09-.24.16-.36.24s-.13.12-.15.12,0,0-.09.06a1.2,1.2,0,0,1-.48.24,4.21,4.21,0,0,1-1.62.6h-.18l-.51-.15a.64.64,0,0,1-.39-.33l.12.12-.12-.12.18.18-.06-.06v-.06l-.12-.12.12.12q-.36-.48-.42-.54a2.42,2.42,0,0,1-.24-.72L153.2,78V78a.17.17,0,0,0,.06.12.17.17,0,0,1-.06-.12.17.17,0,0,0-.06-.12.27.27,0,0,0,0-.12.24.24,0,0,1,0-.12v-.3a1.91,1.91,0,0,1-.06-.48,1.64,1.64,0,0,0,.06-.36v-.12l-.06.06c.08-.75.16-1.36.24-1.8a1,1,0,0,0,.06-.3,10.87,10.87,0,0,1,.3-1.08c.12-.36.24-.69.36-1a.17.17,0,0,1,.06-.12.41.41,0,0,1,.12-.3,4,4,0,0,1,.3-.72.62.62,0,0,0-.12.24l.18-.36a.35.35,0,0,1,.12-.24q-.12.24-.06.06l.24-.48.24-.48a.35.35,0,0,0-.12.24q.06-.18.12-.33a1.84,1.84,0,0,1,.18-.33l.06-.12.18-.36V69l-.06.06a1.42,1.42,0,0,0-.3.66l.12-.27q.06-.15.12-.27l.27-.45c.06-.09.07-.11,0,0a1.18,1.18,0,0,1,.12-.3h-.9a.56.56,0,0,1,.3.06h-.06q0-.12-.18,0h-1.62l-.36.06h-.06a.24.24,0,0,1-.18-.06l-.3.06h-.9a1.26,1.26,0,0,0-.33,0,.66.66,0,0,1-.21,0h-.6a.67.67,0,0,1-.3.06h-.9s0,.06-.12.06h-.36a.27.27,0,0,0-.18-.06h-.24c.09,0,0,0-.12.06a.2.2,0,0,0-.12-.06h-.9a.1.1,0,0,1-.09,0,.24.24,0,0,0-.15,0h-.3c-.08,0-.11-.06-.09-.06s0,0-.09-.12l.12-.06.12-.06h.06c.2,0,.36-.06.45-.09l.27,0s0,0,0,0,0,0,0,0a.17.17,0,0,0,.12-.06H148a5,5,0,0,1,.9-.06H150a.66.66,0,0,0,.21,0,.16.16,0,0,1,.15,0h.54a.66.66,0,0,0,.21,0,.66.66,0,0,1,.21,0H154a.24.24,0,0,0,.15,0,.24.24,0,0,1,.15,0h1.74a2,2,0,0,1,.3-.48l-.06.12.3-.54a2,2,0,0,1-.12.21,2,2,0,0,0-.12.21c.24-.39.36-.58.36-.54s0,0,.12-.18a1,1,0,0,0,.12-.15l.18-.27a.94.94,0,0,1,.18-.24,4.23,4.23,0,0,1,.3-.42s.06-.07.06-.09,0,0,.06-.09l.09-.09a.14.14,0,0,0,0,.09l-.12.12.06-.06s.06-.12.18-.24l.24-.36.36-.36q.12-.12.09-.12s0,0-.09.12a.32.32,0,0,0-.15.12.85.85,0,0,1-.15.18q.18-.24.36-.45A2.62,2.62,0,0,1,159,64l.84-.84-.12.12a.62.62,0,0,1-.18.15.85.85,0,0,0-.18.15,4.19,4.19,0,0,0,.54-.48L160,63l.06-.06a3.65,3.65,0,0,0,.54-.42l-.3.3a.32.32,0,0,1,.12-.15l.12-.09a.23.23,0,0,1,.12-.06l.06-.06a10.75,10.75,0,0,1,1.08-.66l.06-.06a.17.17,0,0,1,.12-.06h.06a2.88,2.88,0,0,1,1-.36,5.52,5.52,0,0,0-1.44.6l-.12.06-.06.06s.1,0,.18-.12a.63.63,0,0,1,.24-.15.38.38,0,0,0,.18-.09.7.7,0,0,1-.18.12,1.11,1.11,0,0,0-.18.12.35.35,0,0,1,.24-.12,1.39,1.39,0,0,0,.3-.18l.66-.24a4.74,4.74,0,0,1,.72-.18l-.48.09a2.22,2.22,0,0,0-.54.15,1.29,1.29,0,0,0,.33-.06,2,2,0,0,0,.33-.12,3.2,3.2,0,0,1,.72-.06h.3a.84.84,0,0,1,.36.06.53.53,0,0,0-.24-.06,1.87,1.87,0,0,1,.75.27.85.85,0,0,1,.39.63.53.53,0,0,1,.06.24c0,.09,0,.13,0,.15a.24.24,0,0,0,0,.15,4.15,4.15,0,0,1-.12.48,2.33,2.33,0,0,1-.12.3c0,.09-.07.14-.09.18s0,0,0-.06a.54.54,0,0,0,.15-.3.92.92,0,0,1,.15-.36v0a.52.52,0,0,0-.06.18.46.46,0,0,1-.06.18,1.17,1.17,0,0,0-.09.24,1,1,0,0,1-.15.3l-.06.06-.36.63a4.31,4.31,0,0,1-.42.63l.12-.12v-.06l-.12.12.06-.12-.48.72-.06.06s0,.06,0,.06,0,0,0,.06a3.51,3.51,0,0,1-.3.36l-.33.45a3.09,3.09,0,0,1-.33.39l.18-.18q0-.12-.12.12c-.08.09-.14.12-.18.12v.06a.94.94,0,0,0-.18.24,1.22,1.22,0,0,0-.3.3.47.47,0,0,0-.09.12A.85.85,0,0,1,162,68h.84l.75,0,.75,0H164a.75.75,0,0,1-.33-.06l.39,0q.21,0,.21,0,.18.06-.06,0c-.16,0-.18,0-.06,0h.48a3,3,0,0,1,.48,0,2.58,2.58,0,0,0,.42,0,4.53,4.53,0,0,0,.84.06,1,1,0,0,1,.24,0,.66.66,0,0,0,.24,0h.18q.18.06.15,0s0,0,.09,0h.06l.12.06h.24a1.64,1.64,0,0,0,.36.06l-.06-.06a.66.66,0,0,1,.21,0,.66.66,0,0,0,.21,0l.33.06h0a1,1,0,0,0,.3.06h.18v.06a1.13,1.13,0,0,1,.36.06l.12.06q.12.06.06,0s0,0,.06,0a.92.92,0,0,0,.36.15A.61.61,0,0,1,170.54,69Zm-17.46,8.46a1.13,1.13,0,0,1,.06.36v-.36Zm0,0h0Zm7.32-8.64a1.19,1.19,0,0,0,.36-.42h-4.38a20.33,20.33,0,0,0-2.34,5.1.12.12,0,0,1,0,.09.12.12,0,0,0,0,.09v.06a3.71,3.71,0,0,0,.18-.57,3.71,3.71,0,0,1,.18-.57.23.23,0,0,0,.06-.18,4.41,4.41,0,0,0-.18.57,3.13,3.13,0,0,0-.12.57q-.12.18,0-.18l.09-.18s0,0-.09.12-.07.27-.09.33a.66.66,0,0,0,0,.21l0,.06a.81.81,0,0,0-.09.24,3.07,3.07,0,0,0-.15.66q0,.3-.09.6l.12-.12.36-.36L154,75a1.55,1.55,0,0,0,.33-.3l.27-.3.24-.24.06-.06.84-.84a2.92,2.92,0,0,0,.48-.42.39.39,0,0,1,.12-.15.62.62,0,0,0,.18-.15.1.1,0,0,0,.09-.06.32.32,0,0,1,.15-.12l.75-.72q.39-.36.81-.78l.18-.12a3.27,3.27,0,0,0,.24-.27.9.9,0,0,1,.24-.21l.84-.84.27-.3Zm-6.48,10.56a1.17,1.17,0,0,0,.54.36A1.08,1.08,0,0,1,153.92,79.39Zm.06.12c.08.09.14.12.18.12a.46.46,0,0,1,.18.06,1.39,1.39,0,0,1-.3-.18l-.12-.06Zm0-4,.12-.12Zm2.82-7.86a.47.47,0,0,0-.09.12.34.34,0,0,1-.09.12h4.68l1-1.14c.34-.39.67-.8,1-1.2a3,3,0,0,0,.39-.45l.33-.45q.3-.48.63-1.08a4.34,4.34,0,0,0,.45-1.14,1.06,1.06,0,0,0-.06-.42.6.6,0,0,0-.45-.3,3.25,3.25,0,0,0-.57-.06,3.46,3.46,0,0,0-1.32.27,9.26,9.26,0,0,0-1.26.63l-.06.06-.12.06-.66.51a6.15,6.15,0,0,0-.66.57l-.12.12V64a1.71,1.71,0,0,0-.36.3v.06a7.38,7.38,0,0,0-.87.9c-.26.33-.51.64-.75,1a.59.59,0,0,0-.15.21.59.59,0,0,1-.15.21.69.69,0,0,1-.09.15.69.69,0,0,0-.09.15,1.79,1.79,0,0,0-.3.42A1.4,1.4,0,0,0,156.8,67.69Zm3.12,8.52a.17.17,0,0,1-.12.06Zm7.32-7.5a.24.24,0,0,0,.18.06l-.12-.06Zm3.24.3a.17.17,0,0,1,.12.06Z"/><path class="cls-2" d="M172.16,75.91l.12.06V76l-.06.06v.06a.88.88,0,0,1-.21.24.88.88,0,0,0-.21.24q-.06.18-.18.18-.48.36-.57.45l-.15.15a3.92,3.92,0,0,1-.42.24l-.06.06a1.67,1.67,0,0,1-.6.36.92.92,0,0,1-.36.15,1.07,1.07,0,0,0-.3.09s0,.06-.12.06l.12-.06-.12.06a1.69,1.69,0,0,0-.33,0,.89.89,0,0,1-.27,0,.17.17,0,0,1-.12-.06h-.12a.12.12,0,0,0-.09,0s-.05,0-.09,0a1.07,1.07,0,0,0-.48-.12l-.06.12s-.06.07-.06.09,0,0-.06.09l-.12.21a2,2,0,0,0-.12.21q.12-.18,0-.06c-.08.09-.08.06,0-.06l-.15.24-.09.18h-.06q-.18.24-.24.24l-.51.45a.25.25,0,0,1-.15.09l-.24.12a.53.53,0,0,1-.24.06h-.39a.69.69,0,0,1-.39-.12,1.16,1.16,0,0,1-.66-1s-.06-.14-.06-.3v-.36q.06-.3.12-.3.06-.48.12-.48v-.06a.19.19,0,0,1,.06-.12v-.18a.58.58,0,0,0,.12-.3.94.94,0,0,0,.18-.24l.06-.12q.12-.18,0-.09t0-.09a.17.17,0,0,0,.06-.12q.18-.3.42-.66a.67.67,0,0,1-.06-.3v-.18q.06-.48.06-.6a.57.57,0,0,1,.06-.24l.18-.36a1.29,1.29,0,0,1,.24-.3l-.12.12-.06.12q.18-.18.18-.24l.3-.21.18-.09q.12,0,.12-.06a.47.47,0,0,0,.3-.06h.3a.53.53,0,0,1,.24.06.42.42,0,0,1,.18,0,.27.27,0,0,0,.12,0,.23.23,0,0,0-.12-.06.12.12,0,0,1,.09,0,.12.12,0,0,0,.09,0A2.29,2.29,0,0,1,168,74a2.94,2.94,0,0,1,.18.3q-.06-.3-.18-.36a.59.59,0,0,1,.15.24.53.53,0,0,0,.15.24v.06a.9.9,0,0,1,.06.36.24.24,0,0,0-.06-.18.47.47,0,0,1,.06.3v-.06a2.23,2.23,0,0,1,.06.54.93.93,0,0,1-.06.3h.06a.52.52,0,0,0-.09.27c0,.15,0,.23,0,.27a1,1,0,0,1,.06-.3v-.24a1.8,1.8,0,0,0,.06-.3.7.7,0,0,0-.06.3v0a3.45,3.45,0,0,0-.06.66.24.24,0,0,0-.06.18.6.6,0,0,0,.06-.27.6.6,0,0,1,.06-.27.17.17,0,0,1-.06.12v.24q-.06.18-.18.66v-.12a2.37,2.37,0,0,1-.3.84l-.06.06a1,1,0,0,0,.3.06l.36.06h.18q.24,0,.24-.06H169a.17.17,0,0,0,.12-.06h.06l-.06.06a1.07,1.07,0,0,1,.3-.09.92.92,0,0,0,.36-.15,2.55,2.55,0,0,1,.36-.24.73.73,0,0,1,.36-.18h-.06a.05.05,0,0,0-.06.06v-.06a1.21,1.21,0,0,0,.36-.18l.06-.06v-.06l.24-.12a.17.17,0,0,0,.12-.06l.06-.06.06-.06a2.8,2.8,0,0,0,.33-.24l.27-.24-.06.06.27-.21Zm-5.76,3.18c.12-.15.24-.32.36-.48a6.32,6.32,0,0,0,.36-.54,3.55,3.55,0,0,1-.54-.3l-.12-.06-.12-.12-.18-.12a.94.94,0,0,0-.24-.18,5.22,5.22,0,0,0-.36-.42l-.12-.24-.06-.18-.12.24a3,3,0,0,0-.18.48,1.16,1.16,0,0,1-.18.3.52.52,0,0,0-.06.21.48.48,0,0,1-.06.21,1.29,1.29,0,0,1-.09.3,1.29,1.29,0,0,0-.09.3,2.85,2.85,0,0,0-.06.66,1,1,0,0,0,.12.42.17.17,0,0,0,.12.06.35.35,0,0,0,.24.12.17.17,0,0,1,.12.06,1.08,1.08,0,0,0,.48-.09,2.24,2.24,0,0,0,.36-.21Zm-.18-5.1a1.86,1.86,0,0,0-.54.66,1.61,1.61,0,0,0-.12.6l.12-.12s.06,0,.06,0,0,0,.06,0l.06.06v.18a3.18,3.18,0,0,1-.15.36l-.09.18a.19.19,0,0,1,.06.12,3.42,3.42,0,0,0,.78,1.14l-.12-.12q-.3-.3-.3-.42a.69.69,0,0,0,.09.15.69.69,0,0,1,.09.15l.12.06.06.06,0,0,0,0a1.07,1.07,0,0,0,.3.3l.66.42a9.61,9.61,0,0,0,.54-1.62,2.77,2.77,0,0,1,0-.39,3.19,3.19,0,0,0,0-.45,2,2,0,0,1-.06-.48,1.29,1.29,0,0,0-.24-.42.94.94,0,0,0-.6-.36l-.24-.06a.84.84,0,0,0-.3.06h-.12s-.06,0-.06,0S166.26,74,166.22,74ZM168,78.37q-.12-.06-.09,0a.12.12,0,0,0,.09,0h0Zm.06.06s.07,0,.09,0a.12.12,0,0,1,.09,0H168A.06.06,0,0,1,168,78.43Zm1.08-.12a.31.31,0,0,0,.18,0,.27.27,0,0,1,.12,0,.24.24,0,0,0-.15,0S169.18,78.31,169.1,78.31Zm.06,0a.24.24,0,0,0,.18-.06.35.35,0,0,1-.24.06Z"/><path class="cls-2" d="M194,58.57a.94.94,0,0,1,0,.66v.18l-.06.3a7.59,7.59,0,0,1-.72,1.68l.06-.12.06-.06v-.06l-.12.24v-.06l.12-.12a6.91,6.91,0,0,0-.33.63,1,1,0,0,1-.21.33.17.17,0,0,1-.06.12l-.06.06a1,1,0,0,0-.15.33.52.52,0,0,1-.15.27l-.12.18-.12.18-.18.27-.12.15-.18.36a2,2,0,0,1-.24.3.47.47,0,0,0,.09-.12,1.22,1.22,0,0,1,.15-.18l-.18.18a.94.94,0,0,1-.18.24v.06a1.4,1.4,0,0,0-.24.36,1.94,1.94,0,0,0-.42.48h.06a2.91,2.91,0,0,0-.36.42q-.18.24-.39.48c-.14.16-.27.33-.39.48a3.58,3.58,0,0,0-.36.48l-.24.24-.24.24.12-.12-1.62,1.8c-.08.09-.12.14-.12.18l-.78.78a6.86,6.86,0,0,0-.66.6.32.32,0,0,0-.15.12.32.32,0,0,1-.15.12l-.06.06-.12.09a.32.32,0,0,0-.12.15,2.38,2.38,0,0,0-.36.3l-.18.12-.06.06a.17.17,0,0,0-.12.06l-.06.06-.12.12.12-.06v-.06l.06-.06h.06l.12-.12q-.12.12-.18.12v.06l-.18.12-.12.12-.12.06a2.85,2.85,0,0,0-.3.24l-.36.24-.36.24-.24.12-.18.12-.12.12s-.07.06-.09.06-.05,0-.09.06h-.06s-.07.06-.09.06-.07,0-.15.12a7.94,7.94,0,0,1-1,.54q-.51.24-1,.54l-.42.18a.27.27,0,0,0-.12,0,.27.27,0,0,1-.12,0l-.18.06.18-.06-.3.12a.46.46,0,0,0-.18.06h.06a.41.41,0,0,1,.3-.12.17.17,0,0,0-.12.06,2.12,2.12,0,0,1-.45.12.25.25,0,0,0-.15.06h-.06a.17.17,0,0,0-.12.06.6.6,0,0,1-.27.06.6.6,0,0,0-.27.06h-.18a.27.27,0,0,1,0,.12.27.27,0,0,0,0,.12v.06a.27.27,0,0,1,0-.12.27.27,0,0,0,0-.12,1,1,0,0,0-.06.42.7.7,0,0,0-.06.3v.06a1.33,1.33,0,0,0-.06.42q0,.66,0,1.26a3,3,0,0,0,.33,1.2.12.12,0,0,0,0,.09.14.14,0,0,1,0,.09s.06.07.06.09,0,.05.06.09a3.85,3.85,0,0,0,.78.9l.06.06q.36.24.48.3t.06,0a4.66,4.66,0,0,0,.6.24.17.17,0,0,0,.12.06.46.46,0,0,1,.18.06h.06a1.33,1.33,0,0,0,.42.06.53.53,0,0,1-.24-.06.47.47,0,0,0,.3.06h.78a.35.35,0,0,1,.24-.06q.18,0,.18-.06l-.36.12a1.63,1.63,0,0,0,.45-.06l.51-.12a.24.24,0,0,1,.18-.06l.9-.36h-.12a.17.17,0,0,0-.12.06h-.06a8.6,8.6,0,0,0,2-1.08h.06q.12-.12.12-.09s0,0,.12-.09h.06l-.18.06-.12.12a.85.85,0,0,1,.18-.15l.18-.09.06-.06.12-.12.24-.12.12-.12a.17.17,0,0,0,.12-.06l.06-.06h-.06V79l.18-.18.06-.06q.18-.12.18-.15s.08-.07.24-.15a3.51,3.51,0,0,0,.36-.3l.18-.12.12-.12.12-.12a6.18,6.18,0,0,0,.78-.66l.72-.72-.06.06a.94.94,0,0,1,.24-.18v-.06q.3-.18.24-.18a.32.32,0,0,1,.12-.15.32.32,0,0,0,.12-.15s.06,0,.06,0,0,0,.06,0l.18-.06-.12.12a.35.35,0,0,1-.12.24l-.06.06-.42.48h.06l-.18.18-.18.18a.74.74,0,0,0-.09.12.34.34,0,0,1-.09.12q-.12.06,0,0t0,0s-.1.06-.18.18l-.12.06-.6.6-.42.42a2.49,2.49,0,0,1-.48.36L187,79a3.28,3.28,0,0,1-.63.51,7.17,7.17,0,0,0-.63.45l-.9.54.06-.06a11.49,11.49,0,0,1-1.56.9l-.78.24a4.74,4.74,0,0,1-.72.18l-.42.12h-.24a.47.47,0,0,0,.3-.06,1,1,0,0,1-.24.06h.06a1,1,0,0,1,.3-.06H181a.46.46,0,0,1-.18.06h-.24a1.56,1.56,0,0,0-.48-.06.53.53,0,0,0-.24-.06.53.53,0,0,1-.24-.06.35.35,0,0,1-.24-.12l-.18-.06.12.06a.46.46,0,0,0-.18-.06.46.46,0,0,1-.18-.06l-.3-.18a.12.12,0,0,1-.09,0,.12.12,0,0,0-.09,0,1.49,1.49,0,0,1-.45-.36l-.39-.42-.24-.42.06.12s0-.06,0-.06,0,0,0-.06l-.18-.3q-.12-.3-.24-.54A.24.24,0,0,0,177,79a9.16,9.16,0,0,1-.18-1.8,11,11,0,0,1,.48-3.12c0,.09,0,0,.06-.18a1.67,1.67,0,0,0,.12-.36q.12-.3.24-.63t.24-.63a2.12,2.12,0,0,1-.15.39.24.24,0,0,0,0,.15l.3-.9q-.12.36,0,.12t.27-.72q.15-.36.33-.72a3.29,3.29,0,0,0-.18.42q.18-.42.36-.81t.42-.81a.35.35,0,0,1-.12.24q-.12.24-.21.45t-.21.45.12-.27l.12-.27.12-.24.39-.63q.09-.15,0,0,.3-.48.54-.9t.48-.9l-.06.18a3.35,3.35,0,0,0,.21-.36,3.35,3.35,0,0,1,.21-.36.52.52,0,0,0-.15.27,1,1,0,0,1-.15.33q.3-.48.36-.6l.12-.24a1.16,1.16,0,0,0,.15-.21l.45-.63a1.29,1.29,0,0,1,.24-.3l.36-.54.06-.06a.17.17,0,0,0,.06-.12s0-.08.12-.12l.06-.12-.18.24.06-.06.24-.36a.8.8,0,0,1,.15-.21l.21-.21a3.49,3.49,0,0,0,.48-.6q.12-.18.12-.15s0,.07-.12.15a1.45,1.45,0,0,0-.18.21,1.45,1.45,0,0,1-.18.21q.3-.3.57-.63t.57-.63a2.91,2.91,0,0,1,.36-.42l.3-.3a.45.45,0,0,1,.15-.18.88.88,0,0,0,.21-.24q-.12.12-.12.18h-.06l-.18.18-.3.3.9-.9.12-.12a.94.94,0,0,1,.24-.18l.42-.42-.36.36a4.19,4.19,0,0,1,.54-.48h-.06l.69-.57a5.46,5.46,0,0,1,.75-.51.94.94,0,0,1,.24-.18l.06-.06.12-.12q-.12.12,0,.06l.57-.36a3.86,3.86,0,0,1,.57-.3,7.3,7.3,0,0,0-1.32.78,2,2,0,0,0-.3.24l-.27.15a.53.53,0,0,0-.21.21,2.91,2.91,0,0,1,.42-.36s.1,0,.18-.12a.17.17,0,0,1,.12-.06l.06-.06a3.58,3.58,0,0,1-.48.36q.6-.42,1.2-.78a6.63,6.63,0,0,1,1.32-.6c-.24.09-.47.17-.69.27a6.25,6.25,0,0,0-.63.33l.36-.24.24-.09a.46.46,0,0,0,.24-.15l.54-.18a9.84,9.84,0,0,1,1.2-.42.46.46,0,0,1-.18.06.17.17,0,0,0-.12.06,1.48,1.48,0,0,1,.48-.15l.54-.09h.6q.12,0,.12.06a1.29,1.29,0,0,1,.78.36h.06l.12.12h0s0,.06,0,.06,0,0,0,.06a1.53,1.53,0,0,1,.15.42,3,3,0,0,1,0,.48v-.54a.23.23,0,0,1-.06-.18l-.06-.12-.06-.12-.06-.06.06.06-.06-.06.06.12.06.06a1.56,1.56,0,0,1,.12.39ZM177.32,76.21a.6.6,0,0,0,.06-.27,1.1,1.1,0,0,1,.06-.33.35.35,0,0,0-.06.24c0,.09,0,.13,0,.15a.14.14,0,0,0,0,.09Zm16.2-17.4a1.25,1.25,0,0,0-.06-.48.46.46,0,0,0-.06-.18v-.06l-.18-.18q-.36-.12-.3-.12a2,2,0,0,0-.48-.06,5.8,5.8,0,0,0-2.76.78,19.94,19.94,0,0,0-2.46,1.56l-.06.06a21.1,21.1,0,0,0-1.92,1.8.11.11,0,0,0-.12.12.05.05,0,0,0-.06.06l-.06.06a.16.16,0,0,0,.06-.12v.06l-.24.24-.24.24v.06q-.84,1-1.65,1.95a18.5,18.5,0,0,0-1.47,2.07,17,17,0,0,0-.54.84,29.13,29.13,0,0,0-2.13,3.78,17.76,17.76,0,0,0-1.35,4.08,2.23,2.23,0,0,0,.09-.39,2.23,2.23,0,0,1,.09-.39,1,1,0,0,0,.12-.3,2.35,2.35,0,0,0-.15.54q0,.24-.09.54a.17.17,0,0,1,.12-.06.17.17,0,0,0,.12-.06h.12q.12-.12.18-.12a.17.17,0,0,0,.12-.06,1.07,1.07,0,0,1,.3-.09.54.54,0,0,0,.3-.15l-.06.06a1.84,1.84,0,0,1,.33-.18l.33-.12c.12-.08.26-.15.42-.24s.06-.08-.06,0-.1.09.06,0a.47.47,0,0,1,.12-.09l.12-.09c.16,0,.24-.08.24-.12h.06l.27-.18.21-.12a.75.75,0,0,1,.3-.18.65.65,0,0,0,.3-.18,3.7,3.7,0,0,1,.66-.42,2.53,2.53,0,0,0,.66-.48s0,.05,0,0a.85.85,0,0,0,.18-.15,11.79,11.79,0,0,0,1.62-1.26.85.85,0,0,1,.18-.15.47.47,0,0,0,.12-.09,12.89,12.89,0,0,0,1.38-1.2l.18-.18.12-.12q.72-.66,1.89-2a35.43,35.43,0,0,0,2.31-2.88,28.5,28.5,0,0,0,2-3.09,5.58,5.58,0,0,0,.84-2.55ZM178.28,75.43s.07,0,.09,0a.24.24,0,0,1,.15,0A.41.41,0,0,0,178.28,75.43Zm.24,5.7-.06-.06a.17.17,0,0,1-.12-.06.1.1,0,0,1,.09.06.32.32,0,0,0,.15.12v-.06Zm.48.3a.7.7,0,0,1-.18-.12.7.7,0,0,0-.18-.12l.06.06v.06Zm2.58.36.24,0a.46.46,0,0,0,.24-.09.53.53,0,0,1-.24.06.53.53,0,0,0-.24.06h0Zm-.12,0a1.13,1.13,0,0,1,.36-.06,1.13,1.13,0,0,0,.36-.06A3.28,3.28,0,0,1,181.46,81.79Zm8.1-5.64a.17.17,0,0,1-.12.06A.17.17,0,0,0,189.56,76.15Z"/><path class="cls-2" d="M201.8,75.91l.12.06V76l-.06.06v.06a.88.88,0,0,1-.21.24.88.88,0,0,0-.21.24q-.06.18-.18.18-.48.36-.57.45l-.15.15a3.92,3.92,0,0,1-.42.24l-.06.06a1.67,1.67,0,0,1-.6.36.92.92,0,0,1-.36.15,1.07,1.07,0,0,0-.3.09s0,.06-.12.06l.12-.06-.12.06a1.69,1.69,0,0,0-.33,0,.89.89,0,0,1-.27,0,.17.17,0,0,1-.12-.06h-.12a.12.12,0,0,0-.09,0s-.05,0-.09,0a1.07,1.07,0,0,0-.48-.12l-.06.12s-.06.07-.06.09,0,0-.06.09a2,2,0,0,1-.12.21l-.12.21q.12-.18,0-.06c-.08.09-.08.06,0-.06l-.15.24-.09.18h-.06q-.18.24-.24.24l-.51.45a.25.25,0,0,1-.15.09l-.24.12a.53.53,0,0,1-.24.06h-.39a.69.69,0,0,1-.39-.12,1.16,1.16,0,0,1-.66-1s-.06-.14-.06-.3v-.36q.06-.3.12-.3.06-.48.12-.48v-.06a.19.19,0,0,1,.06-.12v-.18a.58.58,0,0,0,.12-.3.94.94,0,0,0,.18-.24l.06-.12q.12-.18,0-.09t0-.09a.17.17,0,0,0,.06-.12q.18-.3.42-.66a.67.67,0,0,1-.06-.3v-.18q.06-.48.06-.6a.57.57,0,0,1,.06-.24l.18-.36a1.29,1.29,0,0,1,.24-.3l-.12.12-.06.12q.18-.18.18-.24l.3-.21.18-.09q.12,0,.12-.06a.47.47,0,0,0,.3-.06h.3a.53.53,0,0,1,.24.06.42.42,0,0,1,.18,0,.27.27,0,0,0,.12,0,.23.23,0,0,0-.12-.06.12.12,0,0,1,.09,0,.12.12,0,0,0,.09,0,2.29,2.29,0,0,1,.54.48,2.94,2.94,0,0,1,.18.3q-.06-.3-.18-.36a.59.59,0,0,1,.15.24.53.53,0,0,0,.15.24v.06a.9.9,0,0,1,.06.36.24.24,0,0,0-.06-.18.47.47,0,0,1,.06.3v-.06a2.23,2.23,0,0,1,.06.54.93.93,0,0,1-.06.3H198a.52.52,0,0,0-.09.27c0,.15,0,.23,0,.27A1,1,0,0,1,198,76v-.24a1.8,1.8,0,0,0,.06-.3.7.7,0,0,0-.06.3v0a3.45,3.45,0,0,0-.06.66.24.24,0,0,0-.06.18.6.6,0,0,0,.06-.27A.6.6,0,0,1,198,76a.17.17,0,0,1-.06.12v.24q-.06.18-.18.66v-.12a2.37,2.37,0,0,1-.3.84l-.06.06a1,1,0,0,0,.3.06L198,78h.18q.24,0,.24-.06h.18a.17.17,0,0,0,.12-.06h.06l-.06.06a1.07,1.07,0,0,1,.3-.09.92.92,0,0,0,.36-.15,2.55,2.55,0,0,1,.36-.24.73.73,0,0,1,.36-.18h-.06a.05.05,0,0,0-.06.06v-.06a1.21,1.21,0,0,0,.36-.18l.06-.06v-.06l.24-.12a.17.17,0,0,0,.12-.06l.06-.06.06-.06a2.8,2.8,0,0,0,.33-.24l.27-.24-.06.06.27-.21ZM196,79.09l.36-.48a6.32,6.32,0,0,0,.36-.54,3.55,3.55,0,0,1-.54-.3l-.12-.06-.12-.12-.18-.12a.94.94,0,0,0-.24-.18,5.22,5.22,0,0,0-.36-.42l-.12-.24-.06-.18-.12.24a3,3,0,0,0-.18.48,1.16,1.16,0,0,1-.18.3.52.52,0,0,0-.06.21.48.48,0,0,1-.06.21,1.29,1.29,0,0,1-.09.3,1.29,1.29,0,0,0-.09.3,2.85,2.85,0,0,0-.06.66,1,1,0,0,0,.12.42.17.17,0,0,0,.12.06.35.35,0,0,0,.24.12.17.17,0,0,1,.12.06,1.08,1.08,0,0,0,.48-.09,2.24,2.24,0,0,0,.36-.21Zm-.18-5.1a1.86,1.86,0,0,0-.54.66,1.61,1.61,0,0,0-.12.6l.12-.12s.06,0,.06,0,0,0,.06,0l.06.06v.18a3.18,3.18,0,0,1-.15.36l-.09.18a.19.19,0,0,1,.06.12,3.42,3.42,0,0,0,.78,1.14L196,77q-.3-.3-.3-.42a.69.69,0,0,0,.09.15.69.69,0,0,1,.09.15l.12.06L196,77l0,0,0,0a1.07,1.07,0,0,0,.3.3l.66.42a9.61,9.61,0,0,0,.54-1.62,2.77,2.77,0,0,1,0-.39,3.19,3.19,0,0,0,0-.45,2,2,0,0,1-.06-.48,1.29,1.29,0,0,0-.24-.42.94.94,0,0,0-.6-.36l-.24-.06a.84.84,0,0,0-.3.06H196s-.06,0-.06,0S195.9,74,195.86,74Zm1.74,4.38q-.12-.06-.09,0a.12.12,0,0,0,.09,0h0Zm.06.06s.07,0,.09,0a.12.12,0,0,1,.09,0h-.24A.06.06,0,0,1,197.66,78.43Zm1.08-.12a.31.31,0,0,0,.18,0l.12,0a.24.24,0,0,0-.15,0S198.82,78.31,198.74,78.31Zm.06,0a.24.24,0,0,0,.18-.06.35.35,0,0,1-.24.06Z"/><path class="cls-2" d="M212.54,72.37a.35.35,0,0,1,.06-.24,5.1,5.1,0,0,1-.36,1.29c-.2.51-.38.91-.54,1.23q-.36,1.68-.72,3.24c-.08.36-.16.75-.24,1.14s-.16.76-.24,1.08-.17.84-.27,1.2S210,82,210,82.39q-.06.3-.12.63t-.12.63a.48.48,0,0,0-.06.21.48.48,0,0,1-.06.21l-.12.63q-.06.33-.12.63a2.19,2.19,0,0,0-.15.57,2.19,2.19,0,0,1-.15.57l.9-1.8.36-.72-.06.18.12-.24a.7.7,0,0,0,.12-.18v-.06l.06-.06-.06.06a.33.33,0,0,0-.12.21.2.2,0,0,1-.06.15.17.17,0,0,1,.06-.12l.24-.48a2.94,2.94,0,0,1,.18-.3.58.58,0,0,0,.12-.3q.12-.12.12-.18h.06l.12-.12-.06.18a8477162197592.73,8477162197592.73,0,0,1-.12.36l-.06.12a.58.58,0,0,0-.12.3,2.35,2.35,0,0,0-.24.54V84l-.21.51-.21.51,0-.06,0,.06a.2.2,0,0,0-.06.15.33.33,0,0,1-.12.21l-.06.18a5,5,0,0,0-.36.84l-.12.24a.17.17,0,0,0-.06.12.17.17,0,0,1-.06.12q-.12.3-.24.54t-.24.54a.46.46,0,0,1-.06.18.35.35,0,0,0-.12.24l-.54,2.34a.35.35,0,0,0-.06.24q-.18.72-.33,1.35t-.27,1.29l-.39,1.68q-.21.9-.45,1.68-.06.24,0,.21s0,.07-.09.27v.18a5,5,0,0,0-.18.69,5,5,0,0,1-.18.69q-.06.3-.09.48a2.37,2.37,0,0,1-.09.36,5.49,5.49,0,0,0-.24.9l-.12.36,0,.12a.38.38,0,0,1,.09-.18,2.22,2.22,0,0,0-.15.54,1.48,1.48,0,0,1-.15.48v.12q-.12.48-.18.66a3.42,3.42,0,0,0-.18.6l-.12.6-1.2,4.2a39,39,0,0,1-1.44,4.14q-.12.3-.33.75t-.45.9a3.84,3.84,0,0,1-.54.78,1.15,1.15,0,0,1-.6.39h-.24q-.24,0-.3-.12a1.48,1.48,0,0,1-.48-.66,2.1,2.1,0,0,1-.12-.66v-.9a14.61,14.61,0,0,1,.48-2.61l.72-2.55q.18-.48.12-.48a4.49,4.49,0,0,0-.21.72q-.09.42-.21.84l-.21.72a3,3,0,0,1-.15.42,4.73,4.73,0,0,0,.21-.69q.09-.39.21-.75a4.25,4.25,0,0,0,.18-.54,1.8,1.8,0,0,0,.06-.3l.06-.12v-.06l-.12.48a.67.67,0,0,0-.06.3l-.06.12v-.06a.53.53,0,0,1,.06-.24l.18-.63a2.63,2.63,0,0,1,.18-.45l0,.06.09-.18a2.33,2.33,0,0,0,.12-.3,1,1,0,0,0,.06-.24q.3-1,.6-1.8l.66-1.74a.17.17,0,0,0,.06-.12.17.17,0,0,1,.06-.12,2.51,2.51,0,0,0,.12-.42,3.29,3.29,0,0,1,.18-.42,7.07,7.07,0,0,1,.27-.69q.15-.33.27-.63l.3-.78q.12-.3,0-.12.12-.3.27-.63a7.07,7.07,0,0,0,.27-.69l.06-.06a3.12,3.12,0,0,0,.15-.33l.09-.27a3.29,3.29,0,0,0-.18.42.17.17,0,0,1,.06-.12q.06-.12.18-.42a1.67,1.67,0,0,0,.12-.36,4.63,4.63,0,0,0,.24-.54l.06-.18a.38.38,0,0,0,.09-.15,1.65,1.65,0,0,1,.09-.21.46.46,0,0,1,.06-.18l.06-.12-.12.36a.52.52,0,0,0-.15.27q0,.15,0,.09l.36-.9a2.35,2.35,0,0,1,.24-.54l.12-.3-.06.06a5.08,5.08,0,0,0,.33-.66l.27-.66s-.08.06-.12.18l-.06.12a.17.17,0,0,0-.06.12l.09-.18.09-.18a2.39,2.39,0,0,0,.3-.78,5.5,5.5,0,0,1,.3-.72l.36-.72a1.65,1.65,0,0,0,.09-.21,1.65,1.65,0,0,1,.09-.21l.06-.06q.12-.24.09-.21s0,0,.09-.21v-.06l-.12.24a.24.24,0,0,1-.06.18l.24-.48.06-.18q.06-.12.12-.27t.12-.27l.06-.18s.06-.07.06-.09,0,0,.06-.09v-.12l.06-.06s0,.06,0,.06,0,0,0,.06v.06l-.06.12a.17.17,0,0,1,.06-.12V89l.06-.06a.12.12,0,0,1,0-.09.24.24,0,0,0,0-.15l.06-.12.18-.54q.06-.24.09-.42t.09-.42v-.06l.06-.24v-.12a2.2,2.2,0,0,0,.15-.6,1.54,1.54,0,0,1,.15-.54.47.47,0,0,1,.06-.3v-.12a.53.53,0,0,0-.06.24,1,1,0,0,1-.06.3q-.06.3-.12.57a1.83,1.83,0,0,1-.12.39v.12l-.06.12a.24.24,0,0,0,.06-.18v-.12a2.92,2.92,0,0,0,.21-.75q.09-.51.15-.81a.12.12,0,0,1,0-.09.12.12,0,0,0,0-.09l.06-.42a1.86,1.86,0,0,1,.06-.27,3.19,3.19,0,0,0,.12-.39,8.44,8.44,0,0,0,.18-.93,8.44,8.44,0,0,1,.18-.93.42.42,0,0,1,0,.18.27.27,0,0,0,0,.12v.12l.12-.36v.06a.35.35,0,0,0-.06.24l.18-1a3.92,3.92,0,0,1,.12-.51.53.53,0,0,1,.06-.24v-.06a.42.42,0,0,1,0-.18.27.27,0,0,0,0-.12q.12-.48.15-.66a1.89,1.89,0,0,0,0-.3,4,4,0,0,0,.09-.48,1.56,1.56,0,0,1,.15-.48,1.39,1.39,0,0,1,0-.27,1.39,1.39,0,0,0,0-.27l.06-.24.06-.3a1.39,1.39,0,0,1,0,.27,1.39,1.39,0,0,0,0,.27v-.12a.27.27,0,0,1,0-.12.27.27,0,0,0,0-.12.53.53,0,0,1,.06-.24q0-.12.06-.12V77q.06-.3,0-.27s0-.09.09-.33q-.36.54-.75,1a10,10,0,0,1-.87,1l-.06.06a3.62,3.62,0,0,1-1.62,1.08h-.06l.12-.06a1.43,1.43,0,0,1,.3-.06.27.27,0,0,0-.12,0,.27.27,0,0,1-.12,0l-.06.06-.15,0-.39.09h-.12a1,1,0,0,1-.84-.36,1.51,1.51,0,0,1-.21-.48,2.37,2.37,0,0,0-.09-.36v-.18a1.06,1.06,0,0,1,.06-.42,2.1,2.1,0,0,1,.12-.66,8.49,8.49,0,0,1,.39-1.23,10.82,10.82,0,0,1,.66-1.38,6.17,6.17,0,0,1,.87-1.2,2,2,0,0,1,1-.63h.48a2.05,2.05,0,0,1,.48.18A.17.17,0,0,0,210,73s.12.06.24.18a.93.93,0,0,1,.36.84,3.19,3.19,0,0,1,0,.45.42.42,0,0,1-.27.33.42.42,0,0,1,0-.18.39.39,0,0,0,0-.18v-.24a.66.66,0,0,0,0-.21.62.62,0,0,1,0-.21,1.64,1.64,0,0,0-.48-.42,3.29,3.29,0,0,0-.42-.18h-.18a.85.85,0,0,0-.57.24l-.45.42,0,.06a.74.74,0,0,1,.09-.12,6.18,6.18,0,0,0-.48.72h-.06a8.23,8.23,0,0,0-.84,1.68,6.47,6.47,0,0,0-.42,1.8v.42q0,.6.48.6a2.15,2.15,0,0,0,1.44-.66,10.1,10.1,0,0,0,1.14-1.2q.12-.12.15-.12s.07-.06.15-.18a6.51,6.51,0,0,0,.48-.75,2.12,2.12,0,0,1,.3-.45q.18-.3.36-.66c.12-.24.24-.45.36-.66l.09-.45a1.31,1.31,0,0,0,0-.27l.12-.48.12-.36a.66.66,0,0,1,0-.21q0-.09.09-.33a3.29,3.29,0,0,1,.18-.42v-.06l.12-.12a.66.66,0,0,1,.21,0l.15,0,.06.06a.53.53,0,0,1,.06.24c0,.09.05.14,0,.18A.42.42,0,0,0,212.54,72.37Zm-5.16,19.32q.12-.24.09-.21s0-.07,0-.27.1-.34.18-.66q-.06.06-.06.09s0,0-.06.09l-.21.51-.21.51.06-.12-.18.45-.12.27q-.24.48-.39.87t-.27.75h-.06a7,7,0,0,1-.3.84q-.18.42-.36.78l-.12.36-.12.36-.06.12-.06.06a.46.46,0,0,0-.06.18.17.17,0,0,1-.06.12l.09-.18a.42.42,0,0,0,0-.18.53.53,0,0,1-.06.24v.06H205l.06-.12q.12-.12.09-.12s0-.06,0-.18l-.18.42v-.06l.12-.24a.58.58,0,0,0-.12.27.48.48,0,0,1-.06.21.17.17,0,0,1,.06-.12l-.06.12a6.06,6.06,0,0,1-.33,1q-.21.48-.39.84l-.06.12-.06.06a.12.12,0,0,1,0,.09.12.12,0,0,0,0,.09l-.12.24.12-.24a4.41,4.41,0,0,0-.18.48l-.12.42a1,1,0,0,0-.15.3,1.17,1.17,0,0,1-.09.24l-.21.51q-.09.21-.15.39l-.12.24-.18.42v.12l.06-.12a.24.24,0,0,0-.06.18h-.06q-.72,1.92-1.41,3.9a40.16,40.16,0,0,0-1.17,4h0a.53.53,0,0,1-.06.24,10.66,10.66,0,0,0-.48,2.52,2.58,2.58,0,0,0,.06-.48.67.67,0,0,1,.06-.3V112a5.86,5.86,0,0,0-.09.66q0,.36,0,.66v-.18a1.71,1.71,0,0,0,.06,1,.59.59,0,0,0,.3.54h0l-.12-.12s.07.06.09.06.05,0,.09.06h.18a1.66,1.66,0,0,0,.54-.57l.42-.69a.38.38,0,0,0-.09.15.38.38,0,0,1-.09.15q-.18.3-.42.66a1.71,1.71,0,0,1-.36.3s.12-.06.24-.18a.85.85,0,0,0,.15-.18.47.47,0,0,1,.09-.12l.06-.06a4.45,4.45,0,0,0,.33-.51,5,5,0,0,0,.27-.57q.06-.18,0-.06.3-.66.54-1.32t.54-1.32l-.06.18.36-1.08a1.49,1.49,0,0,0-.15.45,1.49,1.49,0,0,1-.15.45l.18-.63a2,2,0,0,1,.12-.33.74.74,0,0,1,.12-.3,1.29,1.29,0,0,1,.06-.33q.06-.21.36-1.05a1.9,1.9,0,0,0,.12-.54,1.49,1.49,0,0,0,.15-.45,1.49,1.49,0,0,1,.15-.45v-.06a.48.48,0,0,0,.06-.21.48.48,0,0,1,.06-.21l.06-.12v-.06l-.12.42a3.86,3.86,0,0,1,.09-.45q.09-.39.21-.81t.24-.78a4.41,4.41,0,0,1,.18-.48q.06-.3,0-.24a2,2,0,0,0-.09.3l-.18.72a.42.42,0,0,1,0-.18.42.42,0,0,0,0-.18q.3-1,.48-1.74.18-.54.33-1.11t.27-1.17q-.06.36-.12.36a.05.05,0,0,0,.06-.06l-.06.06v.12a.53.53,0,0,0-.06.24,2.7,2.7,0,0,1-.12.54,10.23,10.23,0,0,1,.42-1.68l.06-.24q.06-.3.12-.63a3.26,3.26,0,0,1,.18-.63l-.18.78a2.23,2.23,0,0,0,.15-.63,1.43,1.43,0,0,1,.09-.45v.06q.12-.48.21-1t.21-.9a1.9,1.9,0,0,0,.12-.54.48.48,0,0,0,.06-.21.48.48,0,0,1,.06-.21v-.12a.35.35,0,0,0,.06-.24q-.06.18,0,.21s0,0,0-.09a5.41,5.41,0,0,1,.18-.9q.18-.72.24-.9-.06.18-.18.66a.66.66,0,0,1,0,.21.66.66,0,0,0,0,.21l-.06.24a.27.27,0,0,1,0,.12.42.42,0,0,0,0,.18,1,1,0,0,0-.12.42V95q-.06.18,0,.18s0,.1-.09.3a.48.48,0,0,0-.06.21.48.48,0,0,1-.06.21.91.91,0,0,1,0,.27.49.49,0,0,0,0,.15.48.48,0,0,0,.06-.21.48.48,0,0,1,.06-.21q.06-.36.12-.6a1.64,1.64,0,0,0,.06-.36,2.53,2.53,0,0,1-.06.42,1.86,1.86,0,0,1-.12.42l.36-1.44q.12-.48.21-.9t.21-.9a2.1,2.1,0,0,1,.12-.66,2.2,2.2,0,0,1-.12.54,1.17,1.17,0,0,0-.09.24,3.29,3.29,0,0,0-.06.36q0,.24-.15.78a3.5,3.5,0,0,1,.09-.54l.15-.72A2.88,2.88,0,0,0,207.38,91.69Zm-3.72,8.52-.12.24v.06l.06-.06a.53.53,0,0,1,.06-.24v-.06h-.06Zm0-.12v.12a.17.17,0,0,1,.06-.12V100l.06-.06.12-.42-.12.18A1.86,1.86,0,0,1,203.66,100.09Zm1.5-3.66a1.05,1.05,0,0,0,.12-.3.54.54,0,0,0,.15-.3.92.92,0,0,1,.15-.36,5,5,0,0,0-.21.48A5,5,0,0,1,205.16,96.43Zm.36-.78a4.66,4.66,0,0,0-.24.6l-.06.12v-.06q.12-.24.18-.39T205.52,95.65Zm3.6-22.86h-.06l.54.12h.12a.23.23,0,0,1,.12.06l.06.06H210l-.12-.06a5.77,5.77,0,0,1-.57-.15Zm1.08.48q0-.12-.24-.24l.15.15Zm.42,10.14a.17.17,0,0,1-.06.12h.06Z"/><path class="cls-2" d="M229.1,76.39a2.2,2.2,0,0,1,.42-.36.53.53,0,0,1,.24-.06l-.06.12-.12.12-.06.06a3.51,3.51,0,0,1-.3.36l-.21.21-.21.21-.18.18-.06.06-.48.48-.21.21-.21.21c-.2.21-.39.38-.57.54s-.37.34-.57.54l-.66.66v-.06a7.36,7.36,0,0,1-.66.78q-.3.3-.6.63t-.6.63l-.15.15-.09.09.18-.18-.12.12V82s.1,0,.18-.12l-.18.18.12-.12s-.1.06-.18.18h-.06q-.12.24-.12.18-.48,2.52-1.17,5a22,22,0,0,1-1.95,4.77v.06a8.32,8.32,0,0,1-1.2,1.74l-.06.12-.06.06-.06.06-.36.36h-.06a.85.85,0,0,1-.18.15.85.85,0,0,0-.18.15l-.21.12-.21.12-.12.06a.24.24,0,0,0-.15,0,.12.12,0,0,1-.09,0h-.12a.17.17,0,0,1-.12.06h-.06a3,3,0,0,1-.48,0l-.48-.09A1.05,1.05,0,0,0,216,95a1.36,1.36,0,0,1-.57-.54,2.44,2.44,0,0,1-.21-.78.3.3,0,0,1,0-.36,4,4,0,0,1,.42-1.59,13.84,13.84,0,0,1,1.05-1.89A20.88,20.88,0,0,1,218,88q.69-.84,1.11-1.38.18-.18.12-.18a5.36,5.36,0,0,1-.45.63q-.27.33-.51.57l.51-.66q.27-.36.33-.42l-.12.18a.85.85,0,0,0-.15.18s0,0,.09-.12a3.63,3.63,0,0,1,.24-.3l.18-.18q-.12.12,0-.06l.21-.24.72-.81.66-.75.12-.12q.3-.36.51-.57l.39-.39a4.09,4.09,0,0,0,.3-.33q.12-.15,0,0a6,6,0,0,1,.54-.6l.06-.06q.12-.06.12-.09s0,0,.06-.09a.27.27,0,0,1,0-.12.27.27,0,0,0,0-.12,1.89,1.89,0,0,1,0-.3,1.89,1.89,0,0,0,0-.3v.3q0-.12,0-.39a4.32,4.32,0,0,0,.15-.87V80a5,5,0,0,0,.06-.9V78a1.45,1.45,0,0,0-.12-.39l-.3-.51q-.06-.09-.12-.09a.41.41,0,0,0-.24-.06,2.53,2.53,0,0,0-.69.36,5.3,5.3,0,0,0-.63.54l-.06.06-.21.21-.21.21-.12.12-.12.12-.06.06v-.06h.06v-.06s.06,0,.06,0,0,0,.06,0l-.12.12-.09.09-.15.15-.06.06-.48.3a3.92,3.92,0,0,1-.42.24l-.3.12a1,1,0,0,1-.3.06.35.35,0,0,1-.24-.06.86.86,0,0,1-.6-.36,1.47,1.47,0,0,1-.12-.66,2.66,2.66,0,0,1,.15-.9,5.26,5.26,0,0,1,.39-.84l-.06.12a.14.14,0,0,1,0-.09.12.12,0,0,0,0-.09l.12-.12v-.06l.06-.06h-.06l.12-.12a1.05,1.05,0,0,1,.12-.3.34.34,0,0,0,.09-.12.74.74,0,0,1,.09-.12l.12-.12v-.06h.18l-.06.18V76a.24.24,0,0,0-.06.18l-.06.06q-.06.24-.12.24a1.17,1.17,0,0,0-.09.24,1.17,1.17,0,0,1-.09.24l.06-.06a5.75,5.75,0,0,0-.3.9q-.06.12,0,0c0-.09,0-.09,0,0a.53.53,0,0,0-.06.24.5.5,0,0,1-.06.24v.36a.27.27,0,0,0,0,.12.27.27,0,0,1,0,.12.65.65,0,0,0,.3.18.24.24,0,0,0,.15,0,.24.24,0,0,1,.15,0q.12-.12.18-.12a.17.17,0,0,0,.12-.06c.08,0,.13-.06.15-.09l.15-.09.36-.33a1.34,1.34,0,0,0,.3-.33,6.55,6.55,0,0,0,.54-.48,2.79,2.79,0,0,1,.54-.42s.12-.1.24-.18l.21-.12.21-.12a.52.52,0,0,1,.36-.18,4.74,4.74,0,0,1,.72.06.87.87,0,0,1,.54.48,1.93,1.93,0,0,1,.21.63q0,.27.09.57,0,.84-.06,1.68t-.18,1.68.12-.18-.12.18l.48-.48.12-.12.54-.54-.24.12q.24-.12.18-.12a7.79,7.79,0,0,1,.72-.66,1.57,1.57,0,0,0,.21-.24,2.25,2.25,0,0,1,.21-.24H226q.06-.12.06-.09s0,0,.06-.09l.06-.06v.06l-.12.06h.06l.12-.12.06-.06q.18-.24.24-.24l.06-.06s0-.06,0-.06,0,0,0-.06l.06-.06v0s.06,0,.06,0,0,0,.06,0l.06-.06a1.29,1.29,0,0,0,.24-.3l.21-.15.09-.09.12-.12.12-.09.12-.09.12-.12q.18-.18.36-.33t.36-.33l.36-.3-.06.06S229,76.48,229.1,76.39Zm-6.18,6.78V83l-.06.12-.12.06.06-.06-.18.18-.12.24-.6.6-.12.12-.18.12v.06L220,86.26q-.75.87-1.41,1.77.06-.12-.09.09a2.6,2.6,0,0,1-.21.27,2.21,2.21,0,0,1-.3.45q-.18.21-.36.45l.27-.33a.24.24,0,0,0,0-.15,2.47,2.47,0,0,1-.21.36l-.21.3a.7.7,0,0,1,.12-.18l-.06.06q-.18.3-.33.51t-.33.51a1.39,1.39,0,0,0,.18-.3,2.69,2.69,0,0,1-.42.66l-.06.12a1.65,1.65,0,0,0-.09.21.59.59,0,0,1-.15.21.17.17,0,0,0,.06-.12l.06-.06a7,7,0,0,1,.36-.66l-.12.21a2,2,0,0,0-.12.21.17.17,0,0,0-.06.12,3.15,3.15,0,0,0-.3.48v.06a5.64,5.64,0,0,0-.54,1.44v-.18a2.52,2.52,0,0,0-.06.6,1.56,1.56,0,0,1,.06-.48,1.5,1.5,0,0,0-.12.66,1.13,1.13,0,0,1,.06.36.41.41,0,0,0,.12.3q.06.12.09.12s0,0,.09.06l.36.24h.06l.06.06h.12q.12.06.09,0a.24.24,0,0,0-.15,0,.42.42,0,0,1,.18,0,.27.27,0,0,0,.12,0h.42a1.17,1.17,0,0,1,.24-.09,2,2,0,0,0,.36-.15.17.17,0,0,1-.12.06.24.24,0,0,1-.18.06.12.12,0,0,0,.09,0,.24.24,0,0,1,.15,0,10.34,10.34,0,0,0,.87-.66,4.38,4.38,0,0,0,.51-.54l-.12.12-.36.36.24-.24a.94.94,0,0,0,.18-.24.94.94,0,0,1,.18-.24l.06-.12a3.65,3.65,0,0,0,.42-.54l-.24.36A6.28,6.28,0,0,0,220,92q.21-.42.39-.84a.35.35,0,0,0,.12-.24v-.06s.06,0,.06-.12q-.06.12,0,.12s0,0,0-.06a2.25,2.25,0,0,1,.18-.45l.24-.51a4.66,4.66,0,0,0-.24.6l-.06.12-.18.36-.12.3-.12.24s0,.06,0,.06,0,0,0,.06v.06l.12-.24.12-.27a.69.69,0,0,0,.06-.21.69.69,0,0,1-.06.21l-.12.27a1,1,0,0,0,.15-.33.52.52,0,0,1,.15-.27l.21-.54.21-.54a.92.92,0,0,0,.12-.36q-.12.3-.18.51t-.18.51a.91.91,0,0,1,.09-.33l.15-.33a2.34,2.34,0,0,1,.18-.48.12.12,0,0,1,0-.09.24.24,0,0,0,0-.15q.12-.36.24-.66a2.33,2.33,0,0,1-.12.3q.12-.3.18-.51t.18-.51a.93.93,0,0,0,.15-.39,1.49,1.49,0,0,1,.15-.45l-.06.06.06-.24a1.07,1.07,0,0,0,.09-.3,1.07,1.07,0,0,1,.09-.3.46.46,0,0,0,.06-.18v.06a.24.24,0,0,0-.06.18,1.07,1.07,0,0,0-.09.27,1.07,1.07,0,0,1-.09.27v-.06l.12-.36a.53.53,0,0,0,.06-.24,1.64,1.64,0,0,1,.06-.36l.06-.18.12-.36q.06-.3.09-.54a1.48,1.48,0,0,1,.15-.48l-.06.18.06-.18v.06a.17.17,0,0,1-.06.12,5,5,0,0,0,.12-.54.48.48,0,0,0,.06-.21.48.48,0,0,1,.06-.21Zm-4.32-6.84a.17.17,0,0,0-.06.12Zm1,3h0Zm2.76,4.2a.05.05,0,0,0,.06.06v-.06h.06l.12-.18-.18.18Zm1.5-1.56.42-.42-.21.21Zm.12-.06a1.29,1.29,0,0,0,.24-.3.32.32,0,0,1-.12.15.32.32,0,0,0-.12.15l-.06.06Zm5.16-5.58.12-.06A.17.17,0,0,0,229.16,76.33Z"/><path class="cls-2" d="M315.18,32.41a12.15,12.15,0,0,1,0,1.48c0,.25,0,.49-.05.74a6.23,6.23,0,0,1-.09.74,1.11,1.11,0,0,1,0,.17.5.5,0,0,0,0,.16l0,.12a1,1,0,0,1,0,.33,1.21,1.21,0,0,1,0,.18.72.72,0,0,0,0,.19l0,.11v-.07l.07-.34a.68.68,0,0,1,0-.14.39.39,0,0,0,0-.15v0c0,.12,0,.24,0,.35s0,.23-.06.35v0a.14.14,0,0,1,0,.09.14.14,0,0,0,0,.06l0,.26a2.36,2.36,0,0,0-.1.46,2.29,2.29,0,0,1-.09.5l0,.26c-.05.15-.06.22-.05.22s0,.05,0,.15l0,.11v0l0-.08v-.11l0-.15a.44.44,0,0,1,0,.1.44.44,0,0,0,0,.13v0l0,.08a2.48,2.48,0,0,0-.07.33.21.21,0,0,1,0,.15l0,.18c0,.23-.1.45-.16.69s-.12.46-.17.68c0,0,0,.08,0,.1a.14.14,0,0,0,0,.09.36.36,0,0,0,0,.11.24.24,0,0,1,0,.11v0a1.88,1.88,0,0,1-.07.37l-.15.52c-.05.2-.08.31-.08.34a.3.3,0,0,0,0,.11l0-.11a.11.11,0,0,1,0,.07.77.77,0,0,1,0,.15s0,.12-.06.22L312.78,45c-.23.75-.46,1.49-.71,2.23l.08-.3a2.1,2.1,0,0,1-.23.67v.07a.13.13,0,0,0,0,.08l0,.07a0,0,0,0,0,0,0s0,0,0,0,0,0,0,0l0-.11a3.52,3.52,0,0,0,.15-.37,1.1,1.1,0,0,1,.07-.26v0a.45.45,0,0,1,0,.18l0,0a.24.24,0,0,0,0,.13.24.24,0,0,1,0,.13,4.58,4.58,0,0,1-.17.56l-.2.55-.09.23-.09.22a1.15,1.15,0,0,1-.08.26l-.07.14,0,.08,0,0v0l0,0,.11-.33a1.65,1.65,0,0,0,.07-.26,1.33,1.33,0,0,1,.08-.3l.07-.14v-.08l.07-.22c0-.07.05-.15.08-.22a4,4,0,0,0,.13-.41,3.81,3.81,0,0,1,.13-.45l0,.08c.1-.27.19-.55.28-.83s.16-.57.24-.84c0-.05,0-.07,0-.07s0,0,0,.07l0,.15v0a.08.08,0,0,1,0-.05.08.08,0,0,0,0-.06,1.62,1.62,0,0,0,.09-.26.65.65,0,0,0,0-.11v-.07a.41.41,0,0,1,0-.15l.11-.3c.07-.29.15-.59.24-.89s.17-.59.24-.89.19-.68.28-1,.16-.65.24-1a.37.37,0,0,0,0-.11.36.36,0,0,1,0-.11s0-.05.08-.3c.27-1,.5-2.07.7-3.11a29.84,29.84,0,0,0,.44-3.15l0,.15V34.3c0-.2,0-.38.05-.54a4.52,4.52,0,0,0,0-.54,12.18,12.18,0,0,0-.07-1.29,2.16,2.16,0,0,0-.48-1.19,1.17,1.17,0,0,0-.78-.33,2.44,2.44,0,0,0-1.41.52c-.49.34-.91.65-1.26.92h0l-.11.09-.08.06-.07.07-.24.23a.88.88,0,0,0-.13.11l0,0,.22-.2.23-.2a.21.21,0,0,0-.1.07s0,0-.09.08l-.11.11-.08.07.12-.11a2.09,2.09,0,0,1,.22-.2,1.63,1.63,0,0,1,.22-.17l-.15.07-.41.41,0-.07a2.3,2.3,0,0,0,.34-.3l0,0-.28.26a3.2,3.2,0,0,0-.28.26s.05,0,.06,0,0,0,.05,0l-.11.08,0,0a.05.05,0,0,0-.06,0s0,0,0,0a.35.35,0,0,0-.11.07l0,0c-.34.34-.68.69-1,1s-.64.72-1,1.1l-.15.14h0s0,0-.08.08,0,.07-.11.15l0,0-.26.34.23-.3c-.89,1.06-1.8,2.19-2.71,3.37l-.63.78.15-.15-.06.08a.53.53,0,0,1-.09.11l0,0q-2,2.67-3.89,5.36c-1.26,1.79-2.5,3.61-3.74,5.46l0-.07c-.12.17-.24.33-.33.48l-.23.37a1.39,1.39,0,0,1-.18.26L295,52.69c-.31.46-.61.92-.91,1.39.2-.29.35-.52.47-.68l.24-.37a2,2,0,0,1,.11-.19s.05-.08.07-.13l-.65,1c-.16.26-.34.53-.53.8l.29-.45,0,0s0,.07-.12.15c-.22.37-.45.73-.68,1.09l-.69,1.06-.22.37c-.07.12-.15.24-.22.37l.2-.37a3.27,3.27,0,0,1,.28-.41l-1.22,1.89-.19.33-.13.21A.65.65,0,0,1,291,59l-.44.78s.07-.14.13-.26a1.08,1.08,0,0,1,.16-.26l.6-.94c.2-.31.39-.63.59-.95-.12.2-.21.34-.26.41l-.11.17a1.16,1.16,0,0,0-.09.14c0,.07-.12.18-.24.36s-.08.18-.1.18,0,0,0,0a8.39,8.39,0,0,0-.54.83c-.16.29-.33.56-.5.84a.49.49,0,0,1-.11.14.1.1,0,0,0,0,.08l0,0a.11.11,0,0,0,0-.07c-.22.34-.43.7-.64,1l-.65,1.1a3.46,3.46,0,0,1-.3.44h0l-.48.78a4.8,4.8,0,0,0-.3.52l.19-.34q-.23.42-.45.78l-.48.78c.25-.39.49-.81.74-1.26l-.3.5a3.61,3.61,0,0,1-.22.39,2.09,2.09,0,0,1-.15.3l-.14.18a2.35,2.35,0,0,0-.15.26l-.08.15a1.47,1.47,0,0,1-.09.17c0,.06-.09.16-.17.31a4.9,4.9,0,0,1-.33.56,4,4,0,0,0-.22.42q-.12.24-.3.54l0,0c-.09.14-.18.27-.24.39a2.84,2.84,0,0,0-.16.35.73.73,0,0,0-.15.29,4.31,4.31,0,0,0-.32.52c-.08.18-.18.35-.27.52l-.08.11c-.05.08-.09.16-.13.24a2,2,0,0,1-.17.32A.62.62,0,0,0,284,71l0,.08.08-.15a.3.3,0,0,0,.09-.15.47.47,0,0,1,.06-.15.67.67,0,0,1,.11-.14s0,0,0,0a3.18,3.18,0,0,1-.17.3l-.39.7q-.18.38-.57,1.11c-.26.5-.53,1-.8,1.56l-.14.3.18-.37.3-.58c.1-.18.18-.36.26-.54-.5,1-1,1.93-1.45,2.88s-.93,1.9-1.37,2.87l-.15.29a3.52,3.52,0,0,0-.15.37c.1-.19.16-.32.19-.38a1.28,1.28,0,0,0,0-.13v0a0,0,0,0,1,0,0s0,0,.11-.22a.32.32,0,0,0,.09-.17.75.75,0,0,1,.1-.2l.14-.28c.05-.11.11-.27.19-.46-.15.34-.3.68-.46,1s-.32.65-.47,1q-.11.25-.18.48l-.15.33c-.15.3-.29.6-.43.91l-.39.91L279,81.2c-.1.23-.2.44-.28.65s-.18.43-.28.65-.09.25-.11.3l0-.15c-.28.64-.53,1.28-.76,1.92s-.48,1.29-.73,1.93c.05.32.11.63.17.93s.12.59.17.89c0,.12,0,.24.05.35a1.69,1.69,0,0,0,.1.35c.09.67.2,1.33.31,2s.23,1.32.35,2c.05.33.1.63.13.93s.08.57.13.82a13.6,13.6,0,0,1,.11,3.63,6,6,0,0,1-.2,1.11,6.36,6.36,0,0,1-.43,1.18,3.72,3.72,0,0,1-.66,1,1.5,1.5,0,0,1-1,.46l-.4,0a1.45,1.45,0,0,1-.88-.68,4.5,4.5,0,0,1-.48-1.21,6.77,6.77,0,0,1-.2-1.35c0-.46,0-.83,0-1.13a22.43,22.43,0,0,1,.74-5.65c.5-1.89,1.05-3.72,1.67-5.5v-.19c-.05-.29-.1-.6-.17-.91s-.13-.61-.2-.9-.05-.32-.07-.45-.05-.24-.08-.37a.83.83,0,0,1,0-.22,1.51,1.51,0,0,0,0-.26c0-.1-.05-.2-.08-.31s-.06-.29-.11-.54,0-.23-.05-.32a.64.64,0,0,1,0-.16.24.24,0,0,1,0-.11.24.24,0,0,0,0-.12,1.8,1.8,0,0,0,0-.31c0-.11-.06-.25-.11-.43a1.13,1.13,0,0,1,.07.34c-.07-.3-.15-.67-.22-1.11-.13-.62-.25-1.23-.37-1.82s-.25-1.2-.37-1.82a4.19,4.19,0,0,1-.11-.53c0-.16-.05-.32-.08-.47-.1-.39-.19-.78-.28-1.16s-.16-.77-.24-1.17a2.23,2.23,0,0,1-.09-.48,2.23,2.23,0,0,0-.09-.48l-.22-1a2.26,2.26,0,0,1-.08-.41.38.38,0,0,1,0-.13.35.35,0,0,0,0-.13.53.53,0,0,0,0-.19l0-.14a1.58,1.58,0,0,0,0-.28l-.12-.43c0-.24-.08-.44-.11-.59a1.76,1.76,0,0,0-.11-.41l-.07-.44a.36.36,0,0,1,0-.19.34.34,0,0,0,0-.18.25.25,0,0,0,0-.1s0,0,0-.09l-.08-.22a.78.78,0,0,0,0-.22c0,.1,0,.16.05.2a.51.51,0,0,1,0,.13l0,.11a.54.54,0,0,0,0,.19.31.31,0,0,0,0,.11.27.27,0,0,1,0,.11,2,2,0,0,0-.07-.37v0l-.08-.18-.07-.41a1.33,1.33,0,0,0-.08-.3l0-.22a.28.28,0,0,1,0-.15.28.28,0,0,0,0-.15l-.11-.55a1.8,1.8,0,0,1-.09-.45,1.81,1.81,0,0,0-.09-.44.6.6,0,0,1,0-.22.36.36,0,0,0,0-.19.4.4,0,0,1,0-.15.74.74,0,0,0,0-.18.77.77,0,0,0,0-.15.77.77,0,0,1,0-.15v.08c0-.1,0-.2-.05-.3s0-.21-.06-.33l-.18-.82a3.8,3.8,0,0,0-.12-.52.64.64,0,0,1,0-.15l0,.19,0-.15a2.41,2.41,0,0,0-.11-.56,3.72,3.72,0,0,1-.08-.37c0-.14-.06-.32-.11-.52s-.1-.4-.15-.61l-.15-.64c-.09-.5-.19-1-.29-1.49s-.2-1-.3-1.4l-.44-2,.11.41a.43.43,0,0,1,0-.22,1.33,1.33,0,0,1-.09-.34,2.61,2.61,0,0,0-.06-.33.5.5,0,0,1,0-.19v-.07s0-.07,0-.15v-.07s0,0,0,0,0,0,0,.06a.16.16,0,0,1,0-.12l0,.15a.92.92,0,0,0,0,.19.77.77,0,0,1,0,.15,1.17,1.17,0,0,1,.09.33c0,.1,0,.21.05.33l0,.08-.07-.3,0-.07a1,1,0,0,0,0-.28,2.83,2.83,0,0,0-.07-.28l-.11-.67v.08l-.22-1a1.59,1.59,0,0,1-.06-.3c0-.1,0-.21-.05-.33l-.08.15-.07.07v0a2.22,2.22,0,0,1-.24.32,1.28,1.28,0,0,0-.24.31c-.05,0-.05,0,0,0s0,0,0,0a.35.35,0,0,1-.08.11l-.11.15-.07.08c-.1.12-.18.23-.25.33a1.14,1.14,0,0,1-.16.22c-.08.08-.11.13-.11.15l-.1.11a.35.35,0,0,1-.05.08c-.1.12-.19.23-.26.33s-.16.21-.26.33l0,0v0a.11.11,0,0,1,0,.07l-.08.09a.58.58,0,0,1-.11.13.16.16,0,0,1-.07.11l-.21.28-.2.28a1.26,1.26,0,0,1-.19.28,3,3,0,0,0-.18.24.19.19,0,0,0-.06.07.35.35,0,0,1,0,.08,1.67,1.67,0,0,0-.13.2l-.13.2a1.63,1.63,0,0,1-.19.28l-.15.17,0,0a3.71,3.71,0,0,1-.2.32,1.89,1.89,0,0,0-.17.28l-.33.48c-.1.14-.2.31-.3.48h0l-.07.13-.15.24a2.71,2.71,0,0,1-.24.35,2.71,2.71,0,0,0-.24.35,2,2,0,0,1-.15.26l-.15.22,0,.08,0,0-.15.23.15-.23c-.05,0-.07.08-.06.08s0,0-.05.07v0l0-.07.07-.12.07-.11-.18.3h0l0,0a.13.13,0,0,0,0-.07s0-.06.07-.11l0,0a1.15,1.15,0,0,1-.18.3l.07-.07-.07.07v0l0,0a1.59,1.59,0,0,0-.13.22,2.53,2.53,0,0,1-.13.22.48.48,0,0,0-.11.15.72.72,0,0,1-.11.15,2.39,2.39,0,0,1-.13.24.7.7,0,0,1-.13.16c0,.05-.05.08-.07.08a.35.35,0,0,1-.08.11v0l-.11.14.11-.14-.22.33-.15.3a.93.93,0,0,0-.22.37,2.69,2.69,0,0,0-.24.33l-.17.26a.48.48,0,0,0-.11.15l-.22.37,0-.08s0,0,0,.06,0,0,0,.06h0a.08.08,0,0,1,0,0,.08.08,0,0,0,0,.06,2.91,2.91,0,0,0-.29.42c-.08.14-.16.28-.26.43l-.37.59-.37.59-.15.25a.74.74,0,0,0-.08.13c-.32.49-.63,1-.92,1.48l-.78,1.29s0,0,0,0a.87.87,0,0,0-.09.17,1.48,1.48,0,0,1-.13.21l-.11.13-.78,1.33a3,3,0,0,0,.31-.52.44.44,0,0,1,.1-.15l-.3.48c-.07.13-.16.26-.26.41l.15-.22h0a.09.09,0,0,1,0,.07,6.89,6.89,0,0,1-.4.71c-.15.22-.29.44-.41.66a1.47,1.47,0,0,0,.22-.37l-.22.43-.11.19-.08.09a1,1,0,0,0-.11.22l-.11.15-.15.22-.18.33a.3.3,0,0,0,.07-.13.49.49,0,0,1,.08-.13c.09-.14.19-.29.27-.44s.17-.3.24-.44a.28.28,0,0,0-.09.14.88.88,0,0,1,0,.15l-.15.22c-.05,0-.07.08-.06.08h0v0l0,0s0,0,0,.08q-.3.48-.39.66c-.06.13-.07.14,0,0l-.37.61-.37.65-.18.33a.74.74,0,0,1-.08.13s-.05.08-.07.13l.07-.15-.4.71.33-.59-.37.64a1,1,0,0,1-.15.21l-.11.22c-.05.1-.19.33-.41.7a1.08,1.08,0,0,0-.11.21.36.36,0,0,1-.11.16c0,.1-.11.2-.17.3a2.19,2.19,0,0,0-.16.3l0,.07-.08.13s-.05.08-.07.13l-.07.07v0l.18-.29a.35.35,0,0,0-.07.11.71.71,0,0,1-.1.14,1.31,1.31,0,0,0-.12.26c-.08.13-.18.3-.32.5a5.65,5.65,0,0,0-.39.69c-.07.07-.1.11-.07.11v0l0,0a.19.19,0,0,1,0-.07.24.24,0,0,0,0-.08,2.41,2.41,0,0,0,.3-.48l-.11.22c-.13.2-.24.4-.36.6s-.22.39-.35.59-.29.49-.44.72a6.12,6.12,0,0,0-.41.76.2.2,0,0,0,.07-.11.13.13,0,0,1,0-.07v0l0,0s0,0,0-.07a1,1,0,0,1,.07-.15,3.91,3.91,0,0,1,.22-.37c-.12.22-.2.35-.22.4a.69.69,0,0,0-.13.21,2.6,2.6,0,0,1-.17.31.35.35,0,0,1-.07.11.62.62,0,0,0-.08.12l-.07.11-.22.42c-.08.14-.15.28-.22.43l.26-.52-.23.43a1.23,1.23,0,0,1-.18.27l0,0s-.08.15-.16.31l-.28.5-.28.5a.73.73,0,0,1-.2.28,1.05,1.05,0,0,1-.15.3l0,.07a.11.11,0,0,0,0,.07s0,0,0,.08l0-.08-.1.17-.13.24a4.17,4.17,0,0,0-.26.46,3,3,0,0,1-.18.36l.09-.21c0-.08.08-.16.13-.24a.3.3,0,0,0,.09-.15.33.33,0,0,1,.1-.14l.07-.15a1.65,1.65,0,0,1,.11-.19l.09-.16a.4.4,0,0,0,.06-.13l0,0c.05-.1.06-.15.05-.15s0-.06.13-.19.05-.09.08-.14l.07-.15a.89.89,0,0,1,.15-.26.3.3,0,0,0-.09.15.44.44,0,0,1-.1.15l-.2.38c-.06.12-.11.2-.13.25s.07-.15.15-.3.12-.25.15-.3c-.25.47-.49.89-.71,1.26-.1.2-.19.37-.28.52a3.81,3.81,0,0,0-.2.41,2.53,2.53,0,0,0-.13.22.7.7,0,0,1-.13.19l.21-.36a.91.91,0,0,1,.11-.16l.13-.22a5.89,5.89,0,0,1,.29-.52,1.65,1.65,0,0,0-.22.35l-.26.46-.3.59c-.12.2-.23.39-.33.58l-.3.57.1-.2a.71.71,0,0,1,.09-.17c-.05.08-.09.16-.13.24a1.36,1.36,0,0,1-.13.24l-.07.08-.34.67-.13.26a.59.59,0,0,1-.13.18l-.14.28-.15.24s0,0,0,0a.07.07,0,0,1,0,.06l0,0-.07.15v0l-.08.15a1.48,1.48,0,0,1-.2.37,2,2,0,0,0-.21.37.94.94,0,0,0-.07.19.13.13,0,0,0,0,.07.36.36,0,0,0,.08-.13.81.81,0,0,1,.11-.2,3,3,0,0,1,.17-.37,1.08,1.08,0,0,1,.16-.26l0-.11a0,0,0,0,0,0,0l0,.08.07-.12-.07.15v0l0,.11a2.4,2.4,0,0,0-.26.44,3,3,0,0,0-.15.26,2.8,2.8,0,0,1-.18.33.08.08,0,0,1,0,.06.08.08,0,0,0,0,0l-.15.26-.07.15a.3.3,0,0,0-.09.15.4.4,0,0,1-.09.15,1.41,1.41,0,0,0-.17.33.93.93,0,0,1-.13.26,3.8,3.8,0,0,0-.33.67l.07-.22,0,0-.15.22,0,0,.07-.14q-.22.41-.33.63c-.08.14-.14.26-.19.33s0,0-.07.18l0,0-.11.22-.3.63-.33.67a2.24,2.24,0,0,0-.19.33l-.07.15-.11.23c0-.05.05-.11.07-.17s.05-.12.08-.17,0,0-.12.19a.62.62,0,0,1-.07.18s0,.06-.07.11v0a.81.81,0,0,1-.08.17s-.05.06-.15.24a3.22,3.22,0,0,1-.29.59l0,0a1.94,1.94,0,0,0-.25.52l-.43.87c-.14.29-.28.56-.43.84s-.07.21-.07.18a.54.54,0,0,1,0,.22v.21a.67.67,0,0,1,0,.24,5.59,5.59,0,0,1-.07.7q-.07.52-.18,1.08a6.22,6.22,0,0,1-.3,1c-.12.29-.26.44-.41.44a.7.7,0,0,1-.44.11.37.37,0,0,1-.26-.37,1.54,1.54,0,0,1,.15-.7c.17-.5.35-1,.55-1.43s.41-.92.63-1.39c0-.12,0-.18,0-.18s0-.06,0-.19v-.26l0-.37V98.58a6.64,6.64,0,0,0,0-1.41V95.84l0-.08h0V94.58a.44.44,0,0,1,.07-.26l0,.26a.67.67,0,0,0,0,.18V95l0,.14a1.25,1.25,0,0,0,0,.21,1,1,0,0,1,0,.16,1.78,1.78,0,0,0,0,.34c0,.1,0,.21,0,.33V96.1c0,.17,0,.31,0,.42a2.06,2.06,0,0,1,0,.36,1.81,1.81,0,0,0,0,.25,1.79,1.79,0,0,1,0,.23v.44l0,.22v2.23c.07-.15.14-.29.2-.43s.13-.26.2-.39c.52-1.09,1.05-2.15,1.6-3.18s1.1-2.09,1.66-3.15a.85.85,0,0,0,.15-.26c.08-.13.15-.26.23-.41a4,4,0,0,1,.22-.41c.07-.15.15-.28.22-.41s.15-.26.22-.4l.72-1.32.8-1.46a.42.42,0,0,0,.06-.08l.05-.07c.72-1.33,1.46-2.67,2.22-4l.08-.15.11-.19a.16.16,0,0,0,.07-.11,2.82,2.82,0,0,0,.26-.44c.08-.15.16-.3.26-.45s.14-.22.19-.31l.15-.28.33-.55a.63.63,0,0,0,.07-.19.09.09,0,0,0,0-.07.1.1,0,0,0,0-.08h0l0,0,0,.07,0-.07a1.91,1.91,0,0,1,.16-.32,1.53,1.53,0,0,0,.17-.27l0-.08.15-.22.15-.22c.07-.13.14-.26.2-.39a3.55,3.55,0,0,1,.2-.39l.43-.7.39-.67.37-.63c.12-.22.25-.43.37-.63s.09-.16.13-.24a1.36,1.36,0,0,1,.13-.24.72.72,0,0,0,.11-.15l.07-.15a.42.42,0,0,0,.11-.18.52.52,0,0,1,.12-.19,1.55,1.55,0,0,1,.13-.24c.06-.11.11-.22.16-.32l2.5-4.13,2.5-4.13.15-.22,0-.07c-.08.12-.17.27-.28.46l-.33.54-.3.46-.17.28c.15-.27.34-.58.56-.93a4.55,4.55,0,0,0,.33-.55l.08-.12a1.66,1.66,0,0,0-.19.3l-.15.3v-.08a.79.79,0,0,0,.12-.15c.12-.19.2-.33.25-.42l.15-.28q-.1.18.06-.09a1.89,1.89,0,0,1,.24-.35c.27-.45.52-.84.74-1.19l.74-1.15v0a.91.91,0,0,0,.15-.23.54.54,0,0,1,.15-.18.3.3,0,0,0,.09-.15.3.3,0,0,1,.09-.15c.1-.17.19-.33.28-.46l.28-.43c.12-.2.23-.36.31-.5l.06-.09.56-.89.07-.07a.91.91,0,0,0,.13-.19.91.91,0,0,1,.13-.19,1.15,1.15,0,0,0-.19.26s0,0,0-.07a2.57,2.57,0,0,1,.17-.26,2.05,2.05,0,0,0,.16-.26l.26-.37.08-.11a.35.35,0,0,1,.07-.11.52.52,0,0,0,.08-.11,1,1,0,0,1,.07-.15l0-.07h0l0,.07a.51.51,0,0,0-.11.18.7.7,0,0,0-.13.17c0,.06-.05.08,0,.06a3.91,3.91,0,0,1,.4-.6.57.57,0,0,0,.12-.18.4.4,0,0,1,.11-.19l.11-.18v0c.1-.15.2-.3.29-.45l.3-.44s-.06,0-.11.11a.3.3,0,0,0-.11.18.09.09,0,0,1,0-.07l.13-.19.05-.09.09-.13.21-.29a1.34,1.34,0,0,1,.18-.28,1.26,1.26,0,0,0,.19-.28,1,1,0,0,0,.15-.19l.14-.22a.44.44,0,0,0,.1-.15.28.28,0,0,1,.09-.14l0,0c0-.1.08-.14.09-.13s0,0,.09-.13l0,0h0l-.07.15s-.08.09-.08.11l0,0a.93.93,0,0,0,.14-.21l.08-.09s0,0,0,0,0,0,0,0l.07-.11A1.09,1.09,0,0,0,266,55l.13-.2.07-.12.11-.11,0-.07,0,0v0l-.07.08s0,0,0-.08h0l.08-.14.07-.08,0-.07.07-.08.08-.15a.27.27,0,0,0,.09-.11.53.53,0,0,1,.09-.11,1.24,1.24,0,0,1,.19-.22.48.48,0,0,0,.11-.15l.15-.22c.07-.07.11-.12.11-.15h0l0,0a1.56,1.56,0,0,1,.2-.32c.14-.18.3-.38.48-.59l.52-.59a2.74,2.74,0,0,0,.28-.35l-.07.11a2,2,0,0,1,.22-.26l0,0,0,0,0,0-.08.07a.35.35,0,0,0-.05.08.29.29,0,0,1-.1.07l.08-.07.26-.26a2.07,2.07,0,0,1-.06-.24,1.11,1.11,0,0,1,0-.17v-.07a.4.4,0,0,0,0-.15c0-.07,0-.12,0-.13a.08.08,0,0,0,0-.06,0,0,0,0,1,0,0s0,0,0,0a.07.07,0,0,1,0-.06v0s0,0,0,0l.12.52a.35.35,0,0,1,0,.13.24.24,0,0,0,0,.13l.05,0a.09.09,0,0,0,.06,0,.69.69,0,0,1,.11-.17.2.2,0,0,1,.15-.09l.07-.08h.08l-.11.11s0,0-.08.12l-.11.11,0,.07-.14.15a.83.83,0,0,1,.05.2.84.84,0,0,0,.06.24l.07.3,0,.07v0l0,.08c0,.05,0,.08,0,.09s0,0,0,.09a.54.54,0,0,1,0,.19.53.53,0,0,0,.07.22l.15.67c.05.22.1.45.15.7l0-.11a13,13,0,0,1,.32,1.3c.08.44.19.88.31,1.33l0,.07-.07-.33v.07a.22.22,0,0,0,0,.08s0,.06,0,.11.05.21.08.33a1.58,1.58,0,0,0,.11.37.91.91,0,0,0,0,.23l.12.4a.67.67,0,0,0,0,.23c.08.37.16.72.24,1.07s.16.65.21.93c0,.12.05.23.07.33s.05.2.08.3a1.18,1.18,0,0,1,.09.37,2.88,2.88,0,0,0,.05.33,5.73,5.73,0,0,1,.23,1c.05.17.08.32.11.44a4.11,4.11,0,0,0,.11.45c0,.1,0,.18.05.26a.78.78,0,0,1,0,.22.94.94,0,0,1,.06.18.77.77,0,0,1,0,.15s0,.14.11.48c0,.13.05.27.07.43a5,5,0,0,0,.11.5c.25,1.11.49,2.22.73,3.33s.46,2.23.68,3.34a.93.93,0,0,0,.06.22s0,.17.09.45c.2,1,.39,2,.59,2.92s.4,1.94.6,2.93c.09.44.18.88.25,1.3s.16.84.26,1.26l.89,4.77c.37-1.06.77-2.11,1.19-3.16s.88-2.08,1.37-3.1l.3-.66c.09-.23.19-.45.29-.67a5.28,5.28,0,0,0,.26-.56l.08-.14,0,0-.07.11a.22.22,0,0,1-.08.15l.1-.19,0-.09a1.09,1.09,0,0,0,.1-.17c0-.07.09-.19.16-.37s.1-.23.15-.33.1-.21.15-.33l.07-.15c.79-1.61,1.6-3.19,2.43-4.76s1.7-3.13,2.61-4.69c.13-.22.26-.46.41-.7s.28-.5.41-.74c.05-.08.14-.24.27-.49l.39-.66q2.67-4.48,5.45-8.78t5.71-8.56l.18-.26a1,1,0,0,1,.15-.19l.07-.15v0c-.2.27-.42.6-.66,1l-.75,1.13c-.27.35-.5.67-.68,1l-.35.56c.07-.13.21-.34.41-.63l.62-1,.63-1c.2-.28.34-.46.41-.54l.15-.18a.1.1,0,0,1,0-.08l-.15.23a1.25,1.25,0,0,0-.17.2l-.16.24a1.52,1.52,0,0,1-.26.37,1.44,1.44,0,0,0-.11.19l.07-.11.22-.3c.27-.37.47-.65.59-.85l.38-.6a.08.08,0,0,1,0,.06s0,0,0,.06l0,0c.69-1,1.39-2,2.09-2.94s1.42-2,2.14-2.91l0-.08a3.63,3.63,0,0,0,.34-.4,1.2,1.2,0,0,0,.18-.26.53.53,0,0,0,.09-.11.47.47,0,0,1,.1-.11,3,3,0,0,1,.18-.25,1.54,1.54,0,0,0,.22-.31l.71-.91.66-.83c.15-.17.28-.33.39-.47l.32-.38a3.39,3.39,0,0,1,.29-.38.13.13,0,0,1,0,.08c.22-.27.45-.55.7-.83l.74-.84.15-.15a2.83,2.83,0,0,0,.33-.37c.1-.12.21-.24.34-.37a3.28,3.28,0,0,1-.22.26l-.26.26.14-.15.73-.76.72-.72.07,0,0,0,0,0,0,0,.23-.18.18-.17a2.09,2.09,0,0,0,.22-.2l.3-.22.11-.08-.18.17-.26.2c-.13.12-.24.23-.35.32s-.15.1-.1.05c.35-.29.74-.61,1.19-.94a4,4,0,0,1,1.33-.69.12.12,0,0,1-.11,0,2.07,2.07,0,0,1,.71-.11.69.69,0,0,1,.25,0,1.82,1.82,0,0,1,.65.41,2.15,2.15,0,0,1,.39.67,2.1,2.1,0,0,0-.41-.78,2,2,0,0,1,.49.91A6.77,6.77,0,0,1,315.18,32.41Zm-76.32,69.76c-.15.4-.32.82-.52,1.26a3.42,3.42,0,0,0-.11.35,1.84,1.84,0,0,1-.11.36c0,.07-.05.15-.08.24a1.2,1.2,0,0,0,0,.28v0a.93.93,0,0,0,.39-.37c.06-.12.11-.25.16-.37v-.07l.15-.61a4.76,4.76,0,0,0,.11-.62v-.11a.12.12,0,0,0,0-.11.27.27,0,0,1,0,.11.24.24,0,0,0,0,.08v0a.5.5,0,0,1,0,.19.26.26,0,0,0,0-.15v0l0-.25v-.23Zm.19-6.44v0Zm22.56-33.68,0,0-.11.23.15-.23Zm.26-.41-.22.33v0l0,0v0s0,0,0,0,0,0,0,0l0,0a.09.09,0,0,0,0-.07Zm1.48-2.3a2.87,2.87,0,0,0,.3-.44l-.21.33-.2.3,0,0a.27.27,0,0,0,.09-.11A.36.36,0,0,0,263.35,59.34Zm0,.11.08-.14.18-.3a1.52,1.52,0,0,1-.26.41l0,.11ZM269.09,51s.05,0,.08,0S269.12,51,269.09,51Zm.52,2a.81.81,0,0,1,0-.19.28.28,0,0,1,0-.15l0-.11A2.29,2.29,0,0,1,269.61,53ZM272,64.35v0a.1.1,0,0,0,0-.08l0,.08s0,0,0,0Zm5,25a2.7,2.7,0,0,0-.07-.44c-.05-.32-.08-.51-.1-.58s0-.15-.05-.27a.44.44,0,0,0,0-.13.51.51,0,0,1,0-.13.38.38,0,0,1,0-.13.75.75,0,0,0,0-.17l0,.11c-.05-.2-.08-.36-.11-.48v0l-.11.33a.86.86,0,0,0,.08-.18v0a.13.13,0,0,1,0,.07c-.13.35-.23.68-.32,1s-.19.66-.31,1a4.23,4.23,0,0,1-.15.49,1.08,1.08,0,0,0-.07.33,24.07,24.07,0,0,1,.77-2.52c0-.1.05-.19.08-.28s.05-.17.07-.24c-.27.77-.52,1.53-.74,2.28s-.43,1.51-.63,2.28c.12-.5.26-1,.41-1.5s.3-1,.44-1.5A2.83,2.83,0,0,0,276,89a4.07,4.07,0,0,1-.17.54c-.24.86-.47,1.72-.66,2.57s-.37,1.73-.52,2.62a2.46,2.46,0,0,0,.07-.45,2.26,2.26,0,0,1,.08-.41c-.15.82-.26,1.63-.34,2.45a.31.31,0,0,1,0,.18v.34a3.65,3.65,0,0,0,0,.55v1.17a2.48,2.48,0,0,0,.07.61v.15l.08.3,0,0,.07.3.12.44a.53.53,0,0,0,.07.22,3.12,3.12,0,0,0,.3.61,1.36,1.36,0,0,0,.48.5l.18.12A2,2,0,0,1,275,101a6.06,6.06,0,0,1-.33-1l0-.22,0-.08a.13.13,0,0,0,0,.08l0-.19a1.53,1.53,0,0,0,0,.3v0a.34.34,0,0,1,0,.18,4.69,4.69,0,0,0,.37,1c.35.5.68.76,1,.78.05,0,.09,0,.11,0h.11a1.83,1.83,0,0,0,.86-.65,4.89,4.89,0,0,0,.55-1,7.15,7.15,0,0,0,.34-1.15,9.11,9.11,0,0,0,.14-1,2.49,2.49,0,0,0,0,.45v.07l0,0v0a.48.48,0,0,0,0-.18.88.88,0,0,0,0-.21v0a.4.4,0,0,1,0,.15v.26c0-.22,0-.44,0-.65s0-.41,0-.61,0-.49,0-.74,0-.49,0-.74l0-.15a2,2,0,0,0,0-.26,1.64,1.64,0,0,1,0-.22c-.07-.45-.13-.77-.16-1s-.07-.38-.1-.5a2.13,2.13,0,0,1,0-.3.48.48,0,0,0,0-.18.68.68,0,0,0,0-.26,3.92,3.92,0,0,1-.09-.61,3,3,0,0,0-.09-.58,2.07,2.07,0,0,1-.08-.44l0,0v-.11a.42.42,0,0,0,0-.15c0-.12,0-.23-.06-.33a2.54,2.54,0,0,1,0-.26c0,.12,0,.23.05.33s0,.2,0,.3a.48.48,0,0,1,0,.18l-.08-.52c0-.12,0-.24,0-.37s0-.24-.06-.37v0c-.05-.2-.07-.29-.05-.28A1.27,1.27,0,0,0,277.06,89.35Zm.19-3.85a2.85,2.85,0,0,1,.22-.59,7.27,7.27,0,0,0-.32.79c-.08.26-.18.53-.28.8a2.81,2.81,0,0,1,.15-.37,1.82,1.82,0,0,0,.11-.33A1.88,1.88,0,0,1,277.25,85.5Zm-.26.67a1.57,1.57,0,0,1-.12.29c.05-.14.1-.3.15-.46a.73.73,0,0,1,.15-.31,1.28,1.28,0,0,0-.11.25A2,2,0,0,0,277,86.17ZM306.4,36.78a1.91,1.91,0,0,0-.26.3l-.07.07.11-.11a2.33,2.33,0,0,0,.22-.3l0-.07v0Zm.71-.89-.56.67,0,0-.07.08v.07l.11-.11.08-.15a.06.06,0,0,0,.07-.07ZM308.4,34l0,0S308.4,34,308.4,34Zm2.34-2a8.64,8.64,0,0,1,.67-.56q.33-.26.66-.48l-.7.5A5.3,5.3,0,0,0,310.74,32Zm.22-.15a3.58,3.58,0,0,1,.41-.35l.44-.35-.5.38a6.12,6.12,0,0,1-.5.39Zm.78,16.26a1.11,1.11,0,0,0,.11-.29l0,.07v0l0,.07v0ZM314,40.67v0Z"/><path class="cls-2" d="M294.46,76.09a3.92,3.92,0,0,1-.36.42H294a1.65,1.65,0,0,1-.48.42V77s-.1,0-.18.12l-.36.3a.17.17,0,0,1-.12.06l-.72.6.06-.06-.06.06q-.18.06-.18.12l-.24.12-.12.12-.06.06q-.12.12-.18.12a.23.23,0,0,0-.12.06h-.12v.06h.06q-.12.12-.18.12a.17.17,0,0,0-.12.06,2,2,0,0,0-.3.18l-.51.3-.39.24h-.06l-.06.06a.92.92,0,0,1-.36.12c.08,0,.12,0,.12,0s0,0,.06,0a1.05,1.05,0,0,1-.3.12,1.38,1.38,0,0,1-.36.18q.12,0,.12-.06l-.24.12h-.06l-.06.06s.06-.06.18-.06h-.18a.24.24,0,0,1-.18.06l-.06.06a.12.12,0,0,0-.09,0,.24.24,0,0,1-.15,0,.24.24,0,0,1-.18.06h-.06a.84.84,0,0,1-.36-.06.35.35,0,0,0,.24.06h-.18a.05.05,0,0,0-.06-.06A1.6,1.6,0,0,1,287,80q0-.12-.06-.12a2.14,2.14,0,0,0-.12-.36q0-.12,0,.06t0-.12a.66.66,0,0,0,0-.21.66.66,0,0,1,0-.21v.18q.06-.48.09-.66a1.89,1.89,0,0,0,0-.3.53.53,0,0,0-.06.24.42.42,0,0,1,0-.18.42.42,0,0,0,0-.18,1,1,0,0,0,.06-.3V78c0-.2.08-.36.12-.51a2.63,2.63,0,0,1,.18-.45.3.3,0,0,1,0-.12.24.24,0,0,0,0-.12.5.5,0,0,1-.06.24v.06s-.06,0-.06.12l-.06.12.06-.12-.06.06v.12l.06-.12v-.06l.18-.48s0-.06,0-.06,0,0,0-.06l-.18.36.06-.12q0-.12.06-.12a.14.14,0,0,1,0-.09.12.12,0,0,0,0-.09.69.69,0,0,1,.09-.15.69.69,0,0,0,.09-.15.17.17,0,0,0-.06.12s0-.1.12-.18a1.79,1.79,0,0,1,.3-.42l.06-.06a.35.35,0,0,1,.12-.24l-.06.12-.06.06-.06.06s.06-.07.06-.09,0,0,.06-.09l.18-.18.06-.06a1.37,1.37,0,0,1,.24-.21.85.85,0,0,0,.18-.15l-.06.06s.07-.06.09-.06,0,0,.09-.06a.33.33,0,0,1,.21-.12.2.2,0,0,0,.15-.06h.87a.29.29,0,0,1,.21.06h-.06a.32.32,0,0,1,.24.36v.24a2,2,0,0,1-.36.72.28.28,0,0,1-.12.15s-.06.05-.06.09l-.12.12a.94.94,0,0,1-.18.24l-.24.24-.18.24h-.06v.06a.17.17,0,0,0-.12.06s.06,0,.06,0,0,0,.06,0a.17.17,0,0,0-.12.06v.06a1.8,1.8,0,0,1-.3.18l-.12.06-.06.06-.06.06s0,0-.06.06a2.67,2.67,0,0,1-.84.48l.06-.06q-.3.18-.33.27a1.55,1.55,0,0,0,0,.39v.24a1.28,1.28,0,0,0,.12.66,7,7,0,0,0,1.47-.33,10.35,10.35,0,0,0,1-.45.4.4,0,0,0-.24.09.36.36,0,0,1-.18.09.35.35,0,0,1,.24-.12l.12-.12q.12-.06,0,.06t0,0l.18-.12s0,0,0,0a.29.29,0,0,1,.15-.06l.3-.18a1.8,1.8,0,0,0,.3-.18,1.39,1.39,0,0,0,.3-.18l.12-.12.12-.06.06-.06s.07-.06.09-.06.07,0,.15-.12.18,0,.18-.12.12,0,.12,0,0,0,.12-.09l-.06.06.06-.06a.23.23,0,0,1,.12-.06l.06-.06a1.37,1.37,0,0,1,.24-.21l.12-.09a.23.23,0,0,1,.12-.06.68.68,0,0,0,.24-.24v.06l.09-.09.15-.15h.06a.94.94,0,0,1,.24-.18h.06q.12-.12,0-.06c-.06,0,0,0,0-.06l.36-.18.12-.12v.06a.49.49,0,0,1,.36-.12Zm-7,1.68q.12-.06.12-.12a.17.17,0,0,0,.12-.06l.24-.24a2.17,2.17,0,0,0,.78-.66.47.47,0,0,1,.12-.09.47.47,0,0,0,.12-.09l.12-.12a.85.85,0,0,0,.15-.18.11.11,0,0,1,.09-.06,1.1,1.1,0,0,0,.33-.39q.15-.27.27-.45a.19.19,0,0,0-.12-.18h-.12a1,1,0,0,0-.42.12,3.22,3.22,0,0,0-.45.33q-.33.27-.45.39a2.69,2.69,0,0,0-.42.66.53.53,0,0,0-.15.24,1.17,1.17,0,0,1-.09.24,2.33,2.33,0,0,0-.12.3Zm4.14.66-.06.06Zm.54-.42a.51.51,0,0,0,.18-.12C292.28,78,292.22,78,292.18,78Zm.06,0s.06,0,.06,0,0,0,.06,0A.23.23,0,0,0,292.24,78Z"/><path class="cls-2" d="M306.64,76.33v.42a4.66,4.66,0,0,1-.24.6v.06a5.29,5.29,0,0,1-.54,1.2.17.17,0,0,1-.06.12l-.06.06-.06.12q-.06.18-.18.18l-.06.12v.06l-.15.15-.09.09-.06.06a2.75,2.75,0,0,1-.48.42,1.67,1.67,0,0,1-.84.42h-.42a2.78,2.78,0,0,0-.54-.06H303a.67.67,0,0,1-.3-.06h-.06a.05.05,0,0,0-.06-.06.17.17,0,0,1,.12.06l-.36-.24a.69.69,0,0,1-.21-.18.32.32,0,0,0-.15-.12H302l-.06-.06-.06-.12.12.12-.12-.18a.14.14,0,0,0,0-.09,1.18,1.18,0,0,1-.09-.33q-.12,0-.12.06h-.06a.17.17,0,0,1-.06.12v.06q-.24.12-.18.12l.12-.06a.05.05,0,0,0-.06.06.06.06,0,0,0-.06.06,4.77,4.77,0,0,1-.72.6s0,0,.18-.12l.06-.06a.51.51,0,0,0,.18-.12s-.06,0-.06,0,0,0-.06,0l.06-.06a.05.05,0,0,1,.06-.06l-.12.12a1.21,1.21,0,0,1-.36.24s0,.06-.12.06q.12,0,.12-.06l.24-.12a.35.35,0,0,1-.24.12.52.52,0,0,1-.36.18s0,.06-.12.06a1.56,1.56,0,0,1-.48.06h-.06a1,1,0,0,1-.3-.06.53.53,0,0,0,.24.06h-.18a.24.24,0,0,1-.18-.06h-.06l-.48-.24s.06,0,.06,0-.14-.12-.18-.12l-.18-.3-.06-.06a4,4,0,0,1-.12-.57v-.33q.06-.48.06-.63a.29.29,0,0,1,.06-.21.26.26,0,0,1,0-.15s0-.06,0-.15a1.56,1.56,0,0,0,.06-.36l.12-.24.12-.24v-.06l.06-.12a.65.65,0,0,1,.12-.24.17.17,0,0,1,.06-.12l.06-.06c0-.08,0-.09,0-.06L299,76l.18-.27a1.3,1.3,0,0,0,.12-.21l.18-.18-.06.06.24-.24a.7.7,0,0,1,.18-.12.05.05,0,0,0,.06.06v.06a1.45,1.45,0,0,0-.12.42.53.53,0,0,1-.06.24v.06l-.06.06a.24.24,0,0,1,0,.12.3.3,0,0,0,0,.12q-.24.48-.3.57a.37.37,0,0,0-.06.21.35.35,0,0,0-.12.24.17.17,0,0,0-.06.12l-.15.33a.91.91,0,0,0-.09.33,1110470995445.49,1110470995445.49,0,0,1-.12.48.23.23,0,0,1-.06.18,1.82,1.82,0,0,0,.06.54.41.41,0,0,0,.12.3.55.55,0,0,0,.3.3,1.14,1.14,0,0,0,.39.12h.15a1.44,1.44,0,0,0,.84-.3l.39-.39c.18-.18.31-.3.39-.39l.06-.06.06-.12h.06a.19.19,0,0,1,.06-.12v-.06a.05.05,0,0,0,.06-.06h.06a1.11,1.11,0,0,1,.18-.12h.12l.24.12a.74.74,0,0,0,.12.3v.42a1.87,1.87,0,0,0,.15.33l.09.09s0,.06,0,.06,0,0,0,.06a2.32,2.32,0,0,0,.66.24,2.13,2.13,0,0,0,.84-.12q-.12,0-.12.06a5,5,0,0,0,1.08-.78q.12-.18.06-.18l.18-.18.12-.24.06-.12v.06h.06s0-.06,0-.06,0,0,0-.06v-.06a.33.33,0,0,0,.12-.24.19.19,0,0,1,.06-.12.17.17,0,0,1,.06-.12l.12-.24-.06.06a.7.7,0,0,1,.12-.18v-.06a3.11,3.11,0,0,1,.12-.3l.06-.06q0-.12,0,0c0,.06,0,.06,0,0s.12-.14.12-.18a.17.17,0,0,1,.06-.12l.06-.12a.68.68,0,0,1,.24-.24Zm-7.08-1.08a.05.05,0,0,0-.06.06A.05.05,0,0,0,299.56,75.25Zm5.88,4-.06.06v.06a.05.05,0,0,0,.06-.06Zm-.06.12v0Zm.42-.6a.46.46,0,0,0,.06-.18.12.12,0,0,1,0,.09A.12.12,0,0,0,305.8,78.73Z"/><path class="cls-2" d="M317,76a.27.27,0,0,1-.15.15,4.73,4.73,0,0,0-.51.27l-.06.06a.24.24,0,0,0-.18.06,3.55,3.55,0,0,1-.54.3h-.06l-.06.06a.17.17,0,0,0-.12.06h-.06l-.3.12v.06l-.24.12-.06-.06v.06a.56.56,0,0,0-.36.3.23.23,0,0,0,.06.18.27.27,0,0,0,0,.12.42.42,0,0,1,0,.18.49.49,0,0,0,0,.15.27.27,0,0,1,0,.21.5.5,0,0,1-.06.24.39.39,0,0,1-.18.18A1.79,1.79,0,0,1,314,79l-.06.06a3.57,3.57,0,0,1-.78.06h-.36a.46.46,0,0,0-.18-.06L312.4,79l-.24-.24v-.18a.12.12,0,0,1,0-.09,1.53,1.53,0,0,0,.15-.33l.57-.57a1.28,1.28,0,0,0,.27-.93.47.47,0,0,1-.09-.12,3.7,3.7,0,0,0-.27-.36l-.24-.24-.06-.06-.12-.24-.12-.18v-.06q0-.12-.06-.12a.19.19,0,0,1,.06.12.53.53,0,0,1-.06-.24v-.06a.55.55,0,0,1,.3-.3h.3a.17.17,0,0,0,.12.06H313c0,.09.07.12.09.12s.05,0,.09.12a.93.93,0,0,1,.18.66v-.06q0,.12,0,.12s0,0,0,.06a.12.12,0,0,0,0,.09.14.14,0,0,1,0,.09l.12.12.36.54a.2.2,0,0,1,.06.15.33.33,0,0,0,.12.21l.54-.24a.17.17,0,0,1,.12-.06l.12-.12a1,1,0,0,1,.42-.12h.06a.17.17,0,0,1,.12-.06l.12-.12a.79.79,0,0,1,.39-.18,1.39,1.39,0,0,0,.39-.12l.06-.06h.06a1,1,0,0,1,.24-.06h.18l-.06-.06.06.06Q317,76,317,76ZM314,78.25a1.64,1.64,0,0,0-.06-.36V78q-.06-.18-.12-.18s0,0-.06,0h-.06q-.12.12-.18.12l-.12.06-.06.06a.49.49,0,0,1-.3.18l.12-.06h-.06a.27.27,0,0,0-.15.18,1.17,1.17,0,0,1-.09.24,1.49,1.49,0,0,0,.54.06h.06a.42.42,0,0,0,.18,0,.27.27,0,0,1,.12,0h.06s.06,0,.06,0A2.48,2.48,0,0,1,314,78.25Zm1-1.14-.06.12.06-.06Zm.48-.24-.06.06A.05.05,0,0,0,315.46,76.87Zm-.06.12.06-.06A.05.05,0,0,0,315.4,77Z"/></g></g></svg>