<?xml version="1.0" encoding="utf-8"?>
<!-- Generator: Adobe Illustrator 24.1.2, SVG Export Plug-In . SVG Version: 6.00 Build 0)  -->
<svg version="1.1" id="Layer_1" xmlns="http://www.w3.org/2000/svg" xmlns:xlink="http://www.w3.org/1999/xlink" x="0px" y="0px"
	 viewBox="0 0 201.3 101" style="enable-background:new 0 0 201.3 101;" xml:space="preserve">
<style type="text/css">
	.st0{fill:#E73B4B;}
</style>
<g>
	<path class="st0" d="M199.6,34.1c-1.2-4.3-3-8.5-5.3-12.3c-2.4-3.8-5.2-7.2-8.4-10c-3.2-2.8-6.9-5.1-11-6.7
		c-4.1-1.6-8.4-2.5-12.9-2.5c-6.3,0-11.9,1.4-16.8,4.2c-4.9,2.8-9.1,6.6-12.4,11.2c-3.3,4.6-5.9,9.9-7.7,15.8
		c-1.8,5.9-2.7,12-2.7,18.1c0,6.6,0.9,12.7,2.8,18.4c1.9,5.7,4.5,10.7,8,15c3.5,4.2,7.7,7.6,12.6,10c4.9,2.5,10.4,3.7,16.4,3.7
		c4.7,0,9.2-0.9,13.3-2.6c4.2-1.7,7.8-4,11.1-6.8c3.2-2.8,6-6.1,8.2-9.8c2.2-3.7,3.8-7.5,4.6-11.4h1.6l-0.4,30.1h-1.6
		c-1-1.5-2.2-2.9-3.4-4.2c-1.2-1.3-2-1.9-2.5-1.9c-0.2,0-1,0.5-2.5,1.4c-1.5,1-3.6,2-6.3,3.1c-2.7,1.1-6.1,2.1-10,3
		c-3.9,0.9-8.4,1.3-13.6,1.3c-8.5,0-16.2-1.2-23-3.6c-6.8-2.4-12.7-5.8-17.5-10.2c-4.8-4.4-8.5-9.7-11-15.9
		c-2.5-6.2-3.8-12.9-3.8-20.3c0-1.6,0.1-3.5,0.3-5.6c0.2-2.1,0.6-4.3,1.2-6.7s1.4-4.9,2.5-7.5c1-2.6,2.4-5.2,4-7.9
		c1.9-3.1,4.3-6.1,7.1-8.9c2.8-2.8,6.2-5.3,10-7.4c3.8-2.1,8.2-3.8,13-5.1c4.8-1.3,10.3-1.9,16.3-1.9c5.5,0,10.3,0.5,14.4,1.5
		c4.1,1,7.5,2.1,10.3,3.3c2.7,1.2,4.8,2.3,6.3,3.3c1.5,1,2.3,1.5,2.5,1.5s0.5-0.2,1-0.6c0.5-0.4,1-0.9,1.6-1.5
		c0.6-0.7,1.3-1.3,1.8-2c0.6-0.8,1.2-1.6,1.8-2.4h1.5V34L199.6,34.1L199.6,34.1z M103.4,4.4c-2.1,1.3-3.6,3.3-4.7,6
		c-0.6,1.4-1,4-1.2,7.7c-0.2,3.8-0.4,7.8-0.6,12.1c-0.2,4-0.3,8.7-0.5,14.2c-0.1,5.8-0.2,11.7-0.2,17.5v8.9c0,3.3,0,6.6,0.1,10
		c0,3.4,0.1,6.8,0.1,10.1v9.1c0,0.4-0.1,0.7-0.3,0.9c-0.2,0.2-0.6,0.3-1,0.3c-0.7,0-1.6-0.5-2.5-1.4c-7.1-8.3-14.2-16.7-21.2-25.1
		C65,67.1,58.9,59.8,53.1,52.9c-5.7-6.8-11.4-13.5-17-20.3c-5.8-6.9-11.7-13.7-17.7-20.5v58.9c0,4.7,0.1,9,0.3,12.8
		c0.2,3.8,0.8,6.7,1.7,8.5c1,2.1,2.6,3.7,4.7,4.8c2.1,1.1,5.1,1.8,8.8,2.3v1.4H0.3v-1.4c2.2-0.3,4.4-0.9,6.6-1.7
		c2.2-0.9,3.9-2.3,5.2-4.4c1.3-2,2.1-4.8,2.5-8.6c0.4-3.8,0.6-8.4,0.8-13.7c0.2-4,0.3-8.7,0.4-14.2c0.1-5.4,0.1-11.3,0.1-17.5v-17
		c0-1.9,0-4.1-0.1-6.8c-0.3-2.7-0.9-4.9-1.9-6.6c-1-1.7-2.2-3.1-3.6-4c-1.3-1-2.9-1.7-4.5-2.1C4.3,2.3,2.8,2,1.2,1.7V0.3H29
		l64.9,77.3V30.2c0-3.7,0-7.3-0.1-10.7c-0.1-3.4-0.5-6.1-1.2-8c-0.9-2.6-2.5-4.7-4.9-6.3C85.4,3.5,82,2.4,77.6,1.7V0.3h33.9v1.4
		C108.2,2.2,105.5,3.1,103.4,4.4z"/>
</g>
<g>
	<path d="M2.4,50c-1.4-0.8-2-1.8-2-3.1c0.1-1.3,0.6-2.7,1.7-4.2s2.4-3,4.1-4.5c1.7-1.5,3.4-2.8,5.3-3.9c1.9-1.1,3.6-2,5.3-2.5
		c1.7-0.5,3.1-0.6,4.2-0.2c1,0.4,1.4,1.2,1.3,2.3s-0.5,2.5-1.2,4c-0.7,1.5-1.5,3-2.4,4.4c-0.9,1.4-1.7,2.6-2.4,3.6
		c-0.4,0.5-0.6,0.9-0.8,1.2c-0.5,0.7-0.9,1.4-1.4,2.1C11.6,53.1,9.2,57,7,61c-0.1,0.2-0.2,0.4-0.4,0.6c-0.4,0.6-0.6,1.2-0.8,1.6
		c-0.2,0.4-0.2,0.6,0,0.6c0.2,0,0.7-0.4,1.5-1.1c0.8-0.7,1.5-1.4,2.2-2.1c0.5-0.5,1.3-1.3,2.5-2.6c1.4-1.5,3.1-3.3,5.2-5.4
		c2-2.1,4.2-4.2,6.5-6.5c2.3-2.2,4.5-4.2,6.6-6c2.1-1.8,4-3.2,5.6-4.2s2.8-1.2,3.5-0.8c0.1,0.1,0.3,0.2,0.4,0.4
		c0.3,0.5,0.2,1.4-0.2,2.5c-0.4,1.2-1.1,2.6-2,4.2c-0.9,1.6-1.8,3.3-2.9,5.1c-1.4,2.4-2.6,4.6-3.7,6.7c-1.1,2.1-1.8,3.9-2,5.2
		c-0.2,1.3,0.3,2,1.6,1.9c0,0,0.1,0,0.1,0c0.1,0,0.3,0,0.4,0s0.2,0.1,0.2,0.2c0,0.2,0,0.3-0.2,0.4c-0.1,0.1-0.3,0.1-0.4,0.1
		c-1.5,0.1-2.3-0.3-2.6-1.3s0-2.3,0.6-3.9c0.6-1.7,1.5-3.5,2.5-5.5s2.2-4,3.3-5.9c1.3-2.3,2.4-4.2,3.3-5.9c0.9-1.7,1.2-2.8,0.9-3.3
		c-0.3-0.5-1.3-0.2-2.8,0.8c-1.5,1-3.3,2.5-5.5,4.4c-2.2,1.9-4.4,4-6.8,6.3c-2.4,2.3-4.6,4.5-6.7,6.6c-2.1,2.1-3.8,3.8-5.1,5.2
		c-1,1-1.6,1.7-1.9,2c-0.1,0.1-0.2,0.2-0.3,0.4c-0.4,0.4-1,1-1.7,1.7s-1.4,1.2-2.1,1.6c-0.7,0.4-1.2,0.3-1.5-0.1
		c-0.2-0.4,0.1-1.4,0.7-2.8C6,60.6,6.9,58.9,8,57s2.2-3.7,3.3-5.5c1.1-1.7,2-3.1,2.6-4.1c0.3-0.4,0.4-0.7,0.6-0.9
		c0.2-0.3,0.4-0.7,0.8-1.2c0.6-0.9,1.4-2,2.2-3.3c0.8-1.3,1.6-2.6,2.3-4s1.2-2.5,1.4-3.5c0.2-1,0-1.6-0.6-1.9
		c-1.3-0.4-2.9-0.2-4.8,0.6c-2,0.8-4,2-6.1,3.5s-3.9,3.1-5.4,4.7s-2.5,3.1-2.9,4.4c-0.2,0.7-0.1,1.3,0.1,1.8
		c0.2,0.5,0.5,0.9,0.9,1.1c0.4,0.3,0.7,0.5,1,0.6s0.5,0.1,0.5,0C4,49.2,4.1,49.1,4.2,49c0.1,0,0.3,0,0.4,0.1
		c0.1,0.1,0.3,0.2,0.4,0.3c0.4,0.5,0.3,0.9-0.4,1.1c-0.2,0-0.4,0-0.7,0c-0.3-0.1-0.6-0.2-0.9-0.3C2.8,50.2,2.6,50.1,2.4,50z"/>
	<path d="M41.4,48.7c0.7,0.2,1,0.5,0.9,0.9s-0.5,1-1.1,1.5s-1.2,0.9-1.9,1.1s-1.1,0.2-1.4,0c-0.2,0.3-0.4,0.6-0.7,1
		s-0.4,0.8-0.5,1.1c0,0.5,0.3,0.7,1,0.6s1.5-0.3,2.4-0.6s1.8-0.7,2.6-1.1s1.3-0.6,1.5-0.8c0.2-0.1,0.3-0.1,0.4-0.1s0.2,0.1,0.2,0.2
		s-0.2,0.3-0.5,0.5c-0.4,0.3-1.1,0.7-2,1.2s-1.9,0.9-3,1.3s-1.9,0.5-2.7,0.4s-1.1-0.7-1.1-1.6c0.1-0.6,0.4-1.4,1.1-2.3
		s1.4-1.7,2.3-2.3S40.7,48.7,41.4,48.7z M41,49.8c-0.1,0-0.3,0.1-0.6,0.3s-0.6,0.4-0.9,0.6s-0.6,0.4-0.8,0.6s-0.4,0.3-0.4,0.4
		s0.1,0.1,0.4,0c0.4-0.1,0.8-0.4,1.4-0.8s1-0.7,1.3-1c0.1-0.1,0.2-0.2,0.2-0.3S41.3,49.7,41,49.8z"/>
	<path d="M46.1,53.4c-0.9,0.6-1.4,0.9-1.7,0.7S44,53.6,44.1,53s0.4-1.2,0.8-2c0.5-1,0.9-1.6,1.2-1.8s0.6-0.3,0.9-0.1
		c0.2,0.3,0.2,0.5,0,0.8s-0.4,0.5-0.7,0.7c-0.3,0.3-0.5,0.5-0.7,0.7s-0.3,0.5-0.4,0.9c0,0.1-0.1,0.2-0.1,0.3C45,52.9,45,53,45,53.1
		s0.2,0,0.4-0.2c0.4-0.3,0.9-0.7,1.5-1.2c0.5-0.5,1-0.9,1.5-1.2s0.9-0.6,1.2-0.6c0.7-0.1,1.2,0.3,1.4,1s0.4,1.4,0.5,2
		c0,0.1,0,0.2,0,0.4c0.1,0.7,0.2,1.3,0.4,1.8s0.4,0.9,0.6,1.1s0.6,0.1,1-0.3s1.1-1.1,1.9-2.2s1.9-2.7,3.2-4.8
		c0.1-0.2,0.2-0.3,0.4-0.3s0.3,0,0.3,0.1s0,0.3-0.1,0.6c-0.2,0.3-0.4,0.6-0.6,1c-0.6,1-1.3,2.2-2.1,3.3s-1.6,2.1-2.4,2.9
		s-1.5,0.9-2.2,0.6s-1.1-1.5-1.5-3.6c-0.1-0.7-0.2-1.3-0.3-1.8s-0.3-0.8-0.4-0.8c-0.2,0.1-0.6,0.3-1.2,0.7s-1,0.8-1.6,1.3
		C46.6,53,46.3,53.2,46.1,53.4z"/>
	<path d="M59.4,55.2c0.1-0.1,0.2-0.2,0.4-0.5s0.3-0.7,0.5-1.1c0.3-0.9,0.7-1.7,1.2-2.5s1-1.3,1.5-1.4c0.2,0,0.3,0.1,0.4,0.3
		s0.1,0.3-0.1,0.5c-0.2,0.3-0.4,0.5-0.6,0.7s-0.3,0.3-0.5,0.5s-0.4,0.4-0.6,0.6c-0.2,0.4-0.3,0.9-0.5,1.3C61.1,53.8,61,54,61,54.2
		c0,0.1-0.1,0.2-0.1,0.3s0,0.1,0.1,0.1s0.1,0,0.2,0c0,0,0,0,0,0c0.3-0.1,0.4-0.1,0.5,0s0.1,0.2,0.1,0.3s-0.1,0.2-0.3,0.3
		c-0.1,0.1-0.3,0.1-0.4,0.1c-0.2,0-0.3,0.1-0.5,0.2c-0.1,0.1-0.2,0.2-0.3,0.3s-0.2,0.3-0.2,0.4c-0.5,1-1.2,1.8-2.1,2.7
		s-2,1.3-3.2,1.5c-1,0.1-1.5,0-1.4-0.4s0.4-0.8,1-1.4s1.5-1.2,2.4-1.8S58.6,55.7,59.4,55.2z M58.4,57.1c0.1-0.1,0.1-0.2,0.2-0.3
		s0.1-0.2,0.2-0.3s0.1-0.2,0.1-0.2s0-0.1-0.1,0c-0.3,0.1-0.7,0.4-1.2,0.7s-1,0.7-1.5,1.1s-0.9,0.7-1.3,1s-0.4,0.4-0.4,0.4
		c0.4,0,1-0.2,1.9-0.7S57.8,57.8,58.4,57.1z"/>
	<path d="M77.1,65c-2.7-0.2-4.6-1-5.6-2.1s-1.4-2.6-1.1-4.2s0.9-3.3,1.8-5s2.1-3.3,3.3-4.6c3-3.4,6.5-6.5,10.7-9.4s8.4-5.1,12.6-6.7
		c0.8-0.3,1.8-0.6,3-0.9s2.5-0.5,3.8-0.6s2.5,0.1,3.5,0.4s1.8,1,2.3,2c0.5,1.3,0.4,2.7-0.3,4.2s-1.8,2.8-3.3,4.1s-3.1,2.2-4.9,2.9
		s-3.4,1-4.9,0.8c-0.2-0.1-0.4-0.2-0.6-0.4s-0.1-0.5,0.1-0.7s0.5-0.4,1.1-0.4c0.1,0,0.2,0,0.3,0s0.1,0.1,0.1,0.1s0,0.1,0.1,0.1
		c0,0.1,0,0.1,0.1,0.2s0.1,0.1,0.3,0.1c1.1,0,2.4-0.4,3.8-1.1s2.7-1.5,4-2.6s2.2-2.2,2.9-3.4s0.8-2.3,0.3-3.4
		c-0.4-0.8-1.1-1.3-2.1-1.6s-2.1-0.3-3.3-0.2s-2.4,0.3-3.4,0.6s-2,0.5-2.6,0.8c-4,1.5-8.1,3.7-12.2,6.5s-7.5,5.9-10.4,9.1
		c-1.1,1.2-2.1,2.5-3,4.1s-1.6,3-1.9,4.5s-0.1,2.8,0.8,3.8s2.5,1.7,5,1.9c3.7,0.2,7.6-0.4,11.7-1.9s8.1-3.4,12-5.8s7.3-4.9,10.3-7.6
		c0.1-0.1,0.3-0.1,0.4-0.1s0.2,0.1,0.2,0.3s-0.1,0.3-0.3,0.4c-2.4,2.1-4.9,4.2-7.7,6.1s-5.6,3.6-8.7,5.2S89.1,63.1,86,64
		S79.9,65.2,77.1,65z"/>
	<path d="M116.1,55.3c-0.9,0.9-1.8,1.2-2.6,1s-1.2-0.9-1.2-2.1s0.8-2.7,2.4-4.5c0.6-0.7,1.1-1,1.5-1.2c0.3-0.1,0.5-0.1,0.7,0
		s0.2,0.4,0,0.7c-0.3,0.3-0.5,0.5-0.7,0.5s-0.3,0.1-0.4,0.1c-0.1,0-0.1,0-0.1,0s-0.1,0-0.1,0.1c-1.2,1.5-2,2.7-2.3,3.6
		s-0.2,1.5,0.1,1.8s0.8,0.3,1.4,0c0.3-0.2,0.6-0.4,0.9-0.9s0.6-0.9,0.8-1.3c0-0.1,0.1-0.1,0.1-0.2c0-0.1,0.1-0.1,0.1-0.1
		s0-0.1-0.1-0.1c-0.2-0.2-0.4-0.5-0.6-0.9s-0.2-0.7-0.1-1c0.1-0.2,0.3-0.3,0.6-0.3s0.6,0.2,0.8,0.4s0.4,0.7,0.4,1.2
		c0,0.4,0.2,0.7,0.4,0.8s0.5,0.2,0.8,0.2s0.5-0.2,0.7-0.3c0.2-0.2,0.3-0.2,0.4-0.1s0.1,0.2,0,0.4s-0.3,0.3-0.6,0.5
		c-0.5,0.2-0.9,0.3-1.1,0.2s-0.5-0.1-0.6-0.2c-0.1-0.1-0.2-0.1-0.3-0.1s-0.2,0.1-0.2,0.2c-0.1,0.2-0.3,0.5-0.5,0.8
		S116.3,55.2,116.1,55.3z"/>
	<path d="M118.3,55.2c0.1-0.1,0.2-0.2,0.4-0.5s0.3-0.7,0.5-1.1c0.3-0.9,0.7-1.7,1.2-2.5s1-1.3,1.5-1.4c0.2,0,0.3,0.1,0.4,0.3
		s0.1,0.3-0.1,0.5c-0.2,0.3-0.4,0.5-0.6,0.7s-0.3,0.3-0.5,0.5s-0.4,0.4-0.6,0.6c-0.2,0.4-0.3,0.9-0.5,1.3c-0.1,0.2-0.1,0.4-0.2,0.6
		c0,0.1-0.1,0.2-0.1,0.3s0,0.1,0.1,0.1s0.1,0,0.2,0c0,0,0,0,0,0c0.3-0.1,0.4-0.1,0.5,0s0.1,0.2,0.1,0.3s-0.1,0.2-0.3,0.3
		c-0.1,0.1-0.3,0.1-0.4,0.1c-0.2,0-0.3,0.1-0.5,0.2c-0.1,0.1-0.2,0.2-0.3,0.3s-0.2,0.3-0.2,0.4c-0.5,1-1.2,1.8-2.1,2.7
		s-2,1.3-3.2,1.5c-1,0.1-1.5,0-1.4-0.4s0.4-0.8,1-1.4s1.5-1.2,2.4-1.8S117.4,55.7,118.3,55.2z M117.3,57.1c0.1-0.1,0.1-0.2,0.2-0.3
		s0.1-0.2,0.2-0.3s0.1-0.2,0.1-0.2s0-0.1-0.1,0c-0.3,0.1-0.7,0.4-1.2,0.7s-1,0.7-1.5,1.1s-0.9,0.7-1.3,1s-0.4,0.4-0.4,0.4
		c0.4,0,1-0.2,1.9-0.7S116.7,57.8,117.3,57.1z"/>
	<path d="M131.3,54.1c0.1,0,0.3-0.1,0.6-0.4s0.6-0.6,1-1c0.6-0.7,1.3-1.3,1.9-1.9s1.2-0.9,1.7-0.9c0.4,0.1,0.7,0.3,0.7,0.7
		s0.1,0.9,0,1.4c0,0.3-0.1,0.6,0,0.9s0.1,0.5,0.2,0.6c0.2,0.2,1.1-0.1,2.5-1c0.2-0.1,0.3-0.1,0.4-0.1s0.2,0.1,0.1,0.2
		s-0.1,0.2-0.4,0.4c-1,0.6-1.7,1-2.2,1.1s-0.9,0.1-1.2-0.1c-0.5-0.5-0.7-1.3-0.5-2.5c0-0.3,0-0.4-0.1-0.4s-0.2,0.1-0.5,0.3
		c0,0-0.1,0-0.1,0.1c-0.4,0.3-0.8,0.7-1.3,1.2c-0.6,0.6-1.2,1.1-1.8,1.6s-1,0.6-1.4,0.5c-0.5-0.2-0.7-0.6-0.7-1.1s0.1-1.1,0.3-1.8
		s0.4-1.2,0.7-1.7c0.1-0.3,0.2-0.5,0.3-0.6c0.1-0.3-0.1-0.4-0.5-0.1s-0.9,0.6-1.6,1.2s-1.3,1.1-1.9,1.7s-1.2,1-1.6,1.4
		c-0.2,0.2-0.4,0.3-0.4,0.4c-0.1,0.1-0.2,0.1-0.3,0.2c-0.2,0.2-0.6,0.5-0.9,0.8s-0.7,0.6-1.1,0.8s-0.6,0.3-0.8,0.2
		c-0.4-0.2-0.4-0.6-0.1-1.2c0.8-1.6,1.7-3.1,2.7-4.5c0.5-0.7,1-1.5,1.5-2.2c0,0,0,0,0-0.1s0,0,0-0.1l0,0c-0.1-0.1-0.1-0.2-0.1-0.3
		s0.1-0.2,0.2-0.3c0.1-0.1,0.2-0.2,0.4-0.3s0.4-0.2,0.5-0.2s0.3,0,0.4,0.1s0,0.4-0.1,0.8c-0.8,1.4-1.7,2.9-2.8,4.4
		c-0.2,0.4-0.5,0.7-0.7,1c-0.3,0.5-0.4,0.7-0.4,0.7s0.3-0.2,0.6-0.5c0.1-0.1,0.2-0.2,0.3-0.2c0.9-0.8,1.8-1.5,2.7-2.3
		s1.8-1.4,2.6-1.9s1.4-0.7,1.8-0.6c0.5,0.2,0.6,0.9,0.3,1.9c0,0.1-0.1,0.2-0.1,0.4c-0.1,0.4-0.3,0.8-0.5,1.3s-0.3,1-0.4,1.5
		S131.2,54.1,131.3,54.1z"/>
	<path d="M144.9,48.7c0.7,0.2,1,0.5,0.9,0.9s-0.5,1-1.1,1.5s-1.2,0.9-1.9,1.1s-1.1,0.2-1.4,0c-0.2,0.3-0.4,0.6-0.7,1
		s-0.4,0.8-0.5,1.1c0,0.5,0.3,0.7,1,0.6s1.5-0.3,2.4-0.6s1.8-0.7,2.6-1.1s1.3-0.6,1.5-0.8c0.2-0.1,0.3-0.1,0.4-0.1s0.2,0.1,0.2,0.2
		s-0.2,0.3-0.5,0.5c-0.4,0.3-1.1,0.7-2,1.2s-1.9,0.9-3,1.3s-1.9,0.5-2.7,0.4s-1.1-0.7-1.1-1.6c0.1-0.6,0.4-1.4,1.1-2.3
		s1.4-1.7,2.3-2.3S144.1,48.7,144.9,48.7z M144.5,49.8c-0.1,0-0.3,0.1-0.6,0.3s-0.6,0.4-0.9,0.6s-0.6,0.4-0.8,0.6s-0.4,0.3-0.4,0.4
		s0.1,0.1,0.4,0c0.4-0.1,0.8-0.4,1.4-0.8s1-0.7,1.3-1c0.1-0.1,0.2-0.2,0.2-0.3S144.7,49.7,144.5,49.8z"/>
	<path d="M146.9,41.9c0,0.1-0.1,0.2-0.3,0.2s-0.4,0-0.5-0.1s-0.3-0.2-0.4-0.3s-0.1-0.3,0.1-0.4s0.5-0.3,1-0.4
		c2.5-0.4,4.9-0.8,7.2-1.1c0.5-0.1,0.8-0.1,1-0.2s0.4-0.1,0.6-0.3s0.3-0.3,0.4-0.6c0.2-0.4,0.5-0.8,0.7-1.2c0.1-0.1,0.1-0.2,0.2-0.3
		c2-3.4,3.4-5.4,4.1-6c1.1-1,1.6-0.9,1.4,0.5c-0.3,1.8-1.2,4-2.7,6.6c0,0,0,0,0,0.1c-0.2,0.4-0.3,0.6-0.3,0.7s0.2,0.1,0.4,0.1
		c0.1,0,0.1,0,0.1,0c0.1,0,0.3,0,0.4,0c3.2-0.2,6.6-0.3,10-0.3c0.2,0,0.4,0,0.4,0.1s0.1,0.2,0,0.3s-0.2,0.1-0.5,0.1
		c-3.7-0.1-7.2,0.1-10.7,0.5c-0.1,0-0.2,0-0.3,0c-0.2,0-0.4,0-0.5,0.1s-0.2,0.2-0.4,0.4c-1.6,2.5-3.3,4.9-5.1,7.1s-3.3,3.8-4.4,4.9
		c-0.1,0.1-0.1,0.1-0.2,0.1s-0.1,0-0.1,0.1s-0.1,0-0.1,0.1s-0.1,0.1-0.1,0.1s-0.1,0.1-0.2,0.3c-2.9,4.6-5.8,9.2-8.7,13.8
		c0.2,0,0.3,0.1,0.3,0.3s-0.1,0.3-0.3,0.5c-0.6,0.4-1,0.6-1.2,0.4s-0.2-0.5,0-1.1c0.7-1.1,1.4-2.1,2-3.2c4.7-7.3,9.4-14.8,13.9-22.3
		c0.1-0.1,0.1-0.2,0.2-0.3c0.2-0.2,0.2-0.4,0.2-0.5s-0.2-0.1-0.5,0c-2.4,0.4-4.9,0.7-7.4,1.2C146.9,41.8,146.9,41.8,146.9,41.9z
		 M155.9,40.7c-0.4,0.7-0.9,1.5-1.4,2.3c-1.2,2-2.4,4-3.7,6c-0.7,1-0.6,1.1,0.1,0.3c2-2.3,4-5.1,6.1-8.4c0.1-0.2,0.2-0.4,0.3-0.5
		s0.1-0.2,0-0.2s-0.1,0-0.3,0c0,0,0,0-0.1,0c0,0-0.1,0-0.1,0c-0.2,0-0.4,0-0.6,0.1S156,40.5,155.9,40.7z M157.1,38.7
		c-0.1,0.2-0.2,0.4-0.3,0.5s0,0.2,0.1,0.2c0.2,0,0.4,0,0.6-0.1c0.1,0,0.2,0,0.3,0s0.1-0.1,0.2-0.2s0.1-0.2,0.3-0.4
		c1.4-2.5,2.4-4.7,3-6.6c-0.7,0.8-1.9,2.6-3.7,5.5c-0.1,0.1-0.2,0.3-0.2,0.4C157.3,38.3,157.2,38.5,157.1,38.7z"/>
	<path d="M156.8,55.3c-0.9,0.9-1.8,1.2-2.6,1s-1.2-0.9-1.2-2.1s0.8-2.7,2.4-4.5c0.6-0.7,1.1-1,1.5-1.2c0.3-0.1,0.5-0.1,0.7,0
		s0.2,0.4,0,0.7c-0.3,0.3-0.5,0.5-0.7,0.5s-0.3,0.1-0.4,0.1c-0.1,0-0.1,0-0.1,0s-0.1,0-0.1,0.1c-1.2,1.5-2,2.7-2.3,3.6
		s-0.2,1.5,0.1,1.8s0.8,0.3,1.4,0c0.3-0.2,0.6-0.4,0.9-0.9s0.6-0.9,0.8-1.3c0-0.1,0.1-0.1,0.1-0.2c0-0.1,0.1-0.1,0.1-0.1
		s0-0.1-0.1-0.1c-0.2-0.2-0.4-0.5-0.6-0.9s-0.2-0.7-0.1-1c0.1-0.2,0.3-0.3,0.6-0.3s0.6,0.2,0.8,0.4s0.4,0.7,0.4,1.2
		c0,0.4,0.2,0.7,0.4,0.8s0.5,0.2,0.8,0.2s0.5-0.2,0.7-0.3c0.2-0.2,0.3-0.2,0.4-0.1s0.1,0.2,0,0.4s-0.3,0.3-0.6,0.5
		c-0.5,0.2-0.9,0.3-1.1,0.2s-0.5-0.1-0.6-0.2c-0.1-0.1-0.2-0.1-0.3-0.1s-0.2,0.1-0.2,0.2c-0.1,0.2-0.3,0.5-0.5,0.8
		S157,55.2,156.8,55.3z"/>
	<path d="M152.5,66.5c-0.1-0.1-0.2-0.2-0.2-0.4s0.2-0.6,0.4-1.1s0.7-1.2,1.3-2.2s1.4-2.2,2.3-3.8c1.1-1.7,2.5-4,4.2-6.7
		c0.4-0.8,1.3-2.4,2.7-4.7s2.9-4.8,4.6-7.5s3.2-5,4.6-7s2.3-3.1,2.8-3.3c0.8-0.2,1.2,0,1.2,0.6s-0.2,1.4-0.7,2.4s-0.9,1.9-1.4,2.7
		s-0.8,1.4-1,1.7c0,0,0,0,0,0c-1.8,2.9-3.8,5.8-5.9,8.7s-3.8,4.9-5,5.8c-0.2,0.2-0.4,0.3-0.4,0.3c-0.1,0-0.1,0.1-0.2,0.1
		s-0.1,0.1-0.2,0.2s-0.2,0.2-0.3,0.4l-7.8,12.6c0,0,0,0.1,0,0.2s-0.1,0.3-0.3,0.4s-0.3,0.3-0.4,0.4S152.6,66.5,152.5,66.5z
		 M163.6,49.2c-0.2,0.3-0.3,0.4-0.3,0.5s0.1-0.1,0.4-0.4c1.3-1.6,2.7-3.6,4.3-5.9s3.1-4.5,4.4-6.7c1.6-2.7,2.5-4.4,2.8-5.1
		s-0.1-0.5-1,0.7c-1.3,1.8-2.6,3.7-3.8,5.8s-2.5,4.1-3.7,6.2C165.6,45.9,164.6,47.6,163.6,49.2z"/>
	<path d="M169.5,55.3c-0.9,0.9-1.8,1.2-2.6,1s-1.2-0.9-1.2-2.1s0.8-2.7,2.4-4.5c0.6-0.7,1.1-1,1.5-1.2c0.3-0.1,0.5-0.1,0.7,0
		s0.2,0.4,0,0.7c-0.3,0.3-0.5,0.5-0.7,0.5s-0.3,0.1-0.4,0.1c-0.1,0-0.1,0-0.1,0s-0.1,0-0.1,0.1c-1.2,1.5-2,2.7-2.3,3.6
		s-0.2,1.5,0.1,1.8s0.8,0.3,1.4,0c0.3-0.2,0.6-0.4,0.9-0.9s0.6-0.9,0.8-1.3c0-0.1,0.1-0.1,0.1-0.2c0-0.1,0.1-0.1,0.1-0.1
		s0-0.1-0.1-0.1c-0.2-0.2-0.4-0.5-0.6-0.9s-0.2-0.7-0.1-1c0.1-0.2,0.3-0.3,0.6-0.3s0.6,0.2,0.8,0.4s0.4,0.7,0.4,1.2
		c0,0.4,0.2,0.7,0.4,0.8s0.5,0.2,0.8,0.2s0.5-0.2,0.7-0.3c0.2-0.2,0.3-0.2,0.4-0.1s0.1,0.2,0,0.4s-0.3,0.3-0.6,0.5
		c-0.5,0.2-0.9,0.3-1.1,0.2s-0.5-0.1-0.6-0.2c-0.1-0.1-0.2-0.1-0.3-0.1s-0.2,0.1-0.2,0.2c-0.1,0.2-0.3,0.5-0.5,0.8
		S169.7,55.2,169.5,55.3z"/>
	<path d="M183.5,49.2c0.1,0,0.3,0,0.5,0s0.4,0.1,0.5,0.2s0.1,0.3,0,0.4c-0.3,0.8-0.7,1.6-1.2,2.4c-0.1,0.1-0.1,0.2-0.1,0.2
		c-0.3,0.5-0.5,1-0.8,1.4c-0.4,0.8-0.9,1.6-1.4,2.4c-0.2,0.2-0.3,0.4-0.3,0.6s-0.1,0.2-0.1,0.3s0.1,0.1,0.1,0.2c0,0,0,0,0,0
		c0.1,0.1,0.1,0.2,0.1,0.3s-0.1,0.2-0.2,0.3c-0.4,0.3-0.8,0.6-1.1,0.9s-0.6,0.7-0.9,1.1c-0.3,0.5-0.7,1.2-1.2,2
		c-1.1,1.8-2.3,3.8-3.6,5.8s-2.3,3.3-3,3.9c-0.5,0.3-0.9,0.4-1.2,0.2s-0.4-0.5-0.3-1.1c0.2-1,0.7-2,1.3-3.1s1.2-2,1.9-2.8
		c1.3-1.7,2.7-3.2,4.2-4.7c0.5-0.5,0.9-1,1.3-1.4s0.7-0.9,1.1-1.5l2.9-4.6c0.2-0.4,0.4-0.7,0.6-1.1c0.1-0.3,0.2-0.4,0.2-0.5
		s-0.1-0.1-0.2,0s-0.3,0.1-0.4,0.3s-0.3,0.2-0.4,0.4c-0.1,0.1-0.1,0.1-0.2,0.2c-0.3,0.3-0.9,0.7-1.6,1.3c-0.9,0.8-1.9,1.6-3.1,2.6
		s-2.2,1.7-3.2,2.4s-1.7,1-2.2,0.9c-0.5,0-0.9-0.2-1-0.5s-0.1-0.7,0-1.2c0.3-1.4,1-2.8,2.1-4.4s2.5-2.9,4-4s3-1.6,4.5-1.5
		c0.4,0.1,0.7,0.2,0.8,0.4s0.2,0.5,0.1,0.7s-0.4,0.4-0.8,0.5c-0.1,0-0.2,0-0.3,0s-0.1-0.1-0.1-0.2c0-0.1-0.1-0.1-0.1-0.2
		s-0.1-0.1-0.3-0.1s-0.3,0-0.6,0c-1.1,0.2-2.3,0.8-3.5,1.8s-2.3,2.1-3.2,3.4s-1.5,2.5-1.7,3.6c-0.1,0.5,0,0.7,0.2,0.7
		s0.5-0.1,0.8-0.3s0.7-0.4,1-0.7s0.5-0.4,0.6-0.5c2.3-2,4.6-3.8,7-5.7C181.9,50.3,182.7,49.7,183.5,49.2z M170.5,70.9
		c0.2-0.1,0.6-0.4,1-1.1s0.9-1.3,1.3-2.1s0.8-1.4,1.1-2c0.2-0.4,0.3-0.6,0.4-0.7c0,0,0.1-0.1,0.1-0.2c0.1-0.2,0.2-0.3,0.4-0.6
		s0.3-0.4,0.3-0.6s0.1-0.3,0-0.4c-0.1-0.1-0.4,0.2-0.8,0.7s-0.9,1.1-1.4,1.9s-1,1.6-1.5,2.3s-0.8,1.4-1,1.9S170.4,70.9,170.5,70.9z"
		/>
	<path d="M189.8,46.9c0.3-0.2,0.6-0.2,0.8,0s0.3,0.5,0.3,0.8s-0.2,0.5-0.6,0.7c-0.5,0.2-0.9,0.6-1.4,1.4s-0.9,1.6-1.3,2.5
		s-0.6,1.6-0.7,2.1c-0.1,1,0.1,1.5,0.5,1.4s1.2-0.4,2.2-1.3s2.2-1.8,3.4-2.8c1.2-1.1,2.4-2,3.5-2.9s1.9-1.3,2.5-1.5
		c0.7,0.1,1.1,0.3,1.1,0.7s-0.2,0.8-0.4,1.3c0,0.1-0.1,0.1-0.1,0.2c-0.5,1-1.1,2-1.8,2.9c-0.3,0.4-0.5,0.8-0.8,1.2
		c-0.3,0.5-0.6,1-1,1.6c-0.2,0.4-0.4,0.7-0.7,1.1c0,0.1-0.1,0.1-0.1,0.2c-0.1,0.1-0.2,0.3-0.3,0.4s-0.1,0.3,0,0.4
		c0,0.2,0,0.4-0.2,0.5c-0.3,0.2-0.6,0.5-0.7,0.7s-0.3,0.4-0.4,0.7c-0.1,0.2-0.2,0.5-0.4,0.7c-0.1,0.2-0.4,0.6-0.6,1.1
		c-0.6,1-1.3,2.2-2.2,3.6s-1.8,2.6-2.6,3.7s-1.6,1.5-2.2,1.4c-0.3-0.1-0.4-0.3-0.4-0.5s0-0.5,0.1-0.8s0.2-0.6,0.3-0.8
		c0,0,0-0.1,0-0.1c0.7-1.7,1.7-3.4,3-5s2.7-3,4.1-4.2c0.3-0.2,0.5-0.5,0.7-0.7s0.3-0.4,0.5-0.7c0-0.1,0.1-0.1,0.1-0.2l3.9-6.2
		c0.7-1.1,1-1.7,0.8-1.8s-0.6,0.1-1.3,0.7s-1.6,1.3-2.6,2.1c-1.3,1.1-2.6,2.2-3.9,3.2s-2.3,1.6-3,1.8c-0.6,0.1-1.1,0-1.5-0.4
		s-0.5-1.1-0.4-2.1c0.2-1.3,0.6-2.6,1.4-3.8S188.9,47.8,189.8,46.9z M187.9,66.1c0,0,0-0.1,0.1-0.1c0.2-0.3,0.4-0.7,0.8-1.2
		s0.7-1.1,1.1-1.7s0.7-1.1,0.9-1.5s0.3-0.6,0.2-0.6c-0.1,0.1-0.4,0.4-0.8,0.9s-0.9,1.2-1.5,2s-1,1.5-1.5,2.2s-0.7,1.2-0.9,1.4
		c-0.2,0.6-0.4,1-0.4,1.1s0.1,0.1,0.2-0.1s0.3-0.4,0.6-0.8s0.4-0.7,0.6-1S187.8,66.3,187.9,66.1z"/>
</g>
</svg>
