<svg width="21" height="20" viewBox="0 0 21 20" fill="none" xmlns="http://www.w3.org/2000/svg">
<path d="M10.038 20C15.579 20 20.076 15.52 20.076 10C20.076 4.48 15.579 0 10.038 0C4.49703 0 0 4.48 0 10C0 15.52 4.49703 20 10.038 20ZM3.77429 16.76C6.9463 15.76 7.86979 14.6 8.11071 13.96C8.63268 14.24 9.19481 14.36 9.87739 14.4H9.91755H9.9577H9.99785C10.7206 14.4 11.363 14.24 11.9251 13.92C12.1661 14.6 13.0494 15.84 16.2616 16.8C14.6153 18.28 12.4471 19.2 10.038 19.2C7.62888 19.2 5.42052 18.28 3.77429 16.76ZM12.2865 12.6C11.7244 13.24 10.9615 13.56 9.99785 13.56C9.0342 13.56 8.27131 13.24 7.70919 12.6C6.30387 11.04 6.58493 8.08 6.58493 8.08C6.58493 8.08 6.58493 8.08 6.58493 8.04C6.74554 4.8 9.15466 4.52 9.91755 4.52C9.9577 4.52 9.99785 4.52 9.99785 4.52H10.038C10.038 4.52 10.0782 4.52 10.1183 4.52C10.841 4.52 13.2903 4.76 13.4509 8.04C13.4509 8.04 13.4509 8.04 13.4509 8.08C13.3706 8.12 13.6517 11.04 12.2865 12.6ZM10.038 0.8C15.1373 0.8 19.273 4.92 19.273 10C19.273 12.36 18.3495 14.52 16.904 16.16C16.904 16.16 16.8638 16.16 16.8237 16.12C12.8085 14.96 12.6479 13.52 12.6479 13.44C12.6479 13.4 12.6479 13.4 12.6479 13.36C12.7282 13.28 12.8085 13.2 12.8888 13.12C14.4949 11.32 14.2138 8.24 14.1737 8C13.9729 3.96 10.7206 3.76 10.038 3.76C9.99785 3.76 9.9577 3.76 9.9577 3.76C9.91755 3.76 9.91755 3.76 9.87739 3.76C9.23496 3.76 5.9425 3.96 5.74174 8.04C5.70158 8.28 5.46067 11.4 7.06675 13.16C7.18721 13.28 7.30766 13.4 7.46827 13.52H7.42812C7.42812 13.52 7.42812 13.52 7.42812 13.48C7.42812 13.48 7.38797 14.84 3.17201 16.08C1.72654 14.44 0.843192 12.32 0.843192 9.96C0.80304 4.92 4.9387 0.8 10.038 0.8Z" fill="black"/>
</svg>
