<svg width="27" height="19" viewBox="0 0 27 19" fill="none" xmlns="http://www.w3.org/2000/svg">
<path d="M25.5768 0C25.9804 0 26.3076 0.327165 26.3076 0.730769C26.3076 1.13437 25.9804 1.46154 25.5768 1.46154H0.730694C0.327101 1.46154 -7.43866e-05 1.13437 -7.43866e-05 0.730769C-7.43866e-05 0.327165 0.327101 0 0.730694 0H25.5768ZM25.5768 8.76923C25.9804 8.76923 26.3076 9.0964 26.3076 9.5C26.3076 9.9036 25.9804 10.2308 25.5768 10.2308H0.730694C0.327101 10.2308 -7.43866e-05 9.9036 -7.43866e-05 9.5C-7.43866e-05 9.0964 0.327101 8.76923 0.730694 8.76923H25.5768ZM25.5768 17.5385C25.9804 17.5385 26.3076 17.8656 26.3076 18.2692C26.3076 18.6728 25.9804 19 25.5768 19H0.730694C0.327101 19 -7.43866e-05 18.6728 -7.43866e-05 18.2692C-7.43866e-05 17.8656 0.327101 17.5385 0.730694 17.5385H25.5768Z" fill="black"/>
</svg>
