<svg width="70" height="269" viewBox="0 0 70 269" fill="none" xmlns="http://www.w3.org/2000/svg">
<path d="M66.4304 1.64563C66.4304 2.55449 67.1672 3.29127 68.076 3.29127C68.9849 3.29127 69.7217 2.55449 69.7217 1.64563C69.7217 0.736775 68.9849 -3.22055e-08 68.076 -7.19329e-08C67.1672 -1.1166e-07 66.4304 0.736775 66.4304 1.64563Z" fill="white"/>
<path d="M66.4294 134.501C66.4294 135.41 67.1662 136.146 68.0751 136.146C68.9839 136.146 69.7207 135.41 69.7207 134.501C69.7207 133.592 68.9839 132.855 68.0751 132.855C67.1662 132.855 66.4294 133.592 66.4294 134.501Z" fill="white"/>
<path d="M66.4294 68.0731C66.4294 68.982 67.1662 69.7188 68.0751 69.7188C68.9839 69.7188 69.7207 68.982 69.7207 68.0731C69.7207 67.1643 68.9839 66.4275 68.0751 66.4275C67.1662 66.4275 66.4294 67.1643 66.4294 68.0731Z" fill="white"/>
<path d="M66.4294 200.929C66.4294 201.837 67.1662 202.574 68.0751 202.574C68.9839 202.574 69.7207 201.837 69.7207 200.929C69.7207 200.02 68.9839 199.283 68.0751 199.283C67.1662 199.283 66.4294 200.02 66.4294 200.929Z" fill="white"/>
<path d="M66.365 51.468C66.365 52.3768 67.1018 53.1136 68.0106 53.1136C68.9195 53.1136 69.6562 52.3768 69.6562 51.468C69.6562 50.5591 68.9195 49.8224 68.0106 49.8224C67.1018 49.8224 66.365 50.5591 66.365 51.468Z" fill="white"/>
<path d="M66.365 184.323C66.365 185.232 67.1018 185.969 68.0106 185.969C68.9195 185.969 69.6562 185.232 69.6562 184.323C69.6562 183.414 68.9195 182.678 68.0106 182.678C67.1018 182.678 66.365 183.414 66.365 184.323Z" fill="white"/>
<path d="M66.365 117.896C66.365 118.804 67.1018 119.541 68.0106 119.541C68.9195 119.541 69.6562 118.804 69.6562 117.896C69.6562 116.987 68.9195 116.25 68.0106 116.25C67.1018 116.25 66.365 116.987 66.365 117.896Z" fill="white"/>
<path d="M66.365 250.751C66.365 251.66 67.1018 252.397 68.0106 252.397C68.9195 252.397 69.6562 251.66 69.6562 250.751C69.6562 249.842 68.9195 249.105 68.0106 249.105C67.1018 249.105 66.365 249.842 66.365 250.751Z" fill="white"/>
<path d="M66.4294 34.8575C66.4294 35.7663 67.1662 36.5031 68.0751 36.5031C68.9839 36.5031 69.7207 35.7663 69.7207 34.8575C69.7207 33.9486 68.9839 33.2118 68.0751 33.2118C67.1662 33.2118 66.4294 33.9486 66.4294 34.8575Z" fill="white"/>
<path d="M66.4294 167.713C66.4294 168.622 67.1662 169.358 68.0751 169.358C68.9839 169.358 69.7207 168.622 69.7207 167.713C69.7207 166.804 68.9839 166.067 68.0751 166.067C67.1662 166.067 66.4294 166.804 66.4294 167.713Z" fill="white"/>
<path d="M66.4294 101.285C66.4294 102.194 67.1662 102.931 68.0751 102.931C68.9839 102.931 69.7207 102.194 69.7207 101.285C69.7207 100.377 68.9839 99.6398 68.0751 99.6398C67.1662 99.6398 66.4294 100.377 66.4294 101.285Z" fill="white"/>
<path d="M66.4294 234.14C66.4294 235.049 67.1662 235.786 68.0751 235.786C68.9839 235.786 69.7207 235.049 69.7207 234.14C69.7207 233.232 68.9839 232.495 68.0751 232.495C67.1662 232.495 66.4294 233.232 66.4294 234.14Z" fill="white"/>
<path d="M66.3669 18.2526C66.3669 19.1614 67.1037 19.8982 68.0126 19.8982C68.9214 19.8982 69.6582 19.1614 69.6582 18.2526C69.6582 17.3437 68.9214 16.6069 68.0126 16.6069C67.1037 16.6069 66.3669 17.3437 66.3669 18.2526Z" fill="white"/>
<path d="M66.3669 151.108C66.3669 152.017 67.1037 152.753 68.0126 152.753C68.9214 152.753 69.6582 152.017 69.6582 151.108C69.6582 150.199 68.9214 149.462 68.0126 149.462C67.1037 149.462 66.3669 150.199 66.3669 151.108Z" fill="white"/>
<path d="M66.3669 84.6803C66.3669 85.5892 67.1037 86.3259 68.0126 86.3259C68.9214 86.3259 69.6582 85.5892 69.6582 84.6803C69.6582 83.7714 68.9214 83.0347 68.0126 83.0347C67.1037 83.0347 66.3669 83.7714 66.3669 84.6803Z" fill="white"/>
<path d="M66.3669 217.535C66.3669 218.444 67.1037 219.181 68.0126 219.181C68.9214 219.181 69.6582 218.444 69.6582 217.535C69.6582 216.626 68.9214 215.89 68.0126 215.89C67.1037 215.89 66.3669 216.626 66.3669 217.535Z" fill="white"/>
<path d="M66.4314 68.0714C66.4314 68.9802 67.1682 69.717 68.077 69.717C68.9859 69.717 69.7227 68.9802 69.7227 68.0714C69.7227 67.1625 68.9859 66.4257 68.077 66.4257C67.1682 66.4257 66.4314 67.1625 66.4314 68.0714Z" fill="white"/>
<path d="M66.4314 200.927C66.4314 201.836 67.1682 202.572 68.077 202.572C68.9859 202.572 69.7227 201.836 69.7227 200.927C69.7227 200.018 68.9859 199.281 68.077 199.281C67.1682 199.281 66.4314 200.018 66.4314 200.927Z" fill="white"/>
<path d="M66.4314 134.499C66.4314 135.408 67.1682 136.145 68.077 136.145C68.9859 136.145 69.7227 135.408 69.7227 134.499C69.7227 133.59 68.9859 132.853 68.077 132.853C67.1682 132.853 66.4314 133.59 66.4314 134.499Z" fill="white"/>
<path d="M66.4314 267.354C66.4314 268.263 67.1682 269 68.077 269C68.9859 269 69.7227 268.263 69.7227 267.354C69.7227 266.445 68.9859 265.709 68.077 265.709C67.1682 265.709 66.4314 266.445 66.4314 267.354Z" fill="white"/>
<path d="M33.279 1.64563C33.279 2.55449 34.0158 3.29127 34.9247 3.29127C35.8335 3.29127 36.5703 2.55449 36.5703 1.64563C36.5703 0.736775 35.8335 -3.22055e-08 34.9247 -7.19329e-08C34.0158 -1.1166e-07 33.279 0.736775 33.279 1.64563Z" fill="white"/>
<path d="M33.279 134.501C33.279 135.41 34.0158 136.146 34.9247 136.146C35.8335 136.146 36.5703 135.41 36.5703 134.501C36.5703 133.592 35.8335 132.855 34.9247 132.855C34.0158 132.855 33.279 133.592 33.279 134.501Z" fill="white"/>
<path d="M33.279 68.0731C33.279 68.982 34.0158 69.7188 34.9247 69.7188C35.8335 69.7188 36.5703 68.982 36.5703 68.0731C36.5703 67.1643 35.8335 66.4275 34.9247 66.4275C34.0158 66.4275 33.279 67.1643 33.279 68.0731Z" fill="white"/>
<path d="M33.279 200.929C33.279 201.837 34.0158 202.574 34.9247 202.574C35.8335 202.574 36.5703 201.837 36.5703 200.929C36.5703 200.02 35.8335 199.283 34.9247 199.283C34.0158 199.283 33.279 200.02 33.279 200.929Z" fill="white"/>
<path d="M33.2146 51.468C33.2146 52.3768 33.9514 53.1136 34.8602 53.1136C35.7691 53.1136 36.5059 52.3768 36.5059 51.468C36.5059 50.5591 35.7691 49.8224 34.8602 49.8224C33.9514 49.8224 33.2146 50.5591 33.2146 51.468Z" fill="white"/>
<path d="M33.2146 184.323C33.2146 185.232 33.9514 185.969 34.8602 185.969C35.7691 185.969 36.5059 185.232 36.5059 184.323C36.5059 183.414 35.7691 182.678 34.8602 182.678C33.9514 182.678 33.2146 183.414 33.2146 184.323Z" fill="white"/>
<path d="M33.2146 117.896C33.2146 118.804 33.9514 119.541 34.8602 119.541C35.7691 119.541 36.5059 118.804 36.5059 117.896C36.5059 116.987 35.7691 116.25 34.8602 116.25C33.9514 116.25 33.2146 116.987 33.2146 117.896Z" fill="white"/>
<path d="M33.2146 250.751C33.2146 251.66 33.9514 252.397 34.8602 252.397C35.7691 252.397 36.5059 251.66 36.5059 250.751C36.5059 249.842 35.7691 249.105 34.8602 249.105C33.9514 249.105 33.2146 249.842 33.2146 250.751Z" fill="white"/>
<path d="M33.2156 18.2526C33.2156 19.1614 33.9523 19.8982 34.8612 19.8982C35.7701 19.8982 36.5068 19.1614 36.5068 18.2526C36.5068 17.3437 35.7701 16.6069 34.8612 16.6069C33.9523 16.6069 33.2156 17.3437 33.2156 18.2526Z" fill="white"/>
<path d="M33.2156 151.108C33.2156 152.017 33.9523 152.753 34.8612 152.753C35.7701 152.753 36.5068 152.017 36.5068 151.108C36.5068 150.199 35.7701 149.462 34.8612 149.462C33.9523 149.462 33.2156 150.199 33.2156 151.108Z" fill="white"/>
<path d="M33.2156 84.6803C33.2156 85.5892 33.9523 86.3259 34.8612 86.3259C35.7701 86.3259 36.5068 85.5892 36.5068 84.6803C36.5068 83.7714 35.7701 83.0347 34.8612 83.0347C33.9523 83.0347 33.2156 83.7714 33.2156 84.6803Z" fill="white"/>
<path d="M33.2156 217.535C33.2156 218.444 33.9523 219.181 34.8612 219.181C35.7701 219.181 36.5068 218.444 36.5068 217.535C36.5068 216.626 35.7701 215.89 34.8612 215.89C33.9523 215.89 33.2156 216.626 33.2156 217.535Z" fill="white"/>
<path d="M33.281 68.0713C33.281 68.9802 34.0178 69.717 34.9266 69.717C35.8355 69.717 36.5723 68.9802 36.5723 68.0713C36.5723 67.1625 35.8355 66.4257 34.9266 66.4257C34.0178 66.4257 33.281 67.1625 33.281 68.0713Z" fill="white"/>
<path d="M33.281 200.927C33.281 201.836 34.0178 202.572 34.9266 202.572C35.8355 202.572 36.5723 201.836 36.5723 200.927C36.5723 200.018 35.8355 199.281 34.9266 199.281C34.0178 199.281 33.281 200.018 33.281 200.927Z" fill="white"/>
<path d="M33.281 134.499C33.281 135.408 34.0178 136.145 34.9266 136.145C35.8355 136.145 36.5723 135.408 36.5723 134.499C36.5723 133.59 35.8355 132.853 34.9266 132.853C34.0178 132.853 33.281 133.59 33.281 134.499Z" fill="white"/>
<path d="M33.281 267.354C33.281 268.263 34.0178 269 34.9266 269C35.8355 269 36.5723 268.263 36.5723 267.354C36.5723 266.445 35.8355 265.709 34.9266 265.709C34.0178 265.709 33.281 266.445 33.281 267.354Z" fill="white"/>
<path d="M33.2156 34.8595C33.2156 35.7684 33.9523 36.5051 34.8612 36.5051C35.7701 36.5051 36.5068 35.7684 36.5068 34.8595C36.5068 33.9506 35.7701 33.2139 34.8612 33.2139C33.9523 33.2139 33.2156 33.9506 33.2156 34.8595Z" fill="white"/>
<path d="M33.2156 167.715C33.2156 168.624 33.9523 169.36 34.8612 169.36C35.7701 169.36 36.5068 168.624 36.5068 167.715C36.5068 166.806 35.7701 166.069 34.8612 166.069C33.9523 166.069 33.2156 166.806 33.2156 167.715Z" fill="white"/>
<path d="M33.2156 101.287C33.2156 102.196 33.9523 102.933 34.8612 102.933C35.7701 102.933 36.5068 102.196 36.5068 101.287C36.5068 100.378 35.7701 99.6414 34.8612 99.6414C33.9523 99.6414 33.2156 100.378 33.2156 101.287Z" fill="white"/>
<path d="M33.2156 234.142C33.2156 235.051 33.9523 235.788 34.8612 235.788C35.7701 235.788 36.5068 235.051 36.5068 234.142C36.5068 233.233 35.7701 232.497 34.8612 232.497C33.9523 232.497 33.2156 233.233 33.2156 234.142Z" fill="white"/>
<path d="M0.0632254 1.64563C0.0632254 2.55449 0.800001 3.29126 1.70886 3.29126C2.61772 3.29126 3.35449 2.55449 3.35449 1.64563C3.35449 0.736775 2.61772 -3.22055e-08 1.70886 -7.19329e-08C0.800001 -1.1166e-07 0.0632255 0.736774 0.0632254 1.64563Z" fill="white"/>
<path d="M0.0632254 134.501C0.0632254 135.41 0.800001 136.146 1.70886 136.146C2.61772 136.146 3.35449 135.41 3.35449 134.501C3.35449 133.592 2.61772 132.855 1.70886 132.855C0.800001 132.855 0.0632255 133.592 0.0632254 134.501Z" fill="white"/>
<path d="M0.0632254 68.0731C0.0632254 68.982 0.800001 69.7188 1.70886 69.7188C2.61772 69.7188 3.35449 68.982 3.35449 68.0731C3.35449 67.1643 2.61772 66.4275 1.70886 66.4275C0.800001 66.4275 0.0632255 67.1643 0.0632254 68.0731Z" fill="white"/>
<path d="M0.0632254 200.929C0.0632254 201.837 0.800001 202.574 1.70886 202.574C2.61772 202.574 3.35449 201.837 3.35449 200.929C3.35449 200.02 2.61772 199.283 1.70886 199.283C0.800001 199.283 0.0632255 200.02 0.0632254 200.929Z" fill="white"/>
<path d="M0.000725674 51.468C0.000725634 52.3768 0.737502 53.1136 1.64636 53.1136C2.55522 53.1136 3.29199 52.3768 3.29199 51.468C3.29199 50.5591 2.55522 49.8224 1.64636 49.8224C0.737502 49.8224 0.000725714 50.5591 0.000725674 51.468Z" fill="white"/>
<path d="M0.000725674 184.323C0.000725634 185.232 0.737502 185.969 1.64636 185.969C2.55522 185.969 3.29199 185.232 3.29199 184.323C3.29199 183.414 2.55522 182.678 1.64636 182.678C0.737502 182.678 0.000725714 183.414 0.000725674 184.323Z" fill="white"/>
<path d="M0.000725674 117.896C0.000725634 118.804 0.737502 119.541 1.64636 119.541C2.55522 119.541 3.29199 118.804 3.29199 117.896C3.29199 116.987 2.55522 116.25 1.64636 116.25C0.737502 116.25 0.000725714 116.987 0.000725674 117.896Z" fill="white"/>
<path d="M0.000725674 250.751C0.000725634 251.66 0.737502 252.397 1.64636 252.397C2.55522 252.397 3.29199 251.66 3.29199 250.751C3.29199 249.842 2.55522 249.105 1.64636 249.105C0.737502 249.105 0.000725714 249.842 0.000725674 250.751Z" fill="white"/>
<path d="M0.0632254 34.8575C0.0632254 35.7663 0.800001 36.5031 1.70886 36.5031C2.61772 36.5031 3.35449 35.7663 3.35449 34.8575C3.35449 33.9486 2.61772 33.2118 1.70886 33.2118C0.800001 33.2118 0.0632255 33.9486 0.0632254 34.8575Z" fill="white"/>
<path d="M0.0632254 167.713C0.0632254 168.622 0.800001 169.358 1.70886 169.358C2.61772 169.358 3.35449 168.622 3.35449 167.713C3.35449 166.804 2.61772 166.067 1.70886 166.067C0.800001 166.067 0.0632255 166.804 0.0632254 167.713Z" fill="white"/>
<path d="M0.0632254 101.285C0.0632254 102.194 0.800001 102.931 1.70886 102.931C2.61772 102.931 3.35449 102.194 3.35449 101.285C3.35449 100.377 2.61772 99.6398 1.70886 99.6398C0.800001 99.6398 0.0632255 100.377 0.0632254 101.285Z" fill="white"/>
<path d="M0.0632254 234.14C0.0632254 235.049 0.800001 235.786 1.70886 235.786C2.61772 235.786 3.35449 235.049 3.35449 234.14C3.35449 233.232 2.61772 232.495 1.70886 232.495C0.800001 232.495 0.0632255 233.232 0.0632254 234.14Z" fill="white"/>
<path d="M0.001702 18.2526C0.00170196 19.1614 0.738478 19.8982 1.64734 19.8982C2.55619 19.8982 3.29297 19.1614 3.29297 18.2526C3.29297 17.3437 2.5562 16.6069 1.64734 16.6069C0.738478 16.6069 0.00170204 17.3437 0.001702 18.2526Z" fill="white"/>
<path d="M0.001702 151.108C0.00170196 152.017 0.738478 152.753 1.64734 152.753C2.55619 152.753 3.29297 152.017 3.29297 151.108C3.29297 150.199 2.5562 149.462 1.64734 149.462C0.738478 149.462 0.00170204 150.199 0.001702 151.108Z" fill="white"/>
<path d="M0.001702 84.6803C0.00170196 85.5892 0.738478 86.3259 1.64734 86.3259C2.55619 86.3259 3.29297 85.5892 3.29297 84.6803C3.29297 83.7714 2.5562 83.0347 1.64734 83.0347C0.738478 83.0347 0.00170204 83.7714 0.001702 84.6803Z" fill="white"/>
<path d="M0.001702 217.535C0.00170196 218.444 0.738478 219.181 1.64734 219.181C2.55619 219.181 3.29297 218.444 3.29297 217.535C3.29297 216.626 2.5562 215.89 1.64734 215.89C0.738478 215.89 0.00170204 216.626 0.001702 217.535Z" fill="white"/>
<path d="M0.0651786 68.0713C0.0651785 68.9802 0.801954 69.717 1.71081 69.717C2.61967 69.717 3.35645 68.9802 3.35645 68.0713C3.35645 67.1625 2.61967 66.4257 1.71081 66.4257C0.801954 66.4257 0.0651786 67.1625 0.0651786 68.0713Z" fill="white"/>
<path d="M0.0651786 200.927C0.0651785 201.836 0.801954 202.572 1.71081 202.572C2.61967 202.572 3.35645 201.836 3.35645 200.927C3.35645 200.018 2.61967 199.281 1.71081 199.281C0.801954 199.281 0.0651786 200.018 0.0651786 200.927Z" fill="white"/>
<path d="M0.0651786 134.499C0.0651785 135.408 0.801954 136.145 1.71081 136.145C2.61967 136.145 3.35645 135.408 3.35645 134.499C3.35645 133.59 2.61967 132.853 1.71081 132.853C0.801954 132.853 0.0651786 133.59 0.0651786 134.499Z" fill="white"/>
<path d="M0.0651786 267.354C0.0651785 268.263 0.801954 269 1.71081 269C2.61967 269 3.35645 268.263 3.35645 267.354C3.35645 266.445 2.61967 265.709 1.71081 265.709C0.801954 265.709 0.0651786 266.445 0.0651786 267.354Z" fill="white"/>
<path d="M15.8503 1.64563C15.8503 2.55449 16.5871 3.29127 17.496 3.29127C18.4048 3.29127 19.1416 2.55449 19.1416 1.64563C19.1416 0.736775 18.4048 -3.22054e-08 17.496 -7.19329e-08C16.5871 -1.1166e-07 15.8503 0.736775 15.8503 1.64563Z" fill="white"/>
<path d="M15.8503 134.501C15.8503 135.41 16.5871 136.146 17.496 136.146C18.4048 136.146 19.1416 135.41 19.1416 134.501C19.1416 133.592 18.4048 132.855 17.496 132.855C16.5871 132.855 15.8503 133.592 15.8503 134.501Z" fill="white"/>
<path d="M15.8503 68.0731C15.8503 68.982 16.5871 69.7188 17.496 69.7188C18.4048 69.7188 19.1416 68.982 19.1416 68.0731C19.1416 67.1643 18.4048 66.4275 17.496 66.4275C16.5871 66.4275 15.8503 67.1643 15.8503 68.0731Z" fill="white"/>
<path d="M15.8503 200.929C15.8503 201.837 16.5871 202.574 17.496 202.574C18.4048 202.574 19.1416 201.837 19.1416 200.929C19.1416 200.02 18.4048 199.283 17.496 199.283C16.5871 199.283 15.8503 200.02 15.8503 200.929Z" fill="white"/>
<path d="M15.7869 51.468C15.7869 52.3768 16.5236 53.1136 17.4325 53.1136C18.3414 53.1136 19.0781 52.3768 19.0781 51.468C19.0781 50.5591 18.3414 49.8224 17.4325 49.8224C16.5236 49.8224 15.7869 50.5591 15.7869 51.468Z" fill="white"/>
<path d="M15.7869 184.323C15.7869 185.232 16.5236 185.969 17.4325 185.969C18.3414 185.969 19.0781 185.232 19.0781 184.323C19.0781 183.414 18.3414 182.678 17.4325 182.678C16.5236 182.678 15.7869 183.414 15.7869 184.323Z" fill="white"/>
<path d="M15.7869 117.896C15.7869 118.804 16.5236 119.541 17.4325 119.541C18.3414 119.541 19.0781 118.804 19.0781 117.896C19.0781 116.987 18.3414 116.25 17.4325 116.25C16.5236 116.25 15.7869 116.987 15.7869 117.896Z" fill="white"/>
<path d="M15.7869 250.751C15.7869 251.66 16.5236 252.397 17.4325 252.397C18.3414 252.397 19.0781 251.66 19.0781 250.751C19.0781 249.842 18.3414 249.105 17.4325 249.105C16.5236 249.105 15.7869 249.842 15.7869 250.751Z" fill="white"/>
<path d="M15.7888 18.2526C15.7888 19.1614 16.5256 19.8982 17.4344 19.8982C18.3433 19.8982 19.0801 19.1614 19.0801 18.2526C19.0801 17.3437 18.3433 16.6069 17.4344 16.6069C16.5256 16.6069 15.7888 17.3437 15.7888 18.2526Z" fill="white"/>
<path d="M15.7888 151.108C15.7888 152.017 16.5256 152.753 17.4344 152.753C18.3433 152.753 19.0801 152.017 19.0801 151.108C19.0801 150.199 18.3433 149.462 17.4344 149.462C16.5256 149.462 15.7888 150.199 15.7888 151.108Z" fill="white"/>
<path d="M15.7888 84.6803C15.7888 85.5892 16.5256 86.3259 17.4344 86.3259C18.3433 86.3259 19.0801 85.5892 19.0801 84.6803C19.0801 83.7714 18.3433 83.0347 17.4344 83.0347C16.5256 83.0347 15.7888 83.7714 15.7888 84.6803Z" fill="white"/>
<path d="M15.7888 217.535C15.7888 218.444 16.5256 219.181 17.4344 219.181C18.3433 219.181 19.0801 218.444 19.0801 217.535C19.0801 216.626 18.3433 215.89 17.4344 215.89C16.5256 215.89 15.7888 216.626 15.7888 217.535Z" fill="white"/>
<path d="M15.8523 68.0713C15.8523 68.9802 16.5891 69.717 17.4979 69.717C18.4068 69.717 19.1436 68.9802 19.1436 68.0713C19.1436 67.1625 18.4068 66.4257 17.4979 66.4257C16.5891 66.4257 15.8523 67.1625 15.8523 68.0713Z" fill="white"/>
<path d="M15.8523 200.927C15.8523 201.836 16.5891 202.572 17.4979 202.572C18.4068 202.572 19.1436 201.836 19.1436 200.927C19.1436 200.018 18.4068 199.281 17.4979 199.281C16.5891 199.281 15.8523 200.018 15.8523 200.927Z" fill="white"/>
<path d="M15.8523 134.499C15.8523 135.408 16.5891 136.145 17.4979 136.145C18.4068 136.145 19.1436 135.408 19.1436 134.499C19.1436 133.59 18.4068 132.853 17.4979 132.853C16.5891 132.853 15.8523 133.59 15.8523 134.499Z" fill="white"/>
<path d="M15.8523 267.354C15.8523 268.263 16.5891 269 17.4979 269C18.4068 269 19.1436 268.263 19.1436 267.354C19.1436 266.445 18.4068 265.709 17.4979 265.709C16.5891 265.709 15.8523 266.445 15.8523 267.354Z" fill="white"/>
<path d="M15.7888 34.8595C15.7888 35.7684 16.5256 36.5051 17.4344 36.5051C18.3433 36.5051 19.0801 35.7684 19.0801 34.8595C19.0801 33.9506 18.3433 33.2139 17.4344 33.2139C16.5256 33.2139 15.7888 33.9506 15.7888 34.8595Z" fill="white"/>
<path d="M15.7888 167.715C15.7888 168.624 16.5256 169.36 17.4344 169.36C18.3433 169.36 19.0801 168.624 19.0801 167.715C19.0801 166.806 18.3433 166.069 17.4344 166.069C16.5256 166.069 15.7888 166.806 15.7888 167.715Z" fill="white"/>
<path d="M15.7888 101.287C15.7888 102.196 16.5256 102.933 17.4344 102.933C18.3433 102.933 19.0801 102.196 19.0801 101.287C19.0801 100.378 18.3433 99.6414 17.4344 99.6414C16.5256 99.6414 15.7888 100.378 15.7888 101.287Z" fill="white"/>
<path d="M15.7888 234.142C15.7888 235.051 16.5256 235.788 17.4344 235.788C18.3433 235.788 19.0801 235.051 19.0801 234.142C19.0801 233.233 18.3433 232.497 17.4344 232.497C16.5256 232.497 15.7888 233.233 15.7888 234.142Z" fill="white"/>
<path d="M49.2322 1.64563C49.2322 2.55449 49.9689 3.29127 50.8778 3.29127C51.7867 3.29127 52.5234 2.55449 52.5234 1.64563C52.5234 0.736775 51.7867 -3.22055e-08 50.8778 -7.19329e-08C49.9689 -1.1166e-07 49.2322 0.736775 49.2322 1.64563Z" fill="white"/>
<path d="M49.2322 134.501C49.2322 135.41 49.9689 136.146 50.8778 136.146C51.7867 136.146 52.5234 135.41 52.5234 134.501C52.5234 133.592 51.7867 132.855 50.8778 132.855C49.9689 132.855 49.2322 133.592 49.2322 134.501Z" fill="white"/>
<path d="M49.2322 68.0731C49.2322 68.982 49.9689 69.7188 50.8778 69.7188C51.7867 69.7188 52.5234 68.982 52.5234 68.0731C52.5234 67.1643 51.7867 66.4275 50.8778 66.4275C49.9689 66.4275 49.2322 67.1643 49.2322 68.0731Z" fill="white"/>
<path d="M49.2322 200.929C49.2322 201.837 49.9689 202.574 50.8778 202.574C51.7867 202.574 52.5234 201.837 52.5234 200.929C52.5234 200.02 51.7867 199.283 50.8778 199.283C49.9689 199.283 49.2322 200.02 49.2322 200.929Z" fill="white"/>
<path d="M49.1667 51.468C49.1667 52.3768 49.9035 53.1136 50.8124 53.1136C51.7212 53.1136 52.458 52.3768 52.458 51.468C52.458 50.5591 51.7212 49.8224 50.8124 49.8224C49.9035 49.8224 49.1667 50.5591 49.1667 51.468Z" fill="white"/>
<path d="M49.1667 184.323C49.1667 185.232 49.9035 185.969 50.8124 185.969C51.7212 185.969 52.458 185.232 52.458 184.323C52.458 183.414 51.7212 182.678 50.8124 182.678C49.9035 182.678 49.1667 183.414 49.1667 184.323Z" fill="white"/>
<path d="M49.1667 117.896C49.1667 118.804 49.9035 119.541 50.8124 119.541C51.7212 119.541 52.458 118.804 52.458 117.896C52.458 116.987 51.7212 116.25 50.8124 116.25C49.9035 116.25 49.1667 116.987 49.1667 117.896Z" fill="white"/>
<path d="M49.1667 250.751C49.1667 251.66 49.9035 252.397 50.8124 252.397C51.7212 252.397 52.458 251.66 52.458 250.751C52.458 249.842 51.7212 249.105 50.8124 249.105C49.9035 249.105 49.1667 249.842 49.1667 250.751Z" fill="white"/>
<path d="M49.1687 18.2526C49.1687 19.1614 49.9055 19.8982 50.8143 19.8982C51.7232 19.8982 52.46 19.1614 52.46 18.2526C52.46 17.3437 51.7232 16.6069 50.8143 16.6069C49.9055 16.6069 49.1687 17.3437 49.1687 18.2526Z" fill="white"/>
<path d="M49.1687 151.108C49.1687 152.017 49.9055 152.753 50.8143 152.753C51.7232 152.753 52.46 152.017 52.46 151.108C52.46 150.199 51.7232 149.462 50.8143 149.462C49.9055 149.462 49.1687 150.199 49.1687 151.108Z" fill="white"/>
<path d="M49.1687 84.6803C49.1687 85.5892 49.9055 86.3259 50.8143 86.3259C51.7232 86.3259 52.46 85.5892 52.46 84.6803C52.46 83.7714 51.7232 83.0347 50.8143 83.0347C49.9055 83.0347 49.1687 83.7714 49.1687 84.6803Z" fill="white"/>
<path d="M49.1687 217.535C49.1687 218.444 49.9055 219.181 50.8143 219.181C51.7232 219.181 52.46 218.444 52.46 217.535C52.46 216.626 51.7232 215.89 50.8143 215.89C49.9055 215.89 49.1687 216.626 49.1687 217.535Z" fill="white"/>
<path d="M49.2331 68.0713C49.2331 68.9802 49.9699 69.717 50.8788 69.717C51.7876 69.717 52.5244 68.9802 52.5244 68.0713C52.5244 67.1625 51.7876 66.4257 50.8788 66.4257C49.9699 66.4257 49.2331 67.1625 49.2331 68.0713Z" fill="white"/>
<path d="M49.2331 200.927C49.2331 201.836 49.9699 202.572 50.8788 202.572C51.7876 202.572 52.5244 201.836 52.5244 200.927C52.5244 200.018 51.7876 199.281 50.8788 199.281C49.9699 199.281 49.2331 200.018 49.2331 200.927Z" fill="white"/>
<path d="M49.2331 134.499C49.2331 135.408 49.9699 136.145 50.8788 136.145C51.7876 136.145 52.5244 135.408 52.5244 134.499C52.5244 133.59 51.7876 132.853 50.8788 132.853C49.9699 132.853 49.2331 133.59 49.2331 134.499Z" fill="white"/>
<path d="M49.2331 267.354C49.2331 268.263 49.9699 269 50.8788 269C51.7876 269 52.5244 268.263 52.5244 267.354C52.5244 266.445 51.7876 265.709 50.8788 265.709C49.9699 265.709 49.2331 266.445 49.2331 267.354Z" fill="white"/>
<path d="M49.1706 34.8575C49.1706 35.7663 49.9074 36.5031 50.8163 36.5031C51.7251 36.5031 52.4619 35.7663 52.4619 34.8575C52.4619 33.9486 51.7251 33.2118 50.8163 33.2118C49.9074 33.2118 49.1706 33.9486 49.1706 34.8575Z" fill="white"/>
<path d="M49.1706 167.713C49.1706 168.622 49.9074 169.358 50.8163 169.358C51.7251 169.358 52.4619 168.622 52.4619 167.713C52.4619 166.804 51.7251 166.067 50.8163 166.067C49.9074 166.067 49.1706 166.804 49.1706 167.713Z" fill="white"/>
<path d="M49.1706 101.285C49.1706 102.194 49.9074 102.931 50.8163 102.931C51.7251 102.931 52.4619 102.194 52.4619 101.285C52.4619 100.377 51.7251 99.6398 50.8163 99.6398C49.9074 99.6398 49.1706 100.377 49.1706 101.285Z" fill="white"/>
<path d="M49.1706 234.14C49.1706 235.049 49.9074 235.786 50.8163 235.786C51.7251 235.786 52.4619 235.049 52.4619 234.14C52.4619 233.232 51.7251 232.495 50.8163 232.495C49.9074 232.495 49.1706 233.232 49.1706 234.14Z" fill="white"/>
</svg>
