<svg viewBox="0 0 90 79" fill="none" xmlns="http://www.w3.org/2000/svg">
<path d="M0 51.275C0 22.466 26.598 4.913 30.729 2.725C33.721 1.095 36.491 0 38.389 0C40.042 0 41.136 0.804 41.136 2.189C41.136 3.573 39.751 5.204 38.389 6.298C34.57 9.045 23.85 23.315 23.85 36.759C23.85 40.31 25.771 43.593 27.959 44.709C30.438 46.071 41.961 48.55 41.961 63.066C41.961 71.575 35.105 78.966 25.502 78.966C12.886 78.967 0 69.387 0 51.275Z" fill="#F6E3E4"/>
<path d="M48.0137 51.275C48.0137 22.466 74.6347 4.913 78.7437 2.725C81.7597 1.095 84.5057 0 86.4257 0C88.0777 0 89.1507 0.804 89.1507 2.189C89.1507 3.573 87.7897 5.204 86.4257 6.298C82.5857 9.045 71.8887 23.315 71.8887 36.759C71.8887 40.31 73.8087 43.593 75.9977 44.709C78.4767 46.072 89.9997 48.55 89.9997 63.067C89.9997 71.576 83.1207 78.967 73.5177 78.967C60.9217 78.967 48.0137 69.387 48.0137 51.275Z" fill="#F6E3E4"/>
</svg>
