<svg width="22" height="20" viewBox="0 0 22 20" xmlns="http://www.w3.org/2000/svg">
<path d="M0.267546 18.5926L5.19599 14.6667C4.05317 13.1111 3.41032 11.2593 3.41032 9.18518C3.41032 4.14815 7.3388 0 12.2672 0C17.1957 0 21.0527 4.14815 21.0527 9.18518C21.0527 14.2222 17.1243 18.3704 12.1958 18.3704C9.83873 18.3704 7.69593 17.4074 6.12454 15.8519L1.12467 19.8519C0.981813 19.9259 0.838961 20 0.696108 20C0.481827 20 0.267548 19.9259 0.124695 19.7037C-0.0895863 19.3333 -0.0181618 18.8889 0.267546 18.5926ZM12.2672 16.8889C16.3386 16.8889 19.6956 13.4815 19.6956 9.18518C19.6956 4.88889 16.41 1.48148 12.2672 1.48148C8.19592 1.48148 4.83886 4.88889 4.83886 9.18518C4.83886 13.4815 8.19592 16.8889 12.2672 16.8889Z" fill="black"/>
</svg>
