<svg width="19" height="20" viewBox="0 0 19 20" fill="none" xmlns="http://www.w3.org/2000/svg">
<path d="M15.2344 12.9688C14.0767 12.9688 13.0481 13.5313 12.4071 14.3973L6.88875 11.5772C6.98133 11.2627 7.03125 10.93 7.03125 10.5859C7.03125 10.1199 6.93988 9.67484 6.77445 9.26746L12.558 5.79254C13.2034 6.54996 14.1637 7.03125 15.2344 7.03125C17.1729 7.03125 18.75 5.45414 18.75 3.51562C18.75 1.57711 17.1729 0 15.2344 0C13.2959 0 11.7188 1.57711 11.7188 3.51562C11.7188 3.96367 11.8032 4.3923 11.9566 4.78672L6.15859 8.27031C5.51375 7.53523 4.56801 7.07031 3.51562 7.07031C1.57711 7.07031 0 8.64742 0 10.5859C0 12.5245 1.57711 14.1016 3.51562 14.1016C4.69227 14.1016 5.73563 13.5205 6.3741 12.6302L11.8764 15.4421C11.774 15.7716 11.7188 16.1216 11.7188 16.4844C11.7188 18.4229 13.2959 20 15.2344 20C17.1729 20 18.75 18.4229 18.75 16.4844C18.75 14.5459 17.1729 12.9688 15.2344 12.9688ZM15.2344 1.17188C16.5267 1.17188 17.5781 2.22328 17.5781 3.51562C17.5781 4.80797 16.5267 5.85938 15.2344 5.85938C13.942 5.85938 12.8906 4.80797 12.8906 3.51562C12.8906 2.22328 13.942 1.17188 15.2344 1.17188ZM3.51562 12.9297C2.22328 12.9297 1.17188 11.8783 1.17188 10.5859C1.17188 9.29359 2.22328 8.24219 3.51562 8.24219C4.80797 8.24219 5.85938 9.29359 5.85938 10.5859C5.85938 11.8783 4.80797 12.9297 3.51562 12.9297ZM15.2344 18.8281C13.942 18.8281 12.8906 17.7767 12.8906 16.4844C12.8906 15.192 13.942 14.1406 15.2344 14.1406C16.5267 14.1406 17.5781 15.192 17.5781 16.4844C17.5781 17.7767 16.5267 18.8281 15.2344 18.8281Z" fill="black"/>
</svg>
