<svg width="324" height="84" viewBox="0 0 324 84" fill="none" xmlns="http://www.w3.org/2000/svg">
<path d="M1.9821 3.96518C3.07679 3.96518 3.9642 3.07776 3.9642 1.98308C3.9642 0.888394 3.07679 0.000976562 1.9821 0.000976562C0.887417 0.000976562 0 0.888394 0 1.98308C0 3.07776 0.887417 3.96518 1.9821 3.96518Z" fill="#E3E3E3"/>
<path d="M162.001 3.96616C163.095 3.96616 163.983 3.07874 163.983 1.98405C163.983 0.88937 163.095 0.00195312 162.001 0.00195312C160.906 0.00195312 160.019 0.88937 160.019 1.98405C160.019 3.07874 160.906 3.96616 162.001 3.96616Z" fill="#E3E3E3"/>
<path d="M81.9919 3.96616C83.0866 3.96616 83.974 3.07874 83.974 1.98405C83.974 0.88937 83.0866 0.00195312 81.9919 0.00195312C80.8972 0.00195312 80.0098 0.88937 80.0098 1.98405C80.0098 3.07874 80.8972 3.96616 81.9919 3.96616Z" fill="#E3E3E3"/>
<path d="M242.01 3.96616C243.105 3.96616 243.993 3.07874 243.993 1.98405C243.993 0.88937 243.105 0.00195312 242.01 0.00195312C240.916 0.00195312 240.028 0.88937 240.028 1.98405C240.028 3.07874 240.916 3.96616 242.01 3.96616Z" fill="#E3E3E3"/>
<path d="M61.9909 4.04404C63.0856 4.04404 63.973 3.15662 63.973 2.06194C63.973 0.967251 63.0856 0.079834 61.9909 0.079834C60.8962 0.079834 60.0088 0.967251 60.0088 2.06194C60.0088 3.15662 60.8962 4.04404 61.9909 4.04404Z" fill="#E3E3E3"/>
<path d="M222.01 4.04404C223.105 4.04404 223.993 3.15662 223.993 2.06194C223.993 0.967251 223.105 0.079834 222.01 0.079834C220.916 0.079834 220.028 0.967251 220.028 2.06194C220.028 3.15662 220.916 4.04404 222.01 4.04404Z" fill="#E3E3E3"/>
<path d="M142.001 4.04404C143.095 4.04404 143.983 3.15662 143.983 2.06194C143.983 0.967251 143.095 0.079834 142.001 0.079834C140.906 0.079834 140.019 0.967251 140.019 2.06194C140.019 3.15662 140.906 4.04404 142.001 4.04404Z" fill="#E3E3E3"/>
<path d="M302.019 4.04404C303.114 4.04404 304.001 3.15662 304.001 2.06194C304.001 0.967251 303.114 0.079834 302.019 0.079834C300.925 0.079834 300.037 0.967251 300.037 2.06194C300.037 3.15662 300.925 4.04404 302.019 4.04404Z" fill="#E3E3E3"/>
<path d="M41.985 3.96616C43.0797 3.96616 43.9671 3.07874 43.9671 1.98405C43.9671 0.88937 43.0797 0.00195312 41.985 0.00195312C40.8903 0.00195312 40.0029 0.88937 40.0029 1.98405C40.0029 3.07874 40.8903 3.96616 41.985 3.96616Z" fill="#E3E3E3"/>
<path d="M202.004 3.96616C203.098 3.96616 203.986 3.07874 203.986 1.98405C203.986 0.88937 203.098 0.00195312 202.004 0.00195312C200.909 0.00195312 200.021 0.88937 200.021 1.98405C200.021 3.07874 200.909 3.96616 202.004 3.96616Z" fill="#E3E3E3"/>
<path d="M121.994 3.96616C123.089 3.96616 123.976 3.07874 123.976 1.98405C123.976 0.88937 123.089 0.00195312 121.994 0.00195312C120.899 0.00195312 120.012 0.88937 120.012 1.98405C120.012 3.07874 120.899 3.96616 121.994 3.96616Z" fill="#E3E3E3"/>
<path d="M282.013 3.96616C283.108 3.96616 283.995 3.07874 283.995 1.98405C283.995 0.88937 283.108 0.00195312 282.013 0.00195312C280.919 0.00195312 280.031 0.88937 280.031 1.98405C280.031 3.07874 280.919 3.96616 282.013 3.96616Z" fill="#E3E3E3"/>
<path d="M21.9841 4.04211C23.0787 4.04211 23.9662 3.1547 23.9662 2.06001C23.9662 0.965329 23.0787 0.0779114 21.9841 0.0779114C20.8894 0.0779114 20.002 0.965329 20.002 2.06001C20.002 3.1547 20.8894 4.04211 21.9841 4.04211Z" fill="#E3E3E3"/>
<path d="M182.004 4.04211C183.098 4.04211 183.986 3.1547 183.986 2.06001C183.986 0.965329 183.098 0.0779114 182.004 0.0779114C180.909 0.0779114 180.021 0.965329 180.021 2.06001C180.021 3.1547 180.909 4.04211 182.004 4.04211Z" fill="#E3E3E3"/>
<path d="M101.994 4.04211C103.089 4.04211 103.976 3.1547 103.976 2.06001C103.976 0.965329 103.089 0.0779114 101.994 0.0779114C100.899 0.0779114 100.012 0.965329 100.012 2.06001C100.012 3.1547 100.899 4.04211 101.994 4.04211Z" fill="#E3E3E3"/>
<path d="M262.013 4.04211C263.108 4.04211 263.995 3.1547 263.995 2.06001C263.995 0.965329 263.108 0.0779114 262.013 0.0779114C260.919 0.0779114 260.031 0.965329 260.031 2.06001C260.031 3.1547 260.919 4.04211 262.013 4.04211Z" fill="#E3E3E3"/>
<path d="M81.9889 3.9642C83.0836 3.9642 83.971 3.07679 83.971 1.9821C83.971 0.887417 83.0836 0 81.9889 0C80.8943 0 80.0068 0.887417 80.0068 1.9821C80.0068 3.07679 80.8943 3.9642 81.9889 3.9642Z" fill="#E3E3E3"/>
<path d="M242.008 3.9642C243.103 3.9642 243.991 3.07679 243.991 1.9821C243.991 0.887417 243.103 0 242.008 0C240.914 0 240.026 0.887417 240.026 1.9821C240.026 3.07679 240.914 3.9642 242.008 3.9642Z" fill="#E3E3E3"/>
<path d="M161.999 3.9642C163.093 3.9642 163.981 3.07679 163.981 1.9821C163.981 0.887417 163.093 0 161.999 0C160.904 0 160.017 0.887417 160.017 1.9821C160.017 3.07679 160.904 3.9642 161.999 3.9642Z" fill="#E3E3E3"/>
<path d="M322.018 3.9642C323.113 3.9642 324 3.07679 324 1.9821C324 0.887417 323.113 0 322.018 0C320.924 0 320.036 0.887417 320.036 1.9821C320.036 3.07679 320.924 3.9642 322.018 3.9642Z" fill="#E3E3E3"/>
<path d="M1.9821 43.895C3.07679 43.895 3.9642 43.0075 3.9642 41.9129C3.9642 40.8182 3.07679 39.9308 1.9821 39.9308C0.887417 39.9308 0 40.8182 0 41.9129C0 43.0075 0.887417 43.895 1.9821 43.895Z" fill="#E3E3E3"/>
<path d="M162.001 43.895C163.095 43.895 163.983 43.0075 163.983 41.9129C163.983 40.8182 163.095 39.9308 162.001 39.9308C160.906 39.9308 160.019 40.8182 160.019 41.9129C160.019 43.0075 160.906 43.895 162.001 43.895Z" fill="#E3E3E3"/>
<path d="M81.9919 43.895C83.0866 43.895 83.974 43.0075 83.974 41.9129C83.974 40.8182 83.0866 39.9308 81.9919 39.9308C80.8972 39.9308 80.0098 40.8182 80.0098 41.9129C80.0098 43.0075 80.8972 43.895 81.9919 43.895Z" fill="#E3E3E3"/>
<path d="M242.01 43.895C243.105 43.895 243.993 43.0075 243.993 41.9129C243.993 40.8182 243.105 39.9308 242.01 39.9308C240.916 39.9308 240.028 40.8182 240.028 41.9129C240.028 43.0075 240.916 43.895 242.01 43.895Z" fill="#E3E3E3"/>
<path d="M61.9909 43.9729C63.0856 43.9729 63.973 43.0855 63.973 41.9908C63.973 40.8961 63.0856 40.0087 61.9909 40.0087C60.8962 40.0087 60.0088 40.8961 60.0088 41.9908C60.0088 43.0855 60.8962 43.9729 61.9909 43.9729Z" fill="#E3E3E3"/>
<path d="M222.01 43.9729C223.105 43.9729 223.993 43.0855 223.993 41.9908C223.993 40.8961 223.105 40.0087 222.01 40.0087C220.916 40.0087 220.028 40.8961 220.028 41.9908C220.028 43.0855 220.916 43.9729 222.01 43.9729Z" fill="#E3E3E3"/>
<path d="M142.001 43.9729C143.095 43.9729 143.983 43.0855 143.983 41.9908C143.983 40.8961 143.095 40.0087 142.001 40.0087C140.906 40.0087 140.019 40.8961 140.019 41.9908C140.019 43.0855 140.906 43.9729 142.001 43.9729Z" fill="#E3E3E3"/>
<path d="M302.019 43.9729C303.114 43.9729 304.001 43.0855 304.001 41.9908C304.001 40.8961 303.114 40.0087 302.019 40.0087C300.925 40.0087 300.037 40.8961 300.037 41.9908C300.037 43.0855 300.925 43.9729 302.019 43.9729Z" fill="#E3E3E3"/>
<path d="M21.9841 43.9709C23.0787 43.9709 23.9662 43.0835 23.9662 41.9888C23.9662 40.8941 23.0787 40.0067 21.9841 40.0067C20.8894 40.0067 20.002 40.8941 20.002 41.9888C20.002 43.0835 20.8894 43.9709 21.9841 43.9709Z" fill="#E3E3E3"/>
<path d="M182.004 43.9709C183.098 43.9709 183.986 43.0835 183.986 41.9888C183.986 40.8941 183.098 40.0067 182.004 40.0067C180.909 40.0067 180.021 40.8941 180.021 41.9888C180.021 43.0835 180.909 43.9709 182.004 43.9709Z" fill="#E3E3E3"/>
<path d="M101.994 43.9709C103.089 43.9709 103.976 43.0835 103.976 41.9888C103.976 40.8941 103.089 40.0067 101.994 40.0067C100.899 40.0067 100.012 40.8941 100.012 41.9888C100.012 43.0835 100.899 43.9709 101.994 43.9709Z" fill="#E3E3E3"/>
<path d="M262.013 43.9709C263.108 43.9709 263.995 43.0835 263.995 41.9888C263.995 40.8941 263.108 40.0067 262.013 40.0067C260.919 40.0067 260.031 40.8941 260.031 41.9888C260.031 43.0835 260.919 43.9709 262.013 43.9709Z" fill="#E3E3E3"/>
<path d="M81.9889 43.8928C83.0836 43.8928 83.971 43.0054 83.971 41.9107C83.971 40.816 83.0836 39.9286 81.9889 39.9286C80.8943 39.9286 80.0068 40.816 80.0068 41.9107C80.0068 43.0054 80.8943 43.8928 81.9889 43.8928Z" fill="#E3E3E3"/>
<path d="M242.008 43.8928C243.103 43.8928 243.991 43.0054 243.991 41.9107C243.991 40.816 243.103 39.9286 242.008 39.9286C240.914 39.9286 240.026 40.816 240.026 41.9107C240.026 43.0054 240.914 43.8928 242.008 43.8928Z" fill="#E3E3E3"/>
<path d="M161.999 43.8928C163.093 43.8928 163.981 43.0054 163.981 41.9107C163.981 40.816 163.093 39.9286 161.999 39.9286C160.904 39.9286 160.017 40.816 160.017 41.9107C160.017 43.0054 160.904 43.8928 161.999 43.8928Z" fill="#E3E3E3"/>
<path d="M322.018 43.8928C323.113 43.8928 324 43.0054 324 41.9107C324 40.816 323.113 39.9286 322.018 39.9286C320.924 39.9286 320.036 40.816 320.036 41.9107C320.036 43.0054 320.924 43.8928 322.018 43.8928Z" fill="#E3E3E3"/>
<path d="M41.987 43.9709C43.0817 43.9709 43.9691 43.0835 43.9691 41.9888C43.9691 40.8941 43.0817 40.0067 41.987 40.0067C40.8923 40.0067 40.0049 40.8941 40.0049 41.9888C40.0049 43.0835 40.8923 43.9709 41.987 43.9709Z" fill="#E3E3E3"/>
<path d="M202.006 43.9709C203.1 43.9709 203.988 43.0835 203.988 41.9888C203.988 40.8941 203.1 40.0067 202.006 40.0067C200.911 40.0067 200.023 40.8941 200.023 41.9888C200.023 43.0835 200.911 43.9709 202.006 43.9709Z" fill="#E3E3E3"/>
<path d="M121.997 43.9709C123.091 43.9709 123.979 43.0835 123.979 41.9888C123.979 40.8941 123.091 40.0067 121.997 40.0067C120.902 40.0067 120.015 40.8941 120.015 41.9888C120.015 43.0835 120.902 43.9709 121.997 43.9709Z" fill="#E3E3E3"/>
<path d="M282.015 43.9709C283.11 43.9709 283.997 43.0835 283.997 41.9888C283.997 40.8941 283.11 40.0067 282.015 40.0067C280.921 40.0067 280.033 40.8941 280.033 41.9888C280.033 43.0835 280.921 43.9709 282.015 43.9709Z" fill="#E3E3E3"/>
<path d="M1.9821 83.9017C3.07678 83.9017 3.9642 83.0143 3.9642 81.9196C3.9642 80.8249 3.07678 79.9375 1.9821 79.9375C0.887416 79.9375 0 80.8249 0 81.9196C0 83.0143 0.887416 83.9017 1.9821 83.9017Z" fill="#E3E3E3"/>
<path d="M162.001 83.9017C163.095 83.9017 163.983 83.0143 163.983 81.9196C163.983 80.8249 163.095 79.9375 162.001 79.9375C160.906 79.9375 160.019 80.8249 160.019 81.9196C160.019 83.0143 160.906 83.9017 162.001 83.9017Z" fill="#E3E3E3"/>
<path d="M81.9919 83.9017C83.0865 83.9017 83.974 83.0143 83.974 81.9196C83.974 80.8249 83.0865 79.9375 81.9919 79.9375C80.8972 79.9375 80.0098 80.8249 80.0098 81.9196C80.0098 83.0143 80.8972 83.9017 81.9919 83.9017Z" fill="#E3E3E3"/>
<path d="M242.01 83.9017C243.105 83.9017 243.993 83.0143 243.993 81.9196C243.993 80.8249 243.105 79.9375 242.01 79.9375C240.916 79.9375 240.028 80.8249 240.028 81.9196C240.028 83.0143 240.916 83.9017 242.01 83.9017Z" fill="#E3E3E3"/>
<path d="M61.9909 83.9776C63.0856 83.9776 63.973 83.0902 63.973 81.9955C63.973 80.9008 63.0856 80.0134 61.9909 80.0134C60.8962 80.0134 60.0088 80.9008 60.0088 81.9955C60.0088 83.0902 60.8962 83.9776 61.9909 83.9776Z" fill="#E3E3E3"/>
<path d="M222.01 83.9776C223.105 83.9776 223.993 83.0902 223.993 81.9955C223.993 80.9008 223.105 80.0134 222.01 80.0134C220.916 80.0134 220.028 80.9008 220.028 81.9955C220.028 83.0902 220.916 83.9776 222.01 83.9776Z" fill="#E3E3E3"/>
<path d="M142.001 83.9776C143.095 83.9776 143.983 83.0902 143.983 81.9955C143.983 80.9008 143.095 80.0134 142.001 80.0134C140.906 80.0134 140.019 80.9008 140.019 81.9955C140.019 83.0902 140.906 83.9776 142.001 83.9776Z" fill="#E3E3E3"/>
<path d="M302.019 83.9776C303.114 83.9776 304.001 83.0902 304.001 81.9955C304.001 80.9008 303.114 80.0134 302.019 80.0134C300.925 80.0134 300.037 80.9008 300.037 81.9955C300.037 83.0902 300.925 83.9776 302.019 83.9776Z" fill="#E3E3E3"/>
<path d="M41.985 83.9017C43.0797 83.9017 43.9671 83.0143 43.9671 81.9196C43.9671 80.8249 43.0797 79.9375 41.985 79.9375C40.8903 79.9375 40.0029 80.8249 40.0029 81.9196C40.0029 83.0143 40.8903 83.9017 41.985 83.9017Z" fill="#E3E3E3"/>
<path d="M202.004 83.9017C203.098 83.9017 203.986 83.0143 203.986 81.9196C203.986 80.8249 203.098 79.9375 202.004 79.9375C200.909 79.9375 200.021 80.8249 200.021 81.9196C200.021 83.0143 200.909 83.9017 202.004 83.9017Z" fill="#E3E3E3"/>
<path d="M121.994 83.9017C123.089 83.9017 123.976 83.0143 123.976 81.9196C123.976 80.8249 123.089 79.9375 121.994 79.9375C120.899 79.9375 120.012 80.8249 120.012 81.9196C120.012 83.0143 120.899 83.9017 121.994 83.9017Z" fill="#E3E3E3"/>
<path d="M282.013 83.9017C283.108 83.9017 283.995 83.0143 283.995 81.9196C283.995 80.8249 283.108 79.9375 282.013 79.9375C280.919 79.9375 280.031 80.8249 280.031 81.9196C280.031 83.0143 280.919 83.9017 282.013 83.9017Z" fill="#E3E3E3"/>
<path d="M21.9841 83.9757C23.0787 83.9757 23.9662 83.0883 23.9662 81.9936C23.9662 80.8989 23.0787 80.0115 21.9841 80.0115C20.8894 80.0115 20.002 80.8989 20.002 81.9936C20.002 83.0883 20.8894 83.9757 21.9841 83.9757Z" fill="#E3E3E3"/>
<path d="M182.004 83.9757C183.098 83.9757 183.986 83.0883 183.986 81.9936C183.986 80.8989 183.098 80.0115 182.004 80.0115C180.909 80.0115 180.021 80.8989 180.021 81.9936C180.021 83.0883 180.909 83.9757 182.004 83.9757Z" fill="#E3E3E3"/>
<path d="M101.994 83.9757C103.089 83.9757 103.976 83.0883 103.976 81.9936C103.976 80.8989 103.089 80.0115 101.994 80.0115C100.899 80.0115 100.012 80.8989 100.012 81.9936C100.012 83.0883 100.899 83.9757 101.994 83.9757Z" fill="#E3E3E3"/>
<path d="M262.013 83.9757C263.108 83.9757 263.995 83.0883 263.995 81.9936C263.995 80.8989 263.108 80.0115 262.013 80.0115C260.919 80.0115 260.031 80.8989 260.031 81.9936C260.031 83.0883 260.919 83.9757 262.013 83.9757Z" fill="#E3E3E3"/>
<path d="M81.9889 83.8997C83.0836 83.8997 83.971 83.0123 83.971 81.9176C83.971 80.8229 83.0836 79.9355 81.9889 79.9355C80.8943 79.9355 80.0068 80.8229 80.0068 81.9176C80.0068 83.0123 80.8943 83.8997 81.9889 83.8997Z" fill="#E3E3E3"/>
<path d="M242.008 83.8997C243.103 83.8997 243.991 83.0123 243.991 81.9176C243.991 80.8229 243.103 79.9355 242.008 79.9355C240.914 79.9355 240.026 80.8229 240.026 81.9176C240.026 83.0123 240.914 83.8997 242.008 83.8997Z" fill="#E3E3E3"/>
<path d="M161.999 83.8997C163.093 83.8997 163.981 83.0123 163.981 81.9176C163.981 80.8229 163.093 79.9355 161.999 79.9355C160.904 79.9355 160.017 80.8229 160.017 81.9176C160.017 83.0123 160.904 83.8997 161.999 83.8997Z" fill="#E3E3E3"/>
<path d="M322.018 83.8997C323.113 83.8997 324 83.0123 324 81.9176C324 80.8229 323.113 79.9355 322.018 79.9355C320.924 79.9355 320.036 80.8229 320.036 81.9176C320.036 83.0123 320.924 83.8997 322.018 83.8997Z" fill="#E3E3E3"/>
<path d="M1.9821 64.8875C3.07679 64.8875 3.9642 64 3.9642 62.9053C3.9642 61.8107 3.07679 60.9232 1.9821 60.9232C0.887417 60.9232 0 61.8107 0 62.9053C0 64 0.887417 64.8875 1.9821 64.8875Z" fill="#E3E3E3"/>
<path d="M162.001 64.8875C163.095 64.8875 163.983 64 163.983 62.9053C163.983 61.8107 163.095 60.9232 162.001 60.9232C160.906 60.9232 160.019 61.8107 160.019 62.9053C160.019 64 160.906 64.8875 162.001 64.8875Z" fill="#E3E3E3"/>
<path d="M81.9919 64.8875C83.0866 64.8875 83.974 64 83.974 62.9053C83.974 61.8107 83.0866 60.9232 81.9919 60.9232C80.8972 60.9232 80.0098 61.8107 80.0098 62.9053C80.0098 64 80.8972 64.8875 81.9919 64.8875Z" fill="#E3E3E3"/>
<path d="M242.01 64.8875C243.105 64.8875 243.993 64 243.993 62.9053C243.993 61.8107 243.105 60.9232 242.01 60.9232C240.916 60.9232 240.028 61.8107 240.028 62.9053C240.028 64 240.916 64.8875 242.01 64.8875Z" fill="#E3E3E3"/>
<path d="M61.9909 64.9634C63.0856 64.9634 63.973 64.076 63.973 62.9813C63.973 61.8866 63.0856 60.9992 61.9909 60.9992C60.8962 60.9992 60.0088 61.8866 60.0088 62.9813C60.0088 64.076 60.8962 64.9634 61.9909 64.9634Z" fill="#E3E3E3"/>
<path d="M222.01 64.9634C223.105 64.9634 223.993 64.076 223.993 62.9813C223.993 61.8866 223.105 60.9992 222.01 60.9992C220.916 60.9992 220.028 61.8866 220.028 62.9813C220.028 64.076 220.916 64.9634 222.01 64.9634Z" fill="#E3E3E3"/>
<path d="M142.001 64.9634C143.095 64.9634 143.983 64.076 143.983 62.9813C143.983 61.8866 143.095 60.9992 142.001 60.9992C140.906 60.9992 140.019 61.8866 140.019 62.9813C140.019 64.076 140.906 64.9634 142.001 64.9634Z" fill="#E3E3E3"/>
<path d="M302.019 64.9634C303.114 64.9634 304.001 64.076 304.001 62.9813C304.001 61.8866 303.114 60.9992 302.019 60.9992C300.925 60.9992 300.037 61.8866 300.037 62.9813C300.037 64.076 300.925 64.9634 302.019 64.9634Z" fill="#E3E3E3"/>
<path d="M21.9841 64.9614C23.0787 64.9614 23.9662 64.074 23.9662 62.9793C23.9662 61.8846 23.0787 60.9972 21.9841 60.9972C20.8894 60.9972 20.002 61.8846 20.002 62.9793C20.002 64.074 20.8894 64.9614 21.9841 64.9614Z" fill="#E3E3E3"/>
<path d="M182.004 64.9614C183.098 64.9614 183.986 64.074 183.986 62.9793C183.986 61.8846 183.098 60.9972 182.004 60.9972C180.909 60.9972 180.021 61.8846 180.021 62.9793C180.021 64.074 180.909 64.9614 182.004 64.9614Z" fill="#E3E3E3"/>
<path d="M101.994 64.9614C103.089 64.9614 103.976 64.074 103.976 62.9793C103.976 61.8846 103.089 60.9972 101.994 60.9972C100.899 60.9972 100.012 61.8846 100.012 62.9793C100.012 64.074 100.899 64.9614 101.994 64.9614Z" fill="#E3E3E3"/>
<path d="M262.013 64.9614C263.108 64.9614 263.995 64.074 263.995 62.9793C263.995 61.8846 263.108 60.9972 262.013 60.9972C260.919 60.9972 260.031 61.8846 260.031 62.9793C260.031 64.074 260.919 64.9614 262.013 64.9614Z" fill="#E3E3E3"/>
<path d="M81.9889 64.8852C83.0836 64.8852 83.971 63.9978 83.971 62.9031C83.971 61.8084 83.0836 60.921 81.9889 60.921C80.8943 60.921 80.0068 61.8084 80.0068 62.9031C80.0068 63.9978 80.8943 64.8852 81.9889 64.8852Z" fill="#E3E3E3"/>
<path d="M242.008 64.8852C243.103 64.8852 243.991 63.9978 243.991 62.9031C243.991 61.8084 243.103 60.921 242.008 60.921C240.914 60.921 240.026 61.8084 240.026 62.9031C240.026 63.9978 240.914 64.8852 242.008 64.8852Z" fill="#E3E3E3"/>
<path d="M161.999 64.8852C163.093 64.8852 163.981 63.9978 163.981 62.9031C163.981 61.8084 163.093 60.921 161.999 60.921C160.904 60.921 160.017 61.8084 160.017 62.9031C160.017 63.9978 160.904 64.8852 161.999 64.8852Z" fill="#E3E3E3"/>
<path d="M322.018 64.8852C323.113 64.8852 324 63.9978 324 62.9031C324 61.8084 323.113 60.921 322.018 60.921C320.924 60.921 320.036 61.8084 320.036 62.9031C320.036 63.9978 320.924 64.8852 322.018 64.8852Z" fill="#E3E3E3"/>
<path d="M41.987 64.9614C43.0817 64.9614 43.9691 64.074 43.9691 62.9793C43.9691 61.8846 43.0817 60.9972 41.987 60.9972C40.8923 60.9972 40.0049 61.8846 40.0049 62.9793C40.0049 64.074 40.8923 64.9614 41.987 64.9614Z" fill="#E3E3E3"/>
<path d="M202.006 64.9614C203.1 64.9614 203.988 64.074 203.988 62.9793C203.988 61.8846 203.1 60.9972 202.006 60.9972C200.911 60.9972 200.023 61.8846 200.023 62.9793C200.023 64.074 200.911 64.9614 202.006 64.9614Z" fill="#E3E3E3"/>
<path d="M121.997 64.9614C123.091 64.9614 123.979 64.074 123.979 62.9793C123.979 61.8846 123.091 60.9972 121.997 60.9972C120.902 60.9972 120.015 61.8846 120.015 62.9793C120.015 64.074 120.902 64.9614 121.997 64.9614Z" fill="#E3E3E3"/>
<path d="M282.015 64.9614C283.11 64.9614 283.997 64.074 283.997 62.9793C283.997 61.8846 283.11 60.9972 282.015 60.9972C280.921 60.9972 280.033 61.8846 280.033 62.9793C280.033 64.074 280.921 64.9614 282.015 64.9614Z" fill="#E3E3E3"/>
<path d="M1.9821 24.6805C3.07679 24.6805 3.9642 23.7931 3.9642 22.6984C3.9642 21.6038 3.07679 20.7163 1.9821 20.7163C0.887417 20.7163 0 21.6038 0 22.6984C0 23.7931 0.887417 24.6805 1.9821 24.6805Z" fill="#E3E3E3"/>
<path d="M162.001 24.6805C163.095 24.6805 163.983 23.7931 163.983 22.6984C163.983 21.6038 163.095 20.7163 162.001 20.7163C160.906 20.7163 160.019 21.6038 160.019 22.6984C160.019 23.7931 160.906 24.6805 162.001 24.6805Z" fill="#E3E3E3"/>
<path d="M81.9919 24.6805C83.0866 24.6805 83.974 23.7931 83.974 22.6984C83.974 21.6038 83.0866 20.7163 81.9919 20.7163C80.8972 20.7163 80.0098 21.6038 80.0098 22.6984C80.0098 23.7931 80.8972 24.6805 81.9919 24.6805Z" fill="#E3E3E3"/>
<path d="M242.01 24.6805C243.105 24.6805 243.993 23.7931 243.993 22.6984C243.993 21.6038 243.105 20.7163 242.01 20.7163C240.916 20.7163 240.028 21.6038 240.028 22.6984C240.028 23.7931 240.916 24.6805 242.01 24.6805Z" fill="#E3E3E3"/>
<path d="M61.9909 24.7587C63.0856 24.7587 63.973 23.8713 63.973 22.7766C63.973 21.6819 63.0856 20.7945 61.9909 20.7945C60.8962 20.7945 60.0088 21.6819 60.0088 22.7766C60.0088 23.8713 60.8962 24.7587 61.9909 24.7587Z" fill="#E3E3E3"/>
<path d="M222.01 24.7587C223.105 24.7587 223.993 23.8713 223.993 22.7766C223.993 21.6819 223.105 20.7945 222.01 20.7945C220.916 20.7945 220.028 21.6819 220.028 22.7766C220.028 23.8713 220.916 24.7587 222.01 24.7587Z" fill="#E3E3E3"/>
<path d="M142.001 24.7587C143.095 24.7587 143.983 23.8713 143.983 22.7766C143.983 21.6819 143.095 20.7945 142.001 20.7945C140.906 20.7945 140.019 21.6819 140.019 22.7766C140.019 23.8713 140.906 24.7587 142.001 24.7587Z" fill="#E3E3E3"/>
<path d="M302.019 24.7587C303.114 24.7587 304.001 23.8713 304.001 22.7766C304.001 21.6819 303.114 20.7945 302.019 20.7945C300.925 20.7945 300.037 21.6819 300.037 22.7766C300.037 23.8713 300.925 24.7587 302.019 24.7587Z" fill="#E3E3E3"/>
<path d="M21.9841 24.7567C23.0787 24.7567 23.9662 23.8693 23.9662 22.7746C23.9662 21.6799 23.0787 20.7925 21.9841 20.7925C20.8894 20.7925 20.002 21.6799 20.002 22.7746C20.002 23.8693 20.8894 24.7567 21.9841 24.7567Z" fill="#E3E3E3"/>
<path d="M182.004 24.7567C183.098 24.7567 183.986 23.8693 183.986 22.7746C183.986 21.6799 183.098 20.7925 182.004 20.7925C180.909 20.7925 180.021 21.6799 180.021 22.7746C180.021 23.8693 180.909 24.7567 182.004 24.7567Z" fill="#E3E3E3"/>
<path d="M101.994 24.7567C103.089 24.7567 103.976 23.8693 103.976 22.7746C103.976 21.6799 103.089 20.7925 101.994 20.7925C100.899 20.7925 100.012 21.6799 100.012 22.7746C100.012 23.8693 100.899 24.7567 101.994 24.7567Z" fill="#E3E3E3"/>
<path d="M262.013 24.7567C263.108 24.7567 263.995 23.8693 263.995 22.7746C263.995 21.6799 263.108 20.7925 262.013 20.7925C260.919 20.7925 260.031 21.6799 260.031 22.7746C260.031 23.8693 260.919 24.7567 262.013 24.7567Z" fill="#E3E3E3"/>
<path d="M81.9889 24.6786C83.0836 24.6786 83.971 23.7911 83.971 22.6965C83.971 21.6018 83.0836 20.7144 81.9889 20.7144C80.8943 20.7144 80.0068 21.6018 80.0068 22.6965C80.0068 23.7911 80.8943 24.6786 81.9889 24.6786Z" fill="#E3E3E3"/>
<path d="M242.008 24.6786C243.103 24.6786 243.991 23.7911 243.991 22.6965C243.991 21.6018 243.103 20.7144 242.008 20.7144C240.914 20.7144 240.026 21.6018 240.026 22.6965C240.026 23.7911 240.914 24.6786 242.008 24.6786Z" fill="#E3E3E3"/>
<path d="M161.999 24.6786C163.093 24.6786 163.981 23.7911 163.981 22.6965C163.981 21.6018 163.093 20.7144 161.999 20.7144C160.904 20.7144 160.017 21.6018 160.017 22.6965C160.017 23.7911 160.904 24.6786 161.999 24.6786Z" fill="#E3E3E3"/>
<path d="M322.018 24.6786C323.113 24.6786 324 23.7911 324 22.6965C324 21.6018 323.113 20.7144 322.018 20.7144C320.924 20.7144 320.036 21.6018 320.036 22.6965C320.036 23.7911 320.924 24.6786 322.018 24.6786Z" fill="#E3E3E3"/>
<path d="M41.985 24.7545C43.0797 24.7545 43.9671 23.8671 43.9671 22.7724C43.9671 21.6777 43.0797 20.7903 41.985 20.7903C40.8903 20.7903 40.0029 21.6777 40.0029 22.7724C40.0029 23.8671 40.8903 24.7545 41.985 24.7545Z" fill="#E3E3E3"/>
<path d="M202.004 24.7545C203.098 24.7545 203.986 23.8671 203.986 22.7724C203.986 21.6777 203.098 20.7903 202.004 20.7903C200.909 20.7903 200.021 21.6777 200.021 22.7724C200.021 23.8671 200.909 24.7545 202.004 24.7545Z" fill="#E3E3E3"/>
<path d="M121.994 24.7545C123.089 24.7545 123.976 23.8671 123.976 22.7724C123.976 21.6777 123.089 20.7903 121.994 20.7903C120.899 20.7903 120.012 21.6777 120.012 22.7724C120.012 23.8671 120.899 24.7545 121.994 24.7545Z" fill="#E3E3E3"/>
<path d="M282.013 24.7545C283.108 24.7545 283.995 23.8671 283.995 22.7724C283.995 21.6777 283.108 20.7903 282.013 20.7903C280.919 20.7903 280.031 21.6777 280.031 22.7724C280.031 23.8671 280.919 24.7545 282.013 24.7545Z" fill="#E3E3E3"/>
</svg>
