<svg viewBox="0 0 22 22" fill="none" xmlns="http://www.w3.org/2000/svg">
<path d="M6.10245 21C6.42783 21 6.75321 20.9132 7.07859 20.7397L11.0482 18.5488L15.0179 20.7397C15.4083 20.9566 15.8638 21.0434 16.2977 20.9566C17.3823 20.7831 18.1198 19.7419 17.9463 18.6573L17.1654 13.8633L20.4842 10.5011C20.7879 10.1974 20.9615 9.82863 21.0265 9.39479C21.1133 8.87419 20.9831 8.33189 20.6578 7.89805C20.3324 7.46421 19.8769 7.18221 19.3562 7.09545L14.8877 6.44469L12.8703 2.14967C12.5233 1.45553 11.8291 1 11.0482 1C10.2673 1 9.57316 1.45553 9.22609 2.14967L7.20874 6.44469L2.74019 7.13883C2.32804 7.20391 1.93759 7.39913 1.6339 7.68113C0.852991 8.46204 0.831299 9.72017 1.61221 10.5228L4.90939 13.885L4.12848 18.679C4.0634 19.1128 4.12848 19.59 4.3454 19.9805C4.71416 20.6312 5.40831 21 6.10245 21ZM11.0482 17.6377L6.68813 20.0672C6.10245 20.3926 5.38661 20.1757 5.06123 19.59C4.93108 19.3514 4.8877 19.0911 4.93108 18.8091L5.77707 13.6247L2.19789 9.95879C1.74236 9.48156 1.74236 8.72234 2.21959 8.26681C2.39312 8.09328 2.63173 7.98482 2.87035 7.94143L7.77273 7.18221L9.96362 2.49675C10.1588 2.0846 10.5927 1.8026 11.0482 1.8026C11.5038 1.8026 11.9376 2.06291 12.1328 2.49675L14.3237 7.16052L19.2261 7.89805C19.5515 7.94143 19.8118 8.11497 20.007 8.37527C20.2022 8.63558 20.2673 8.93926 20.2239 9.26464C20.1805 9.50325 20.0721 9.74187 19.8985 9.9154L16.3194 13.603L17.1654 18.7874C17.2738 19.4382 16.8183 20.0672 16.1675 20.154C15.9072 20.1974 15.6252 20.154 15.3866 20.0239L11.0482 17.6377Z" fill="black" stroke="black" stroke-width="0.4"/>
</svg>
