<svg width="28" height="28" viewBox="0 0 28 28" fill="none" xmlns="http://www.w3.org/2000/svg">
<path d="M19.4337 10.3556C18.0691 10.3556 16.959 9.24541 16.959 7.88086C16.959 7.67049 16.7884 7.5 16.5781 7.5H14.5384C14.328 7.5 14.1575 7.67049 14.1575 7.88086V16.2437C14.1575 17.0459 13.5049 17.6985 12.7026 17.6985C11.9004 17.6985 11.2478 17.0459 11.2478 16.2437C11.2478 15.4414 11.9004 14.7888 12.7026 14.7888C12.913 14.7888 13.0835 14.6183 13.0835 14.4079V12.3682C13.0835 12.1579 12.913 11.9873 12.7026 11.9873C10.3556 11.9873 8.44629 13.8968 8.44629 16.2437C8.44629 18.5906 10.3556 20.5 12.7026 20.5C15.0495 20.5 16.959 18.5906 16.959 16.2437V12.5419C17.717 12.9461 18.5605 13.1571 19.4337 13.1571C19.6441 13.1571 19.8145 12.9866 19.8145 12.7762V10.7364C19.8145 10.5261 19.6441 10.3556 19.4337 10.3556ZM19.0528 12.3796C18.2397 12.3119 17.4676 12.0279 16.8005 11.548C16.6846 11.4645 16.5316 11.453 16.4044 11.5183C16.2772 11.5833 16.1973 11.7142 16.1973 11.8572V16.2437C16.1973 18.1706 14.6295 19.7383 12.7026 19.7383C10.7757 19.7383 9.20801 18.1706 9.20801 16.2437C9.20801 14.4454 10.5733 12.96 12.3217 12.7696V14.0598C11.2803 14.2409 10.4861 15.1512 10.4861 16.2437C10.4861 17.4659 11.4804 18.4603 12.7026 18.4603C13.9249 18.4603 14.9192 17.4659 14.9192 16.2437V8.26172H16.2195C16.394 9.74251 17.572 10.9206 19.0528 11.0951V12.3796Z" fill="black" stroke="white" stroke-width="0.2"/>
<path d="M4.94238 27H23.3252C25.4253 27 27.1338 25.2915 27.1338 23.1914V4.80859C27.1338 2.70851 25.4253 1 23.3252 1H4.94238C2.8423 1 1.13379 2.70851 1.13379 4.80859V23.1914C1.13379 25.2915 2.8423 27 4.94238 27ZM2.65723 4.80859C2.65723 3.54858 3.68237 2.52344 4.94238 2.52344H23.3252C24.5852 2.52344 25.6104 3.54858 25.6104 4.80859V23.1914C25.6104 24.4514 24.5852 25.4766 23.3252 25.4766H4.94238C3.68237 25.4766 2.65723 24.4514 2.65723 23.1914V4.80859Z" fill="black" stroke="white" stroke-width="0.8"/>
</svg>
