<svg width="127" height="488" viewBox="0 0 127 488" fill="none" xmlns="http://www.w3.org/2000/svg">
<path d="M120.472 2.98439C120.472 4.63262 121.808 5.96878 123.456 5.96878C125.104 5.96878 126.44 4.63262 126.44 2.98439C126.44 1.33616 125.104 -5.84052e-08 123.456 -1.30452e-07C121.808 -2.02498e-07 120.472 1.33616 120.472 2.98439Z" fill="white"/>
<path d="M120.471 243.92C120.471 245.568 121.807 246.904 123.455 246.904C125.103 246.904 126.439 245.568 126.439 243.92C126.439 242.272 125.103 240.936 123.455 240.936C121.807 240.936 120.471 242.272 120.471 243.92Z" fill="white"/>
<path d="M120.471 123.451C120.471 125.099 121.807 126.436 123.455 126.436C125.103 126.436 126.439 125.099 126.439 123.451C126.439 121.803 125.103 120.467 123.455 120.467C121.807 120.467 120.471 121.803 120.471 123.451Z" fill="white"/>
<path d="M120.471 364.389C120.471 366.037 121.807 367.373 123.455 367.373C125.103 367.373 126.439 366.037 126.439 364.389C126.439 362.74 125.103 361.404 123.455 361.404C121.807 361.404 120.471 362.74 120.471 364.389Z" fill="white"/>
<path d="M120.353 93.3379C120.353 94.9861 121.69 96.3223 123.338 96.3223C124.986 96.3223 126.322 94.9861 126.322 93.3379C126.322 91.6897 124.986 90.3535 123.338 90.3535C121.69 90.3535 120.353 91.6897 120.353 93.3379Z" fill="white"/>
<path d="M120.353 334.273C120.353 335.922 121.69 337.258 123.338 337.258C124.986 337.258 126.322 335.922 126.322 334.273C126.322 332.625 124.986 331.289 123.338 331.289C121.69 331.289 120.353 332.625 120.353 334.273Z" fill="white"/>
<path d="M120.353 213.807C120.353 215.455 121.69 216.791 123.338 216.791C124.986 216.791 126.322 215.455 126.322 213.807C126.322 212.158 124.986 210.822 123.338 210.822C121.69 210.822 120.353 212.158 120.353 213.807Z" fill="white"/>
<path d="M120.353 454.742C120.353 456.39 121.69 457.727 123.338 457.727C124.986 457.727 126.322 456.39 126.322 454.742C126.322 453.094 124.986 451.758 123.338 451.758C121.69 451.758 120.353 453.094 120.353 454.742Z" fill="white"/>
<path d="M120.471 63.2149C120.471 64.8631 121.807 66.1992 123.455 66.1992C125.103 66.1992 126.439 64.8631 126.439 63.2149C126.439 61.5666 125.103 60.2305 123.455 60.2305C121.807 60.2305 120.471 61.5666 120.471 63.2149Z" fill="white"/>
<path d="M120.471 304.15C120.471 305.799 121.807 307.135 123.455 307.135C125.103 307.135 126.439 305.799 126.439 304.15C126.439 302.502 125.103 301.166 123.455 301.166C121.807 301.166 120.471 302.502 120.471 304.15Z" fill="white"/>
<path d="M120.471 183.684C120.471 185.332 121.807 186.668 123.455 186.668C125.103 186.668 126.439 185.332 126.439 183.684C126.439 182.035 125.103 180.699 123.455 180.699C121.807 180.699 120.471 182.035 120.471 183.684Z" fill="white"/>
<path d="M120.471 424.619C120.471 426.267 121.807 427.604 123.455 427.604C125.103 427.604 126.439 426.267 126.439 424.619C126.439 422.971 125.103 421.635 123.455 421.635C121.807 421.635 120.471 422.971 120.471 424.619Z" fill="white"/>
<path d="M120.356 33.1016C120.356 34.7498 121.693 36.086 123.341 36.086C124.989 36.086 126.325 34.7498 126.325 33.1016C126.325 31.4533 124.989 30.1172 123.341 30.1172C121.693 30.1172 120.356 31.4533 120.356 33.1016Z" fill="white"/>
<path d="M120.356 274.037C120.356 275.685 121.693 277.022 123.341 277.022C124.989 277.022 126.325 275.685 126.325 274.037C126.325 272.389 124.989 271.053 123.341 271.053C121.693 271.053 120.356 272.389 120.356 274.037Z" fill="white"/>
<path d="M120.356 153.568C120.356 155.217 121.693 156.553 123.341 156.553C124.989 156.553 126.325 155.217 126.325 153.568C126.325 151.92 124.989 150.584 123.341 150.584C121.693 150.584 120.356 151.92 120.356 153.568Z" fill="white"/>
<path d="M120.356 394.504C120.356 396.152 121.693 397.488 123.341 397.488C124.989 397.488 126.325 396.152 126.325 394.504C126.325 392.856 124.989 391.52 123.341 391.52C121.693 391.52 120.356 392.856 120.356 394.504Z" fill="white"/>
<path d="M120.474 123.449C120.474 125.097 121.81 126.434 123.458 126.434C125.106 126.434 126.442 125.097 126.442 123.449C126.442 121.801 125.106 120.465 123.458 120.465C121.81 120.465 120.474 121.801 120.474 123.449Z" fill="white"/>
<path d="M120.474 364.385C120.474 366.033 121.81 367.369 123.458 367.369C125.106 367.369 126.442 366.033 126.442 364.385C126.442 362.737 125.106 361.4 123.458 361.4C121.81 361.4 120.474 362.737 120.474 364.385Z" fill="white"/>
<path d="M120.474 243.916C120.474 245.564 121.81 246.9 123.458 246.9C125.106 246.9 126.442 245.564 126.442 243.916C126.442 242.268 125.106 240.932 123.458 240.932C121.81 240.932 120.474 242.268 120.474 243.916Z" fill="white"/>
<path d="M120.474 484.852C120.474 486.5 121.81 487.836 123.458 487.836C125.106 487.836 126.442 486.5 126.442 484.852C126.442 483.203 125.106 481.867 123.458 481.867C121.81 481.867 120.474 483.203 120.474 484.852Z" fill="white"/>
<path d="M60.3515 2.98439C60.3515 4.63262 61.6877 5.96877 63.3359 5.96877C64.9842 5.96877 66.3203 4.63262 66.3203 2.98439C66.3203 1.33616 64.9842 -5.84053e-08 63.3359 -1.30452e-07C61.6877 -2.02498e-07 60.3515 1.33616 60.3515 2.98439Z" fill="white"/>
<path d="M60.3515 243.92C60.3515 245.568 61.6877 246.904 63.3359 246.904C64.9842 246.904 66.3203 245.568 66.3203 243.92C66.3203 242.272 64.9842 240.936 63.3359 240.936C61.6877 240.936 60.3515 242.272 60.3515 243.92Z" fill="white"/>
<path d="M60.3515 123.451C60.3515 125.099 61.6877 126.436 63.3359 126.436C64.9842 126.436 66.3203 125.099 66.3203 123.451C66.3203 121.803 64.9842 120.467 63.3359 120.467C61.6877 120.467 60.3515 121.803 60.3515 123.451Z" fill="white"/>
<path d="M60.3515 364.389C60.3515 366.037 61.6877 367.373 63.3359 367.373C64.9842 367.373 66.3203 366.037 66.3203 364.389C66.3203 362.74 64.9842 361.404 63.3359 361.404C61.6877 361.404 60.3515 362.74 60.3515 364.389Z" fill="white"/>
<path d="M60.2334 93.3379C60.2334 94.9861 61.5695 96.3223 63.2178 96.3223C64.866 96.3223 66.2021 94.9861 66.2021 93.3379C66.2021 91.6897 64.866 90.3535 63.2178 90.3535C61.5695 90.3535 60.2334 91.6897 60.2334 93.3379Z" fill="white"/>
<path d="M60.2334 334.273C60.2334 335.922 61.5695 337.258 63.2178 337.258C64.866 337.258 66.2021 335.922 66.2021 334.273C66.2021 332.625 64.866 331.289 63.2178 331.289C61.5695 331.289 60.2334 332.625 60.2334 334.273Z" fill="white"/>
<path d="M60.2334 213.807C60.2334 215.455 61.5695 216.791 63.2178 216.791C64.866 216.791 66.2021 215.455 66.2021 213.807C66.2021 212.158 64.866 210.822 63.2178 210.822C61.5695 210.822 60.2334 212.158 60.2334 213.807Z" fill="white"/>
<path d="M60.2334 454.742C60.2334 456.39 61.5695 457.727 63.2178 457.727C64.866 457.727 66.2021 456.39 66.2021 454.742C66.2021 453.094 64.866 451.758 63.2178 451.758C61.5695 451.758 60.2334 453.094 60.2334 454.742Z" fill="white"/>
<path d="M60.2363 33.1016C60.2363 34.7498 61.5725 36.086 63.2207 36.086C64.8689 36.086 66.2051 34.7498 66.2051 33.1016C66.2051 31.4533 64.8689 30.1172 63.2207 30.1172C61.5725 30.1172 60.2363 31.4533 60.2363 33.1016Z" fill="white"/>
<path d="M60.2363 274.037C60.2363 275.685 61.5725 277.022 63.2207 277.022C64.8689 277.022 66.2051 275.685 66.2051 274.037C66.2051 272.389 64.8689 271.053 63.2207 271.053C61.5725 271.053 60.2363 272.389 60.2363 274.037Z" fill="white"/>
<path d="M60.2363 153.568C60.2363 155.217 61.5725 156.553 63.2207 156.553C64.8689 156.553 66.2051 155.217 66.2051 153.568C66.2051 151.92 64.8689 150.584 63.2207 150.584C61.5725 150.584 60.2363 151.92 60.2363 153.568Z" fill="white"/>
<path d="M60.2363 394.504C60.2363 396.152 61.5725 397.488 63.2207 397.488C64.8689 397.488 66.2051 396.152 66.2051 394.504C66.2051 392.856 64.8689 391.52 63.2207 391.52C61.5725 391.52 60.2363 392.856 60.2363 394.504Z" fill="white"/>
<path d="M60.3545 123.449C60.3545 125.097 61.6906 126.434 63.3389 126.434C64.9871 126.434 66.3232 125.097 66.3232 123.449C66.3232 121.801 64.9871 120.465 63.3389 120.465C61.6906 120.465 60.3545 121.801 60.3545 123.449Z" fill="white"/>
<path d="M60.3545 364.385C60.3545 366.033 61.6906 367.369 63.3389 367.369C64.9871 367.369 66.3232 366.033 66.3232 364.385C66.3232 362.737 64.9871 361.4 63.3389 361.4C61.6906 361.4 60.3545 362.737 60.3545 364.385Z" fill="white"/>
<path d="M60.3545 243.916C60.3545 245.564 61.6906 246.9 63.3389 246.9C64.9871 246.9 66.3232 245.564 66.3232 243.916C66.3232 242.268 64.9871 240.932 63.3389 240.932C61.6906 240.932 60.3545 242.268 60.3545 243.916Z" fill="white"/>
<path d="M60.3545 484.852C60.3545 486.5 61.6906 487.836 63.3389 487.836C64.9871 487.836 66.3232 486.5 66.3232 484.852C66.3232 483.203 64.9871 481.867 63.3389 481.867C61.6906 481.867 60.3545 483.203 60.3545 484.852Z" fill="white"/>
<path d="M60.2363 63.2188C60.2363 64.867 61.5725 66.2031 63.2207 66.2031C64.8689 66.2031 66.2051 64.867 66.2051 63.2188C66.2051 61.5705 64.8689 60.2344 63.2207 60.2344C61.5725 60.2344 60.2363 61.5705 60.2363 63.2188Z" fill="white"/>
<path d="M60.2363 304.154C60.2363 305.803 61.5725 307.139 63.2207 307.139C64.8689 307.139 66.2051 305.803 66.2051 304.154C66.2051 302.506 64.8689 301.17 63.2207 301.17C61.5725 301.17 60.2363 302.506 60.2363 304.154Z" fill="white"/>
<path d="M60.2363 183.686C60.2363 185.334 61.5725 186.67 63.2207 186.67C64.8689 186.67 66.2051 185.334 66.2051 183.686C66.2051 182.037 64.8689 180.701 63.2207 180.701C61.5725 180.701 60.2363 182.037 60.2363 183.686Z" fill="white"/>
<path d="M60.2363 424.621C60.2363 426.269 61.5725 427.605 63.2207 427.605C64.8689 427.605 66.2051 426.269 66.2051 424.621C66.2051 422.973 64.8689 421.637 63.2207 421.637C61.5725 421.637 60.2363 422.973 60.2363 424.621Z" fill="white"/>
<path d="M0.114231 2.98439C0.114231 4.63262 1.45039 5.96877 3.09862 5.96877C4.74685 5.96877 6.08301 4.63262 6.08301 2.98439C6.08301 1.33615 4.74685 -5.84053e-08 3.09862 -1.30452e-07C1.45039 -2.02498e-07 0.114232 1.33615 0.114231 2.98439Z" fill="white"/>
<path d="M0.114231 243.92C0.114231 245.568 1.45039 246.904 3.09862 246.904C4.74685 246.904 6.08301 245.568 6.08301 243.92C6.08301 242.272 4.74685 240.936 3.09862 240.936C1.45039 240.936 0.114232 242.272 0.114231 243.92Z" fill="white"/>
<path d="M0.114231 123.451C0.114231 125.099 1.45039 126.436 3.09862 126.436C4.74685 126.436 6.08301 125.099 6.08301 123.451C6.08301 121.803 4.74685 120.467 3.09862 120.467C1.45039 120.467 0.114232 121.803 0.114231 123.451Z" fill="white"/>
<path d="M0.114231 364.389C0.114231 366.037 1.45039 367.373 3.09862 367.373C4.74685 367.373 6.08301 366.037 6.08301 364.389C6.08301 362.74 4.74685 361.404 3.09862 361.404C1.45039 361.404 0.114232 362.74 0.114231 364.389Z" fill="white"/>
<path d="M-2.58797e-05 93.3379C-2.59517e-05 94.9861 1.33613 96.3223 2.98436 96.3223C4.6326 96.3223 5.96875 94.9861 5.96875 93.3379C5.96875 91.6897 4.6326 90.3535 2.98436 90.3535C1.33613 90.3535 -2.58076e-05 91.6897 -2.58797e-05 93.3379Z" fill="white"/>
<path d="M-2.58797e-05 334.273C-2.59517e-05 335.922 1.33613 337.258 2.98436 337.258C4.6326 337.258 5.96875 335.922 5.96875 334.273C5.96875 332.625 4.6326 331.289 2.98436 331.289C1.33613 331.289 -2.58076e-05 332.625 -2.58797e-05 334.273Z" fill="white"/>
<path d="M-2.58797e-05 213.807C-2.59517e-05 215.455 1.33613 216.791 2.98436 216.791C4.6326 216.791 5.96875 215.455 5.96875 213.807C5.96875 212.158 4.6326 210.822 2.98436 210.822C1.33613 210.822 -2.58076e-05 212.158 -2.58797e-05 213.807Z" fill="white"/>
<path d="M-2.58797e-05 454.742C-2.59517e-05 456.39 1.33613 457.727 2.98436 457.727C4.6326 457.727 5.96875 456.39 5.96875 454.742C5.96875 453.094 4.6326 451.758 2.98436 451.758C1.33613 451.758 -2.58076e-05 453.094 -2.58797e-05 454.742Z" fill="white"/>
<path d="M0.114231 63.2149C0.114231 64.8631 1.45039 66.1992 3.09862 66.1992C4.74685 66.1992 6.08301 64.8631 6.08301 63.2149C6.08301 61.5666 4.74685 60.2305 3.09862 60.2305C1.45039 60.2305 0.114232 61.5666 0.114231 63.2149Z" fill="white"/>
<path d="M0.114231 304.15C0.114231 305.799 1.45039 307.135 3.09862 307.135C4.74685 307.135 6.08301 305.799 6.08301 304.15C6.08301 302.502 4.74685 301.166 3.09862 301.166C1.45039 301.166 0.114232 302.502 0.114231 304.15Z" fill="white"/>
<path d="M0.114231 183.684C0.114231 185.332 1.45039 186.668 3.09862 186.668C4.74685 186.668 6.08301 185.332 6.08301 183.684C6.08301 182.035 4.74685 180.699 3.09862 180.699C1.45039 180.699 0.114232 182.035 0.114231 183.684Z" fill="white"/>
<path d="M0.114231 424.619C0.114231 426.267 1.45039 427.604 3.09862 427.604C4.74685 427.604 6.08301 426.267 6.08301 424.619C6.08301 422.971 4.74685 421.635 3.09862 421.635C1.45039 421.635 0.114232 422.971 0.114231 424.619Z" fill="white"/>
<path d="M0.00290381 33.1016C0.00290374 34.7498 1.33906 36.086 2.98729 36.086C4.63553 36.086 5.97168 34.7498 5.97168 33.1016C5.97168 31.4533 4.63553 30.1172 2.98729 30.1172C1.33906 30.1172 0.00290388 31.4533 0.00290381 33.1016Z" fill="white"/>
<path d="M0.00290381 274.037C0.00290374 275.685 1.33906 277.022 2.98729 277.022C4.63553 277.022 5.97168 275.685 5.97168 274.037C5.97168 272.389 4.63553 271.053 2.98729 271.053C1.33906 271.053 0.00290388 272.389 0.00290381 274.037Z" fill="white"/>
<path d="M0.00290381 153.568C0.00290374 155.217 1.33906 156.553 2.98729 156.553C4.63553 156.553 5.97168 155.217 5.97168 153.568C5.97168 151.92 4.63553 150.584 2.98729 150.584C1.33906 150.584 0.00290388 151.92 0.00290381 153.568Z" fill="white"/>
<path d="M0.00290381 394.504C0.00290374 396.152 1.33906 397.488 2.98729 397.488C4.63553 397.488 5.97168 396.152 5.97168 394.504C5.97168 392.856 4.63553 391.52 2.98729 391.52C1.33906 391.52 0.00290388 392.856 0.00290381 394.504Z" fill="white"/>
<path d="M0.117162 123.449C0.117162 125.097 1.45332 126.434 3.10155 126.434C4.74978 126.434 6.08594 125.097 6.08594 123.449C6.08594 121.801 4.74978 120.465 3.10155 120.465C1.45332 120.465 0.117162 121.801 0.117162 123.449Z" fill="white"/>
<path d="M0.117162 364.385C0.117162 366.033 1.45332 367.369 3.10155 367.369C4.74978 367.369 6.08594 366.033 6.08594 364.385C6.08594 362.737 4.74978 361.4 3.10155 361.4C1.45332 361.4 0.117162 362.737 0.117162 364.385Z" fill="white"/>
<path d="M0.117162 243.916C0.117162 245.564 1.45332 246.9 3.10155 246.9C4.74978 246.9 6.08594 245.564 6.08594 243.916C6.08594 242.268 4.74978 240.932 3.10155 240.932C1.45332 240.932 0.117162 242.268 0.117162 243.916Z" fill="white"/>
<path d="M0.117162 484.852C0.117162 486.5 1.45332 487.836 3.10155 487.836C4.74978 487.836 6.08594 486.5 6.08594 484.852C6.08594 483.203 4.74978 481.867 3.10155 481.867C1.45332 481.867 0.117162 483.203 0.117162 484.852Z" fill="white"/>
<path d="M28.7431 2.98439C28.7431 4.63262 30.0793 5.96878 31.7275 5.96878C33.3758 5.96878 34.7119 4.63262 34.7119 2.98439C34.7119 1.33616 33.3758 -5.84051e-08 31.7275 -1.30452e-07C30.0793 -2.02498e-07 28.7431 1.33616 28.7431 2.98439Z" fill="white"/>
<path d="M28.7431 243.92C28.7431 245.568 30.0793 246.904 31.7275 246.904C33.3758 246.904 34.7119 245.568 34.7119 243.92C34.7119 242.272 33.3758 240.936 31.7275 240.936C30.0793 240.936 28.7431 242.272 28.7431 243.92Z" fill="white"/>
<path d="M28.7431 123.451C28.7431 125.099 30.0793 126.436 31.7275 126.436C33.3758 126.436 34.7119 125.099 34.7119 123.451C34.7119 121.803 33.3758 120.467 31.7275 120.467C30.0793 120.467 28.7431 121.803 28.7431 123.451Z" fill="white"/>
<path d="M28.7431 364.389C28.7431 366.037 30.0793 367.373 31.7275 367.373C33.3758 367.373 34.7119 366.037 34.7119 364.389C34.7119 362.74 33.3758 361.404 31.7275 361.404C30.0793 361.404 28.7431 362.74 28.7431 364.389Z" fill="white"/>
<path d="M28.6289 93.3379C28.6289 94.9861 29.965 96.3223 31.6133 96.3223C33.2615 96.3223 34.5977 94.9861 34.5977 93.3379C34.5977 91.6897 33.2615 90.3535 31.6133 90.3535C29.965 90.3535 28.6289 91.6897 28.6289 93.3379Z" fill="white"/>
<path d="M28.6289 334.273C28.6289 335.922 29.965 337.258 31.6133 337.258C33.2615 337.258 34.5977 335.922 34.5977 334.273C34.5977 332.625 33.2615 331.289 31.6133 331.289C29.965 331.289 28.6289 332.625 28.6289 334.273Z" fill="white"/>
<path d="M28.6289 213.807C28.6289 215.455 29.965 216.791 31.6133 216.791C33.2615 216.791 34.5977 215.455 34.5977 213.807C34.5977 212.158 33.2615 210.822 31.6133 210.822C29.965 210.822 28.6289 212.158 28.6289 213.807Z" fill="white"/>
<path d="M28.6289 454.742C28.6289 456.39 29.965 457.727 31.6133 457.727C33.2615 457.727 34.5977 456.39 34.5977 454.742C34.5977 453.094 33.2615 451.758 31.6133 451.758C29.965 451.758 28.6289 453.094 28.6289 454.742Z" fill="white"/>
<path d="M28.6318 33.1016C28.6318 34.7498 29.968 36.086 31.6162 36.086C33.2644 36.086 34.6006 34.7498 34.6006 33.1016C34.6006 31.4533 33.2644 30.1172 31.6162 30.1172C29.968 30.1172 28.6318 31.4533 28.6318 33.1016Z" fill="white"/>
<path d="M28.6318 274.037C28.6318 275.685 29.968 277.022 31.6162 277.022C33.2644 277.022 34.6006 275.685 34.6006 274.037C34.6006 272.389 33.2644 271.053 31.6162 271.053C29.968 271.053 28.6318 272.389 28.6318 274.037Z" fill="white"/>
<path d="M28.6318 153.568C28.6318 155.217 29.968 156.553 31.6162 156.553C33.2644 156.553 34.6006 155.217 34.6006 153.568C34.6006 151.92 33.2644 150.584 31.6162 150.584C29.968 150.584 28.6318 151.92 28.6318 153.568Z" fill="white"/>
<path d="M28.6318 394.504C28.6318 396.152 29.968 397.488 31.6162 397.488C33.2644 397.488 34.6006 396.152 34.6006 394.504C34.6006 392.856 33.2644 391.52 31.6162 391.52C29.968 391.52 28.6318 392.856 28.6318 394.504Z" fill="white"/>
<path d="M28.747 123.449C28.747 125.097 30.0832 126.434 31.7314 126.434C33.3797 126.434 34.7158 125.097 34.7158 123.449C34.7158 121.801 33.3797 120.465 31.7314 120.465C30.0832 120.465 28.747 121.801 28.747 123.449Z" fill="white"/>
<path d="M28.747 364.385C28.747 366.033 30.0832 367.369 31.7314 367.369C33.3797 367.369 34.7158 366.033 34.7158 364.385C34.7158 362.737 33.3797 361.4 31.7314 361.4C30.0832 361.4 28.747 362.737 28.747 364.385Z" fill="white"/>
<path d="M28.747 243.916C28.747 245.564 30.0832 246.9 31.7314 246.9C33.3797 246.9 34.7158 245.564 34.7158 243.916C34.7158 242.268 33.3797 240.932 31.7314 240.932C30.0832 240.932 28.747 242.268 28.747 243.916Z" fill="white"/>
<path d="M28.747 484.852C28.747 486.5 30.0832 487.836 31.7314 487.836C33.3797 487.836 34.7158 486.5 34.7158 484.852C34.7158 483.203 33.3797 481.867 31.7314 481.867C30.0832 481.867 28.747 483.203 28.747 484.852Z" fill="white"/>
<path d="M28.6318 63.2188C28.6318 64.867 29.968 66.2032 31.6162 66.2032C33.2644 66.2032 34.6006 64.867 34.6006 63.2188C34.6006 61.5705 33.2644 60.2344 31.6162 60.2344C29.968 60.2344 28.6318 61.5705 28.6318 63.2188Z" fill="white"/>
<path d="M28.6318 304.154C28.6318 305.803 29.968 307.139 31.6162 307.139C33.2644 307.139 34.6006 305.803 34.6006 304.154C34.6006 302.506 33.2644 301.17 31.6162 301.17C29.968 301.17 28.6318 302.506 28.6318 304.154Z" fill="white"/>
<path d="M28.6318 183.686C28.6318 185.334 29.968 186.67 31.6162 186.67C33.2644 186.67 34.6006 185.334 34.6006 183.686C34.6006 182.037 33.2644 180.701 31.6162 180.701C29.968 180.701 28.6318 182.037 28.6318 183.686Z" fill="white"/>
<path d="M28.6318 424.621C28.6318 426.269 29.968 427.605 31.6162 427.605C33.2644 427.605 34.6006 426.269 34.6006 424.621C34.6006 422.973 33.2644 421.637 31.6162 421.637C29.968 421.637 28.6318 422.973 28.6318 424.621Z" fill="white"/>
<path d="M89.2812 2.98439C89.2812 4.63262 90.6174 5.96878 92.2656 5.96878C93.9138 5.96878 95.25 4.63262 95.25 2.98439C95.25 1.33616 93.9138 -5.84052e-08 92.2656 -1.30452e-07C90.6174 -2.02498e-07 89.2812 1.33616 89.2812 2.98439Z" fill="white"/>
<path d="M89.2812 243.92C89.2812 245.568 90.6174 246.904 92.2656 246.904C93.9138 246.904 95.25 245.568 95.25 243.92C95.25 242.272 93.9138 240.936 92.2656 240.936C90.6174 240.936 89.2812 242.272 89.2812 243.92Z" fill="white"/>
<path d="M89.2812 123.451C89.2812 125.099 90.6174 126.436 92.2656 126.436C93.9138 126.436 95.25 125.099 95.25 123.451C95.25 121.803 93.9138 120.467 92.2656 120.467C90.6174 120.467 89.2812 121.803 89.2812 123.451Z" fill="white"/>
<path d="M89.2812 364.389C89.2812 366.037 90.6174 367.373 92.2656 367.373C93.9138 367.373 95.25 366.037 95.25 364.389C95.25 362.74 93.9138 361.404 92.2656 361.404C90.6174 361.404 89.2812 362.74 89.2812 364.389Z" fill="white"/>
<path d="M89.164 93.3379C89.164 94.9861 90.5002 96.3223 92.1484 96.3223C93.7967 96.3223 95.1328 94.9861 95.1328 93.3379C95.1328 91.6897 93.7967 90.3535 92.1484 90.3535C90.5002 90.3535 89.164 91.6897 89.164 93.3379Z" fill="white"/>
<path d="M89.164 334.273C89.164 335.922 90.5002 337.258 92.1484 337.258C93.7967 337.258 95.1328 335.922 95.1328 334.273C95.1328 332.625 93.7967 331.289 92.1484 331.289C90.5002 331.289 89.164 332.625 89.164 334.273Z" fill="white"/>
<path d="M89.164 213.807C89.164 215.455 90.5002 216.791 92.1484 216.791C93.7967 216.791 95.1328 215.455 95.1328 213.807C95.1328 212.158 93.7967 210.822 92.1484 210.822C90.5002 210.822 89.164 212.158 89.164 213.807Z" fill="white"/>
<path d="M89.164 454.742C89.164 456.39 90.5002 457.727 92.1484 457.727C93.7967 457.727 95.1328 456.39 95.1328 454.742C95.1328 453.094 93.7967 451.758 92.1484 451.758C90.5002 451.758 89.164 453.094 89.164 454.742Z" fill="white"/>
<path d="M89.167 33.1016C89.167 34.7498 90.5031 36.086 92.1514 36.086C93.7996 36.086 95.1357 34.7498 95.1357 33.1016C95.1357 31.4533 93.7996 30.1172 92.1514 30.1172C90.5031 30.1172 89.167 31.4533 89.167 33.1016Z" fill="white"/>
<path d="M89.167 274.037C89.167 275.685 90.5031 277.022 92.1514 277.022C93.7996 277.022 95.1357 275.685 95.1357 274.037C95.1357 272.389 93.7996 271.053 92.1514 271.053C90.5031 271.053 89.167 272.389 89.167 274.037Z" fill="white"/>
<path d="M89.167 153.568C89.167 155.217 90.5031 156.553 92.1514 156.553C93.7996 156.553 95.1357 155.217 95.1357 153.568C95.1357 151.92 93.7996 150.584 92.1514 150.584C90.5031 150.584 89.167 151.92 89.167 153.568Z" fill="white"/>
<path d="M89.167 394.504C89.167 396.152 90.5031 397.488 92.1514 397.488C93.7996 397.488 95.1357 396.152 95.1357 394.504C95.1357 392.856 93.7996 391.52 92.1514 391.52C90.5031 391.52 89.167 392.856 89.167 394.504Z" fill="white"/>
<path d="M89.2851 123.449C89.2851 125.097 90.6213 126.434 92.2695 126.434C93.9177 126.434 95.2539 125.097 95.2539 123.449C95.2539 121.801 93.9178 120.465 92.2695 120.465C90.6213 120.465 89.2851 121.801 89.2851 123.449Z" fill="white"/>
<path d="M89.2851 364.385C89.2851 366.033 90.6213 367.369 92.2695 367.369C93.9177 367.369 95.2539 366.033 95.2539 364.385C95.2539 362.737 93.9178 361.4 92.2695 361.4C90.6213 361.4 89.2851 362.737 89.2851 364.385Z" fill="white"/>
<path d="M89.2851 243.916C89.2851 245.564 90.6213 246.9 92.2695 246.9C93.9177 246.9 95.2539 245.564 95.2539 243.916C95.2539 242.268 93.9178 240.932 92.2695 240.932C90.6213 240.932 89.2851 242.268 89.2851 243.916Z" fill="white"/>
<path d="M89.2851 484.852C89.2851 486.5 90.6213 487.836 92.2695 487.836C93.9177 487.836 95.2539 486.5 95.2539 484.852C95.2539 483.203 93.9178 481.867 92.2695 481.867C90.6213 481.867 89.2851 483.203 89.2851 484.852Z" fill="white"/>
<path d="M89.1699 63.2149C89.1699 64.8631 90.5061 66.1992 92.1543 66.1992C93.8025 66.1992 95.1387 64.8631 95.1387 63.2149C95.1387 61.5666 93.8025 60.2305 92.1543 60.2305C90.5061 60.2305 89.1699 61.5666 89.1699 63.2149Z" fill="white"/>
<path d="M89.1699 304.15C89.1699 305.799 90.5061 307.135 92.1543 307.135C93.8025 307.135 95.1387 305.799 95.1387 304.15C95.1387 302.502 93.8025 301.166 92.1543 301.166C90.5061 301.166 89.1699 302.502 89.1699 304.15Z" fill="white"/>
<path d="M89.1699 183.684C89.1699 185.332 90.5061 186.668 92.1543 186.668C93.8025 186.668 95.1387 185.332 95.1387 183.684C95.1387 182.035 93.8025 180.699 92.1543 180.699C90.5061 180.699 89.1699 182.035 89.1699 183.684Z" fill="white"/>
<path d="M89.1699 424.619C89.1699 426.267 90.5061 427.604 92.1543 427.604C93.8025 427.604 95.1387 426.267 95.1387 424.619C95.1387 422.971 93.8025 421.635 92.1543 421.635C90.5061 421.635 89.1699 422.971 89.1699 424.619Z" fill="white"/>
</svg>
