<svg width="28" height="28" viewBox="0 0 28 28" fill="none" xmlns="http://www.w3.org/2000/svg">
<path d="M22.333 9.68543C21.3108 9.73254 21.3331 9.72869 21.2176 9.73836L21.823 8.0095C21.823 8.0095 19.9333 8.70464 19.4542 8.82899C18.1961 7.69819 16.326 7.64823 14.9891 8.46995C13.8942 9.14302 13.3066 10.2989 13.5026 11.6499C11.3718 11.3542 9.57645 10.3441 8.15901 8.64141L7.71071 8.10298L7.37572 8.71815C6.95234 9.49549 6.81175 10.3843 6.97974 11.2208C7.04867 11.5639 7.16583 11.8912 7.32812 12.1977L6.94354 12.0487L6.89791 12.6913C6.85167 13.344 7.069 14.106 7.47937 14.7293C7.59492 14.9049 7.74369 15.0977 7.93226 15.2879L7.73352 15.2574L7.97602 15.9937C8.29477 16.9611 8.95681 17.7095 9.81597 18.1256C8.95793 18.4897 8.26477 18.722 7.12541 19.0968L6.08301 19.4395L7.04582 19.9659C7.41292 20.1666 8.71009 20.837 9.99177 21.0381C12.8408 21.4849 16.0485 21.121 18.2079 19.1762C20.0268 17.538 20.6236 15.2079 20.4996 12.783C20.4809 12.4159 20.5814 12.0655 20.7828 11.7966C21.1861 11.2582 22.3305 9.68902 22.333 9.68543ZM20.0214 11.2263C19.6871 11.6728 19.5196 12.243 19.5496 12.8316C19.6747 15.2776 19.0092 17.1744 17.5714 18.4692C15.8919 19.9819 13.1828 20.5756 10.1392 20.0982C9.58798 20.0118 9.0183 19.8182 8.54682 19.625C9.50206 19.2963 10.2397 19.0033 11.431 18.4395L13.0941 17.6524L11.258 17.5348C10.3785 17.4785 9.64612 17.0523 9.19596 16.3603C9.43499 16.3464 9.66547 16.3077 9.89495 16.2437L11.6461 15.756L9.88032 15.3236C9.02227 15.1134 8.53318 14.6 8.27394 14.2063C8.10372 13.9475 7.99251 13.6825 7.92581 13.4381C8.10285 13.4856 8.30927 13.5194 8.64215 13.5524L10.2766 13.7141L8.9816 12.7039C8.04855 11.9762 7.67463 10.8828 7.94875 9.83172C10.8607 12.8521 14.2798 12.6251 14.624 12.7049C14.5482 11.9691 14.5462 11.9674 14.5264 11.8973C14.0856 10.3393 15.0515 9.54818 15.4872 9.28039C16.3972 8.72113 17.8417 8.63682 18.8422 9.55823C19.0583 9.75709 19.3505 9.83532 19.624 9.76738C19.8694 9.70638 20.0709 9.64179 20.2682 9.57149L19.8575 10.7441L20.3817 10.7444C20.2828 10.8771 20.1641 11.0359 20.0214 11.2263Z" fill="black" stroke="white" stroke-width="0.4"/>
<path d="M4.47559 27H22.8584C24.9585 27 26.667 25.2915 26.667 23.1914V4.80859C26.667 2.70851 24.9585 1 22.8584 1H4.47559C2.3755 1 0.666992 2.70851 0.666992 4.80859V23.1914C0.666992 25.2915 2.3755 27 4.47559 27ZM2.19043 4.80859C2.19043 3.54858 3.21558 2.52344 4.47559 2.52344H22.8584C24.1184 2.52344 25.1436 3.54858 25.1436 4.80859V23.1914C25.1436 24.4514 24.1184 25.4766 22.8584 25.4766H4.47559C3.21558 25.4766 2.19043 24.4514 2.19043 23.1914V4.80859Z" fill="black" stroke="white" stroke-width="0.8"/>
</svg>
