<svg width="26" height="14" viewBox="0 0 26 14" fill="none" xmlns="http://www.w3.org/2000/svg">
<path d="M25.5338 6.48648C24.2905 4.86486 19.9392 0 12.8581 0C5.77703 0 1.4527 4.86486 0.182432 6.48648C-0.0608108 6.78378 -0.0608108 7.21622 0.182432 7.51352C1.42567 9.13514 5.77703 14 12.8581 14C19.9392 14 24.2635 9.13514 25.5338 7.51352C25.75 7.21622 25.75 6.78378 25.5338 6.48648ZM12.8581 12.2162C9.96621 12.2162 7.64189 9.89189 7.64189 7C7.64189 4.10811 9.96621 1.78379 12.8581 1.78379C15.75 1.78379 18.0743 4.10811 18.0743 7C18.0743 9.89189 15.75 12.2162 12.8581 12.2162Z" fill="#CBCBCB"/>
<path d="M12.8582 3.64862C12.5609 3.64862 12.2906 3.67565 12.0204 3.75674C12.4258 4.08106 12.669 4.54052 12.669 5.10809C12.669 6.05403 11.9122 6.81078 10.9663 6.81078C10.4258 6.81078 9.93927 6.56755 9.61495 6.16214C9.53387 6.43242 9.50684 6.72971 9.50684 6.99998C9.50684 8.86484 11.0204 10.3513 12.8582 10.3513C14.696 10.3513 16.2095 8.83781 16.2095 6.99998C16.2095 5.16214 14.696 3.64862 12.8582 3.64862Z" fill="#CBCBCB"/>
</svg>
