<svg width="27" height="28" viewBox="0 0 27 28" fill="none" xmlns="http://www.w3.org/2000/svg">
<path d="M21.2069 15.9309L21.1963 15.921C21.0298 15.7671 20.5198 15.2698 20.3478 15.0524C20.146 14.7813 20.1925 14.6036 20.3438 14.3374C20.535 14.0009 20.9181 13.4849 21.3235 12.9384C22.622 11.1887 23.4603 9.9774 23.2878 9.117L23.1948 8.65743L18.3994 8.65952C18.3825 8.70483 18.1323 9.80627 17.0763 11.6818C16.3106 13.0417 15.8083 13.4689 15.6314 13.5444L15.6041 13.536C15.5465 13.4648 15.4459 13.2725 15.4045 12.7768C15.3614 12.2576 15.3996 11.629 15.4367 11.0211C15.48 10.3083 15.5173 9.69268 15.4279 9.2522L15.2823 8.5346C15.1063 8.50643 14.4619 8.25734 12.6667 8.23841C11.1124 8.22246 10.6558 8.4474 10.4316 8.64566L9.69001 9.30139L10.6274 9.61741C10.9842 9.7377 11.1026 9.87648 11.1998 10.5644C11.2631 11.0128 11.2963 11.7663 11.2279 12.439C11.1295 13.4036 10.8937 13.5831 10.8815 13.5927C10.8409 13.5788 10.4965 13.4278 9.89859 12.1612C9.48381 11.2828 9.12021 10.2436 8.8545 9.48489C8.55041 8.61599 8.60515 8.80098 8.45088 8.39046L3.81152 8.39031L4.11175 9.16842C5.36338 12.4155 6.51176 14.9512 8.04859 16.7725C9.74654 18.7847 11.8567 19.8383 14.6992 19.8383H15.2705V19.2659C15.2705 18.7308 15.3147 18.3454 15.4095 18.0533C15.4673 17.8753 15.5442 17.7281 15.625 17.5739C15.7449 17.3467 15.8622 17.2494 15.9261 17.2349C15.9842 17.2216 16.0862 17.2643 16.1993 17.3488C16.5239 17.5913 16.7816 17.91 17.0544 18.2475C17.4481 18.7345 17.8551 19.2379 18.501 19.5675C18.8539 19.7475 19.5007 19.8384 19.8567 19.8384C19.9509 19.8384 23.3074 19.8383 23.3116 19.8383L23.287 19.2423C23.2504 18.3512 22.5504 17.237 21.2069 15.9309ZM19.8789 18.6935H19.8697C19.6242 18.6975 19.1557 18.6169 19.0194 18.5474C18.5901 18.3283 18.29 17.957 17.9423 17.5271C17.6372 17.1495 17.3216 16.7591 16.8823 16.431C16.527 16.1655 16.2044 16.0878 15.9482 16.0878C15.8458 16.0878 15.7539 16.1002 15.675 16.1181C15.3776 16.1852 14.9523 16.3995 14.6141 17.0404C14.5188 17.2227 14.4106 17.4291 14.323 17.6992C14.2312 17.9819 14.174 18.2959 14.1468 18.678C12.0048 18.556 10.3333 17.707 8.92115 16.0334C7.60822 14.4774 6.57529 12.3009 5.48136 9.53468C5.5605 9.53468 7.5438 9.53497 7.66089 9.53497C7.69674 9.63589 7.73542 9.7465 7.77649 9.86366C8.06287 10.6822 8.45519 11.803 8.91743 12.7588C9.57932 14.1275 10.1838 14.7379 10.8772 14.7379C11.2234 14.7379 11.5339 14.5909 11.7751 14.3126C12.1189 13.916 12.3185 13.2613 12.3855 12.311C12.4383 11.5617 12.3892 10.8153 12.3312 10.404C12.2833 10.0656 12.215 9.71042 12.0484 9.39217C12.7585 9.36012 13.7093 9.4108 14.3117 9.49741C14.3664 9.79613 14.3307 10.3833 14.2962 10.9514C14.2127 12.3237 14.1266 13.7398 14.8516 14.4024C14.9791 14.5189 15.1143 14.5814 15.1182 14.5839L15.4871 14.6974C15.6295 14.6534 16.4541 15.0726 18.0157 12.3422C18.516 11.4673 18.9818 10.4592 19.2326 9.80076C19.8143 9.79956 21.7962 9.8018 22.029 9.8021C21.6992 10.5294 20.9175 11.5667 20.4066 12.2552C19.9612 12.8554 19.5766 13.3737 19.3509 13.7708C18.9317 14.5085 19.0022 15.166 19.4388 15.746L19.4457 15.755C19.6894 16.0658 20.2912 16.6412 20.416 16.7571C21.3202 17.6368 21.756 18.2687 21.9634 18.6933H19.8789V18.6935Z" fill="black" stroke="white" stroke-width="0.6"/>
<path d="M4.4082 27H22.791C24.8911 27 26.5996 25.2915 26.5996 23.1914V4.80859C26.5996 2.70851 24.8911 1 22.791 1H4.4082C2.30812 1 0.599609 2.70851 0.599609 4.80859V23.1914C0.599609 25.2915 2.30812 27 4.4082 27ZM2.12305 4.80859C2.12305 3.54858 3.14819 2.52344 4.4082 2.52344H22.791C24.051 2.52344 25.0762 3.54858 25.0762 4.80859V23.1914C25.0762 24.4514 24.051 25.4766 22.791 25.4766H4.4082C3.14819 25.4766 2.12305 24.4514 2.12305 23.1914V4.80859Z" fill="black" stroke="white" stroke-width="0.8"/>
</svg>
