<svg width="28" height="28" viewBox="0 0 28 28" fill="none" xmlns="http://www.w3.org/2000/svg">
<path d="M10.8164 8.89691V19.2511L19.9824 13.9891L10.8164 8.89691ZM12.3398 11.486L16.8848 14.0109L12.3398 16.62V11.486Z" fill="black" stroke="white" stroke-width="0.8"/>
<path d="M4.875 27H23.2578C25.3579 27 27.0664 25.2915 27.0664 23.1914V4.80859C27.0664 2.70851 25.3579 1 23.2578 1H4.875C2.77492 1 1.06641 2.70851 1.06641 4.80859V23.1914C1.06641 25.2915 2.77492 27 4.875 27ZM2.58984 4.80859C2.58984 3.54858 3.61499 2.52344 4.875 2.52344H23.2578C24.5178 2.52344 25.543 3.54858 25.543 4.80859V23.1914C25.543 24.4514 24.5178 25.4766 23.2578 25.4766H4.875C3.61499 25.4766 2.58984 24.4514 2.58984 23.1914V4.80859Z" fill="black" stroke="white" stroke-width="0.8"/>
</svg>
